<?xml version="1.0" encoding="utf-8"?>
<!-- Generator: Adobe Illustrator 16.0.3, SVG Export Plug-In . SVG Version: 6.00 Build 0)  -->
<!DOCTYPE svg PUBLIC "-//W3C//DTD SVG 1.1//EN" "http://www.w3.org/Graphics/SVG/1.1/DTD/svg11.dtd">
<svg version="1.1" id="Capa_1" xmlns="http://www.w3.org/2000/svg" xmlns:xlink="http://www.w3.org/1999/xlink" x="0px" y="0px"
	 width="841.889px" height="595.281px" viewBox="0 0 841.889 595.281" enable-background="new 0 0 841.889 595.281"
	 xml:space="preserve">
<g id="Layer_1">
	<g id="Layer_2_1_">
	</g>
</g>
<g>
	<path fill="#C6C6C6" d="M738.45,120.343c-5.521,0-10.543-1.137-15.072-3.413c-4.529-2.275-8.434-5.715-11.714-10.325
		c-3.28-4.607-5.806-10.382-7.575-17.325c-1.771-6.94-2.654-15.077-2.654-24.413c0-10.032,1.039-18.55,3.123-25.55
		c2.082-7,4.842-12.715,8.277-17.15c3.437-4.433,7.365-7.64,11.793-9.625c4.424-1.982,9.031-2.975,13.822-2.975
		c4.787,0,9.422,1.022,13.9,3.063c4.475,2.042,8.434,5.28,11.869,9.712c3.437,4.435,6.193,10.15,8.277,17.15
		c2.082,7,3.125,15.46,3.125,25.375c0,9.335-0.887,17.473-2.656,24.413c-1.771,6.943-4.295,12.718-7.574,17.325
		c-3.28,4.61-7.211,8.05-11.792,10.325C749.017,119.206,743.968,120.343,738.45,120.343z M762.815,64.868
		c0-7.814-0.651-14.465-1.952-19.95c-1.303-5.482-3.046-9.975-5.232-13.475s-4.764-6.038-7.73-7.612
		c-2.969-1.575-6.119-2.363-9.449-2.363c-3.334,0-6.458,0.848-9.371,2.538c-2.917,1.692-5.467,4.288-7.654,7.788
		c-2.186,3.5-3.931,7.993-5.231,13.475c-1.304,5.485-1.952,12.018-1.952,19.6c0,14.118,2.108,24.91,6.325,32.375
		c4.218,7.468,10.177,11.2,17.884,11.2c7.809,0,13.822-3.732,18.039-11.2C760.706,89.778,762.815,78.986,762.815,64.868z"/>
	<path fill="#DA2037" d="M789.522,35.818c-1.354-0.583-2.475-1.458-3.358-2.625c-0.885-1.165-1.327-2.625-1.327-4.375
		c0-1.865,0.415-3.382,1.249-4.55c0.832-1.165,2.289-2.215,4.373-3.15l21.866-10.675h2.968c2.082,0,3.748,0.7,4.998,2.1
		c1.249,1.4,1.874,3.268,1.874,5.6v100.1c-0.625,0.232-1.46,0.495-2.499,0.788c-1.042,0.29-2.187,0.438-3.436,0.438
		c-4.479,0-6.717-2.157-6.717-6.475V25.318L789.522,35.818z"/>
</g>
<g>
</g>
</svg>
