<?xml version="1.0" encoding="utf-8"?>
<!-- Generator: Adobe Illustrator 16.0.3, SVG Export Plug-In . SVG Version: 6.00 Build 0)  -->
<!DOCTYPE svg PUBLIC "-//W3C//DTD SVG 1.1//EN" "http://www.w3.org/Graphics/SVG/1.1/DTD/svg11.dtd">
<svg version="1.1" id="Capa_1" xmlns="http://www.w3.org/2000/svg" xmlns:xlink="http://www.w3.org/1999/xlink" x="0px" y="0px"
	 width="841.889px" height="595.281px" viewBox="0 0 841.889 595.281" enable-background="new 0 0 841.889 595.281"
	 xml:space="preserve">
<g id="Layer_1">
	<g id="Layer_2_1_">
	</g>
</g>
<g>
</g>
<g>
</g>
<g>
	<path fill="#DA2037" d="M10.853,440.958c-1.256-1.407-1.884-3.281-1.884-5.628v-91.451c0-2.344,0.628-4.221,1.884-5.628
		c1.255-1.407,2.928-2.11,5.022-2.11h52.111c0.313,0.588,0.627,1.379,0.941,2.374c0.314,0.997,0.471,2.083,0.471,3.253
		c0,1.996-0.419,3.578-1.256,4.749c-0.839,1.173-2.041,1.759-3.61,1.759h-42.85v33.942H63.12c0.314,0.589,0.628,1.38,0.942,2.374
		c0.314,0.998,0.471,2.083,0.471,3.254c0,1.995-0.419,3.547-1.256,4.66c-0.839,1.116-2.041,1.671-3.61,1.671H21.683v36.933h47.088
		c0.314,0.588,0.628,1.35,0.942,2.286c0.313,0.94,0.471,2.053,0.471,3.342c0,1.995-0.419,3.548-1.256,4.66
		c-0.839,1.116-2.041,1.671-3.61,1.671H15.876C13.781,443.068,12.109,442.365,10.853,440.958z"/>
	<path fill="#DA2037" d="M99.219,443.947c-4.605,0-6.906-2.109-6.906-6.331v-99.365c1.884-2.11,4.709-3.166,8.476-3.166
		c2.511,0,4.655,0.558,6.435,1.671c1.778,1.115,3.399,3.139,4.866,6.067l29.979,56.278c1.255,2.462,2.563,5.072,3.924,7.826
		c1.359,2.756,2.668,5.512,3.924,8.266c1.256,2.756,2.433,5.336,3.532,7.738c1.099,2.404,2.014,4.427,2.747,6.067l0.627-0.176
		c-0.838-9.497-1.334-19.052-1.491-28.667c-0.157-9.612-0.236-18.994-0.236-28.139v-35.525c0.628-0.234,1.464-0.498,2.512-0.791
		c1.044-0.292,2.197-0.44,3.453-0.44c4.603,0,6.906,2.11,6.906,6.331v99.542c-0.942,0.94-2.146,1.671-3.61,2.198
		c-1.466,0.527-3.087,0.791-4.866,0.791c-2.511,0-4.657-0.557-6.435-1.67c-1.781-1.113-3.402-3.136-4.866-6.068l-29.822-56.277
		c-1.255-2.344-2.59-4.924-4.002-7.738s-2.773-5.567-4.081-8.266c-1.31-2.695-2.512-5.276-3.61-7.738
		c-1.099-2.463-2.016-4.512-2.747-6.155l-0.628,0.176c0.522,5.628,0.942,12.047,1.256,19.257c0.314,7.211,0.471,14.043,0.471,20.489
		v52.585c-0.525,0.236-1.334,0.497-2.433,0.791C101.495,443.799,100.37,443.947,99.219,443.947z"/>
	<path fill="#DA2037" d="M265.594,347.924c0,1.643-0.446,3.05-1.334,4.221c-0.89,1.174-1.911,2.053-3.061,2.638
		c-2.723-2.11-5.913-4.103-9.575-5.979c-3.664-1.874-8.424-2.814-14.283-2.814c-4.814,0-9.261,0.94-13.342,2.814
		c-4.081,1.877-7.639,4.633-10.673,8.266c-3.037,3.636-5.416,8.209-7.142,13.719c-1.727,5.512-2.59,11.843-2.59,18.993
		c0,7.271,0.836,13.603,2.512,18.993c1.672,5.395,4.002,9.91,6.984,13.543c2.982,3.635,6.565,6.361,10.752,8.178
		c4.184,1.818,8.841,2.726,13.969,2.726c5.44,0,10.175-0.849,14.205-2.55c4.027-1.699,7.401-3.721,10.124-6.068
		c1.045,0.471,2.041,1.32,2.982,2.551s1.413,2.668,1.413,4.309c0,2.463-1.256,4.691-3.767,6.684
		c-2.408,1.877-5.705,3.547-9.888,5.012c-4.187,1.465-9.523,2.198-16.01,2.198c-6.592,0-12.713-1.173-18.364-3.517
		c-5.65-2.345-10.543-5.832-14.675-10.465c-4.135-4.631-7.404-10.404-9.81-17.322c-2.408-6.918-3.61-15.008-3.61-24.271
		c0-9.261,1.229-17.381,3.689-24.358c2.457-6.974,5.78-12.808,9.967-17.498c4.184-4.688,9.077-8.205,14.676-10.553
		c5.596-2.344,11.482-3.518,17.658-3.518c4.29,0,8.24,0.412,11.851,1.231c3.61,0.821,6.695,1.907,9.26,3.254
		c2.563,1.349,4.552,2.874,5.965,4.572C264.888,344.612,265.594,346.283,265.594,347.924z"/>
	<path fill="#DA2037" d="M359.848,422.316c-1.624,4.809-4.029,8.911-7.22,12.311c-3.193,3.402-7.09,6.039-11.694,7.914
		c-4.605,1.874-9.888,2.813-15.853,2.813c-5.965,0-11.25-0.939-15.853-2.813c-4.606-1.875-8.476-4.512-11.615-7.914
		c-3.139-3.399-5.521-7.502-7.142-12.311c-1.624-4.807-2.433-10.201-2.433-16.181v-69.644c0.522-0.234,1.334-0.498,2.433-0.791
		c1.099-0.292,2.276-0.44,3.532-0.44c4.498,0,6.75,2.171,6.75,6.507v63.137c0,4.691,0.627,8.794,1.883,12.312
		c1.256,3.517,2.955,6.479,5.101,8.882c2.144,2.404,4.709,4.193,7.691,5.363c2.982,1.174,6.2,1.759,9.653,1.759
		s6.67-0.585,9.653-1.759c2.982-1.17,5.545-2.959,7.691-5.363c2.144-2.402,3.846-5.365,5.101-8.882
		c1.256-3.518,1.884-7.62,1.884-12.312v-68.412c0.522-0.234,1.334-0.498,2.433-0.791c1.099-0.292,2.276-0.44,3.532-0.44
		c4.604,0,6.906,2.171,6.906,6.507v64.368C362.281,412.115,361.469,417.51,359.848,422.316z"/>
	<path fill="#DA2037" d="M391.945,440.958c-1.256-1.407-1.884-3.281-1.884-5.628v-91.451c0-2.344,0.628-4.221,1.884-5.628
		c1.255-1.407,2.928-2.11,5.022-2.11h52.11c0.314,0.588,0.628,1.379,0.942,2.374c0.313,0.997,0.471,2.083,0.471,3.253
		c0,1.996-0.42,3.578-1.256,4.749c-0.839,1.173-2.04,1.759-3.61,1.759h-42.85v33.942h41.438c0.313,0.589,0.628,1.38,0.941,2.374
		c0.314,0.998,0.471,2.083,0.471,3.254c0,1.995-0.419,3.547-1.256,4.66c-0.838,1.116-2.04,1.671-3.609,1.671h-37.984v36.933h47.088
		c0.313,0.588,0.628,1.35,0.941,2.286c0.314,0.94,0.471,2.053,0.471,3.342c0,1.995-0.419,3.548-1.255,4.66
		c-0.839,1.116-2.041,1.671-3.61,1.671h-49.442C394.873,443.068,393.2,442.365,391.945,440.958z"/>
	<path fill="#DA2037" d="M480.312,443.947c-4.606,0-6.906-2.109-6.906-6.331v-99.365c1.883-2.11,4.708-3.166,8.476-3.166
		c2.511,0,4.654,0.558,6.436,1.671c1.777,1.115,3.398,3.139,4.865,6.067l29.979,56.278c1.256,2.462,2.563,5.072,3.924,7.826
		c1.358,2.756,2.668,5.512,3.924,8.266c1.256,2.756,2.433,5.336,3.532,7.738c1.099,2.404,2.013,4.427,2.746,6.067l0.628-0.176
		c-0.839-9.497-1.334-19.052-1.491-28.667c-0.156-9.612-0.235-18.994-0.235-28.139v-35.525c0.628-0.234,1.464-0.498,2.512-0.791
		c1.045-0.292,2.197-0.44,3.453-0.44c4.604,0,6.906,2.11,6.906,6.331v99.542c-0.942,0.94-2.146,1.671-3.61,2.198
		c-1.467,0.527-3.088,0.791-4.865,0.791c-2.512,0-4.658-0.557-6.436-1.67c-1.78-1.113-3.401-3.136-4.866-6.068l-29.822-56.277
		c-1.256-2.344-2.59-4.924-4.002-7.738c-1.413-2.814-2.774-5.567-4.081-8.266c-1.31-2.695-2.512-5.276-3.61-7.738
		c-1.099-2.463-2.016-4.512-2.747-6.155l-0.628,0.176c0.522,5.628,0.942,12.047,1.256,19.257c0.314,7.211,0.471,14.043,0.471,20.489
		v52.585c-0.524,0.236-1.334,0.497-2.433,0.791C482.587,443.799,481.461,443.947,480.312,443.947z"/>
	<path fill="#DA2037" d="M610.428,348.275v94.441c-0.524,0.236-1.334,0.497-2.433,0.791c-1.099,0.291-2.225,0.439-3.375,0.439
		c-4.605,0-6.905-2.168-6.905-6.507v-89.165h-29.352c-0.314-0.586-0.628-1.377-0.942-2.375c-0.313-0.994-0.471-2.137-0.471-3.429
		c0-1.992,0.417-3.545,1.256-4.661c0.836-1.112,2.04-1.67,3.61-1.67h67.963c0.314,0.588,0.628,1.379,0.942,2.374
		c0.313,0.997,0.471,2.083,0.471,3.253c0,1.996-0.42,3.578-1.256,4.749c-0.839,1.173-2.041,1.759-3.61,1.759H610.428z"/>
	<path fill="#DA2037" d="M671.955,442.717c-0.628,0.236-1.467,0.497-2.511,0.791c-1.048,0.291-2.198,0.439-3.453,0.439
		c-4.606,0-6.906-2.168-6.906-6.507v-93.562c0-1.875,0.417-3.312,1.255-4.309c0.837-0.995,2.144-1.787,3.925-2.375
		c3.033-1.055,6.773-1.816,11.223-2.286c4.446-0.468,8.763-0.704,12.948-0.704c13.185,0,22.995,2.963,29.431,8.882
		c6.435,5.922,9.652,14.333,9.652,25.237c0,8.09-1.858,14.891-5.571,20.4c-3.716,5.513-9.34,9.439-16.874,11.783
		c2.615,3.754,5.231,7.505,7.849,11.256c2.614,3.754,5.101,7.299,7.455,10.641c2.354,3.341,4.446,6.361,6.278,9.057
		c1.83,2.699,3.27,4.809,4.316,6.332c-0.419,1.994-1.334,3.577-2.746,4.748c-1.413,1.17-2.853,1.758-4.316,1.758
		c-1.781,0-3.245-0.469-4.396-1.406c-1.152-0.938-2.354-2.402-3.609-4.396l-22.916-35.877h-21.033V442.717z M689.849,390.66
		c7.742,0,13.813-1.875,18.207-5.629c4.396-3.75,6.593-9.32,6.593-16.707s-2.303-12.926-6.906-16.619
		c-4.605-3.693-11.198-5.54-19.777-5.54c-2.825,0-5.677,0.147-8.554,0.439c-2.88,0.294-5.415,0.676-7.613,1.144v42.912H689.849z"/>
	<path fill="#DA2037" d="M836.135,389.604c0,9.146-1.153,17.208-3.453,24.182c-2.304,6.978-5.494,12.78-9.575,17.411
		c-4.081,4.633-8.895,8.15-14.44,10.553c-5.547,2.4-11.563,3.604-18.05,3.604c-6.489,0-12.506-1.204-18.051-3.604
		c-5.547-2.402-10.359-5.92-14.439-10.553c-4.081-4.631-7.274-10.434-9.575-17.411c-2.303-6.974-3.453-15.036-3.453-24.182
		s1.178-17.175,3.532-24.095c2.354-6.916,5.571-12.72,9.652-17.41c4.081-4.688,8.893-8.236,14.44-10.641
		c5.545-2.401,11.51-3.605,17.894-3.605c6.381,0,12.346,1.204,17.894,3.605c5.545,2.404,10.359,5.952,14.44,10.641
		c4.08,4.69,7.298,10.494,9.652,17.41C834.957,372.429,836.135,380.459,836.135,389.604z M823.107,389.604
		c0-14.069-2.957-24.855-8.868-32.36c-5.913-7.502-13.788-11.256-23.622-11.256c-4.92,0-9.366,0.968-13.342,2.902
		c-3.978,1.935-7.377,4.748-10.202,8.441s-4.998,8.238-6.514,13.631c-1.519,5.394-2.276,11.607-2.276,18.642
		c0,14.069,2.929,24.858,8.79,32.36c5.859,7.504,13.707,11.255,23.544,11.255c9.939,0,17.839-3.751,23.701-11.255
		C820.176,414.463,823.107,403.674,823.107,389.604z"/>
</g>
<g>
	<g>
		<path fill="#C6C6C6" d="M75.049,519.724c0,7.125-0.873,13.314-2.617,18.569c-1.745,5.258-4.227,9.623-7.443,13.097
			c-3.218,3.476-7.115,6.06-11.688,7.754c-4.576,1.693-9.693,2.541-15.352,2.541c-2.482,0-5.274-0.11-8.374-0.326
			c-3.102-0.218-6.047-0.804-8.839-1.759c-3.256-1.128-4.885-3.128-4.885-5.994v-66.98c0-1.389,0.309-2.454,0.931-3.193
			c0.62-0.736,1.588-1.323,2.908-1.759c2.402-0.867,5.117-1.434,8.141-1.694c3.023-0.261,6.047-0.391,9.071-0.391
			c5.659,0,10.834,0.847,15.526,2.541c4.69,1.694,8.703,4.215,12.037,7.559c3.333,3.345,5.931,7.515,7.792,12.51
			C74.118,507.194,75.049,513.036,75.049,519.724z M65.395,519.724c0-5.559-0.756-10.314-2.268-14.269
			c-1.512-3.952-3.567-7.188-6.164-9.708c-2.599-2.52-5.623-4.366-9.072-5.539c-3.451-1.173-7.152-1.759-11.106-1.759
			c-2.482,0-4.634,0.088-6.455,0.261c-1.823,0.175-3.509,0.436-5.06,0.781v62.029c1.861,0.521,3.856,0.869,5.99,1.042
			c2.131,0.175,4.321,0.261,6.571,0.261c9.148,0,16.03-2.779,20.644-8.34C63.088,538.926,65.395,530.671,65.395,519.724z"/>
		<path fill="#C6C6C6" d="M93.074,558.688c-0.931-1.043-1.396-2.432-1.396-4.17v-67.763c0-1.736,0.465-3.127,1.396-4.17
			c0.93-1.042,2.169-1.563,3.722-1.563h38.612c0.232,0.436,0.465,1.021,0.698,1.759c0.233,0.739,0.349,1.544,0.349,2.411
			c0,1.479-0.311,2.651-0.931,3.519c-0.622,0.869-1.512,1.303-2.675,1.303h-31.75v25.15h30.704c0.233,0.436,0.465,1.021,0.698,1.759
			c0.233,0.739,0.349,1.544,0.349,2.411c0,1.479-0.311,2.629-0.93,3.453c-0.622,0.827-1.512,1.238-2.675,1.238h-28.145v27.365
			h34.891c0.232,0.436,0.465,1,0.698,1.694c0.232,0.696,0.349,1.521,0.349,2.476c0,1.479-0.311,2.629-0.931,3.453
			c-0.622,0.827-1.512,1.238-2.675,1.238H96.796C95.244,560.252,94.005,559.73,93.074,558.688z"/>
		<path fill="#C6C6C6" d="M201.466,490.013v69.978c-0.389,0.175-0.989,0.369-1.803,0.587c-0.814,0.216-1.648,0.325-2.5,0.325
			c-3.413,0-5.117-1.606-5.117-4.821v-66.068h-21.749c-0.232-0.434-0.465-1.02-0.698-1.759c-0.232-0.737-0.349-1.584-0.349-2.541
			c0-1.477,0.309-2.627,0.93-3.454c0.62-0.824,1.512-1.237,2.675-1.237h50.359c0.232,0.436,0.465,1.021,0.698,1.759
			c0.232,0.739,0.349,1.544,0.349,2.411c0,1.479-0.311,2.651-0.93,3.519c-0.622,0.869-1.512,1.303-2.675,1.303H201.466z"/>
		<path fill="#C6C6C6" d="M238.914,558.688c-0.931-1.043-1.396-2.432-1.396-4.17v-67.763c0-1.736,0.465-3.127,1.396-4.17
			c0.93-1.042,2.169-1.563,3.722-1.563h38.612c0.232,0.436,0.465,1.021,0.698,1.759c0.233,0.739,0.349,1.544,0.349,2.411
			c0,1.479-0.311,2.651-0.931,3.519c-0.622,0.869-1.512,1.303-2.675,1.303h-31.75v25.15h30.704c0.233,0.436,0.465,1.021,0.698,1.759
			c0.233,0.739,0.349,1.544,0.349,2.411c0,1.479-0.311,2.629-0.93,3.453c-0.622,0.827-1.512,1.238-2.675,1.238h-28.145v27.365
			h34.891c0.232,0.436,0.465,1,0.698,1.694c0.232,0.696,0.349,1.521,0.349,2.476c0,1.479-0.311,2.629-0.931,3.453
			c-0.622,0.827-1.512,1.238-2.675,1.238h-36.635C241.084,560.252,239.844,559.73,238.914,558.688z"/>
		<path fill="#C6C6C6" d="M308.81,559.991c-0.465,0.175-1.087,0.369-1.861,0.587c-0.776,0.216-1.628,0.325-2.559,0.325
			c-3.413,0-5.118-1.606-5.118-4.821v-69.326c0-1.389,0.309-2.453,0.931-3.192c0.62-0.737,1.588-1.323,2.908-1.76
			c2.248-0.781,5.019-1.346,8.315-1.693c3.294-0.347,6.493-0.521,9.595-0.521c9.77,0,17.038,2.195,21.807,6.581
			c4.768,4.388,7.152,10.62,7.152,18.699c0,5.994-1.377,11.034-4.128,15.116c-2.753,4.085-6.92,6.994-12.502,8.731
			c1.937,2.781,3.876,5.561,5.815,8.34c1.937,2.781,3.78,5.407,5.524,7.884c1.745,2.476,3.294,4.714,4.652,6.711
			c1.356,1.999,2.422,3.563,3.198,4.691c-0.311,1.479-0.988,2.65-2.035,3.519c-1.047,0.867-2.113,1.303-3.198,1.303
			c-1.319,0-2.404-0.348-3.256-1.042c-0.854-0.694-1.745-1.78-2.675-3.258l-16.98-26.584H308.81V559.991z M322.069,521.419
			c5.737,0,10.234-1.389,13.491-4.17c3.256-2.779,4.885-6.906,4.885-12.38c0-5.473-1.707-9.578-5.117-12.314
			c-3.413-2.736-8.297-4.104-14.654-4.104c-2.094,0-4.207,0.109-6.339,0.325c-2.133,0.219-4.012,0.501-5.641,0.848v31.796H322.069z"
			/>
		<path fill="#C6C6C6" d="M418.714,489.753c0,1.218-0.331,2.261-0.989,3.128c-0.66,0.869-1.416,1.521-2.268,1.954
			c-2.017-1.563-4.381-3.039-7.094-4.431c-2.715-1.388-6.242-2.085-10.583-2.085c-3.567,0-6.862,0.697-9.885,2.085
			c-3.024,1.392-5.661,3.434-7.909,6.125c-2.25,2.694-4.012,6.082-5.292,10.164c-1.279,4.085-1.919,8.776-1.919,14.074
			c0,5.388,0.62,10.078,1.861,14.073c1.239,3.997,2.965,7.343,5.175,10.034c2.209,2.694,4.865,4.714,7.966,6.06
			c3.101,1.348,6.551,2.02,10.351,2.02c4.031,0,7.54-0.629,10.525-1.89c2.984-1.258,5.484-2.757,7.501-4.495
			c0.774,0.348,1.512,0.978,2.209,1.89s1.047,1.977,1.047,3.192c0,1.824-0.931,3.476-2.792,4.952
			c-1.784,1.391-4.227,2.628-7.327,3.714c-3.102,1.085-7.056,1.629-11.863,1.629c-4.885,0-9.42-0.87-13.607-2.606
			c-4.187-1.737-7.812-4.32-10.874-7.754c-3.064-3.431-5.486-7.709-7.269-12.836c-1.784-5.125-2.675-11.119-2.675-17.982
			c0-6.862,0.911-12.879,2.733-18.048c1.821-5.168,4.283-9.491,7.385-12.967c3.1-3.474,6.726-6.08,10.874-7.818
			c4.147-1.737,8.508-2.606,13.084-2.606c3.178,0,6.106,0.306,8.781,0.912c2.675,0.609,4.961,1.413,6.862,2.411
			c1.899,1,3.373,2.13,4.419,3.388C418.191,487.3,418.714,488.538,418.714,489.753z"/>
		<path fill="#C6C6C6" d="M436.857,558.688c-0.93-1.043-1.396-2.432-1.396-4.17v-67.763c0-1.736,0.466-3.127,1.396-4.17
			c0.931-1.042,2.17-1.563,3.722-1.563h38.612c0.232,0.436,0.465,1.021,0.698,1.759c0.232,0.739,0.349,1.544,0.349,2.411
			c0,1.479-0.311,2.651-0.931,3.519c-0.621,0.869-1.512,1.303-2.675,1.303h-31.75v25.15h30.703c0.232,0.436,0.466,1.021,0.698,1.759
			c0.232,0.739,0.349,1.544,0.349,2.411c0,1.479-0.311,2.629-0.931,3.453c-0.621,0.827-1.512,1.238-2.675,1.238h-28.145v27.365
			h34.891c0.232,0.436,0.465,1,0.697,1.694c0.232,0.696,0.349,1.521,0.349,2.476c0,1.479-0.311,2.629-0.93,3.453
			c-0.622,0.827-1.513,1.238-2.676,1.238h-36.635C439.027,560.252,437.787,559.73,436.857,558.688z"/>
		<path fill="#C6C6C6" d="M506.753,559.991c-0.466,0.175-1.087,0.369-1.861,0.587c-0.775,0.216-1.628,0.325-2.559,0.325
			c-3.412,0-5.117-1.606-5.117-4.821v-69.326c0-1.389,0.31-2.453,0.931-3.192c0.62-0.737,1.588-1.323,2.907-1.76
			c2.248-0.781,5.02-1.346,8.315-1.693c3.295-0.347,6.493-0.521,9.596-0.521c9.769,0,17.038,2.195,21.806,6.581
			c4.769,4.388,7.153,10.62,7.153,18.699c0,5.994-1.378,11.034-4.129,15.116c-2.753,4.085-6.92,6.994-12.503,8.731
			c1.938,2.781,3.876,5.561,5.815,8.34c1.938,2.781,3.779,5.407,5.524,7.884c1.744,2.476,3.295,4.714,4.652,6.711
			c1.355,1.999,2.422,3.563,3.198,4.691c-0.312,1.479-0.989,2.65-2.035,3.519c-1.047,0.867-2.114,1.303-3.199,1.303
			c-1.318,0-2.403-0.348-3.256-1.042c-0.854-0.694-1.745-1.78-2.675-3.258l-16.98-26.584h-15.584V559.991z M520.011,521.419
			c5.737,0,10.235-1.389,13.491-4.17c3.257-2.779,4.885-6.906,4.885-12.38c0-5.473-1.706-9.578-5.117-12.314
			c-3.413-2.736-8.298-4.104-14.654-4.104c-2.093,0-4.207,0.109-6.338,0.325c-2.134,0.219-4.013,0.501-5.641,0.848v31.796H520.011z"
			/>
		<path fill="#C6C6C6" d="M613.748,490.013v69.978c-0.389,0.175-0.988,0.369-1.803,0.587c-0.814,0.216-1.648,0.325-2.5,0.325
			c-3.413,0-5.118-1.606-5.118-4.821v-66.068h-21.748c-0.232-0.434-0.465-1.02-0.697-1.759c-0.233-0.737-0.35-1.584-0.35-2.541
			c0-1.477,0.31-2.627,0.931-3.454c0.62-0.824,1.512-1.237,2.675-1.237h50.358c0.232,0.436,0.466,1.021,0.698,1.759
			c0.232,0.739,0.349,1.544,0.349,2.411c0,1.479-0.311,2.651-0.931,3.519c-0.621,0.869-1.512,1.303-2.675,1.303H613.748z"/>
		<path fill="#C6C6C6" d="M657.593,560.578c-0.775,0.216-1.628,0.325-2.559,0.325c-3.412,0-5.117-1.606-5.117-4.821v-74.799
			c0.388-0.174,0.989-0.369,1.803-0.587c0.814-0.216,1.687-0.325,2.617-0.325c3.333,0,5.001,1.608,5.001,4.821v74.799
			C658.949,560.166,658.367,560.36,657.593,560.578z"/>
		<path fill="#C6C6C6" d="M689.808,531.974v28.017c-0.466,0.175-1.087,0.369-1.861,0.587c-0.775,0.216-1.628,0.325-2.559,0.325
			c-3.412,0-5.117-1.606-5.117-4.821v-69.326c0-1.389,0.31-2.453,0.931-3.192c0.62-0.737,1.588-1.323,2.907-1.76
			c2.248-0.781,4.981-1.346,8.199-1.693c3.217-0.347,6.339-0.521,9.362-0.521c9.846,0,17.038,2.325,21.574,6.972
			c4.536,4.648,6.804,10.926,6.804,18.83c0,8.079-2.326,14.529-6.979,19.352c-4.651,4.821-11.824,7.232-21.516,7.232H689.808z
			 M700.973,523.113c6.202,0,11.009-1.434,14.421-4.301c3.411-2.867,5.117-7.298,5.117-13.292c0-5.906-1.648-10.229-4.942-12.966
			c-3.297-2.736-8.007-4.104-14.131-4.104c-2.094,0-4.169,0.109-6.222,0.325c-2.056,0.219-3.896,0.501-5.524,0.848v33.49H700.973z"
			/>
		<path fill="#C6C6C6" d="M809.597,520.636c0,6.776-0.854,12.751-2.559,17.918c-1.707,5.17-4.071,9.471-7.095,12.901
			c-3.023,3.433-6.591,6.039-10.7,7.818c-4.11,1.779-8.567,2.672-13.374,2.672c-4.809,0-9.266-0.893-13.375-2.672
			c-4.11-1.779-7.676-4.386-10.699-7.818c-3.024-3.431-5.391-7.731-7.095-12.901c-1.706-5.167-2.559-11.142-2.559-17.918
			s0.872-12.726,2.617-17.853c1.744-5.125,4.128-9.425,7.152-12.9c3.023-3.474,6.589-6.103,10.699-7.884
			c4.109-1.78,8.528-2.672,13.259-2.672c4.729,0,9.147,0.892,13.258,2.672c4.109,1.781,7.676,4.41,10.7,7.884
			c3.023,3.476,5.408,7.775,7.152,12.9C808.724,507.911,809.597,513.86,809.597,520.636z M799.944,520.636
			c0-10.425-2.191-18.416-6.571-23.977c-4.381-5.559-10.216-8.341-17.503-8.341c-3.646,0-6.94,0.717-9.886,2.15
			c-2.947,1.434-5.466,3.519-7.56,6.255c-2.094,2.737-3.703,6.104-4.826,10.1c-1.125,3.997-1.687,8.601-1.687,13.813
			c0,10.425,2.17,18.419,6.513,23.978c4.341,5.561,10.156,8.34,17.445,8.34c7.365,0,13.218-2.779,17.562-8.34
			C797.772,539.055,799.944,531.061,799.944,520.636z"/>
	</g>
</g>
<g>
</g>
<g>
</g>
</svg>
