<?xml version="1.0" encoding="utf-8"?>
<!-- Generator: Adobe Illustrator 16.0.3, SVG Export Plug-In . SVG Version: 6.00 Build 0)  -->
<!DOCTYPE svg PUBLIC "-//W3C//DTD SVG 1.1//EN" "http://www.w3.org/Graphics/SVG/1.1/DTD/svg11.dtd">
<svg version="1.1" id="Capa_1" xmlns="http://www.w3.org/2000/svg" xmlns:xlink="http://www.w3.org/1999/xlink" x="0px" y="0px"
	 width="76.333px" height="408.667px" viewBox="0 0 76.333 408.667" enable-background="new 0 0 76.333 408.667"
	 xml:space="preserve">
<g>
	<polyline fill="none" stroke="#477BB4" stroke-width="1.6798" stroke-miterlimit="10" points="7.224,5.865 7.224,404.781 
		47.405,404.781 	"/>
	
		<line fill="none" stroke="#477BB4" stroke-width="1.6798" stroke-miterlimit="10" x1="49.152" y1="35.565" x2="6.641" y2="35.565"/>
	
		<line fill="none" stroke="#477BB4" stroke-width="1.6798" stroke-miterlimit="10" x1="47.989" y1="111.853" x2="7.805" y2="111.853"/>
	
		<line fill="none" stroke="#477BB4" stroke-width="1.6798" stroke-miterlimit="10" x1="47.989" y1="188.143" x2="6.641" y2="188.143"/>
	
		<line fill="none" stroke="#477BB4" stroke-width="1.6798" stroke-miterlimit="10" x1="46.822" y1="263.267" x2="7.224" y2="263.267"/>
	
		<line fill="none" stroke="#477BB4" stroke-width="1.6798" stroke-miterlimit="10" x1="47.405" y1="338.388" x2="6.057" y2="338.388"/>
	<g>
		
			<line fill="none" stroke="#477BB4" stroke-width="0.8272" stroke-miterlimit="10" x1="7.224" y1="45.902" x2="31.029" y2="45.902"/>
		<line fill="none" stroke="#477BB4" stroke-width="0.8272" stroke-miterlimit="10" x1="7.224" y1="52.89" x2="31.029" y2="52.89"/>
		
			<line fill="none" stroke="#477BB4" stroke-width="0.8272" stroke-miterlimit="10" x1="7.224" y1="59.878" x2="31.029" y2="59.878"/>
		
			<line fill="none" stroke="#477BB4" stroke-width="0.8272" stroke-miterlimit="10" x1="7.224" y1="66.867" x2="31.029" y2="66.867"/>
		
			<line fill="none" stroke="#477BB4" stroke-width="0.8272" stroke-miterlimit="10" x1="7.224" y1="73.855" x2="31.029" y2="73.855"/>
		
			<line fill="none" stroke="#477BB4" stroke-width="0.8272" stroke-miterlimit="10" x1="7.224" y1="80.844" x2="31.029" y2="80.844"/>
		
			<line fill="none" stroke="#477BB4" stroke-width="0.8272" stroke-miterlimit="10" x1="7.224" y1="87.832" x2="31.029" y2="87.832"/>
		<line fill="none" stroke="#477BB4" stroke-width="0.8272" stroke-miterlimit="10" x1="7.224" y1="94.82" x2="31.029" y2="94.82"/>
		
			<line fill="none" stroke="#477BB4" stroke-width="0.8272" stroke-miterlimit="10" x1="7.224" y1="101.809" x2="31.029" y2="101.809"/>
	</g>
	<g>
		
			<line fill="none" stroke="#477BB4" stroke-width="0.8272" stroke-miterlimit="10" x1="7.805" y1="121.316" x2="31.61" y2="121.316"/>
		
			<line fill="none" stroke="#477BB4" stroke-width="0.8272" stroke-miterlimit="10" x1="7.805" y1="128.304" x2="31.61" y2="128.304"/>
		
			<line fill="none" stroke="#477BB4" stroke-width="0.8272" stroke-miterlimit="10" x1="7.805" y1="135.292" x2="31.61" y2="135.292"/>
		
			<line fill="none" stroke="#477BB4" stroke-width="0.8272" stroke-miterlimit="10" x1="7.805" y1="142.28" x2="31.61" y2="142.28"/>
		
			<line fill="none" stroke="#477BB4" stroke-width="0.8272" stroke-miterlimit="10" x1="7.805" y1="149.268" x2="31.61" y2="149.268"/>
		
			<line fill="none" stroke="#477BB4" stroke-width="0.8272" stroke-miterlimit="10" x1="7.805" y1="156.256" x2="31.61" y2="156.256"/>
		
			<line fill="none" stroke="#477BB4" stroke-width="0.8272" stroke-miterlimit="10" x1="7.805" y1="163.245" x2="31.61" y2="163.245"/>
		
			<line fill="none" stroke="#477BB4" stroke-width="0.8272" stroke-miterlimit="10" x1="7.805" y1="170.232" x2="31.61" y2="170.232"/>
		
			<line fill="none" stroke="#477BB4" stroke-width="0.8272" stroke-miterlimit="10" x1="7.805" y1="177.22" x2="31.61" y2="177.22"/>
	</g>
	<g>
		
			<line fill="none" stroke="#477BB4" stroke-width="0.8272" stroke-miterlimit="10" x1="8.387" y1="196.734" x2="32.19" y2="196.734"/>
		
			<line fill="none" stroke="#477BB4" stroke-width="0.8272" stroke-miterlimit="10" x1="8.387" y1="203.722" x2="32.19" y2="203.722"/>
		
			<line fill="none" stroke="#477BB4" stroke-width="0.8272" stroke-miterlimit="10" x1="8.387" y1="210.709" x2="32.19" y2="210.709"/>
		
			<line fill="none" stroke="#477BB4" stroke-width="0.8272" stroke-miterlimit="10" x1="8.387" y1="217.698" x2="32.19" y2="217.698"/>
		
			<line fill="none" stroke="#477BB4" stroke-width="0.8272" stroke-miterlimit="10" x1="8.387" y1="224.686" x2="32.19" y2="224.686"/>
		
			<line fill="none" stroke="#477BB4" stroke-width="0.8272" stroke-miterlimit="10" x1="8.387" y1="231.674" x2="32.19" y2="231.674"/>
		
			<line fill="none" stroke="#477BB4" stroke-width="0.8272" stroke-miterlimit="10" x1="8.387" y1="238.663" x2="32.19" y2="238.663"/>
		
			<line fill="none" stroke="#477BB4" stroke-width="0.8272" stroke-miterlimit="10" x1="8.387" y1="245.65" x2="32.19" y2="245.65"/>
		
			<line fill="none" stroke="#477BB4" stroke-width="0.8272" stroke-miterlimit="10" x1="8.387" y1="252.638" x2="32.19" y2="252.638"/>
	</g>
	<g>
		
			<line fill="none" stroke="#477BB4" stroke-width="0.8272" stroke-miterlimit="10" x1="8.972" y1="272.143" x2="32.774" y2="272.143"/>
		
			<line fill="none" stroke="#477BB4" stroke-width="0.8272" stroke-miterlimit="10" x1="8.972" y1="279.131" x2="32.774" y2="279.131"/>
		
			<line fill="none" stroke="#477BB4" stroke-width="0.8272" stroke-miterlimit="10" x1="8.972" y1="286.12" x2="32.774" y2="286.12"/>
		
			<line fill="none" stroke="#477BB4" stroke-width="0.8272" stroke-miterlimit="10" x1="8.972" y1="293.108" x2="32.774" y2="293.108"/>
		
			<line fill="none" stroke="#477BB4" stroke-width="0.8272" stroke-miterlimit="10" x1="8.972" y1="300.096" x2="32.774" y2="300.096"/>
		
			<line fill="none" stroke="#477BB4" stroke-width="0.8272" stroke-miterlimit="10" x1="8.972" y1="307.085" x2="32.774" y2="307.085"/>
		
			<line fill="none" stroke="#477BB4" stroke-width="0.8272" stroke-miterlimit="10" x1="8.972" y1="314.074" x2="32.774" y2="314.074"/>
		
			<line fill="none" stroke="#477BB4" stroke-width="0.8272" stroke-miterlimit="10" x1="8.972" y1="321.062" x2="32.774" y2="321.062"/>
		
			<line fill="none" stroke="#477BB4" stroke-width="0.8272" stroke-miterlimit="10" x1="8.972" y1="328.05" x2="32.774" y2="328.05"/>
	</g>
	<g>
		
			<line fill="none" stroke="#477BB4" stroke-width="0.8272" stroke-miterlimit="10" x1="7.024" y1="347.565" x2="30.829" y2="347.565"/>
		
			<line fill="none" stroke="#477BB4" stroke-width="0.8272" stroke-miterlimit="10" x1="7.024" y1="353.605" x2="30.829" y2="353.605"/>
		
			<line fill="none" stroke="#477BB4" stroke-width="0.8272" stroke-miterlimit="10" x1="7.024" y1="359.646" x2="30.829" y2="359.646"/>
		
			<line fill="none" stroke="#477BB4" stroke-width="0.8272" stroke-miterlimit="10" x1="7.024" y1="365.686" x2="30.829" y2="365.686"/>
		
			<line fill="none" stroke="#477BB4" stroke-width="0.8272" stroke-miterlimit="10" x1="7.024" y1="371.727" x2="30.829" y2="371.727"/>
		
			<line fill="none" stroke="#477BB4" stroke-width="0.8272" stroke-miterlimit="10" x1="7.024" y1="377.767" x2="30.829" y2="377.767"/>
		
			<line fill="none" stroke="#477BB4" stroke-width="0.8272" stroke-miterlimit="10" x1="7.024" y1="383.807" x2="30.829" y2="383.807"/>
		
			<line fill="none" stroke="#477BB4" stroke-width="0.8272" stroke-miterlimit="10" x1="7.024" y1="389.848" x2="30.829" y2="389.848"/>
		
			<line fill="none" stroke="#477BB4" stroke-width="0.8272" stroke-miterlimit="10" x1="7.024" y1="395.888" x2="30.829" y2="395.888"/>
	</g>
</g>
<g opacity="0.8">
	<g>
		<g>
			<linearGradient id="SVGID_1_" gradientUnits="userSpaceOnUse" x1="165.187" y1="25.2505" x2="223.9129" y2="97.8077">
				<stop  offset="9.999999e-008" style="stop-color:#80CFD5"/>
				<stop  offset="0.4362" style="stop-color:#76C7D8"/>
				<stop  offset="1" style="stop-color:#6EC1DA"/>
			</linearGradient>
			<circle fill="url(#SVGID_1_)" cx="192.008" cy="58.388" r="4.762"/>
		</g>
		<g>
			<linearGradient id="SVGID_2_" gradientUnits="userSpaceOnUse" x1="165.1851" y1="25.248" x2="223.9149" y2="97.8102">
				<stop  offset="9.999999e-008" style="stop-color:#2B4B9F"/>
				<stop  offset="0.0706" style="stop-color:#3155A4"/>
				<stop  offset="0.381" style="stop-color:#4A80B9"/>
				<stop  offset="0.6504" style="stop-color:#5DA2CA"/>
				<stop  offset="0.8657" style="stop-color:#69B9D5"/>
				<stop  offset="1" style="stop-color:#6EC1DA"/>
			</linearGradient>
			<path fill="url(#SVGID_2_)" d="M193.379,68.087l-0.414-2.932c0.079-0.011,0.158-0.023,0.235-0.037l0.516,2.915
				C193.604,68.053,193.493,68.071,193.379,68.087z M190.319,68.037c-0.113-0.02-0.226-0.041-0.337-0.065l0.611-2.896
				c0.077,0.017,0.155,0.031,0.233,0.045L190.319,68.037z M196.613,67.034l-1.394-2.611c0.07-0.038,0.141-0.077,0.21-0.117
				l1.481,2.563C196.812,66.925,196.713,66.98,196.613,67.034z M187.119,66.876c-0.098-0.057-0.195-0.116-0.293-0.176l1.569-2.51
				c0.067,0.042,0.136,0.083,0.204,0.123L187.119,66.876z M199.29,64.937l-2.203-1.977c0.054-0.06,0.106-0.12,0.158-0.182
				l2.269,1.902C199.44,64.768,199.366,64.854,199.29,64.937z M184.513,64.694c-0.072-0.087-0.144-0.173-0.213-0.263l2.326-1.831
				c0.05,0.063,0.1,0.125,0.152,0.187L184.513,64.694z M201.09,62.058l-2.743-1.111c0.03-0.074,0.058-0.148,0.085-0.223l2.781,1.014
				C201.175,61.845,201.134,61.952,201.09,62.058z M182.807,61.755c-0.039-0.107-0.076-0.216-0.111-0.324l2.814-0.919
				c0.024,0.076,0.05,0.15,0.077,0.224L182.807,61.755z M201.796,58.727l-2.959-0.098c0.003-0.08,0.005-0.16,0.005-0.241v-0.032
				h2.96v0.032C201.802,58.501,201.8,58.614,201.796,58.727z M182.213,58.404v-0.016c0-0.108,0.002-0.214,0.005-0.321l2.959,0.094
				c-0.003,0.075-0.004,0.151-0.004,0.227L182.213,58.404z M198.501,56.253c-0.024-0.077-0.051-0.152-0.079-0.229l2.78-1.02
				c0.038,0.106,0.075,0.213,0.11,0.32L198.501,56.253z M185.58,56.062l-2.785-1.004c0.038-0.108,0.08-0.215,0.123-0.321
				l2.747,1.104C185.633,55.913,185.606,55.988,185.58,56.062z M197.379,54.161c-0.05-0.061-0.1-0.123-0.15-0.183l2.259-1.914
				c0.074,0.087,0.146,0.176,0.217,0.266L197.379,54.161z M186.76,54.008l-2.269-1.902c0.072-0.086,0.146-0.172,0.222-0.256
				l2.205,1.976C186.865,53.886,186.813,53.947,186.76,54.008z M195.606,52.577c-0.065-0.042-0.133-0.081-0.2-0.12l1.473-2.568
				c0.102,0.058,0.199,0.117,0.298,0.178L195.606,52.577z M188.577,52.476l-1.488-2.559c0.099-0.057,0.198-0.114,0.3-0.167
				l1.394,2.612C188.712,52.398,188.644,52.436,188.577,52.476z M193.41,51.697c-0.077-0.017-0.155-0.031-0.234-0.044l0.503-2.918
				c0.112,0.02,0.225,0.041,0.336,0.064L193.41,51.697z M190.8,51.659l-0.52-2.915c0.112-0.02,0.225-0.038,0.337-0.054l0.418,2.93
				C190.957,51.633,190.878,51.646,190.8,51.659z"/>
		</g>
		<g>
			<g>
				<linearGradient id="SVGID_3_" gradientUnits="userSpaceOnUse" x1="165.1851" y1="25.2476" x2="223.9161" y2="97.8111">
					<stop  offset="9.999999e-008" style="stop-color:#80CFD5"/>
					<stop  offset="0.4362" style="stop-color:#76C7D8"/>
					<stop  offset="1" style="stop-color:#6EC1DA"/>
				</linearGradient>
				<path fill="url(#SVGID_3_)" d="M173.953,89.997l-0.128-0.074c-7.58-4.377-13.334-11.33-16.201-19.575l-0.049-0.14l16.497-5.737
					l0.049,0.14c1.491,4.288,4.488,7.905,8.439,10.187l0.127,0.075L173.953,89.997z M157.952,70.39
					c2.845,8.071,8.48,14.88,15.893,19.203l8.439-14.613c-3.906-2.296-6.88-5.885-8.394-10.133L157.952,70.39z M209.937,52.285
					l-0.049-0.14c-1.496-4.287-4.497-7.901-8.45-10.178l-0.129-0.074l8.719-15.135l0.128,0.074
					c7.585,4.369,13.346,11.314,16.224,19.558l0.048,0.139L209.937,52.285z M201.713,41.785c3.908,2.292,6.886,5.877,8.405,10.123
					l15.932-5.561c-2.854-8.068-8.496-14.872-15.914-19.185L201.713,41.785z M182.395,42.073l-8.771-15.105l0.129-0.075
					c5.524-3.208,11.836-4.903,18.253-4.903c2.282,0,4.568,0.214,6.795,0.635l0.146,0.027l-3.245,17.162l-0.146-0.027
					c-1.159-0.219-2.354-0.331-3.549-0.331h-0.001c-3.34,0-6.618,0.879-9.483,2.542L182.395,42.073z M174.03,27.076l8.473,14.594
					c2.879-1.642,6.162-2.509,9.504-2.509c0.001,0,0.001,0,0.001,0c1.163,0,2.326,0.104,3.459,0.309l3.135-16.581
					c-2.163-0.399-4.381-0.603-6.593-0.603C185.692,22.286,179.479,23.942,174.03,27.076z"/>
			</g>
		</g>
		<g>
			<linearGradient id="SVGID_4_" gradientUnits="userSpaceOnUse" x1="165.186" y1="25.249" x2="223.914" y2="97.8087">
				<stop  offset="9.999999e-008" style="stop-color:#2B4B9F"/>
				<stop  offset="0.0706" style="stop-color:#3155A4"/>
				<stop  offset="0.381" style="stop-color:#4A80B9"/>
				<stop  offset="0.6504" style="stop-color:#5DA2CA"/>
				<stop  offset="0.8657" style="stop-color:#69B9D5"/>
				<stop  offset="1" style="stop-color:#6EC1DA"/>
			</linearGradient>
			<path fill="url(#SVGID_4_)" d="M192.007,73.499c-8.332,0-15.11-6.779-15.11-15.111s6.778-15.111,15.11-15.111
				s15.11,6.779,15.11,15.111S200.339,73.499,192.007,73.499z M192.007,43.869c-8.005,0-14.519,6.513-14.519,14.519
				s6.514,14.519,14.519,14.519c8.006,0,14.52-6.513,14.52-14.519S200.013,43.869,192.007,43.869z"/>
		</g>
		<g>
			<linearGradient id="SVGID_5_" gradientUnits="userSpaceOnUse" x1="165.1851" y1="25.248" x2="223.9142" y2="97.8092">
				<stop  offset="9.999999e-008" style="stop-color:#2B4B9F"/>
				<stop  offset="0.0706" style="stop-color:#3155A4"/>
				<stop  offset="0.381" style="stop-color:#4A80B9"/>
				<stop  offset="0.6504" style="stop-color:#5DA2CA"/>
				<stop  offset="0.8657" style="stop-color:#69B9D5"/>
				<stop  offset="1" style="stop-color:#6EC1DA"/>
			</linearGradient>
			<path fill="url(#SVGID_5_)" d="M192.007,76.298c-9.876,0-17.91-8.035-17.91-17.91c0-9.876,8.034-17.91,17.91-17.91
				s17.911,8.034,17.911,17.91C209.918,68.263,201.883,76.298,192.007,76.298z M192.007,40.773c-9.712,0-17.614,7.901-17.614,17.614
				s7.902,17.614,17.614,17.614c9.713,0,17.615-7.901,17.615-17.614S201.72,40.773,192.007,40.773z"/>
		</g>
		<g>
			<linearGradient id="SVGID_6_" gradientUnits="userSpaceOnUse" x1="165.1851" y1="25.248" x2="223.9138" y2="97.8088">
				<stop  offset="9.999999e-008" style="stop-color:#2B4B9F"/>
				<stop  offset="0.0706" style="stop-color:#3155A4"/>
				<stop  offset="0.381" style="stop-color:#4A80B9"/>
				<stop  offset="0.6504" style="stop-color:#5DA2CA"/>
				<stop  offset="0.8657" style="stop-color:#69B9D5"/>
				<stop  offset="1" style="stop-color:#6EC1DA"/>
			</linearGradient>
			<path fill="url(#SVGID_6_)" d="M192.007,76.374c-9.918,0-17.986-8.068-17.986-17.986s8.068-17.986,17.986-17.986
				s17.987,8.068,17.987,17.986S201.925,76.374,192.007,76.374z M192.007,40.698c-9.754,0-17.689,7.936-17.689,17.69
				c0,9.754,7.936,17.69,17.689,17.69s17.689-7.936,17.689-17.69C209.697,48.633,201.761,40.698,192.007,40.698z"/>
		</g>
		<g>
			<linearGradient id="SVGID_7_" gradientUnits="userSpaceOnUse" x1="165.1782" y1="25.2544" x2="223.9074" y2="97.8156">
				<stop  offset="9.999999e-008" style="stop-color:#2B4B9F"/>
				<stop  offset="0.0706" style="stop-color:#3155A4"/>
				<stop  offset="0.381" style="stop-color:#4A80B9"/>
				<stop  offset="0.6504" style="stop-color:#5DA2CA"/>
				<stop  offset="0.8657" style="stop-color:#69B9D5"/>
				<stop  offset="1" style="stop-color:#6EC1DA"/>
			</linearGradient>
			<path fill="url(#SVGID_7_)" d="M190.243,89.17c0,0,0,0-0.004,0l0,0c-0.162-0.009-0.287-0.147-0.277-0.313l0,0
				c0.008-0.163,0.15-0.287,0.313-0.278l0,0c0.162,0.009,0.287,0.15,0.278,0.313l0,0c-0.009,0.156-0.14,0.278-0.296,0.278l0,0
				C190.251,89.17,190.246,89.17,190.243,89.17z M194.103,88.853c-0.013-0.162,0.109-0.305,0.272-0.316l0,0
				c0.162-0.012,0.305,0.11,0.316,0.273l0,0c0.012,0.162-0.109,0.305-0.272,0.316l0,0c-0.006,0.003-0.015,0.003-0.023,0.003l0,0
				C194.245,89.129,194.115,89.01,194.103,88.853z M186.092,88.651c-0.16-0.029-0.264-0.186-0.234-0.346l0,0
				c0.033-0.16,0.187-0.264,0.347-0.234l0,0c0.163,0.03,0.266,0.188,0.236,0.348l0,0c-0.029,0.141-0.153,0.239-0.293,0.239l0,0
				C186.13,88.658,186.113,88.658,186.092,88.651z M198.206,88.297c-0.035-0.159,0.065-0.319,0.225-0.353l0,0
				c0.161-0.035,0.317,0.068,0.353,0.229l0,0c0.036,0.156-0.067,0.316-0.228,0.349l0,0c-0.021,0.007-0.042,0.009-0.063,0.009l0,0
				C198.357,88.53,198.235,88.437,198.206,88.297z M182.051,87.577c0,0,0,0-0.003,0l0,0c-0.154-0.053-0.237-0.223-0.184-0.375l0,0
				c0.053-0.157,0.223-0.24,0.376-0.188l0,0c0.153,0.054,0.236,0.223,0.186,0.377l0,0c-0.044,0.123-0.159,0.2-0.28,0.2l0,0
				C182.113,87.592,182.081,87.587,182.051,87.577z M202.194,87.187c-0.057-0.154,0.021-0.326,0.175-0.383l0,0
				c0.153-0.055,0.325,0.025,0.381,0.179l0,0c0.054,0.153-0.023,0.323-0.177,0.379l0,0c-0.033,0.012-0.068,0.019-0.102,0.019l0,0
				C202.35,87.38,202.238,87.306,202.194,87.187z M178.191,85.958c0,0,0,0,0.002,0l0,0c-0.147-0.074-0.206-0.252-0.133-0.396l0,0
				c0.074-0.146,0.252-0.204,0.396-0.13l0,0c0.148,0.071,0.208,0.249,0.134,0.396l0,0c-0.053,0.104-0.157,0.163-0.267,0.163l0,0
				C178.28,85.99,178.235,85.981,178.191,85.958z M205.992,85.541c-0.073-0.143-0.021-0.323,0.125-0.399l0,0
				c0.144-0.077,0.325-0.021,0.399,0.125l0,0c0.076,0.145,0.021,0.323-0.122,0.399l0,0c-0.044,0.023-0.091,0.035-0.139,0.035l0,0
				C206.149,85.7,206.045,85.641,205.992,85.541z M174.59,83.833c-0.136-0.092-0.169-0.276-0.076-0.411l0,0
				c0.092-0.134,0.278-0.169,0.411-0.078l0,0c0.137,0.092,0.169,0.278,0.077,0.411l0,0c-0.057,0.086-0.151,0.131-0.246,0.131l0,0
				C174.701,83.886,174.641,83.868,174.59,83.833z M209.533,83.397c-0.095-0.133-0.065-0.316,0.071-0.411l0,0
				c0.13-0.098,0.316-0.065,0.411,0.068l0,0c0.094,0.133,0.064,0.317-0.068,0.412l0,0l0,0l0,0c-0.054,0.038-0.112,0.056-0.172,0.056
				l0,0C209.683,83.521,209.591,83.478,209.533,83.397z M171.31,81.239c-0.121-0.11-0.13-0.296-0.021-0.417l0,0
				c0.109-0.122,0.296-0.13,0.417-0.021l0,0c0.122,0.11,0.131,0.299,0.021,0.42l0,0c-0.06,0.063-0.139,0.095-0.22,0.095l0,0
				C171.438,81.316,171.367,81.292,171.31,81.239z M212.753,80.795c-0.113-0.118-0.106-0.305,0.012-0.417l0,0
				c0.118-0.112,0.309-0.106,0.421,0.012l0,0c0.112,0.119,0.105,0.308-0.012,0.421l0,0c0,0,0,0,0-0.003l0,0
				c-0.06,0.057-0.131,0.083-0.205,0.083l0,0C212.889,80.89,212.813,80.857,212.753,80.795z M168.41,78.231L168.41,78.231
				L168.41,78.231c-0.107-0.125-0.089-0.311,0.035-0.417l0,0c0.124-0.104,0.311-0.088,0.418,0.035l0,0
				c0.104,0.125,0.089,0.314-0.036,0.417l0,0c-0.057,0.048-0.124,0.071-0.192,0.071l0,0
				C168.551,78.338,168.468,78.302,168.41,78.231z M215.595,77.784c-0.127-0.104-0.147-0.29-0.044-0.417l0,0
				c0.104-0.127,0.29-0.148,0.417-0.044l0,0c0.124,0.104,0.146,0.29,0.045,0.417l0,0l0,0l0,0c-0.061,0.071-0.146,0.109-0.231,0.109
				l0,0C215.717,77.849,215.649,77.829,215.595,77.784z M165.94,74.859c-0.089-0.136-0.047-0.32,0.092-0.409l0,0
				c0.137-0.085,0.32-0.047,0.408,0.092l0,0c0.087,0.139,0.045,0.319-0.091,0.408l0,0c-0.051,0.033-0.104,0.047-0.16,0.047l0,0
				C166.091,74.998,165.997,74.948,165.94,74.859z M218.005,74.415c-0.14-0.083-0.184-0.266-0.102-0.406l0,0
				c0.086-0.139,0.267-0.186,0.409-0.1l0,0c0.139,0.086,0.184,0.266,0.098,0.406l0,0c-0.054,0.091-0.151,0.145-0.252,0.145l0,0
				C218.106,74.46,218.052,74.445,218.005,74.415z M163.948,71.186c-0.068-0.148-0.003-0.323,0.148-0.391l0,0
				c0.148-0.068,0.322-0.003,0.391,0.145l0,0c0.067,0.151,0.003,0.326-0.146,0.394l0,0c-0.041,0.017-0.082,0.026-0.124,0.026l0,0
				C164.105,71.36,163.999,71.295,163.948,71.186z M219.938,70.753c-0.15-0.065-0.219-0.24-0.153-0.391l0,0
				c0.064-0.148,0.239-0.219,0.388-0.154l0,0c0.15,0.065,0.219,0.24,0.154,0.391l0,0c-0.048,0.109-0.158,0.178-0.27,0.178l0,0
				C220.015,70.777,219.976,70.768,219.938,70.753z M162.477,67.274c0,0,0,0-0.004,0l0,0c-0.044-0.156,0.045-0.323,0.199-0.37l0,0
				c0.156-0.048,0.322,0.042,0.37,0.198l0,0c0.047,0.157-0.042,0.323-0.198,0.37l0,0c-0.03,0.01-0.057,0.013-0.086,0.013l0,0
				C162.63,67.485,162.515,67.402,162.477,67.274z M221.356,66.857c-0.159-0.041-0.252-0.204-0.207-0.363l0,0
				c0.045-0.158,0.207-0.249,0.364-0.205l0,0c0.157,0.044,0.248,0.208,0.207,0.364l0,0c-0.038,0.13-0.157,0.216-0.287,0.216l0,0
				C221.406,66.87,221.382,66.866,221.356,66.857z M161.546,63.198L161.546,63.198L161.546,63.198
				c-0.022-0.163,0.087-0.314,0.249-0.338l0,0c0.16-0.026,0.312,0.083,0.338,0.246l0,0c0.023,0.163-0.086,0.313-0.246,0.338l0,0
				c-0.017,0.002-0.032,0.002-0.047,0.002l0,0C161.698,63.447,161.571,63.343,161.546,63.198z M222.227,62.811
				c-0.163-0.021-0.275-0.168-0.256-0.332l0,0c0.024-0.163,0.172-0.275,0.336-0.255l0,0c0.159,0.021,0.274,0.172,0.251,0.335l0,0
				c-0.018,0.148-0.146,0.254-0.29,0.254l0,0C222.253,62.813,222.241,62.813,222.227,62.811z M161.18,59.033
				c-0.003-0.163,0.127-0.295,0.293-0.302l0,0c0.163-0.002,0.296,0.127,0.299,0.291l0,0c0.006,0.162-0.124,0.298-0.287,0.302l0,0
				c-0.003,0-0.006,0-0.009,0l0,0C161.316,59.323,161.186,59.196,161.18,59.033z M222.247,58.388c0-0.163,0.134-0.296,0.296-0.296
				l0,0c0.164,0,0.297,0.133,0.297,0.296l0,0l0,0l0,0c0,0.163-0.133,0.296-0.297,0.296l0,0
				C222.38,58.684,222.247,58.551,222.247,58.388z M222.221,57.115c-0.007-0.163,0.121-0.302,0.284-0.308l0,0
				c0.163-0.005,0.302,0.119,0.307,0.281l0,0c0.007,0.166-0.121,0.302-0.283,0.311l0,0c-0.003,0-0.009,0-0.013,0l0,0
				C222.357,57.399,222.227,57.274,222.221,57.115z M161.636,55.187c-0.163-0.02-0.278-0.165-0.261-0.328l0,0l0,0l0,0
				c0.018-0.163,0.166-0.278,0.325-0.261l0,0c0.163,0.018,0.281,0.166,0.261,0.329h0.003c-0.018,0.151-0.148,0.26-0.296,0.26l0,0
				C161.657,55.187,161.648,55.187,161.636,55.187z M221.777,53.038c-0.03-0.16,0.077-0.313,0.239-0.343l0,0
				c0.16-0.03,0.314,0.08,0.344,0.24l0,0c0.026,0.16-0.08,0.314-0.24,0.343l0,0c-0.018,0.003-0.035,0.003-0.053,0.003l0,0
				C221.924,53.281,221.8,53.183,221.777,53.038z M162.343,51.108c-0.159-0.042-0.255-0.202-0.213-0.362l0,0
				c0.038-0.157,0.201-0.254,0.358-0.212l0,0c0.159,0.041,0.254,0.201,0.213,0.36l0,0c-0.033,0.134-0.153,0.223-0.284,0.223l0,0
				C162.391,51.117,162.367,51.114,162.343,51.108z M220.782,49.062c-0.051-0.156,0.036-0.325,0.19-0.373l0,0
				c0.155-0.05,0.321,0.033,0.372,0.19l0,0c0.051,0.153-0.032,0.322-0.189,0.373l0,0c-0.029,0.008-0.062,0.014-0.092,0.014l0,0
				C220.938,49.267,220.824,49.187,220.782,49.062z M163.598,47.159c-0.15-0.062-0.222-0.234-0.162-0.385l0,0
				c0.063-0.15,0.237-0.225,0.388-0.162l0,0c0.151,0.062,0.225,0.233,0.163,0.385l0,0c-0.048,0.116-0.16,0.184-0.275,0.184l0,0
				C163.673,47.18,163.637,47.174,163.598,47.159z M219.254,45.256L219.254,45.256c-0.071-0.146-0.009-0.323,0.14-0.394l0,0
				c0.147-0.071,0.322-0.013,0.394,0.136l0,0c0.071,0.148,0.012,0.326-0.137,0.397l0,0c-0.041,0.021-0.086,0.03-0.13,0.03l0,0
				C219.412,45.424,219.308,45.362,219.254,45.256z M165.384,43.419c-0.143-0.083-0.192-0.263-0.11-0.402l0,0
				c0.083-0.143,0.264-0.193,0.403-0.11l0,0c0.142,0.08,0.192,0.26,0.109,0.403l0,0c-0.054,0.098-0.154,0.148-0.255,0.148l0,0
				C165.481,43.458,165.428,43.447,165.384,43.419z M217.226,41.694c-0.089-0.136-0.053-0.319,0.083-0.409l0,0
				c0.137-0.092,0.319-0.053,0.411,0.083l0,0c0.09,0.136,0.054,0.32-0.082,0.409l0,0c-0.05,0.036-0.107,0.05-0.163,0.05l0,0
				C217.377,41.827,217.283,41.78,217.226,41.694z M167.655,39.957c-0.128-0.098-0.151-0.285-0.054-0.415l0,0
				c0.101-0.13,0.287-0.154,0.417-0.053l0,0c0.128,0.1,0.151,0.287,0.054,0.417l0,0c-0.06,0.074-0.148,0.112-0.237,0.112l0,0
				C167.773,40.018,167.71,40.001,167.655,39.957z M214.737,38.44c-0.109-0.125-0.098-0.311,0.026-0.417l0,0
				c0.122-0.11,0.309-0.098,0.417,0.027l0,0l0,0l0,0c0.106,0.121,0.096,0.308-0.025,0.417l0,0c-0.057,0.051-0.128,0.075-0.196,0.075
				l0,0C214.876,38.542,214.792,38.505,214.737,38.44z M170.375,36.833c-0.115-0.115-0.115-0.302,0.004-0.417l0,0
				c0.115-0.115,0.302-0.112,0.417,0.003l0,0c0.115,0.115,0.112,0.305-0.003,0.417l0,0c-0.057,0.06-0.133,0.086-0.208,0.086l0,0
				C170.508,36.922,170.431,36.892,170.375,36.833z M211.83,35.548c-0.125-0.106-0.139-0.293-0.03-0.417l0,0
				c0.107-0.125,0.294-0.136,0.418-0.029l0,0l0,0l0,0c0.121,0.106,0.137,0.293,0.029,0.417l0,0
				c-0.059,0.068-0.142,0.104-0.225,0.104l0,0C211.954,35.622,211.882,35.596,211.83,35.548z M173.486,34.104
				c-0.097-0.13-0.07-0.317,0.06-0.412l0,0c0.134-0.101,0.316-0.074,0.415,0.059l0,0c0.098,0.131,0.071,0.314-0.06,0.412v0.003
				c-0.053,0.039-0.115,0.06-0.178,0.06l0,0C173.634,34.225,173.545,34.183,173.486,34.104z M208.558,33.073
				c-0.139-0.089-0.178-0.272-0.086-0.408l0,0c0.089-0.136,0.272-0.175,0.409-0.086l0,0c0.136,0.089,0.175,0.273,0.085,0.409l0,0
				c-0.056,0.089-0.15,0.136-0.248,0.136l0,0C208.665,33.124,208.609,33.105,208.558,33.073z M176.938,31.821
				c-0.08-0.142-0.026-0.322,0.116-0.402l0,0l0,0l0,0c0.142-0.08,0.322-0.027,0.401,0.116l0,0c0.081,0.142,0.027,0.323-0.115,0.402
				l0,0c-0.044,0.023-0.095,0.035-0.142,0.035l0,0C177.095,31.972,176.992,31.918,176.938,31.821z M204.983,31.063
				c-0.148-0.068-0.211-0.246-0.14-0.394l0,0c0.068-0.148,0.245-0.21,0.394-0.139l0,0c0.147,0.068,0.21,0.246,0.139,0.394l0,0
				c-0.05,0.107-0.157,0.169-0.266,0.169l0,0C205.065,31.093,205.024,31.083,204.983,31.063z M180.666,30.024
				c-0.06-0.151,0.018-0.323,0.169-0.382l0,0l0,0l0,0c0.153-0.059,0.325,0.015,0.385,0.169l0,0c0.06,0.154-0.018,0.322-0.169,0.382
				l0,0c-0.036,0.015-0.073,0.021-0.109,0.021l0,0C180.822,30.213,180.712,30.142,180.666,30.024z M201.167,29.559L201.167,29.559
				c-0.157-0.05-0.243-0.216-0.193-0.373l0,0c0.051-0.154,0.217-0.243,0.37-0.192l0,0c0.157,0.051,0.243,0.216,0.193,0.373l0,0
				c-0.039,0.125-0.157,0.208-0.281,0.208l0,0C201.225,29.574,201.196,29.568,201.167,29.559z M184.606,28.754
				c-0.039-0.16,0.059-0.32,0.22-0.358l0,0c0.159-0.038,0.319,0.06,0.357,0.219l0,0c0.035,0.16-0.062,0.32-0.219,0.358h-0.004
				c-0.021,0.003-0.044,0.006-0.067,0.006l0,0C184.759,28.979,184.638,28.887,184.606,28.754z M197.181,28.588L197.181,28.588
				c-0.159-0.026-0.269-0.18-0.239-0.34l0,0c0.026-0.163,0.18-0.269,0.341-0.242l0,0c0.162,0.026,0.269,0.18,0.242,0.343l0,0
				c-0.026,0.142-0.151,0.246-0.293,0.246l0,0C197.217,28.594,197.199,28.591,197.181,28.588z M188.682,28.029
				c-0.018-0.163,0.104-0.308,0.267-0.323l0,0l0,0l0,0c0.16-0.018,0.308,0.101,0.323,0.266l0,0c0.014,0.16-0.104,0.305-0.267,0.323
				l0,0c-0.009,0-0.019,0-0.027,0l0,0C188.828,28.295,188.697,28.183,188.682,28.029z M193.105,28.168L193.105,28.168
				c-0.166-0.006-0.293-0.146-0.287-0.308l0,0c0.006-0.163,0.145-0.291,0.308-0.285l0,0l0,0l0,0
				c0.164,0.006,0.291,0.142,0.285,0.305l0,0c-0.007,0.16-0.137,0.287-0.296,0.287l0,0
				C193.111,28.168,193.108,28.168,193.105,28.168z"/>
		</g>
		<g>
			<linearGradient id="SVGID_8_" gradientUnits="userSpaceOnUse" x1="163.8647" y1="26.3369" x2="222.581" y2="98.8822">
				<stop  offset="9.999999e-008" style="stop-color:#80CFD5"/>
				<stop  offset="0.4362" style="stop-color:#76C7D8"/>
				<stop  offset="1" style="stop-color:#6EC1DA"/>
			</linearGradient>
			<path fill="url(#SVGID_8_)" d="M200.762,82.416l-1.014-2.781c3.713-1.354,7.025-3.678,9.58-6.72l2.268,1.904
				C208.708,78.257,204.961,80.885,200.762,82.416z"/>
		</g>
		<g>
			<linearGradient id="SVGID_9_" gradientUnits="userSpaceOnUse" x1="176.0708" y1="16.4292" x2="234.807" y2="88.9992">
				<stop  offset="9.999999e-008" style="stop-color:#80CFD5"/>
				<stop  offset="0.4362" style="stop-color:#76C7D8"/>
				<stop  offset="1" style="stop-color:#6EC1DA"/>
			</linearGradient>
			<path fill="url(#SVGID_9_)" d="M214.154,71.17l-2.563-1.482c1.978-3.42,3.022-7.327,3.022-11.301v-0.053h2.96v0.053
				C217.574,62.881,216.392,67.301,214.154,71.17z"/>
		</g>
		<g>
			<linearGradient id="SVGID_10_" gradientUnits="userSpaceOnUse" x1="150.0103" y1="37.5303" x2="208.7413" y2="110.0939">
				<stop  offset="9.999999e-008" style="stop-color:#80CFD5"/>
				<stop  offset="0.4362" style="stop-color:#76C7D8"/>
				<stop  offset="1" style="stop-color:#6EC1DA"/>
			</linearGradient>
			<path fill="url(#SVGID_10_)" d="M167.984,67.155c-1.023-2.806-1.543-5.755-1.543-8.768c0-1.479,0.128-2.963,0.38-4.411
				l2.916,0.507c-0.223,1.281-0.335,2.594-0.335,3.904c-0.001,2.665,0.458,5.272,1.363,7.752L167.984,67.155z"/>
		</g>
		<g>
			<linearGradient id="SVGID_11_" gradientUnits="userSpaceOnUse" x1="159.8667" y1="29.5518" x2="218.599" y2="102.1169">
				<stop  offset="9.999999e-008" style="stop-color:#2B4B9F"/>
				<stop  offset="0.0706" style="stop-color:#3155A4"/>
				<stop  offset="0.381" style="stop-color:#4A80B9"/>
				<stop  offset="0.6504" style="stop-color:#5DA2CA"/>
				<stop  offset="0.8657" style="stop-color:#69B9D5"/>
				<stop  offset="1" style="stop-color:#6EC1DA"/>
			</linearGradient>
			<path fill="url(#SVGID_11_)" d="M170.838,50.869l-3.062-1.111l0.051-0.139c1.532-4.226,4.169-7.998,7.624-10.908l0.113-0.095
				l2.098,2.491l-0.113,0.095c-3.02,2.543-5.322,5.838-6.661,9.527L170.838,50.869z M168.157,49.581l2.505,0.908
				c1.346-3.636,3.619-6.887,6.584-9.418l-1.716-2.038C172.208,41.865,169.662,45.507,168.157,49.581z"/>
		</g>
		<g>
			<linearGradient id="SVGID_12_" gradientUnits="userSpaceOnUse" x1="172.7837" y1="19.0967" x2="231.5175" y2="91.6637">
				<stop  offset="9.999999e-008" style="stop-color:#2B4B9F"/>
				<stop  offset="0.0706" style="stop-color:#3155A4"/>
				<stop  offset="0.381" style="stop-color:#4A80B9"/>
				<stop  offset="0.6504" style="stop-color:#5DA2CA"/>
				<stop  offset="0.8657" style="stop-color:#69B9D5"/>
				<stop  offset="1" style="stop-color:#6EC1DA"/>
			</linearGradient>
			<path fill="url(#SVGID_12_)" d="M180.675,38.822l-1.485-2.56c3.864-2.244,8.282-3.434,12.775-3.44l0.006,2.96
				C187.998,35.788,184.091,36.839,180.675,38.822z"/>
		</g>
		<g>
			<linearGradient id="SVGID_13_" gradientUnits="userSpaceOnUse" x1="165.189" y1="25.2456" x2="223.919" y2="97.8079">
				<stop  offset="9.999999e-008" style="stop-color:#80CFD5"/>
				<stop  offset="0.4362" style="stop-color:#76C7D8"/>
				<stop  offset="1" style="stop-color:#6EC1DA"/>
			</linearGradient>
			<path fill="url(#SVGID_13_)" d="M192.007,86.571c-2.996,0-5.946-0.469-8.769-1.391l0.276-0.844
				c2.732,0.894,5.59,1.347,8.492,1.347c15.051,0,27.296-12.245,27.296-27.295v-0.061h0.888v0.054
				C220.191,73.928,207.548,86.571,192.007,86.571z M177.93,82.809c-8.701-5.026-14.106-14.384-14.106-24.421
				c0-7.987,3.41-15.631,9.355-20.973l0.594,0.661c-5.759,5.173-9.062,12.576-9.062,20.312c0,9.722,5.236,18.784,13.663,23.653
				L177.93,82.809z M218.716,52.729c-2.643-12.537-13.876-21.638-26.709-21.638c-4.813,0-9.544,1.27-13.682,3.672l-0.446-0.768
				c4.273-2.48,9.159-3.792,14.127-3.792h0.001c6.503,0,12.849,2.268,17.867,6.386c4.949,4.062,8.398,9.728,9.711,15.957
				L218.716,52.729z"/>
		</g>
		<g>
			<linearGradient id="SVGID_14_" gradientUnits="userSpaceOnUse" x1="146.0376" y1="40.7485" x2="204.7653" y2="113.308">
				<stop  offset="9.999999e-008" style="stop-color:#2B4B9F"/>
				<stop  offset="0.0706" style="stop-color:#3155A4"/>
				<stop  offset="0.381" style="stop-color:#4A80B9"/>
				<stop  offset="0.6504" style="stop-color:#5DA2CA"/>
				<stop  offset="0.8657" style="stop-color:#69B9D5"/>
				<stop  offset="1" style="stop-color:#6EC1DA"/>
			</linearGradient>
			<path fill="url(#SVGID_14_)" d="M192.022,92.304h-0.015c-3.904,0-7.733-0.658-11.379-1.955l0.544-1.527
				c3.471,1.235,7.116,1.861,10.835,1.861L192.022,92.304z"/>
		</g>
		<g>
			<linearGradient id="SVGID_15_" gradientUnits="userSpaceOnUse" x1="148.3823" y1="38.8481" x2="207.1116" y2="111.4095">
				<stop  offset="9.999999e-008" style="stop-color:#2B4B9F"/>
				<stop  offset="0.0706" style="stop-color:#3155A4"/>
				<stop  offset="0.381" style="stop-color:#4A80B9"/>
				<stop  offset="0.6504" style="stop-color:#5DA2CA"/>
				<stop  offset="0.8657" style="stop-color:#69B9D5"/>
				<stop  offset="1" style="stop-color:#6EC1DA"/>
			</linearGradient>
			<path fill="url(#SVGID_15_)" d="M158.091,58.417v-0.029c0-3.899,0.656-7.723,1.95-11.365l1.527,0.543
				c-1.232,3.467-1.857,7.108-1.857,10.822L158.091,58.417z"/>
		</g>
		<g>
			<linearGradient id="SVGID_16_" gradientUnits="userSpaceOnUse" x1="160.1304" y1="29.3423" x2="218.8531" y2="101.8956">
				<stop  offset="9.999999e-008" style="stop-color:#2B4B9F"/>
				<stop  offset="0.0706" style="stop-color:#3155A4"/>
				<stop  offset="0.381" style="stop-color:#4A80B9"/>
				<stop  offset="0.6504" style="stop-color:#5DA2CA"/>
				<stop  offset="0.8657" style="stop-color:#69B9D5"/>
				<stop  offset="1" style="stop-color:#6EC1DA"/>
			</linearGradient>
			<path fill="url(#SVGID_16_)" d="M164.018,42.265l-1.404-0.811c1.944-3.366,4.432-6.354,7.396-8.882l1.052,1.233
				C168.238,36.213,165.869,39.059,164.018,42.265z"/>
		</g>
		<g>
			<linearGradient id="SVGID_17_" gradientUnits="userSpaceOnUse" x1="190.0767" y1="5.1045" x2="248.8044" y2="77.6639">
				<stop  offset="9.999999e-008" style="stop-color:#2B4B9F"/>
				<stop  offset="0.0706" style="stop-color:#3155A4"/>
				<stop  offset="0.381" style="stop-color:#4A80B9"/>
				<stop  offset="0.6504" style="stop-color:#5DA2CA"/>
				<stop  offset="0.8657" style="stop-color:#69B9D5"/>
				<stop  offset="1" style="stop-color:#6EC1DA"/>
			</linearGradient>
			<path fill="url(#SVGID_17_)" d="M216.581,37.43c-2.409-2.822-5.257-5.19-8.463-7.04l0.81-1.404
				c3.366,1.941,6.356,4.428,8.886,7.391L216.581,37.43z"/>
		</g>
		<g>
			<linearGradient id="SVGID_18_" gradientUnits="userSpaceOnUse" x1="184.314" y1="9.7656" x2="243.0426" y2="82.3262">
				<stop  offset="9.999999e-008" style="stop-color:#2B4B9F"/>
				<stop  offset="0.0706" style="stop-color:#3155A4"/>
				<stop  offset="0.381" style="stop-color:#4A80B9"/>
				<stop  offset="0.6504" style="stop-color:#5DA2CA"/>
				<stop  offset="0.8657" style="stop-color:#69B9D5"/>
				<stop  offset="1" style="stop-color:#6EC1DA"/>
			</linearGradient>
			<path fill="url(#SVGID_18_)" d="M202.816,27.944c-3.462-1.229-7.099-1.853-10.809-1.853l-0.045,0v-1.621H192
				c3.902,0,7.722,0.655,11.358,1.946L202.816,27.944z"/>
		</g>
		<g>
			<g>
				<linearGradient id="SVGID_19_" gradientUnits="userSpaceOnUse" x1="165.2524" y1="25.1943" x2="223.9823" y2="97.7564">
					<stop  offset="9.999999e-008" style="stop-color:#2B4B9F"/>
					<stop  offset="0.0706" style="stop-color:#3155A4"/>
					<stop  offset="0.381" style="stop-color:#4A80B9"/>
					<stop  offset="0.6504" style="stop-color:#5DA2CA"/>
					<stop  offset="0.8657" style="stop-color:#69B9D5"/>
					<stop  offset="1" style="stop-color:#6EC1DA"/>
				</linearGradient>
				<path fill="url(#SVGID_19_)" d="M192.008,87.964L192.008,87.964c-7.899,0-15.326-3.076-20.913-8.661l-0.104-0.104l5.198-5.2
					l0.104,0.104c4.198,4.197,9.779,6.509,15.714,6.509c2.272,0,4.512-0.341,6.655-1.013l0.141-0.044l2.198,7.016l-0.142,0.044
					C198.004,87.511,195.026,87.964,192.008,87.964z M171.41,79.199c5.519,5.463,12.827,8.469,20.599,8.469
					c2.938,0,5.838-0.435,8.622-1.291l-2.021-6.451c-2.13,0.652-4.35,0.982-6.603,0.982c-5.966,0-11.576-2.304-15.818-6.49
					L171.41,79.199z M214.076,55.729l-0.019-0.147c-1.036-8.234-6.523-15.146-14.32-18.039l-0.139-0.052l2.557-6.893l0.139,0.051
					c10.377,3.849,17.679,13.051,19.058,24.015l0.019,0.146L214.076,55.729z M199.979,37.317c7.781,2.944,13.264,9.85,14.353,18.081
					l6.708-0.844c-1.406-10.74-8.558-19.752-18.71-23.575L199.979,37.317z"/>
			</g>
		</g>
		<g>
			<linearGradient id="SVGID_20_" gradientUnits="userSpaceOnUse" x1="165.1694" y1="25.2607" x2="223.8986" y2="97.8219">
				<stop  offset="9.999999e-008" style="stop-color:#2B4B9F"/>
				<stop  offset="0.0706" style="stop-color:#3155A4"/>
				<stop  offset="0.381" style="stop-color:#4A80B9"/>
				<stop  offset="0.6504" style="stop-color:#5DA2CA"/>
				<stop  offset="0.8657" style="stop-color:#69B9D5"/>
				<stop  offset="1" style="stop-color:#6EC1DA"/>
			</linearGradient>
			<path fill="url(#SVGID_20_)" d="M190.964,79.164L190.964,79.164L190.964,79.164c-0.246-0.012-0.432-0.223-0.42-0.465l0,0
				c0.012-0.246,0.219-0.435,0.464-0.423l0,0c0.246,0.013,0.436,0.219,0.421,0.465l0,0c-0.009,0.24-0.207,0.424-0.441,0.424l0,0
				C190.98,79.164,190.973,79.164,190.964,79.164z M194.662,78.577c-0.038-0.242,0.131-0.467,0.373-0.505h-0.003
				c0.243-0.036,0.471,0.13,0.507,0.373l0,0c0.038,0.243-0.127,0.467-0.37,0.506l0,0l0,0l0,0c-0.023,0.003-0.048,0.006-0.068,0.006
				l0,0C194.883,78.957,194.695,78.796,194.662,78.577z M186.805,78.533c-0.236-0.063-0.379-0.302-0.319-0.542l0,0
				c0.062-0.237,0.305-0.379,0.542-0.317l0,0c0.236,0.06,0.378,0.302,0.319,0.539l0,0c-0.053,0.202-0.234,0.334-0.43,0.334l0,0
				C186.879,78.548,186.843,78.542,186.805,78.533z M198.67,77.633c-0.086-0.228,0.032-0.485,0.261-0.568l0,0
				c0.231-0.085,0.485,0.029,0.571,0.261l0,0c0.086,0.23-0.03,0.485-0.261,0.571l0,0l0,0l0,0c-0.05,0.018-0.104,0.027-0.153,0.027
				l0,0C198.907,77.924,198.735,77.814,198.67,77.633z M182.859,77.074c-0.222-0.107-0.311-0.374-0.204-0.596l0,0
				c0.106-0.218,0.373-0.31,0.595-0.201l0,0c0.22,0.107,0.312,0.373,0.201,0.592l0,0c-0.076,0.161-0.233,0.249-0.396,0.249l0,0
				C182.987,77.118,182.92,77.104,182.859,77.074z M202.407,75.898c-0.13-0.208-0.068-0.482,0.142-0.613l0,0
				c0.208-0.13,0.479-0.065,0.61,0.142l0,0c0.13,0.208,0.067,0.482-0.14,0.61l0,0c-0.073,0.047-0.156,0.068-0.236,0.068l0,0
				C202.634,76.105,202.49,76.032,202.407,75.898z M179.286,74.847c-0.192-0.151-0.228-0.429-0.079-0.622l0,0
				c0.15-0.195,0.429-0.23,0.624-0.08l0,0c0.192,0.148,0.229,0.426,0.08,0.622l0,0c-0.089,0.113-0.22,0.172-0.353,0.172l0,0
				C179.463,74.939,179.369,74.91,179.286,74.847z M205.716,73.444c-0.172-0.177-0.162-0.458,0.015-0.627l0,0
				c0.178-0.169,0.459-0.164,0.628,0.015l0,0c0.169,0.177,0.162,0.458-0.015,0.63l0,0c-0.086,0.08-0.198,0.121-0.309,0.121l0,0
				C205.921,73.583,205.802,73.536,205.716,73.444z M176.234,71.95c-0.16-0.184-0.137-0.465,0.047-0.625l0,0
				c0.187-0.16,0.468-0.139,0.628,0.048l0,0c0.16,0.184,0.139,0.465-0.048,0.625l0,0c-0.083,0.074-0.186,0.11-0.29,0.11l0,0
				C176.447,72.106,176.323,72.053,176.234,71.95z M208.466,70.377c-0.201-0.139-0.251-0.415-0.109-0.616l0,0
				c0.139-0.201,0.415-0.251,0.616-0.112l0,0c0.201,0.142,0.251,0.417,0.112,0.619l0,0c-0.089,0.124-0.226,0.189-0.364,0.189l0,0
				C208.632,70.457,208.543,70.434,208.466,70.377z M173.827,68.5L173.827,68.5L173.827,68.5c-0.121-0.213-0.044-0.482,0.172-0.604
				l0,0c0.213-0.118,0.482-0.042,0.604,0.172l0,0c0.119,0.215,0.042,0.485-0.171,0.604l0,0c-0.071,0.039-0.146,0.056-0.217,0.056
				l0,0C174.058,68.728,173.907,68.646,173.827,68.5z M210.547,66.822c-0.228-0.095-0.331-0.358-0.233-0.583l0,0
				c0.095-0.225,0.357-0.329,0.583-0.23l0,0c0.226,0.095,0.329,0.355,0.231,0.583l0,0c-0.071,0.166-0.234,0.266-0.406,0.266l0,0
				C210.663,66.857,210.604,66.845,210.547,66.822z M172.161,64.637L172.161,64.637L172.161,64.637
				c-0.074-0.234,0.056-0.485,0.29-0.557l0,0c0.233-0.074,0.482,0.053,0.557,0.287v0.002c0.073,0.234-0.057,0.483-0.291,0.557l0,0
				c-0.044,0.012-0.088,0.021-0.133,0.021l0,0C172.394,64.948,172.219,64.826,172.161,64.637z M211.863,62.92
				c-0.24-0.05-0.394-0.284-0.348-0.524l0,0c0.051-0.24,0.284-0.396,0.525-0.346l0,0c0.238,0.047,0.396,0.284,0.346,0.524l0,0
				c-0.041,0.21-0.228,0.355-0.433,0.355l0,0C211.924,62.929,211.895,62.926,211.863,62.92z M171.314,60.513
				c-0.024-0.243,0.153-0.462,0.396-0.486l0,0c0.242-0.023,0.462,0.151,0.485,0.397l0,0c0.026,0.242-0.15,0.461-0.396,0.485l0,0
				c-0.015,0.003-0.03,0.003-0.045,0.003l0,0C171.53,60.913,171.337,60.744,171.314,60.513z M211.921,58.388
				c0-0.006,0-0.012,0-0.018l0,0c0-0.009,0-0.017,0-0.026l0,0c0-0.246,0.198-0.444,0.441-0.447l0,0c0.245,0,0.446,0.198,0.446,0.443
				l0,0c0,0.009,0,0.016,0,0.024l0,0c0,0.008,0,0.015,0,0.023l0,0l0,0l0,0c0,0.246-0.197,0.444-0.443,0.444l0,0
				C212.12,58.832,211.921,58.634,211.921,58.388z M171.707,56.792c-0.245-0.024-0.423-0.239-0.398-0.485l0,0l0,0l0,0
				c0.023-0.243,0.242-0.42,0.485-0.396l0,0c0.245,0.023,0.423,0.242,0.399,0.485l0,0c-0.023,0.228-0.217,0.399-0.441,0.399l0,0
				C171.737,56.795,171.722,56.795,171.707,56.792z M211.51,54.335c-0.051-0.24,0.104-0.474,0.343-0.524l0,0
				c0.24-0.05,0.474,0.104,0.524,0.344l0,0c0.05,0.242-0.104,0.477-0.344,0.527l0,0c-0.032,0.006-0.062,0.009-0.092,0.009l0,0
				C211.735,54.69,211.551,54.545,211.51,54.335z M172.439,52.739c-0.234-0.074-0.364-0.322-0.294-0.556l0,0
				c0.074-0.233,0.323-0.364,0.557-0.29l0,0c0.234,0.071,0.364,0.323,0.293,0.556l0,0c-0.059,0.19-0.233,0.311-0.423,0.311l0,0
				C172.527,52.76,172.483,52.754,172.439,52.739z M210.296,50.495L210.296,50.495c-0.098-0.225,0.005-0.488,0.23-0.583l0,0
				c0.226-0.098,0.485,0.006,0.583,0.231l0,0c0.099,0.225-0.005,0.485-0.23,0.583l0,0c-0.057,0.023-0.118,0.036-0.178,0.036l0,0
				C210.531,50.762,210.368,50.664,210.296,50.495z M173.975,48.917c-0.213-0.118-0.291-0.388-0.172-0.604l0,0
				c0.118-0.213,0.391-0.291,0.604-0.171l0,0c0.212,0.118,0.293,0.387,0.174,0.604l0,0c-0.082,0.145-0.233,0.228-0.391,0.228l0,0
				C174.118,48.974,174.043,48.956,173.975,48.917z M208.331,46.978c-0.139-0.201-0.092-0.477,0.109-0.618l0,0
				c0.201-0.14,0.477-0.092,0.619,0.109l0,0c0.14,0.201,0.092,0.477-0.11,0.618l0,0c-0.077,0.054-0.165,0.08-0.254,0.08l0,0
				C208.555,47.167,208.417,47.103,208.331,46.978z M176.254,45.486c-0.187-0.16-0.207-0.441-0.047-0.628l0,0
				c0.156-0.187,0.438-0.208,0.624-0.047l0,0c0.187,0.159,0.208,0.441,0.047,0.625l0,0c-0.085,0.104-0.21,0.157-0.337,0.157l0,0
				C176.441,45.593,176.337,45.558,176.254,45.486z M205.699,43.929c-0.178-0.169-0.187-0.45-0.018-0.628l0,0
				c0.169-0.181,0.449-0.187,0.63-0.018l0,0c0.178,0.169,0.184,0.45,0.016,0.627l0,0c-0.086,0.092-0.205,0.14-0.323,0.14l0,0
				C205.894,44.051,205.785,44.009,205.699,43.929z M179.173,42.579c-0.151-0.195-0.115-0.473,0.077-0.625l0,0
				c0.192-0.148,0.474-0.115,0.624,0.08l0,0c0.148,0.193,0.116,0.471-0.079,0.622l0,0c-0.081,0.062-0.178,0.094-0.272,0.094l0,0
				C179.393,42.75,179.259,42.691,179.173,42.579z M202.51,41.466L202.51,41.466c-0.207-0.13-0.272-0.403-0.142-0.614l0,0
				c0.13-0.207,0.402-0.272,0.609-0.142l0,0c0.21,0.131,0.272,0.403,0.143,0.613l0,0c-0.083,0.133-0.229,0.21-0.376,0.21l0,0
				C202.665,41.534,202.583,41.511,202.51,41.466z M182.614,40.314c-0.106-0.219-0.019-0.486,0.203-0.592l0,0c0,0,0,0-0.002,0l0,0
				c0.222-0.11,0.488-0.021,0.595,0.202l0,0c0.109,0.218,0.018,0.485-0.201,0.595l0,0c-0.063,0.029-0.13,0.044-0.195,0.044l0,0
				C182.85,40.563,182.69,40.474,182.614,40.314z M198.889,39.695c-0.228-0.085-0.346-0.34-0.26-0.568l0,0
				c0.082-0.23,0.338-0.349,0.568-0.263l0,0c0.23,0.082,0.35,0.337,0.264,0.568l0,0c-0.065,0.18-0.237,0.29-0.418,0.29l0,0
				C198.994,39.722,198.943,39.713,198.889,39.695z M186.441,38.796c-0.059-0.24,0.083-0.48,0.319-0.542l0,0
				c0.237-0.062,0.479,0.08,0.542,0.317l0,0c0.06,0.236-0.083,0.479-0.319,0.541l0,0c-0.035,0.009-0.074,0.015-0.112,0.015l0,0
				C186.675,39.127,186.495,38.994,186.441,38.796z M194.991,38.695c-0.242-0.035-0.411-0.263-0.376-0.503l0,0
				c0.038-0.243,0.264-0.411,0.506-0.374l0,0c0.243,0.036,0.409,0.261,0.373,0.504l0,0c-0.032,0.222-0.222,0.379-0.438,0.379l0,0
				C195.032,38.701,195.011,38.698,194.991,38.695z M190.5,38.079c-0.016-0.245,0.174-0.453,0.42-0.464l0,0
				c0.246-0.015,0.452,0.174,0.464,0.42l0,0c0.013,0.246-0.174,0.454-0.42,0.465l0,0c-0.009,0-0.015,0.002-0.023,0.002l0,0
				C190.707,38.502,190.512,38.316,190.5,38.079z"/>
		</g>
		<g>
			<linearGradient id="SVGID_21_" gradientUnits="userSpaceOnUse" x1="165.1841" y1="25.2466" x2="223.9164" y2="97.8117">
				<stop  offset="9.999999e-008" style="stop-color:#2B4B9F"/>
				<stop  offset="0.0706" style="stop-color:#3155A4"/>
				<stop  offset="0.381" style="stop-color:#4A80B9"/>
				<stop  offset="0.6504" style="stop-color:#5DA2CA"/>
				<stop  offset="0.8657" style="stop-color:#69B9D5"/>
				<stop  offset="1" style="stop-color:#6EC1DA"/>
			</linearGradient>
			<path fill="url(#SVGID_21_)" d="M192.007,70.857c-6.876,0-12.47-5.594-12.47-12.47s5.594-12.47,12.47-12.47
				s12.471,5.594,12.471,12.47S198.883,70.857,192.007,70.857z M192.007,46.065c-6.794,0-12.321,5.528-12.321,12.322
				s5.527,12.322,12.321,12.322c6.795,0,12.322-5.527,12.322-12.322S198.802,46.065,192.007,46.065z"/>
		</g>
	</g>
</g>
<g>
</g>
<g>
</g>
<g>
</g>
<g>
</g>
<g>
</g>
<g>
</g>
</svg>
