<?xml version="1.0" encoding="utf-8"?>
<!-- Generator: Adobe Illustrator 22.0.0, SVG Export Plug-In . SVG Version: 6.00 Build 0)  -->
<svg version="1.1" id="Layer_1" xmlns="http://www.w3.org/2000/svg" xmlns:xlink="http://www.w3.org/1999/xlink" x="0px" y="0px"
	 viewBox="0 0 200 200" style="enable-background:new 0 0 200 200;" xml:space="preserve">
<style type="text/css">
	.st0{opacity:0.5;}
	.st1{fill:#FFFFFF;}
</style>
<g class="st0">
	<path class="st1" d="M100.6,196.9C47.9,196.9,5,154,5,101.3C5,48.8,47.8,5.9,100.4,5.9c52.7-0.1,95.6,42.9,95.6,95.5
		S153.2,196.8,100.6,196.9z M86.3,116.7c-0.4,0-0.8,0-1.1,0c-0.5-0.8-1-1.6-1.6-2.2c-6.1-6.2-12.2-12.4-18.5-18.4
		c-5.2-5.1-12.4-5.8-17.8-1.8c-7,5.2-7.5,14.5-1,21c9.7,9.8,19.5,19.6,29.4,29.3c0.9,0.9,2,1.8,3.1,2.5c5.7,3.5,12.1,2.6,17.4-2.7
		c19.5-19.5,39-39,58.5-58.5c0.6-0.6,1.1-1.2,1.7-1.8c4.5-5.6,3.8-13.8-1.7-18.5c-5.7-4.9-13.3-4.4-19.2,1.5
		c-15.8,15.8-31.6,31.6-47.4,47.5C87.3,115.1,86.9,116,86.3,116.7z"/>
</g>
</svg>
