<?xml version="1.0" encoding="utf-8"?>
<!-- Generator: Adobe Illustrator 22.0.0, SVG Export Plug-In . SVG Version: 6.00 Build 0)  -->
<svg version="1.1" id="Layer_1" xmlns="http://www.w3.org/2000/svg" xmlns:xlink="http://www.w3.org/1999/xlink" x="0px" y="0px"
	 viewBox="0 0 300 300" style="enable-background:new 0 0 300 300;" xml:space="preserve">
<style type="text/css">
	.st0{fill:#AABBCC;}
	.st1{fill:#D8DEE8;}
	.st2{fill:url(#SVGID_1_);}
	.st3{fill:url(#SVGID_2_);}
	.st4{fill:#FFFFFF;}
	.st5{fill:url(#SVGID_3_);}
	.st6{fill:url(#SVGID_4_);}
	.st7{clip-path:url(#SVGID_6_);}
	.st8{fill:url(#SVGID_7_);}
	.st9{fill:url(#SVGID_8_);}
	.st10{fill:url(#SVGID_9_);}
	.st11{fill:url(#SVGID_10_);}
	.st12{fill:url(#SVGID_11_);}
	.st13{fill:url(#SVGID_12_);}
	.st14{fill:url(#SVGID_13_);}
	.st15{clip-path:url(#SVGID_15_);}
	.st16{fill:url(#SVGID_16_);}
	.st17{fill:url(#SVGID_17_);}
	.st18{fill:url(#SVGID_18_);}
	.st19{fill:url(#SVGID_19_);}
	.st20{fill:url(#SVGID_20_);}
	.st21{fill:url(#SVGID_21_);}
	.st22{fill:url(#SVGID_22_);}
	.st23{fill:url(#SVGID_23_);}
	.st24{clip-path:url(#SVGID_25_);}
	.st25{fill:url(#SVGID_26_);}
	.st26{fill:url(#SVGID_27_);}
	.st27{fill:url(#SVGID_28_);}
	.st28{fill:url(#SVGID_29_);}
	.st29{fill:url(#SVGID_30_);}
	.st30{fill:url(#SVGID_31_);}
	.st31{fill:url(#SVGID_32_);}
	.st32{fill:url(#SVGID_33_);}
	.st33{fill:url(#SVGID_34_);}
	.st34{fill:url(#SVGID_35_);}
	.st35{fill:url(#SVGID_36_);}
	.st36{opacity:0.3;fill:url(#SVGID_37_);}
	.st37{fill:url(#SVGID_38_);}
	.st38{fill:url(#SVGID_39_);}
	.st39{fill:url(#SVGID_40_);}
	.st40{fill:url(#SVGID_41_);}
	.st41{fill:url(#SVGID_42_);}
	.st42{fill:url(#SVGID_43_);}
	.st43{fill:url(#SVGID_44_);}
	.st44{fill:url(#SVGID_45_);}
	.st45{opacity:0.3;fill:url(#SVGID_46_);}
	.st46{fill:url(#SVGID_47_);}
	.st47{opacity:0.3;fill:url(#SVGID_48_);}
	.st48{fill:url(#SVGID_49_);}
	.st49{fill:url(#SVGID_50_);}
	.st50{opacity:0.3;fill:url(#SVGID_51_);}
	.st51{fill:url(#SVGID_52_);}
	.st52{fill:url(#SVGID_53_);}
	.st53{clip-path:url(#SVGID_55_);fill:url(#SVGID_56_);}
	.st54{opacity:0.3;clip-path:url(#SVGID_55_);fill:url(#SVGID_57_);}
	.st55{fill:url(#SVGID_58_);}
	.st56{fill:url(#SVGID_59_);}
	.st57{fill:url(#SVGID_60_);}
	.st58{opacity:0.3;fill:url(#SVGID_61_);}
	.st59{fill:url(#SVGID_62_);}
	.st60{fill:url(#SVGID_63_);}
	.st61{opacity:0.3;}
	.st62{fill:url(#SVGID_64_);}
	.st63{fill:url(#SVGID_65_);}
	.st64{fill:url(#SVGID_66_);}
	.st65{fill:url(#SVGID_67_);}
	.st66{fill:url(#SVGID_68_);}
	.st67{opacity:0.8;}
	.st68{fill:url(#SVGID_69_);}
</style>
<g>
	<g>
		<path class="st0" d="M172.1,190.4c7.1,3.6,16.1,0.3,20-7.4c3.9-7.7,1.3-16.9-5.8-20.5c-0.4-0.2-0.7-0.3-1.1-0.5
			c1.3-4.3,2.3-8.6,3-12.9c0.4,0,0.8,0,1.2,0c8.1-0.7,14.6-8.2,14.4-16.7c-0.2-8.5-6.9-14.8-15-14c-0.4,0-0.8,0.1-1.3,0.2
			c-0.8-4.2-2-8.3-3.5-12.3c0.4-0.2,0.7-0.4,1.1-0.7c6.9-4.9,9.2-14.5,5-21.5c-4.2-7-13.3-8.7-20.2-3.8c-0.4,0.2-0.7,0.5-1,0.8
			c-2.7-3-5.8-5.8-9-8.4c0.2-0.4,0.5-0.8,0.7-1.2c3.9-7.7,9-16.1,1.9-19.6c-16.6-8.1-23.7-1.2-27.6,6.5c-0.2,0.4-0.4,0.8-0.5,1.2
			c-4-1.1-8-1.9-12.1-2.3c0-0.4,0-0.9,0-1.3c-0.2-8.5,2.3-13.1-5.8-13.2c-17.8-0.3-23.8,7.4-23.6,15.9c0,0.4,0,0.9,0.1,1.3
			c-4.1,1.2-8.1,2.6-12,4.4c-0.2-0.4-0.4-0.8-0.6-1.1c-4.2-7-13.3-8.7-20.2-3.8c-6.9,4.9-9.2,14.5-5,21.5c0.2,0.4,0.5,0.7,0.7,1
			c-3.1,3.1-6,6.4-8.6,10c-0.3-0.2-0.7-0.4-1.1-0.6c-7.1-3.6-16.1-0.3-20,7.4c-3.9,7.7-1.3,16.9,5.8,20.5c0.4,0.2,0.7,0.3,1.1,0.5
			c-1.3,4.3-2.3,8.6-3,12.9c-0.4,0-0.8,0-1.2,0c-8.1,0.7-14.6,8.2-14.4,16.7c0.2,8.5,6.9,14.8,15,14c0.4,0,0.8-0.1,1.3-0.2
			c0.8,4.2,2,8.3,3.5,12.3c-0.4,0.2-0.7,0.4-1.1,0.7c-6.9,4.9-9.2,14.5-5,21.5c4.2,7,18.1,10.2,25.1,5.4c0.4-0.2-4.2-2-3.9-2.3
			c2.7,3,5.8,5.8,9,8.4c-0.2,0.4-0.5,0.8-0.7,1.2c-3.9,7.7-1.3,16.9,5.8,20.5c7.1,3.6,16.1,0.3,20-7.4c0.2-0.4,0.4-0.8,0.5-1.2
			c4,1.1,8,1.9,12.1,2.3c0,0.4,0,0.9,0,1.3c0.2,8.5,6.9,14.8,15,14c8.1-0.7,14.6-8.2,14.4-16.7c0-0.4,0-0.9-0.1-1.3
			c4.1-1.2,8.1-2.6,12-4.4c0.2,0.4,0.4,0.8,0.6,1.1c4.2,7,13.3,8.7,20.2,3.8c6.9-4.9,9.2-14.5,5-21.5c-0.2-0.4-0.5-0.7-0.7-1
			c3.1-3.1,6-6.4,8.6-10C171.4,190,171.7,190.3,172.1,190.4z M83.4,191.6c-25.8-13.1-35.3-46.4-21.1-74.4c14.2-28,46.7-40,72.5-26.9
			c25.8,13.1,35.3,46.4,21.1,74.4C141.7,192.6,109.2,204.7,83.4,191.6z"/>
		<path class="st0" d="M189.4,149.1c8.1-0.7,14.6-8.2,14.4-16.7c-0.2-8.5-6.9-14.8-15-14c-0.4,0-0.8,0.1-1.3,0.2
			c-0.8-4.2-2-8.3-3.5-12.3c0.4-0.2,0.7-0.4,1.1-0.7c6.9-4.9,15.5-16.6,10.6-23.1c-9.3-12.4-18.9-7-25.9-2.1c-0.4,0.2-0.7,0.5-1,0.8
			c-2.7-3-5.8-5.8-9-8.4c0.2-0.4,0.5-0.8,0.7-1.2c2.1-4.2,2.3-8.8,0.9-12.8c-6.7,11.8-13.3,23.7-19.8,35.6
			c20.6,15.1,27.2,44.9,14.3,70.3c-10.9,21.5-32.6,33.6-53.8,32.1c-0.9,2.5-1.9,4.9-2.9,7.3c-2.7,6.6-5.9,13-9,19.5
			c2,0.4,3.9,0.7,5.9,0.9c0,0.4,0,0.9,0,1.3c0.2,8.5,5.3,15.7,20,14.9c8.1-0.4,9.5-9,9.4-17.5c0-0.4,0-0.9-0.1-1.3
			c4.1-1.2,8.1-2.6,12-4.4c0.2,0.4,0.4,0.8,0.6,1.1c4.2,7,18.8,10,25.8,5.1c6.9-4.9,3.6-15.7-0.6-22.7c-0.2-0.4-0.5-0.7-0.7-1
			c3.1-3.1,6-6.4,8.6-10c0.3,0.2,0.7,0.4,1.1,0.6c7.1,3.6,16.1,0.3,20-7.4c3.9-7.7,1.3-16.9-5.8-20.5c-0.4-0.2-0.7-0.3-1.1-0.5
			c1.3-4.3,2.3-8.6,3-12.9C188.6,149.2,189,149.2,189.4,149.1z"/>
		<path class="st1" d="M179.8,191.3c7.1,3.6,16.1,0.3,20-7.4c3.9-7.7,1.3-16.9-5.8-20.5c-0.4-0.2-0.7-0.3-1.1-0.5
			c1.3-4.3,2.3-8.6,3-12.9c0.4,0,0.8,0,1.2,0c8.1-0.7,14.6-8.2,14.4-16.7c-0.2-8.5-6.9-14.8-15-14c-0.4,0-0.8,0.1-1.3,0.2
			c-0.8-4.2-2-8.3-3.5-12.3c0.4-0.2,0.7-0.4,1.1-0.7c6.9-4.9,9.2-14.5,5-21.5c-4.2-7-13.3-8.7-20.2-3.8c-0.4,0.2-0.7,0.5-1,0.8
			c-2.7-3-5.8-5.8-9-8.4c0.2-0.4,0.5-0.8,0.7-1.2c3.9-7.7,1.3-16.9-5.8-20.5c-7.1-3.6-16.1-0.3-20,7.4c-0.2,0.4-0.4,0.8-0.5,1.2
			c-4-1.1-8-1.9-12.1-2.3c0-0.4,0-0.9,0-1.3c-0.2-8.5-6.9-14.8-15-14c-8.1,0.7-14.6,8.2-14.4,16.7c0,0.4,0,0.9,0.1,1.3
			c-4.1,1.2-8.1,2.6-12,4.4c-0.2-0.4-0.4-0.8-0.6-1.1c-4.2-7-13.3-8.7-20.2-3.8c-6.9,4.9-9.2,14.5-5,21.5c0.2,0.4,0.5,0.7,0.7,1
			c-3.1,3.1-6,6.4-8.6,10c-0.3-0.2-0.7-0.4-1.1-0.6c-7.1-3.6-16.1-0.3-20,7.4c-3.9,7.7-1.3,16.9,5.8,20.5c0.4,0.2,0.7,0.3,1.1,0.5
			c-1.3,4.3-2.3,8.6-3,12.9c-0.4,0-0.8,0-1.2,0c-8.1,0.7-14.6,8.2-14.4,16.7c0.2,8.5,6.9,14.8,15,14c0.4,0,0.8-0.1,1.3-0.2
			c0.8,4.2,2,8.3,3.5,12.3c-0.4,0.2-0.7,0.4-1.1,0.7c-6.9,4.9-9.2,14.5-5,21.5c4.2,7,13.3,8.7,20.2,3.8c0.4-0.2,0.7-0.5,1-0.8
			c2.7,3,5.8,5.8,9,8.4c-0.2,0.4-0.5,0.8-0.7,1.2c-3.9,7.7-1.3,16.9,5.8,20.5c7.1,3.6,16.1,0.3,20-7.4c0.2-0.4,0.4-0.8,0.5-1.2
			c4,1.1,8,1.9,12.1,2.3c0,0.4,0,0.9,0,1.3c0.2,8.5,6.9,14.8,15,14c8.1-0.7,14.6-8.2,14.4-16.7c0-0.4,0-0.9-0.1-1.3
			c4.1-1.2,8.1-2.6,12-4.4c0.2,0.4,0.4,0.8,0.6,1.1c4.2,7,13.3,8.7,20.2,3.8c6.9-4.9,9.2-14.5,5-21.5c-0.2-0.4-0.5-0.7-0.7-1
			c3.1-3.1,6-6.4,8.6-10C179,190.9,179.4,191.1,179.8,191.3z M91,192.4C65.2,179.3,55.8,146,70,118c14.2-28,46.7-40,72.5-26.9
			c25.8,13.1,35.3,46.4,21.1,74.4C149.3,193.5,116.9,205.6,91,192.4z"/>
	</g>
	<g>
		<linearGradient id="SVGID_1_" gradientUnits="userSpaceOnUse" x1="15.534" y1="74.357" x2="78.4149" y2="74.357">
			<stop  offset="0" style="stop-color:#311944"/>
			<stop  offset="1" style="stop-color:#893976"/>
		</linearGradient>
		<path class="st2" d="M78.4,72.4c0,17.4-14,32.4-31.3,33.6c-17.4,1.2-31.5-12.1-31.5-29.6s14.1-32.5,31.5-33.6
			C64.4,41.7,78.4,55,78.4,72.4z"/>
		<linearGradient id="SVGID_2_" gradientUnits="userSpaceOnUse" x1="19.2549" y1="75.4707" x2="82.1358" y2="75.4707">
			<stop  offset="0" style="stop-color:#FFC444"/>
			<stop  offset="0.9964" style="stop-color:#F36F56"/>
		</linearGradient>
		<path class="st3" d="M82.1,73.5c0,17.4-14,32.4-31.3,33.6C33.4,108.2,19.3,95,19.3,77.5s14.1-32.5,31.5-33.6
			C68.1,42.8,82.1,56.1,82.1,73.5z"/>
		<path class="st4" d="M49.7,92.6c-1.4,0.1-2.6-0.5-3.3-1.7l-11.9-19c-1.1-1.8-0.5-4.2,1.3-5.5c1.8-1.2,4.2-0.8,5.4,1l8.2,13.2
			l10.8-22.1c1-2,3.3-2.9,5.2-2c1.9,0.9,2.7,3.2,1.7,5.1l-14,28.6c-0.6,1.3-1.9,2.2-3.3,2.4C49.8,92.5,49.7,92.5,49.7,92.6z"/>
	</g>
	<g>
		<linearGradient id="SVGID_3_" gradientUnits="userSpaceOnUse" x1="179.5305" y1="197.8534" x2="244.9879" y2="197.8534">
			<stop  offset="0" style="stop-color:#311944"/>
			<stop  offset="1" style="stop-color:#893976"/>
		</linearGradient>
		<path class="st5" d="M212.9,230.7c-18.2,1.3-33.4-12.6-33.4-31.1c0-18.5,15.1-34,33.4-34.6c17.8-0.6,32.1,13.4,32.1,31.2
			C245,213.9,230.7,229.4,212.9,230.7z"/>
		<linearGradient id="SVGID_4_" gradientUnits="userSpaceOnUse" x1="181.7533" y1="198.5943" x2="247.2106" y2="198.5943">
			<stop  offset="0" style="stop-color:#FF9085"/>
			<stop  offset="1" style="stop-color:#FB6FBB"/>
		</linearGradient>
		<path class="st6" d="M215.1,231.4c-18.2,1.3-33.4-12.6-33.4-31.1s15.1-34,33.4-34.6c17.8-0.6,32.1,13.4,32.1,31.2
			S233,230.2,215.1,231.4z"/>
		<path class="st4" d="M245,197c0,16.6-13.3,31-29.9,32.2c-17,1.2-31-11.8-31-29s14-31.6,31-32.2C231.8,167.4,245,180.4,245,197z"/>
		<g>
			<defs>
				<path id="SVGID_5_" d="M242.9,197.1c0,15.4-12.3,28.7-27.7,29.8c-15.7,1.1-28.7-10.9-28.7-26.8s13-29.3,28.7-29.8
					C230.5,169.7,242.9,181.7,242.9,197.1z"/>
			</defs>
			<clipPath id="SVGID_6_">
				<use xlink:href="#SVGID_5_"  style="overflow:visible;"/>
			</clipPath>
			<g class="st7">
				<linearGradient id="SVGID_7_" gradientUnits="userSpaceOnUse" x1="225.0267" y1="176.1689" x2="215.9792" y2="204.2161">
					<stop  offset="0" style="stop-color:#AB316D"/>
					<stop  offset="1" style="stop-color:#792D3D"/>
				</linearGradient>
				<path class="st8" d="M211.5,177.5c-5.4,0.2-10.5,3.5-12.8,7.8c-2.7,5.2,0.9,7.5-0.9,15.7c-1.6,7.6-5.5,9.1-4.8,14
					c0.7,5.4,5.9,8.4,8,9.7c9.3,5.5,23.9,4.3,31.3-4c0.6-0.7,5.7-6.4,4.3-11.4c-1.2-4.4-6.5-4.1-7.6-8.7c-0.9-3.9,2.7-5.5,2.3-11.2
					c-0.1-1.1-0.4-6.5-4.4-8.7c-2.7-1.5-5.6-0.8-6.7-0.5C218.9,179.4,215.8,177.4,211.5,177.5z"/>
				<linearGradient id="SVGID_8_" gradientUnits="userSpaceOnUse" x1="184.0962" y1="223.0421" x2="245.0362" y2="223.0421">
					<stop  offset="0" style="stop-color:#FF9085"/>
					<stop  offset="1" style="stop-color:#FB6FBB"/>
				</linearGradient>
				<path class="st9" d="M184.1,221.2c0,0,27.3-17.7,60.9-3.9c0,0-4.3,13.9-29.9,16.4C188.7,236.3,184.1,221.2,184.1,221.2z"/>
				<linearGradient id="SVGID_9_" gradientUnits="userSpaceOnUse" x1="214.2556" y1="201.0496" x2="214.373" y2="223.8087">
					<stop  offset="3.597000e-03" style="stop-color:#F36F56"/>
					<stop  offset="1" style="stop-color:#FFC444"/>
				</linearGradient>
				<path class="st10" d="M210.3,198.8l-1,7.7c-0.3,2.6-2.1,4.9-4.6,5.9l-8.3,3.3c0,0,15.9,6.6,36-2.3l-9.2-2.6
					c-2.6-0.8-4.4-3.2-4.5-6l-0.3-6.5L210.3,198.8z"/>
				<linearGradient id="SVGID_10_" gradientUnits="userSpaceOnUse" x1="217.4812" y1="168.3217" x2="212.2385" y2="203.6527">
					<stop  offset="3.597000e-03" style="stop-color:#F36F56"/>
					<stop  offset="1" style="stop-color:#FFC444"/>
				</linearGradient>
				<path class="st11" d="M222.7,191.5c0,6.4-3.9,13.5-8.7,13.8c-4.8,0.3-8.7-6.5-8.7-13c0-6.5,3.9-10.2,8.7-10.4
					C218.8,181.7,222.7,185,222.7,191.5z"/>
				<linearGradient id="SVGID_11_" gradientUnits="userSpaceOnUse" x1="218.4227" y1="173.8803" x2="209.0775" y2="202.8504">
					<stop  offset="0" style="stop-color:#AB316D"/>
					<stop  offset="1" style="stop-color:#792D3D"/>
				</linearGradient>
				<path class="st12" d="M217.9,185.9c-2.6,0.3-6.5,1.1-9.3,4.1c-4.6,5-2.4,12.5-4.4,13.1c-1.8,0.5-4.6-4.8-4.6-10.7
					c0-5,1.7-10.9,6.2-12.6c2.6-1,3.4,0.4,11.8,0.9c4.9,0.3,3,2.6,4.1,3.3c4.9,3.4,4.3,15.4,1.6,15.7
					C222,199.8,220.3,196.7,217.9,185.9z"/>
			</g>
		</g>
	</g>
	<g>
		<linearGradient id="SVGID_12_" gradientUnits="userSpaceOnUse" x1="223.072" y1="127.2869" x2="290.0586" y2="127.2869">
			<stop  offset="0" style="stop-color:#311944"/>
			<stop  offset="1" style="stop-color:#893976"/>
		</linearGradient>
		<path class="st13" d="M257.2,161.5c-18.7,0.6-34.1-14.6-34.1-33.8c0-19.2,15.5-34.8,34.1-34.6c18.3,0.1,32.9,15.3,32.9,33.8
			C290.1,145.4,275.5,160.9,257.2,161.5z"/>
		<linearGradient id="SVGID_13_" gradientUnits="userSpaceOnUse" x1="225.4232" y1="127.2869" x2="292.4098" y2="127.2869">
			<stop  offset="0" style="stop-color:#FF9085"/>
			<stop  offset="1" style="stop-color:#FB6FBB"/>
		</linearGradient>
		<path class="st14" d="M259.6,161.5c-18.7,0.6-34.1-14.6-34.1-33.8c0-19.2,15.5-34.8,34.1-34.6c18.3,0.1,32.9,15.3,32.9,33.8
			C292.4,145.4,277.8,160.9,259.6,161.5z"/>
		<path class="st4" d="M290.2,126.9c0,17.3-13.6,31.7-30.6,32.2c-17.4,0.5-31.7-13.5-31.7-31.4c0-17.9,14.3-32.3,31.7-32.2
			C276.6,95.5,290.2,109.6,290.2,126.9z"/>
		<g>
			<defs>
				<path id="SVGID_14_" d="M288,126.9c0,16-12.6,29.4-28.4,29.8c-16.1,0.5-29.3-12.6-29.3-29.1c0-16.6,13.3-29.9,29.3-29.8
					C275.4,97.9,288,110.9,288,126.9z"/>
			</defs>
			<clipPath id="SVGID_15_">
				<use xlink:href="#SVGID_14_"  style="overflow:visible;"/>
			</clipPath>
			<g class="st15">
				<linearGradient id="SVGID_16_" gradientUnits="userSpaceOnUse" x1="227.8194" y1="152.7743" x2="290.1831" y2="152.7743">
					<stop  offset="0" style="stop-color:#AB316D"/>
					<stop  offset="1" style="stop-color:#792D3D"/>
				</linearGradient>
				<path class="st16" d="M227.8,149.6c0,0,27.9-17.2,62.4-1.5c0,0-4.4,14.3-30.6,15.9C232.5,165.6,227.8,149.6,227.8,149.6z"/>
				<linearGradient id="SVGID_17_" gradientUnits="userSpaceOnUse" x1="258.5943" y1="129.9354" x2="258.7132" y2="153.0072">
					<stop  offset="3.597000e-03" style="stop-color:#F36F56"/>
					<stop  offset="1" style="stop-color:#FFC444"/>
				</linearGradient>
				<path class="st17" d="M254.6,127.3l-1,7.9c-0.3,5-5.2,7-5.2,7c5.7,6.8,16.7,6.3,20.6-0.4c-2.7-1-5.6-5.1-5.7-8l-0.3-6.7
					L254.6,127.3z"/>
				<linearGradient id="SVGID_18_" gradientUnits="userSpaceOnUse" x1="261.9926" y1="98.1059" x2="256.1686" y2="134.0733">
					<stop  offset="3.597000e-03" style="stop-color:#F36F56"/>
					<stop  offset="1" style="stop-color:#FFC444"/>
				</linearGradient>
				<path class="st18" d="M267.3,120.2c0,6.7-4,13.9-8.9,14c-4.9,0.1-8.9-7.1-8.9-13.8c0-6.7,4-10.4,8.9-10.5
					C263.3,109.9,267.3,113.5,267.3,120.2z"/>
				<linearGradient id="SVGID_19_" gradientUnits="userSpaceOnUse" x1="258.9326" y1="105.56" x2="256.0818" y2="123.1653">
					<stop  offset="0" style="stop-color:#444B8C"/>
					<stop  offset="0.9964" style="stop-color:#26264F"/>
				</linearGradient>
				<path class="st19" d="M249.2,122.1c0.5-0.1,1-0.2,1.5-0.3c-0.2-0.6-1.2-3,0-5.1c1.1-2.1,3.7-3.1,5.7-3c2.3,0.1,3.6,1.2,4.8,0.4
					c0.6-0.5,0.8-1.3,0.9-2c0.1,0.4,0.2,1,0.5,1.7c0.8,2,2.3,2.4,3.1,3.7c0.5,0.9,0.9,2.3,0,4.9c0.4,0,0.9-0.1,1.3-0.1
					c0.5-1.5,1-3.5,1.3-6c0.5-3.7,0.9-6.3-0.6-7.6c-0.3-0.2-1.6-1.2-4.6-0.3c-0.7-0.8-2.2-2.1-4.5-2.8c-0.8-0.2-4.7-1.4-8.3,1.1
					c-2.4,1.8-4.3,5-3.7,7.7c0.3,1.4,1.2,2.1,2,4.8C249,120.5,249.1,121.4,249.2,122.1z"/>
				<linearGradient id="SVGID_20_" gradientUnits="userSpaceOnUse" x1="271.1068" y1="99.6033" x2="265.3014" y2="135.4561">
					<stop  offset="3.597000e-03" style="stop-color:#F36F56"/>
					<stop  offset="1" style="stop-color:#FFC444"/>
				</linearGradient>
				<path class="st20" d="M266.1,122.7c0,0,0.6-2.9,2.3-2.7c1.7,0.3-0.7,5.1-2.3,5.7V122.7z"/>
				<linearGradient id="SVGID_21_" gradientUnits="userSpaceOnUse" x1="253.4461" y1="96.7257" x2="247.6106" y2="132.764">
					<stop  offset="3.597000e-03" style="stop-color:#F36F56"/>
					<stop  offset="1" style="stop-color:#FFC444"/>
				</linearGradient>
				<path class="st21" d="M250.6,122.8c0,0-0.6-2.9-2.3-2.6c-1.8,0.3,0.8,5.1,2.3,5.7V122.8z"/>
			</g>
		</g>
	</g>
	<g>
		<linearGradient id="SVGID_22_" gradientUnits="userSpaceOnUse" x1="159.7227" y1="51.7137" x2="244.954" y2="51.7137">
			<stop  offset="0" style="stop-color:#311944"/>
			<stop  offset="1" style="stop-color:#893976"/>
		</linearGradient>
		<path class="st22" d="M203.2,94.4c-23.7-0.2-43.4-19.9-43.4-43.9S179.4,7.9,203.2,9c23.2,1.1,41.8,20.7,41.8,43.8
			C245,76,226.4,94.6,203.2,94.4z"/>
		<linearGradient id="SVGID_23_" gradientUnits="userSpaceOnUse" x1="162.6018" y1="51.7137" x2="247.8331" y2="51.7137">
			<stop  offset="0" style="stop-color:#FF9085"/>
			<stop  offset="1" style="stop-color:#FB6FBB"/>
		</linearGradient>
		<path class="st23" d="M206,94.4c-23.7-0.2-43.4-19.9-43.4-43.9S182.3,7.9,206,9c23.2,1.1,41.8,20.7,41.8,43.8
			C247.8,76,229.3,94.6,206,94.4z"/>
		<path class="st4" d="M245,52.8c0,21.6-17.3,38.9-39,38.7c-22.1-0.2-40.4-18.5-40.4-40.9c0-22.4,18.3-39.6,40.4-38.6
			C227.7,13,245,31.2,245,52.8z"/>
		<g>
			<defs>
				<path id="SVGID_24_" d="M242.2,52.7c0,20-16,36-36.1,35.8c-20.5-0.2-37.3-17.2-37.3-37.8S185.6,14,206,14.9
					C226.1,15.8,242.2,32.7,242.2,52.7z"/>
			</defs>
			<clipPath id="SVGID_25_">
				<use xlink:href="#SVGID_24_"  style="overflow:visible;"/>
			</clipPath>
			<g class="st24">
				<linearGradient id="SVGID_26_" gradientUnits="userSpaceOnUse" x1="258.3668" y1="-34.0072" x2="157.39" y2="157.2234">
					<stop  offset="0" style="stop-color:#AB316D"/>
					<stop  offset="1" style="stop-color:#792D3D"/>
				</linearGradient>
				<path class="st25" d="M176.6,78c-2.1-6.2,5.9-8.3,6.9-22.7c0.1-1,1.4-20.7,4.5-24.5c0.4-0.5,0.9-0.9,0.9-0.9
					c1.5-1.2,3.9-1,12.2-4.5c7.2-3,6.7-2.9,7.7-3.1c5.4-1,13.3,3.9,16,10.5c2.3,5.9-0.5,10.9,3.7,21.3l0,0
					c5.2,14.9,7.8,22.4,5.5,27.1C226.7,95.4,181.4,91.9,176.6,78z"/>
				<linearGradient id="SVGID_27_" gradientUnits="userSpaceOnUse" x1="205.3663" y1="77.8511" x2="201.5278" y2="146.4661">
					<stop  offset="0" style="stop-color:#444B8C"/>
					<stop  offset="0.9964" style="stop-color:#26264F"/>
				</linearGradient>
				<path class="st26" d="M165.7,77.9c0,0,35.5-20.1,79.3,1.2c0,0-5.6,17.6-39,18.3C171.6,98.1,165.7,77.9,165.7,77.9z"/>
				<linearGradient id="SVGID_28_" gradientUnits="userSpaceOnUse" x1="204.9248" y1="54.939" x2="205.0759" y2="84.261">
					<stop  offset="3.597000e-03" style="stop-color:#F36F56"/>
					<stop  offset="1" style="stop-color:#FFC444"/>
				</linearGradient>
				<path class="st27" d="M199.8,51.6l-1.3,9.9c-0.5,3.4-2.8,6.1-6,7.2l-10.8,3.5c0,0,20.7,10.3,46.8,0.7l-11.9-4.3
					c-3.4-1.3-5.7-4.6-5.8-8.2l-0.3-8.4L199.8,51.6z"/>
				<linearGradient id="SVGID_29_" gradientUnits="userSpaceOnUse" x1="209.0714" y1="12.6241" x2="202.3134" y2="58.167">
					<stop  offset="3.597000e-03" style="stop-color:#F36F56"/>
					<stop  offset="1" style="stop-color:#FFC444"/>
				</linearGradient>
				<path class="st28" d="M215.9,43.3c0,8.3-5,17.2-11.3,17c-6.3-0.1-11.4-9.3-11.4-17.7c0-8.4,5.1-12.8,11.4-12.6
					C210.9,30.2,215.9,35,215.9,43.3z"/>
				<linearGradient id="SVGID_30_" gradientUnits="userSpaceOnUse" x1="225.348" y1="5.1566" x2="187.0938" y2="77.6029">
					<stop  offset="0" style="stop-color:#AB316D"/>
					<stop  offset="1" style="stop-color:#792D3D"/>
				</linearGradient>
				<path class="st29" d="M192.9,48c1.1,0-0.5-8.8,3.7-11.1c2.8-1.5,7.6,0.1,10.3,3c4.3,4.6,1.9,11,5.1,12.5
					c2.1,0.9,4.8-0.9,6.1-2.2c4.1-4.1,3.5-13.1-1.3-18.3c-3.9-4.2-9.1-4.5-10.4-4.5c-7.2-0.2-13.7,4.9-15.2,11.1
					C190.1,43.2,192.1,48,192.9,48z"/>
			</g>
		</g>
	</g>
	<g>
		<g>
			<g>
				<linearGradient id="SVGID_31_" gradientUnits="userSpaceOnUse" x1="80.6269" y1="211.7587" x2="107.105" y2="150.578">
					<stop  offset="0" style="stop-color:#FF9085"/>
					<stop  offset="1" style="stop-color:#FB6FBB"/>
				</linearGradient>
				<path class="st30" d="M92.6,138.3c0,0,27.7,15.4,26.7,28.5c-0.9,13.1-28.7,7.4-28.7,7.4L92.6,138.3z"/>
				
					<linearGradient id="SVGID_32_" gradientUnits="userSpaceOnUse" x1="-833.8407" y1="372.8422" x2="-824.8145" y2="372.8422" gradientTransform="matrix(-0.996 8.970000e-02 8.970000e-02 0.996 -793.6946 -14.3352)">
					<stop  offset="0" style="stop-color:#444B8C"/>
					<stop  offset="0.9964" style="stop-color:#26264F"/>
				</linearGradient>
				<path class="st31" d="M61.8,280.9c-0.5,0.4-0.5,1.4-0.5,2.1c0,0.3,0,0.4,0,0.5c0.3,0.7,1.7,0.7,4.1,0.8c3.6,0.1,4.7,0.4,5-0.2
					c0.2-0.5-0.5-1.3-0.5-1.4c-0.4-0.5-0.9-0.6-1.8-0.9c-1.7-0.5-2.9-0.7-3.3-0.8C62.5,280.7,62.1,280.6,61.8,280.9z"/>
				
					<linearGradient id="SVGID_33_" gradientUnits="userSpaceOnUse" x1="-1292.9863" y1="319.521" x2="-1289.0262" y2="311.3245" gradientTransform="matrix(-0.9976 6.940000e-02 6.940000e-02 0.9976 -1246.96 53.5659)">
					<stop  offset="0" style="stop-color:#FFC444"/>
					<stop  offset="0.9964" style="stop-color:#F36F56"/>
				</linearGradient>
				<path class="st32" d="M64.4,277.3l0.1,4.1c-0.1,0.2-1.4,0.7-2.3,0.2l-0.7-4.1L64.4,277.3z"/>
				
					<linearGradient id="SVGID_34_" gradientUnits="userSpaceOnUse" x1="-1078.5729" y1="406.2781" x2="-1068.9832" y2="406.2781" gradientTransform="matrix(-0.977 0.2133 0.2133 0.977 -1039.056 113.8058)">
					<stop  offset="0" style="stop-color:#444B8C"/>
					<stop  offset="0.9964" style="stop-color:#26264F"/>
				</linearGradient>
				<path class="st33" d="M92.5,280.3c-0.6,0.6-0.8,1.8-0.3,2.4c0.5,0.6,1.3,0.2,3.4,0.4c2.3,0.2,2.9,0.8,4.5,0.4
					c0.6-0.1,1.8-0.5,1.8-1c0-0.3-0.6-0.5-2.4-1.3c-2.7-1-2.6-1.1-3.2-1.2C94.7,279.8,93.3,279.5,92.5,280.3z"/>
				
					<linearGradient id="SVGID_35_" gradientUnits="userSpaceOnUse" x1="-1225.4609" y1="362.7594" x2="-1221.417" y2="354.3893" gradientTransform="matrix(-0.9894 0.1453 0.1453 0.9894 -1169.6101 100.9951)">
					<stop  offset="0" style="stop-color:#FFC444"/>
					<stop  offset="0.9964" style="stop-color:#F36F56"/>
				</linearGradient>
				<path class="st34" d="M94.1,276.6l1,3.9c-0.1,0.2-1.3,0.8-2.3,0.3l-1.5-3.8L94.1,276.6z"/>
				
					<linearGradient id="SVGID_36_" gradientUnits="userSpaceOnUse" x1="439.7119" y1="172.5401" x2="414.1341" y2="114.8817" gradientTransform="matrix(0.9986 5.330000e-02 -5.330000e-02 0.9986 -330.8434 69.189)">
					<stop  offset="0" style="stop-color:#311944"/>
					<stop  offset="1" style="stop-color:#893976"/>
				</linearGradient>
				<path class="st35" d="M88.4,191.8c-0.5,12.9-0.4,27.5,0.9,43.4c1.3,15.7,3.4,30,6,42.6c-1.5,0.3-3,0.6-4.5,1
					c-3.6-3.7-8-9.4-9.9-17.3c-1.2-4.9-0.6-7.3-1.1-13.3c-0.9-9.5-3.6-14.6-6.1-22.4c-2.3-7-5-17.2-6-30.7
					C74.5,193.9,81.5,192.9,88.4,191.8z"/>
				
					<linearGradient id="SVGID_37_" gradientUnits="userSpaceOnUse" x1="435.7453" y1="174.2995" x2="410.1676" y2="116.6413" gradientTransform="matrix(0.9986 5.330000e-02 -5.330000e-02 0.9986 -330.8434 69.189)">
					<stop  offset="0" style="stop-color:#311944"/>
					<stop  offset="1" style="stop-color:#893976"/>
				</linearGradient>
				<path class="st36" d="M86.3,252.3c-1.6-6.5-4.8-8.3-4.9-14.4c-0.1-4.4,1.5-4.7,1.4-8.9c-0.2-6.3-3.9-9.6-5.7-13.6
					c-2-4.2-2.7-11,2.6-22.2c-4,0.6-8,1.2-12,1.9c1,13.5,3.6,23.7,6,30.7c2.6,7.8,5.2,12.9,6.1,22.4c0.6,6,0,8.4,1.1,13.3
					c1.9,7.9,6.3,13.6,9.9,17.3c0.4-0.1,0.8-0.2,1.1-0.2c-3.8-4.6-5.2-8.7-5.5-12C85.7,261.1,88,258.9,86.3,252.3z"/>
				
					<linearGradient id="SVGID_38_" gradientUnits="userSpaceOnUse" x1="110.3495" y1="305.9443" x2="84.7711" y2="248.2845" gradientTransform="matrix(0.9976 -6.940000e-02 6.940000e-02 0.9976 -46.6582 -29.4326)">
					<stop  offset="0" style="stop-color:#311944"/>
					<stop  offset="1" style="stop-color:#893976"/>
				</linearGradient>
				<path class="st37" d="M73.4,191c-1.8,16.4-3.4,33.1-4.9,50.1c-1.1,12.8-2.1,25.4-3,37.8c-1.5,0.1-3,0.2-4.6,0.3
					c-1.3-2.8-3-7-4.1-12.4c-1.3-6.5-0.7-10.4-1-17.1c-0.4-7.5-1.5-9.2-3-18.8c-3.1-19.4-4.7-29.1,0.3-34.9
					C54.8,194.2,59.7,189.6,73.4,191z"/>
				<linearGradient id="SVGID_39_" gradientUnits="userSpaceOnUse" x1="50.2888" y1="201.6577" x2="89.3974" y2="111.2932">
					<stop  offset="0" style="stop-color:#FF9085"/>
					<stop  offset="1" style="stop-color:#FB6FBB"/>
				</linearGradient>
				<path class="st38" d="M34.1,140c8.2-2.8,20.7-5.9,36-5.2c8.9,0.4,16.5,1.9,22.5,3.6c0.8,4.6,1.6,9.1,2.4,13.7
					c0.2,4.6,0.2,10.8-0.3,18.1c-0.5,7.3-1,7.4-2.2,17.8c-1.9,16.9-1.1,21.3-4.5,23.3c-2.2,1.3-3-0.3-14.2-1.4
					c-7.5-0.7-11.4-1.1-15.2,0.2c-5.2,1.8-6.9,4.7-9.1,3.8c-2.1-0.9-2.3-4.5-2.6-10.7c-0.4-9.6-0.4-16-0.4-18.4
					c-0.2-10.7-2.9-18.8-6.3-29.2C38.1,149,35.8,143.7,34.1,140z"/>
				<g>
					
						<linearGradient id="SVGID_40_" gradientUnits="userSpaceOnUse" x1="633.1761" y1="-600.9662" x2="634.1829" y2="-627.7833" gradientTransform="matrix(0.8944 0.4471 -0.4471 0.8944 -771.3265 399.2614)">
						<stop  offset="0" style="stop-color:#FFC444"/>
						<stop  offset="0.9964" style="stop-color:#F36F56"/>
					</linearGradient>
					<path class="st39" d="M69.1,124.2c-0.1,2.7-0.5,4.8-0.9,6.2c-0.4,1.7-0.7,2.1-1,2.4c-0.5,0.5-1.2,0.9-5.1,1.7
						c-2.1,0.4-2.4,0.4-2.4,0.6c-0.3,1,5.2,4.8,11.2,4.2c3.6-0.3,7-2.2,6.9-3.3c-0.1-1.1-3.8-0.7-4.7-2.7c-0.7-1.4,0.3-3.3,1.3-4.9
						C73.5,126.6,69.9,126,69.1,124.2z"/>
					<g>
						
							<linearGradient id="SVGID_41_" gradientUnits="userSpaceOnUse" x1="-1764.3331" y1="-115.8755" x2="-1771.1591" y2="-133.212" gradientTransform="matrix(-0.9988 -4.960000e-02 -4.960000e-02 0.9988 -1702.938 165.8628)">
							<stop  offset="0" style="stop-color:#311944"/>
							<stop  offset="1" style="stop-color:#6B3976"/>
						</linearGradient>
						<path class="st40" d="M75.7,125.6c0.9-1.1,1.1-3.1,0.2-4.4c-0.8-1.1-2.1-1.3-2.9-1.5c-2.3-0.4-5.2,0.4-6.4,2.5
							c-0.7,1.2,0.5,3.9,0.7,4.4c0.2,0.5,0.6,0.7,1,1.2c0.5,0.6,1.3,1.5,2.6,3.1c0.1-0.4,0.3-1,0.6-1.5c0.1-0.2,0.6-1.1,1.2-1.8
							C73.9,126.2,74.9,126.6,75.7,125.6z"/>
						
							<linearGradient id="SVGID_42_" gradientUnits="userSpaceOnUse" x1="-228.369" y1="-85.3284" x2="-228.683" y2="-60.0363" gradientTransform="matrix(0.9999 -1.160000e-02 1.160000e-02 0.9999 300.9604 208.1125)">
							<stop  offset="0" style="stop-color:#FFC444"/>
							<stop  offset="0.9964" style="stop-color:#F36F56"/>
						</linearGradient>
						<path class="st41" d="M68.9,129.5c0,0,1.4,2.6,4.4,2.5c2.7,0,3.4-6.1,1.8-7.4c-0.6-0.5-1.7-0.7-2.6-0.5
							c-0.6,0.1-0.8,0.3-1.7,0.5c-0.8,0.2-1.1,0.1-1.3,0.3c-0.3,0.2-0.6,0.9-0.2,2.7c-0.5-0.5-1.1-0.8-1.5-0.6
							c-0.1,0-0.3,0.1-0.4,0.3C67,128,67.5,128.9,68.9,129.5z"/>
						
							<linearGradient id="SVGID_43_" gradientUnits="userSpaceOnUse" x1="-1766.4182" y1="-115.0452" x2="-1773.2512" y2="-132.3997" gradientTransform="matrix(-0.9988 -4.960000e-02 -4.960000e-02 0.9988 -1702.938 165.8628)">
							<stop  offset="0" style="stop-color:#311944"/>
							<stop  offset="1" style="stop-color:#6B3976"/>
						</linearGradient>
						<path class="st42" d="M69.4,124.6c0.1,0.1-0.3,0.6-0.4,1.3c-0.1,1.3,1.1,3,2.5,3.2c0.8,0.1,1.1-0.4,2.4-0.4
							c0.8,0,1.5,0.1,2,0.2c0.3,1.5-0.1,2.9-1.1,3.5c-1.1,0.7-2.4,0.2-3-0.1c-0.4-0.1-1.6-0.6-2.1-1.7c-0.6-1.2,0.1-1.8-0.6-2.7
							c-0.4-0.4-0.8-0.6-1.3-1.4c-0.1-0.2-0.2-0.4-0.2-0.5C68.2,125.3,69.2,124.4,69.4,124.6z"/>
						
							<linearGradient id="SVGID_44_" gradientUnits="userSpaceOnUse" x1="-1773.1056" y1="-125.5019" x2="-1772.7502" y2="-122.334" gradientTransform="matrix(-0.9988 -4.960000e-02 -4.960000e-02 0.9988 -1702.938 165.8628)">
							<stop  offset="0" style="stop-color:#FFC444"/>
							<stop  offset="1" style="stop-color:#F36F56"/>
						</linearGradient>
						<path class="st43" d="M74.9,129.3c0,0-0.6,0.3-1.6,0.2c0,0-0.1,0-0.1,0c0,0.1,0.6,0.6,1.2,0.4c0.4-0.1,0.8-0.5,0.7-0.6
							C75,129.3,74.9,129.3,74.9,129.3z"/>
					</g>
				</g>
				<linearGradient id="SVGID_45_" gradientUnits="userSpaceOnUse" x1="20.3206" y1="188.6878" x2="59.4293" y2="98.323">
					<stop  offset="0" style="stop-color:#FF9085"/>
					<stop  offset="1" style="stop-color:#FB6FBB"/>
				</linearGradient>
				<path class="st44" d="M42.5,183.8c0.2,2.2-0.3,3.7-1.1,4.8c-3.6,4.6-15.8,2.7-23-3.4c-5.4-4.6-8.2-11.6-8.1-18
					c0.2-12.4,11.7-24.5,28.7-28.7c2.5,7.5,5,15.1,7.6,22.6c-10.5,0.2-16.9,8.1-16,13.7C31.3,179.1,36.2,182.9,42.5,183.8z"/>
				<linearGradient id="SVGID_46_" gradientUnits="userSpaceOnUse" x1="57.4775" y1="204.7689" x2="96.5863" y2="114.4036">
					<stop  offset="0" style="stop-color:#FF9085"/>
					<stop  offset="1" style="stop-color:#FB6FBB"/>
				</linearGradient>
				<path class="st45" d="M83.7,205.7c-5.5-2.4-5.5-7.2-10.7-9.3c-7.4-2.9-15.5,3.8-16.8,2c-1.3-1.9,8.4-7.9,7.1-13.8
					c-1-4.7-7.8-3.9-11.5-10.3c-3.5-6.1-0.1-11.7-3.2-13.8c-1.1-0.8-3-1.1-6.7,0.6c2.6,8,4.4,15,4.5,23.7c0,2.3,0,8.8,0.4,18.4
					c0.2,6.2,0.5,9.7,2.6,10.7c2.1,1,3.9-2,9.1-3.8c3.8-1.3,7.7-0.9,15.2-0.2c11.2,1.1,12,2.7,14.2,1.4c1.4-0.9,2.1-2.1,2.6-4.6
					C88.4,206.8,86,206.6,83.7,205.7z"/>
			</g>
			<g>
				
					<linearGradient id="SVGID_47_" gradientUnits="userSpaceOnUse" x1="-2460.9241" y1="139.0204" x2="-2487.9824" y2="170.9316" gradientTransform="matrix(1 0 0 1 2581.4224 0)">
					<stop  offset="0" style="stop-color:#311944"/>
					<stop  offset="1" style="stop-color:#893976"/>
				</linearGradient>
				<path class="st46" d="M113.5,186.9c-2.8-0.7-5.5-3.2-6.6-6.7l-15.1-46.7c-1.3-4.1,0.2-8.7,3.4-10.4c3.3-1.8,8.5,0,10,4.3
					l16.8,49c1.7,4.9-0.2,9.7-4.1,10.7C116.9,187.3,114.5,187.1,113.5,186.9z"/>
				
					<linearGradient id="SVGID_48_" gradientUnits="userSpaceOnUse" x1="-2464.2839" y1="136.1714" x2="-2492.3289" y2="169.2462" gradientTransform="matrix(1 0 0 1 2581.4224 0)">
					<stop  offset="0" style="stop-color:#311944"/>
					<stop  offset="1" style="stop-color:#893976"/>
				</linearGradient>
				<path class="st47" d="M95.2,123c3.3-1.8,8.5,0,10,4.3l15.3,44.6c-2.7-1.1-5.8-1.3-8.7-4.7c-4.8-5.5-2.4-11.9-6.2-17.9
					c-1.7-2.7-4.7-5.6-10.8-6.6l-3-9.3C90.5,129.4,92,124.7,95.2,123z"/>
				<linearGradient id="SVGID_49_" gradientUnits="userSpaceOnUse" x1="100.7825" y1="121.1654" x2="85.2556" y2="139.4769">
					<stop  offset="3.597120e-03" style="stop-color:#E38DDD"/>
					<stop  offset="1" style="stop-color:#9571F6"/>
				</linearGradient>
				<ellipse class="st48" cx="93" cy="130.3" rx="11.8" ry="12.2"/>
				
					<linearGradient id="SVGID_50_" gradientUnits="userSpaceOnUse" x1="-2460.9209" y1="82.2743" x2="-2437.5059" y2="211.7879" gradientTransform="matrix(1 0 0 1 2581.4224 0)">
					<stop  offset="0" style="stop-color:#AA80F9"/>
					<stop  offset="0.9964" style="stop-color:#6165D7"/>
				</linearGradient>
				<path class="st49" d="M92.3,118.4c-2.7,8.1-2.7,16,0,24l67.8,30l0.9-84.7L92.3,118.4z"/>
				
					<linearGradient id="SVGID_51_" gradientUnits="userSpaceOnUse" x1="-2467.4609" y1="90.14" x2="-2445.6541" y2="210.7587" gradientTransform="matrix(1 0 0 1 2581.4224 0)">
					<stop  offset="0" style="stop-color:#AA80F9"/>
					<stop  offset="0.9964" style="stop-color:#6165D7"/>
				</linearGradient>
				<path class="st50" d="M138.6,146.7c-6.9-3.1-9-14-16.6-14.3c-5.7-0.2-7.3,6-12.6,5.3c-5.2-0.7-6.1-7.5-11.7-9.7
					c-2.5-1-5-0.7-7.4,0.2c-0.3,4.7,0.3,9.5,2,14.4l67.8,30l-5-28.9C147.2,148.1,142.1,148.2,138.6,146.7z"/>
				
					<linearGradient id="SVGID_52_" gradientUnits="userSpaceOnUse" x1="-1620.5328" y1="100.8521" x2="-1670.0696" y2="159.2732" gradientTransform="matrix(-1 0 0 1 -1484.321 0)">
					<stop  offset="3.597120e-03" style="stop-color:#E38DDD"/>
					<stop  offset="1" style="stop-color:#9571F6"/>
				</linearGradient>
				<ellipse class="st51" cx="161" cy="130.1" rx="31.9" ry="42.3"/>
				
					<linearGradient id="SVGID_53_" gradientUnits="userSpaceOnUse" x1="-1605.2227" y1="129.0416" x2="-1673.1842" y2="130.773" gradientTransform="matrix(-1 0 0 1 -1484.321 0)">
					<stop  offset="0" style="stop-color:#311944"/>
					<stop  offset="1" style="stop-color:#893976"/>
				</linearGradient>
				<path class="st52" d="M161,170.9c3.7,0,7.4-1,10.9-3c3.6-2,6.8-4.9,9.6-8.6c5.9-7.8,9.1-18.2,9.1-29.3c0-11.1-3.2-21.5-9.1-29.3
					c-2.8-3.7-6-6.6-9.6-8.6c-3.5-2-7.2-3-10.9-3s-7.4,1-10.9,3c-3.6,2-6.8,4.9-9.6,8.6c-2.5,3.3-4.5,7-5.9,11
					c-2.1,5.6,3.9,11.5,3.9,17.9c0,6.9-5.9,13.8-3.5,19.7c1.4,3.6,3.3,7,5.5,10c2.8,3.7,6,6.6,9.6,8.6
					C153.6,169.9,157.2,170.9,161,170.9z"/>
				<g>
					<defs>
						<path id="SVGID_54_" d="M161,170.9c3.7,0,7.4-1,10.9-3c3.6-2,6.8-4.9,9.6-8.6c5.9-7.8,9.1-18.2,9.1-29.3
							c0-11.1-3.2-21.5-9.1-29.3c-2.8-3.7-6-6.6-9.6-8.6c-3.5-2-7.2-3-10.9-3s-7.4,1-10.9,3c-3.6,2-6.8,4.9-9.6,8.6
							c-5.9,7.8-9.1,18.2-9.1,29.3c0,11.1,3.2,21.5,9.1,29.3c2.8,3.7,6,6.6,9.6,8.6C153.6,169.9,157.2,170.9,161,170.9z"/>
					</defs>
					<clipPath id="SVGID_55_">
						<use xlink:href="#SVGID_54_"  style="overflow:visible;"/>
					</clipPath>
					
						<linearGradient id="SVGID_56_" gradientUnits="userSpaceOnUse" x1="-2445.2239" y1="89.503" x2="-2430.3447" y2="171.8031" gradientTransform="matrix(1 0 0 1 2581.4224 0)">
						<stop  offset="0" style="stop-color:#FFC444"/>
						<stop  offset="0.9964" style="stop-color:#F36F56"/>
					</linearGradient>
					<path class="st53" d="M163.6,130.6c0,10.7-9.1,19.2-20.3,19c-11-0.2-19.7-8.8-19.7-19.3c0-10.4,8.8-18.9,19.7-19
						C154.5,111.3,163.6,119.9,163.6,130.6z"/>
					
						<linearGradient id="SVGID_57_" gradientUnits="userSpaceOnUse" x1="-2434.7646" y1="100.2262" x2="-2423.8298" y2="160.7101" gradientTransform="matrix(1 0 0 1 2581.4224 0)">
						<stop  offset="0" style="stop-color:#FFC444"/>
						<stop  offset="0.9964" style="stop-color:#F36F56"/>
					</linearGradient>
					<path class="st54" d="M161.8,130.4c0,8-4.5,14.3-9.9,14.1c-5.3-0.2-9.6-6.6-9.6-14.3c0-7.7,4.3-14.1,9.6-14.1
						C157.4,116.1,161.8,122.5,161.8,130.4z"/>
				</g>
			</g>
			<linearGradient id="SVGID_58_" gradientUnits="userSpaceOnUse" x1="115.1208" y1="159.6754" x2="120.2406" y2="171.8789">
				<stop  offset="0" style="stop-color:#FFC444"/>
				<stop  offset="0.9964" style="stop-color:#F36F56"/>
			</linearGradient>
			<path class="st55" d="M118.4,161.8c0,0-1.7-1.9-4.3-1.9s0.1,0.6,1.5,2.5c1.3,1.8,1.3,1.8,1.3,1.8s1.3,2,2.1,1.4
				C119.7,165,118.4,161.8,118.4,161.8z"/>
		</g>
		<g>
			<linearGradient id="SVGID_59_" gradientUnits="userSpaceOnUse" x1="43.2303" y1="190.7939" x2="44.6041" y2="208.6533">
				<stop  offset="0" style="stop-color:#311944"/>
				<stop  offset="1" style="stop-color:#893976"/>
			</linearGradient>
			<path class="st56" d="M55.4,204.2c-0.3,0-0.5-0.2-0.5-0.5c-0.5-5-2.1-9.8-4.6-13.4c-2.2-3.2-4.8-5.1-7-5.1c0,0,0,0,0,0
				c-8,0-9.7,18.4-9.7,18.5c0,0.3-0.3,0.5-0.6,0.5c-0.3,0-0.5-0.3-0.5-0.6c0.1-0.8,1.8-19.5,10.8-19.5c0,0,0,0,0,0
				c2.6,0,5.5,2,7.9,5.6c2.6,3.8,4.3,8.7,4.8,13.9C56,203.9,55.8,204.2,55.4,204.2C55.4,204.2,55.4,204.2,55.4,204.2z"/>
			<linearGradient id="SVGID_60_" gradientUnits="userSpaceOnUse" x1="16.5622" y1="207.3226" x2="29.8517" y2="229.608">
				<stop  offset="0" style="stop-color:#AA80F9"/>
				<stop  offset="0.9964" style="stop-color:#6165D7"/>
			</linearGradient>
			<path class="st57" d="M22.1,241.9l10.5,5.3l6.4-19.5l-10.5-26.2l-3,0.7L21,239.9C20.9,240.7,21.4,241.6,22.1,241.9z"/>
			<linearGradient id="SVGID_61_" gradientUnits="userSpaceOnUse" x1="18.6169" y1="206.0973" x2="31.9064" y2="228.3827">
				<stop  offset="0" style="stop-color:#AA80F9"/>
				<stop  offset="0.9964" style="stop-color:#6165D7"/>
			</linearGradient>
			<path class="st58" d="M39,227.7l-10.5-26.2l-1.8,0.4c-0.2,3.5-0.1,6.4,0,8.5c0.7,8.9,3,11.4,1.9,17.6c-0.9,5.2-3,5.9-2.8,9.4
				c0.2,3.8,2.8,7,6,9.5l0.8,0.4L39,227.7z"/>
			<linearGradient id="SVGID_62_" gradientUnits="userSpaceOnUse" x1="39.6968" y1="216.3001" x2="77.1117" y2="245.1281">
				<stop  offset="0" style="stop-color:#AA80F9"/>
				<stop  offset="0.9964" style="stop-color:#6165D7"/>
			</linearGradient>
			<polygon class="st59" points="28.5,201.5 67.7,201.5 80.7,243.4 32.7,247.3 			"/>
			<linearGradient id="SVGID_63_" gradientUnits="userSpaceOnUse" x1="47.0488" y1="182.7043" x2="50.8654" y2="207.0355">
				<stop  offset="0" style="stop-color:#311944"/>
				<stop  offset="1" style="stop-color:#893976"/>
			</linearGradient>
			<path class="st60" d="M40.7,205.1c-0.2,0-0.5-0.2-0.5-0.4c-0.1-0.5-2.7-11.7,0.9-17.2c1-1.6,2.5-2.5,4.3-2.9
				c9.4-1.7,15.2,18.5,15.4,19.4c0.1,0.3-0.1,0.6-0.4,0.7c-0.3,0.1-0.6-0.1-0.7-0.4c-0.1-0.2-5.7-20.1-14.2-18.6
				c-1.5,0.3-2.7,1.1-3.6,2.4c-3.4,5.1-0.8,16.2-0.8,16.4c0.1,0.3-0.1,0.6-0.4,0.7C40.8,205.1,40.7,205.1,40.7,205.1z"/>
			<g class="st61">
				<linearGradient id="SVGID_64_" gradientUnits="userSpaceOnUse" x1="40.1804" y1="215.6723" x2="77.5954" y2="244.5003">
					<stop  offset="0" style="stop-color:#AA80F9"/>
					<stop  offset="0.9964" style="stop-color:#6165D7"/>
				</linearGradient>
				<path class="st62" d="M67.7,201.5H48.3c-1,1-1.6,2.1-1.7,3.4c-0.3,5.9,13.3,7.9,14.6,16c0.9,5.9-4.9,12.6-10.1,15.6
					c-5.5,3.2-9.2,1.6-12.9,5.1c-1.6,1.5-2.6,3.5-3.2,5.5l45.7-3.7L67.7,201.5z"/>
			</g>
			<linearGradient id="SVGID_65_" gradientUnits="userSpaceOnUse" x1="38.6197" y1="204.4177" x2="39.234" y2="204.6459">
				<stop  offset="0" style="stop-color:#311944"/>
				<stop  offset="1" style="stop-color:#893976"/>
			</linearGradient>
			<circle class="st63" cx="40.7" cy="205.2" r="1.5"/>
			<linearGradient id="SVGID_66_" gradientUnits="userSpaceOnUse" x1="58.4916" y1="204.2764" x2="59.1059" y2="204.5045">
				<stop  offset="0" style="stop-color:#311944"/>
				<stop  offset="1" style="stop-color:#893976"/>
			</linearGradient>
			<circle class="st64" cx="60.5" cy="205" r="1.5"/>
		</g>
		<linearGradient id="SVGID_67_" gradientUnits="userSpaceOnUse" x1="40.0134" y1="183.5085" x2="43.4749" y2="194.0737">
			<stop  offset="0" style="stop-color:#FFC444"/>
			<stop  offset="0.9964" style="stop-color:#F36F56"/>
		</linearGradient>
		<path class="st65" d="M38.1,185.6c0,0,2.9-3.6,5-1.5c2.2,2.1,2.8,5.9,0.7,5.9s-5.8-3.2-6.4-2.7C37.5,187.3,37.6,186.2,38.1,185.6z
			"/>
	</g>
	<g>
		<g>
			<linearGradient id="SVGID_68_" gradientUnits="userSpaceOnUse" x1="153.036" y1="179.3514" x2="120.2102" y2="433.4851">
				<stop  offset="0" style="stop-color:#FFC444"/>
				<stop  offset="0.9964" style="stop-color:#F36F56"/>
			</linearGradient>
			<path class="st66" d="M137.4,286.4c12.7-1.6,28.9-5.9,35.4-18.1c1.5-2.9,3.1-8.5-0.8-10.6c-3.6-1.9-8.2,0.1-10.8,2.6
				c-1.9,1.8-3.5,6-5.7,7.3c-3.2,1.9-4.9-3.3-4.9-5.4c0.2-4.8,6.1-6.8,10-7.8c6.5-1.7,14.1-3.2,13.7-10.6s-7.6-11.8-13.1-8.5
				c-4.5,2.6-3.9,8.3-7,11.7c-2.8,3-3.7-1.9-3.5-4.3c0.4-5.2,5-9,8.3-12.5c3.8-3.9,8-11.9,4-17.1c-2.3-3-8.3-3.7-11.8-3.2
				c-17.2,2.5-5.8,24.7-8.9,27.2c-3.1,2.5-6.1-1.9-6.1-8.5s-1-11.5-7.9-9.4c-6.9,2.1-8.2,19.3-0.3,26c7.9,6.6-0.5,13.9-2.6,9.1
				c-1.5-3.4-2.9-12.4-7.3-13.4c-7.3-1.6-7.2,13.3-5.1,16.8c3,4.9,9.7,6,13.4,10.2c1.1,1.2,3.5,4.3,2.6,6.1c-1.3,2.5-5-0.2-6.4-1.3
				c-3.1-2.6-7.3-11.4-11.6-5.6C105.7,274.3,114.6,285.1,137.4,286.4z"/>
			<g class="st67">
				<path class="st4" d="M139.2,285.3c-0.3,0-0.5-0.3-0.6-0.6c0-0.3-0.4-26.4,11.1-57.5c0.1-0.3,0.4-0.5,0.7-0.4
					c0.3,0.1,0.4,0.4,0.3,0.7c-11.3,30.9-11,56.9-11,57.2C139.8,284.9,139.5,285.3,139.2,285.3C139.2,285.3,139.2,285.3,139.2,285.3
					z"/>
			</g>
		</g>
		<linearGradient id="SVGID_69_" gradientUnits="userSpaceOnUse" x1="133.3814" y1="217.8038" x2="112.1919" y2="381.8503">
			<stop  offset="0" style="stop-color:#AA80F9"/>
			<stop  offset="0.9964" style="stop-color:#6165D7"/>
		</linearGradient>
		<path class="st68" d="M143.9,275.2c-2.1-1.8-6.5,1-8.3,2c-1.1,0.6-2.5,1.5-3.8,1c-1.3-0.6-1.2-2-0.4-3c1.4-1.8,4.2-2.3,6.2-3.1
			c2.2-0.9,4.2-2.2,5.2-4.4c0.9-1.7,1-4.3,0.1-6c-2.7-4.8-6.5-1-8.7,1.8c-1,1.4-3.4,3.7-5.2,2.1c-1.9-1.7-0.3-4.8,1.2-6.2
			c1.9-1.8,4.2-3,6.3-4.5c1.9-1.4,3.8-3.4,2.6-5.8c-1-1.9-3.4-3-5.5-2.8c-4.8,0.4-5.6,7.4-8.7,10.1c-1.1,1-3.7,1.7-5,0.8
			c-1.4-1-0.5-3.1,0-4.3c1.5-3.5,11.9-15.4,3.2-16.9c-2.2-0.4-5.2,0.3-6.9,1.7c-3.2,2.6-4.9,7.8-5.8,11.7c-1.3,6.2-1.3,13,0.2,19.1
			c3.3,13.5,11,17.9,11,17.9c3.3,1.1,7.5,1.6,11,0.9c4.1-0.9,9-3.9,11-7.6C144.5,278.4,145.2,276.3,143.9,275.2z"/>
	</g>
</g>
<g>
</g>
<g>
</g>
<g>
</g>
<g>
</g>
<g>
</g>
<g>
</g>
<g>
</g>
<g>
</g>
<g>
</g>
<g>
</g>
<g>
</g>
<g>
</g>
<g>
</g>
<g>
</g>
<g>
</g>
</svg>
