<?xml version="1.0" encoding="utf-8"?>
<!-- Generator: Adobe Illustrator 16.0.3, SVG Export Plug-In . SVG Version: 6.00 Build 0)  -->
<!DOCTYPE svg PUBLIC "-//W3C//DTD SVG 1.1//EN" "http://www.w3.org/Graphics/SVG/1.1/DTD/svg11.dtd">
<svg version="1.1" id="Capa_1" xmlns="http://www.w3.org/2000/svg" xmlns:xlink="http://www.w3.org/1999/xlink" x="0px" y="0px"
	 width="262px" height="249.333px" viewBox="0 0 262 249.333" enable-background="new 0 0 262 249.333" xml:space="preserve">
<g>
	<g>
		<g id="Capa_1_1_" display="none">
			<g display="inline">
				<g>
					<g>
						<g>
							<g>
								<g>
									<g>
										
											<linearGradient id="SVGID_1_" gradientUnits="userSpaceOnUse" x1="10.6216" y1="188.5034" x2="-200.328" y2="-176.2632" gradientTransform="matrix(-1.9843 0 0 1.9843 -23.8604 153.239)">
											<stop  offset="0" style="stop-color:#FFC444"/>
											<stop  offset="0.9964" style="stop-color:#F36F56"/>
										</linearGradient>
										<path id="SVGID_70_" fill="url(#SVGID_1_)" d="M30.742,246.137C9.709,178.276,78.959-15.785,158.132-11.221
											c80.362,4.762,85.125,70.243,54.17,119.056c-19.644,31.351,10.914,31.748,12.501,75.402
											c1.389,38.295-50.599,92.268-72.426,123.024c-46.63,65.282-25.398,101.395-14.088,169.654
											c-51.393-15.676-97.428-39.884-148.025-55.36c8.334-9.128,15.873-16.271,23.811-25.994
											C55.547,343.763,37.094,307.253,30.742,246.137z"/>
									</g>
									<g>
										<g>
											<defs>
												<path id="SVGID_2_" d="M30.742,246.137C9.709,178.276,78.959-15.785,158.132-11.221
													c80.362,4.762,85.125,70.243,54.17,119.056c-19.644,31.351,10.914,31.748,12.501,75.402
													c1.389,38.295-50.599,92.268-72.426,123.024c-46.63,65.282-25.398,101.395-14.088,169.654
													c-51.393-15.676-97.428-39.884-148.025-55.36c8.334-9.128,15.873-16.271,23.811-25.994
													C55.547,343.763,37.094,307.253,30.742,246.137z"/>
											</defs>
											<clipPath id="SVGID_3_">
												<use xlink:href="#SVGID_2_"  overflow="visible"/>
											</clipPath>
											<g opacity="0.7" clip-path="url(#SVGID_3_)">
												<g>
													<path fill="#FCFDFE" d="M75.982,385.234l0.596-7.342c1.189-15.477,2.381-29.168,3.572-41.271
														c0.595-6.747,1.189-13.296,1.785-19.446c1.588-19.049,2.777-32.542,3.373-39.09l0.396-4.365
														c4.762-52.186,30.162-121.438,43.854-158.742c1.586-3.968,2.777-7.54,3.967-10.715
														c19.248-53.377,32.94-111.317,40.679-172.233l-1.19-0.199c-7.738,60.72-21.429,118.66-40.479,172.036
														c-1.191,2.978-2.579,6.746-3.969,10.715c-13.691,37.305-39.289,106.754-43.853,159.14l-0.397,4.365
														c-0.594,6.548-1.785,20.041-3.373,39.09c-0.594,6.15-1.189,12.699-1.784,19.446
														c-0.992,12.103-2.382,25.794-3.572,41.271l-0.595,7.342c-1.588,19.05-2.977,38.893-5.953,58.14l1.189,0.198
														C73.008,424.325,74.596,404.482,75.982,385.234z"/>
													<path fill="#FCFDFE" d="M228.574,151.29l-0.596-0.992c-33.732,21.629-68.457,52.583-95.045,84.729
														c-32.146,38.495-51.393,76.99-56.156,111.517l1.19,0.197C87.889,272.727,163.094,193.356,228.574,151.29z"/>
													<path fill="#FCFDFE" d="M184.127,52.076c13.492-14.881,27.383-30.558,40.082-46.629l-0.992-0.795
														c-12.699,16.073-26.59,31.551-40.082,46.631c-19.645,22.025-39.884,44.646-56.949,69.449l0.992,0.595
														C144.243,96.524,164.482,73.903,184.127,52.076z"/>
													<path fill="#FCFDFE" d="M97.018,213.397C95.43,171.331,74,115.771,51.379,94.54l-0.793,0.795
														c22.62,21.23,43.652,76.393,45.439,118.063H97.018z"/>
												</g>
											</g>
										</g>
									</g>
								</g>
							</g>
							<g>
								<path fill="#D8DEE8" d="M-133.754,92.159c-46.432,23.017-22.619,92.069-50.004,133.144
									c-25.992,39.091-0.793,80.561,41.473,101.198c42.066,20.637,45.639,45.043,54.369,86.713
									c7.738,36.907,29.963,36.51,60.918,35.121c18.85-52.188,37.701-103.38,58.932-155.17
									c-46.234,2.778-82.348,6.548-79.172-53.575C-43.865,177.084-52.992,51.679-133.754,92.159z"/>
								<g>
									<g>
										<path id="SVGID_73_" fill="#D8DEE8" d="M-133.754,92.159c-46.432,23.017-22.619,92.069-50.004,133.144
											c-25.992,39.091-0.793,80.561,41.473,101.198c42.066,20.637,45.639,45.043,54.369,86.713
											c7.738,36.907,29.963,36.51,60.918,35.121c18.85-52.188,37.701-103.38,58.932-155.17
											c-46.234,2.778-82.348,6.548-79.172-53.575C-43.865,177.084-52.992,51.679-133.754,92.159z"/>
									</g>
									<g>
										<g>
											<defs>
												<path id="SVGID_4_" d="M-133.754,92.159c-46.432,23.017-22.619,92.069-50.004,133.144
													c-25.992,39.091-0.793,80.561,41.473,101.198c42.066,20.637,45.639,45.043,54.369,86.713
													c7.738,36.907,29.963,36.51,60.918,35.121c18.85-52.188,37.701-103.38,58.932-155.17
													c-46.234,2.778-82.348,6.548-79.172-53.575C-43.865,177.084-52.992,51.679-133.754,92.159z"/>
											</defs>
											<clipPath id="SVGID_5_">
												<use xlink:href="#SVGID_4_"  overflow="visible"/>
											</clipPath>
											<g clip-path="url(#SVGID_5_)">
												<g>
													<path fill="#D8DEE8" d="M-12.316,377.892c-38.496-32.74-69.648-61.115-91.277-102.785
														c-20.637-39.686-25.795-78.181-17.264-128.382c4.564-26.191,4.762-45.638,4.564-72.029h-0.992
														c0.199,26.392-0.199,45.639-4.564,71.83c-8.729,50.6-3.373,89.094,17.264,129.178
														c21.629,41.868,52.98,70.243,91.477,103.182L-12.316,377.892z"/>
													<path fill="#D8DEE8" d="M-45.852,412.816c7.541-2.579,14.686-3.77,23.217-4.762l-0.197-0.992
														c-8.732,0.992-15.875,2.381-23.416,4.96c-14.484,5.159-28.178,12.501-41.668,22.423l0.594,0.794
														C-74.027,425.317-60.336,418.173-45.852,412.816z"/>
													<path fill="#D8DEE8" d="M-89.307,299.713c-29.367-25.199-69.846-39.884-114.293-41.669v0.992
														c44.25,1.784,84.529,16.468,113.699,41.271L-89.307,299.713z"/>
													<path fill="#D8DEE8" d="M-94.859,132.241c15.477-34.328,29.762-64.688,31.152-66.274l-0.795-0.794
														c-1.785,1.984-17.262,35.32-31.352,66.473c-6.746,15.081-28.971,64.688-29.764,70.243l0.992,0.198
														C-124.029,197.721-108.752,162.997-94.859,132.241z"/>
												</g>
											</g>
										</g>
									</g>
								</g>
							</g>
						</g>
					</g>
				</g>
				<g>
					<g id="Layer_2" display="none">
						<g display="inline">
							<defs>
								<rect id="SVGID_6_" x="-64.898" y="171.926" width="389.114" height="318.871"/>
							</defs>
							<clipPath id="SVGID_7_">
								<use xlink:href="#SVGID_6_"  overflow="visible"/>
							</clipPath>
							<g clip-path="url(#SVGID_7_)">
								<g>
									<g>
										<g>
											
												<linearGradient id="SVGID_8_" gradientUnits="userSpaceOnUse" x1="-43.8398" y1="66.2534" x2="-93.6886" y2="207.9289" gradientTransform="matrix(-1.9843 0 0 1.9843 -23.8604 153.239)">
												<stop  offset="0.0036" style="stop-color:#E38DDD"/>
												<stop  offset="1" style="stop-color:#9571F6"/>
											</linearGradient>
											<path id="SVGID_77_" fill="url(#SVGID_8_)" d="M60.703,550.524c-3.57-35.915,42.464-39.09,82.943-51.987
												c47.424-13.89,9.524-55.758,40.678-79.37c31.748-24.208,100.402-42.265,108.341-110.325
												c9.921-57.742-15.478-86.117-50.004-89.095c-33.535-3.571-76.394,18.256-79.769,47.821
												c-11.707,58.735-41.867,117.072-86.91,102.389c-40.479-13.891-61.115,18.85-57.939,56.948
												c0.992,26.787,19.842,77.783-44.646,104.175c-32.74,13.69-40.279,59.726-39.883,59.527
												c22.621,12.501,45.242,24.406,68.061,35.915C52.568,609.458,65.07,585.844,60.703,550.524z"/>
										</g>
										<g>
											<g>
												<defs>
													<path id="SVGID_9_" d="M60.703,550.524c-3.57-35.915,42.464-39.09,82.943-51.987
														c47.424-13.89,9.524-55.758,40.678-79.37c31.748-24.208,100.402-42.265,108.341-110.325
														c9.921-57.742-15.478-86.117-50.004-89.095c-33.535-3.571-76.394,18.256-79.769,47.821
														c-11.707,58.735-41.867,117.072-86.91,102.389c-40.479-13.891-61.115,18.85-57.939,56.948
														c0.992,26.787,19.842,77.783-44.646,104.175c-32.74,13.69-40.279,59.726-39.883,59.527
														c22.621,12.501,45.242,24.406,68.061,35.915C52.568,609.458,65.07,585.844,60.703,550.524z"/>
												</defs>
												<clipPath id="SVGID_10_">
													<use xlink:href="#SVGID_9_"  overflow="visible"/>
												</clipPath>
												<g clip-path="url(#SVGID_10_)">
													<path fill="#BEB8F2" d="M-30.77,617.792c0.197-0.597,54.764-82.349,126.199-156.956
														c10.516-12.304,21.629-24.605,32.344-36.511c59.726-66.474,116.078-129.177,112.903-222.833l-1.587-0.198
														c3.176,93.261-53.179,155.765-112.706,222.039c-10.716,11.906-21.827,24.208-32.344,36.511
														C23.004,534.056-32.158,616.601-32.357,616.999L-30.77,617.792z"/>
													<path fill="#BEB8F2" d="M285.126,310.826c10.119-5.357,18.058-9.524,19.049-9.723l-0.198-0.596l0.396-0.595
														c-0.794-0.397-0.794-0.397-20.239,9.723c-24.01,12.501-68.457,35.915-103.976,50.996l0.794,1.189
														C216.471,346.74,261.115,323.326,285.126,310.826z"/>
													<path fill="#BEB8F2" d="M202.184,330.867c8.135-52.582-19.644-87.704-27.582-94.253
														c-0.595-0.396-0.992-0.595-1.389-0.595l0.198,0.793l-0.198,0.397c1.189,0.793,10.318,9.921,17.857,25.597
														c6.947,14.485,14.287,37.899,9.724,67.862L202.184,330.867z"/>
													<path fill="#BEB8F2" d="M59.516,417.578c-3.969-18.652-10.914-38.099-20.24-57.742
														c-0.596-0.992-0.992-1.786-0.992-1.984H37.49h0.793l-1.389,0.198c0,0.199,0.199,0.794,0.992,2.183
														c13.096,26.987,40.28,95.84,12.104,149.02l1.389,0.596C64.475,484.845,67.253,453.692,59.516,417.578z"/>
													<path fill="#BEB8F2" d="M71.818,485.837l-0.992-0.992c42.463-27.979,103.578-9.127,104.57-8.731l0,0l0.396,0.794
														l-0.794,0.397v-0.596l-0.198,0.596C174.205,477.106,113.684,458.255,71.818,485.837z M174.999,476.313v0.595V476.313z"
														/>
													<path fill="#BEB8F2" d="M-21.443,604.1c4.563-11.309,6.746-32.74-9.723-70.441c-0.398-0.991-0.795-1.587-0.795-1.784
														h-0.793l0.596,0.396l-1.389-0.596c-0.199,0.199-0.199,0.199,0.793,2.382c16.271,37.303,14.287,58.535,9.723,69.647
														L-21.443,604.1z"/>
													<path fill="#BEB8F2" d="M67.055,565.407c0.795,0,1.191,0,1.389,0l-0.197-1.39c-0.199,0-0.596,0-1.389,0
														c-22.225-0.198-61.711,2.58-75.998,20.24l1.191,0.793C5.939,567.589,45.029,565.009,67.055,565.407z"/>
												</g>
											</g>
										</g>
									</g>
								</g>
							</g>
							<g clip-path="url(#SVGID_7_)">
								
									<linearGradient id="SVGID_11_" gradientUnits="userSpaceOnUse" x1="48.9312" y1="138.6821" x2="-57.6709" y2="47.7456" gradientTransform="matrix(-1.9843 0 0 1.9843 -23.8604 153.239)">
									<stop  offset="0" style="stop-color:#444B8C"/>
									<stop  offset="0.9964" style="stop-color:#26264F"/>
								</linearGradient>
								<path fill="url(#SVGID_11_)" d="M-62.717,49.496l222.635-17.063l4.564-0.199c6.943-0.198,12.699,5.159,12.699,12.104
									v462.336c0,6.944-5.756,12.103-12.699,11.707l-3.373-0.198l-221.842-18.851c-6.35-0.397-11.906-1.984-11.906-8.533V51.878
									C-72.639,45.131-69.066,49.695-62.717,49.496z"/>
								
									<linearGradient id="SVGID_12_" gradientUnits="userSpaceOnUse" x1="-2310.0083" y1="1465.8628" x2="-1913.3599" y2="1480.6178" gradientTransform="matrix(8.908831e-011 -1.9843 -1.9843 -8.908831e-011 2962.7107 -4088.5376)">
									<stop  offset="0" style="stop-color:#444B8C"/>
									<stop  offset="0.9964" style="stop-color:#26264F"/>
								</linearGradient>
								<path fill="url(#SVGID_12_)" d="M-67.875,39.576l225.609-7.343c6.945-0.198,12.701,5.159,12.701,12.104v462.137
									c0,6.945-5.756,12.104-12.701,11.708l-225.609-14.883c-6.35-0.396-11.51-6.15-11.51-12.699V51.878
									C-79.385,45.131-74.225,39.774-67.875,39.576z"/>
								
									<linearGradient id="SVGID_13_" gradientUnits="userSpaceOnUse" x1="-29.1748" y1="-61.3174" x2="-50.4893" y2="408.9345" gradientTransform="matrix(-1.9843 0 0 1.9843 -23.8604 153.239)">
									<stop  offset="0" style="stop-color:#AA80F9"/>
									<stop  offset="0.9964" style="stop-color:#6165D7"/>
								</linearGradient>
								<path fill="url(#SVGID_13_)" d="M-61.326,64.577l212.117-5.755c2.182-0.197,4.167,0.397,5.952,1.39
									c3.374,1.983,5.755,5.556,5.755,9.922v427.014c0,6.351-5.357,11.31-11.905,10.913l-211.919-13.493
									c-5.953-0.396-10.914-5.754-10.914-11.904V75.887C-72.24,69.737-67.479,64.577-61.326,64.577z"/>
								<path fill="#DE8BDF" d="M42.252,45.33c2.381,0,4.168,1.787,4.168,4.168s-1.787,4.365-4.168,4.365
									c-2.383,0-4.166-1.787-4.166-4.168S39.869,45.33,42.252,45.33z"/>
								
									<linearGradient id="SVGID_14_" gradientUnits="userSpaceOnUse" x1="-29.3135" y1="-58.2847" x2="-50.3613" y2="406.0819" gradientTransform="matrix(-1.9843 0 0 1.9843 -23.8604 153.239)">
									<stop  offset="0" style="stop-color:#AA80F9"/>
									<stop  offset="0.9964" style="stop-color:#6165D7"/>
								</linearGradient>
								<path opacity="0.3" fill="url(#SVGID_14_)" enable-background="new    " d="M83.921,219.151
									c4.167-125.604,55.36-153.185,72.822-158.939c3.374,1.983,5.755,5.556,5.755,9.922v427.014
									c0,6.351-5.357,11.31-11.905,10.913l-211.919-13.493c-5.953-0.396-10.914-5.754-10.914-11.904v-31.153
									C-45.652,369.559,79.952,342.375,83.921,219.151z"/>
							</g>
							<g clip-path="url(#SVGID_7_)">
								<g>
									
										<linearGradient id="SVGID_15_" gradientUnits="userSpaceOnUse" x1="-24.3696" y1="15.2397" x2="214.5579" y2="-291.6177" gradientTransform="matrix(-1.9843 0 0 1.9843 -23.8604 153.239)">
										<stop  offset="0" style="stop-color:#AB316D"/>
										<stop  offset="1" style="stop-color:#792D3D"/>
									</linearGradient>
									<path fill="url(#SVGID_15_)" d="M-158.16-8.642v97.627c0,7.539,5.557,13.491,12.303,13.491l72.625-0.198l23.018,26.392
										c3.572,4.167,8.135,2.382,8.135-1.39v-25.199h6.15c8.137,0,14.686-6.746,14.686-14.883V-15.389
										c0-8.136-6.549-14.484-14.686-14.088l-109.729,6.746C-152.404-22.533-157.961-16.182-158.16-8.642z"/>
									
										<linearGradient id="SVGID_16_" gradientUnits="userSpaceOnUse" x1="-1.6948" y1="-12.9434" x2="41.5833" y2="-68.526" gradientTransform="matrix(-1.9843 0 0 1.9843 -23.8604 153.239)">
										<stop  offset="0" style="stop-color:#FCB148"/>
										<stop  offset="0.0521" style="stop-color:#FDBA46"/>
										<stop  offset="0.1424" style="stop-color:#FFC244"/>
										<stop  offset="0.3183" style="stop-color:#FFC444"/>
										<stop  offset="0.4849" style="stop-color:#FDB946"/>
										<stop  offset="0.7754" style="stop-color:#F99C4D"/>
										<stop  offset="0.8658" style="stop-color:#F8924F"/>
										<stop  offset="1" style="stop-color:#F8924F"/>
									</linearGradient>
									<path fill="url(#SVGID_16_)" d="M-161.533,86.405V-11.42c0-7.342,5.557-13.691,12.303-14.088l109.73-6.746
										c8.135-0.396,14.684,5.953,14.684,14.088V84.618c0,8.136-6.549,14.883-14.684,14.883l-109.73,0.595
										C-155.977,100.095-161.531,94.142-161.533,86.405z"/>
									
										<linearGradient id="SVGID_17_" gradientUnits="userSpaceOnUse" x1="45.4829" y1="-32.3062" x2="17.4674" y2="-103.5629" gradientTransform="matrix(-1.9843 0 0 1.9843 -23.8604 153.239)">
										<stop  offset="0" style="stop-color:#FCB148"/>
										<stop  offset="0.0521" style="stop-color:#FDBA46"/>
										<stop  offset="0.1424" style="stop-color:#FFC244"/>
										<stop  offset="0.3183" style="stop-color:#FFC444"/>
										<stop  offset="0.4849" style="stop-color:#FDB946"/>
										<stop  offset="0.7754" style="stop-color:#F99C4D"/>
										<stop  offset="0.8658" style="stop-color:#F8924F"/>
										<stop  offset="1" style="stop-color:#F8924F"/>
									</linearGradient>
									<path fill="url(#SVGID_17_)" d="M-36.723,95.135l-114.689,0.992c-3.572,0-6.549-3.176-6.549-7.143V-14
										c0-3.967,2.977-7.342,6.549-7.539l114.689-6.549c4.166-0.197,7.738,3.176,7.738,7.541V87.198
										C-28.984,91.563-32.357,95.134-36.723,95.135z"/>
									
										<linearGradient id="SVGID_18_" gradientUnits="userSpaceOnUse" x1="2.0244" y1="-6.7104" x2="62.6782" y2="-84.6087" gradientTransform="matrix(-1.9843 0 0 1.9843 -23.8604 153.239)">
										<stop  offset="0" style="stop-color:#FCB148"/>
										<stop  offset="0.0521" style="stop-color:#FDBA46"/>
										<stop  offset="0.1424" style="stop-color:#FFC244"/>
										<stop  offset="0.3183" style="stop-color:#FFC444"/>
										<stop  offset="0.4849" style="stop-color:#FDB946"/>
										<stop  offset="0.7754" style="stop-color:#F99C4D"/>
										<stop  offset="0.8658" style="stop-color:#F8924F"/>
										<stop  offset="1" style="stop-color:#F8924F"/>
									</linearGradient>
									<path fill="url(#SVGID_18_)" d="M-52.398,127.478l-28.574-32.739l35.52-0.396v30.359
										C-45.453,128.47-50.018,130.256-52.398,127.478z"/>
								</g>
								<g>
									<g>
										<path fill="#FFFFFF" d="M-66.289,26.678c4.762,0,8.73,3.573,8.73,8.136s-3.967,8.334-8.73,8.532
											c-4.762,0-8.531-3.572-8.531-8.136C-74.82,30.646-70.852,26.876-66.289,26.678z"/>
										<path fill="#FFFFFF" d="M-95.457,27.471c4.762-0.198,8.533,3.374,8.533,7.937c0,4.564-3.77,8.334-8.533,8.533
											c-4.563,0.198-8.332-3.375-8.332-7.938C-103.789,31.44-100.021,27.67-95.457,27.471z"/>
										<path fill="#FFFFFF" d="M-124.029,28.463c4.563-0.198,8.334,3.374,8.334,7.937c0,4.564-3.771,8.137-8.334,8.334
											c-4.365,0-8.137-3.373-8.137-7.937C-132.166,32.233-128.396,28.463-124.029,28.463z"/>
									</g>
								</g>
							</g>
							<g clip-path="url(#SVGID_7_)">
								<g>
									
										<linearGradient id="SVGID_19_" gradientUnits="userSpaceOnUse" x1="-3453.5547" y1="13897.7852" x2="-3497.2241" y2="13938.9639" gradientTransform="matrix(1.9843 0 0 -1.9843 7691.312 28882.457)">
										<stop  offset="0" style="stop-color:#311944"/>
										<stop  offset="1" style="stop-color:#893976"/>
									</linearGradient>
									<path fill="url(#SVGID_19_)" d="M-141.889,419.959c-22.025-1.19-39.486-18.851-39.486-39.288
										c0-20.438,17.461-37.106,39.486-37.106c22.818,0,41.67,17.66,41.67,39.289C-100.219,404.68-119.268,421.15-141.889,419.959
										z"/>
								</g>
								<g>
									
										<linearGradient id="SVGID_20_" gradientUnits="userSpaceOnUse" x1="46.3584" y1="126.4214" x2="81.3529" y2="94.6649" gradientTransform="matrix(-1.9843 0 0 1.9843 -23.8604 153.239)">
										<stop  offset="0" style="stop-color:#FF9085"/>
										<stop  offset="1" style="stop-color:#FB6FBB"/>
									</linearGradient>
									<path fill="url(#SVGID_20_)" d="M-143.277,418.373c-21.43-1.191-38.297-18.652-38.297-39.289
										c0-20.438,16.867-37.105,38.297-37.105c22.025,0,40.479,17.66,40.479,39.288
										C-102.799,402.895-121.055,419.563-143.277,418.373z"/>
								</g>
								<g opacity="0.5">
									<path fill="#FFFFFF" d="M-143.08,412.42c-17.859-0.992-32.146-15.675-32.146-32.939c0-17.263,14.09-31.351,32.146-31.351
										c18.453,0,33.932,14.683,33.932,32.938S-124.428,413.213-143.08,412.42z"/>
								</g>
								<path opacity="0.5" fill="#FFFFFF" enable-background="new    " d="M-111.33,369.361
									c-4.961-12.501-17.463-21.23-31.748-21.23c-17.859,0-32.146,14.088-32.146,31.351c0,5.159,1.389,10.12,3.572,14.485
									c-1.391-3.571-2.184-7.54-2.184-11.707c0-17.263,14.088-31.353,32.145-31.353
									C-128.594,350.907-116.887,358.25-111.33,369.361z"/>
								<g>
									<path fill="#FFFFFF" d="M-124.229,395.95l-37.303-1.39c-2.383,0-4.168-1.983-4.168-4.167v-21.827
										c0-0.992,0.396-1.983,1.189-2.777c0.795-0.793,1.787-1.19,2.979-1.19l37.104,0.596c2.381,0,4.365,1.786,4.365,4.167v22.422
										c0,1.191-0.395,2.184-1.189,2.978S-123.039,395.95-124.229,395.95C-124.428,395.95-124.428,395.95-124.229,395.95z
										 M-161.531,367.178c-0.398,0-0.795,0.199-1.391,0.198c-0.197,0.396-0.396,0.794-0.396,1.189v21.827
										c0,0.992,0.795,1.786,1.787,1.786l37.104,1.389c0.596,0,0.994,0,1.391-0.396c0.197-0.397,0.396-0.794,0.396-1.191v-22.422
										c0-0.992-0.795-1.786-1.787-1.786L-161.531,367.178L-161.531,367.178z"/>
									<path fill="#FFFFFF" d="M-146.451,380.672l-16.072-14.089c-0.596-0.396-0.596-1.19-0.199-1.786
										c0.396-0.594,1.191-0.594,1.785-0.198l16.072,14.089c0.992,0.992,2.383,0.992,3.375,0.198l16.469-13.493
										c0.596-0.396,1.389-0.396,1.785,0.198c0.396,0.596,0.396,1.39-0.197,1.786l-16.471,13.493
										c-0.992,0.794-1.984,1.189-3.174,1.189C-144.27,382.06-145.461,381.665-146.451,380.672z"/>
								</g>
							</g>
							<g clip-path="url(#SVGID_7_)">
								<g>
									
										<linearGradient id="SVGID_21_" gradientUnits="userSpaceOnUse" x1="-28.3765" y1="-103.7168" x2="-93.5274" y2="-42.2815" gradientTransform="matrix(-1.9843 0 0 1.9843 -23.8604 153.239)">
										<stop  offset="0" style="stop-color:#311944"/>
										<stop  offset="1" style="stop-color:#893976"/>
									</linearGradient>
									<path fill="url(#SVGID_21_)" d="M86.896-42.771c12.104,11.509,12.104,30.558,0,42.464
										C74.992,11.4,55.744,11.598,44.236,0.089c-11.51-11.311-11.51-29.963,0-41.67C55.943-53.487,74.992-54.281,86.896-42.771z"
										/>
								</g>
								<g>
									
										<linearGradient id="SVGID_22_" gradientUnits="userSpaceOnUse" x1="-52.4985" y1="-102.0679" x2="-31.6239" y2="-69.767" gradientTransform="matrix(-1.9843 0 0 1.9843 -23.8604 153.239)">
										<stop  offset="0" style="stop-color:#FF9085"/>
										<stop  offset="1" style="stop-color:#FB6FBB"/>
									</linearGradient>
									<path fill="url(#SVGID_22_)" d="M84.913-45.351c12.104,11.509,12.104,30.558,0,42.464
										C73.008,8.82,53.762,9.017,42.252-2.492c-11.51-11.31-11.51-29.962,0-41.669C53.762-56.067,72.809-56.662,84.913-45.351z"
										/>
								</g>
								<g opacity="0.5">
									<path fill="#FFFFFF" d="M80.746-41.184c9.723,9.127,9.723,24.605,0,34.129C71.223,2.469,55.744,2.667,46.42-6.659
										c-9.326-9.127-9.326-24.01,0-33.533C55.744-49.717,71.023-50.312,80.746-41.184z"/>
								</g>
								<path opacity="0.5" fill="#FFFFFF" enable-background="new    " d="M46.219-6.858c1.191,1.191,2.383,2.184,3.771,2.977l0,0
									c-9.326-9.127-9.326-24.01,0-33.533c8.334-8.532,21.43-9.922,30.953-3.571l-0.197-0.198
									c-9.523-9.128-25.002-8.533-34.326,0.992C37.094-30.667,37.094-15.786,46.219-6.858z"/>
								<g>
									<polygon fill="#FFFFFF" points="53.561,-34.635 48.998,-34.635 48.998,-10.032 53.561,-10.032 									"/>
									<polygon fill="#FFFFFF" points="61.498,-22.533 56.936,-22.533 56.936,-10.032 61.498,-10.23 									"/>
									<polygon fill="#FFFFFF" points="69.634,-37.414 65.07,-37.414 65.07,-10.23 69.634,-10.23 									"/>
									<polygon fill="#FFFFFF" points="77.77,-33.644 73.206,-33.446 73.206,-10.23 77.77,-10.428 									"/>
								</g>
							</g>
							<g clip-path="url(#SVGID_7_)">
								<g>
									<g>
										
											<linearGradient id="SVGID_23_" gradientUnits="userSpaceOnUse" x1="-3361.5146" y1="13886.8652" x2="-3414.5642" y2="13936.8887" gradientTransform="matrix(1.9843 0 0 -1.9843 7691.312 28882.457)">
											<stop  offset="0" style="stop-color:#444B8C"/>
											<stop  offset="0.9964" style="stop-color:#26264F"/>
										</linearGradient>
										<path fill="url(#SVGID_23_)" d="M-169.867,251.496c-26.787-1.391-47.82-22.622-47.82-47.624s21.033-45.24,47.82-45.24
											c27.582,0,50.6,21.23,50.6,47.622C-119.268,232.644-142.088,252.884-169.867,251.496z"/>
									</g>
									<g>
										
											<linearGradient id="SVGID_24_" gradientUnits="userSpaceOnUse" x1="57.5566" y1="39.6919" x2="100.0666" y2="1.1152" gradientTransform="matrix(-1.9843 0 0 1.9843 -23.8604 153.239)">
											<stop  offset="0" style="stop-color:#AA80F9"/>
											<stop  offset="0.9964" style="stop-color:#6165D7"/>
										</linearGradient>
										<path fill="url(#SVGID_24_)" d="M-171.256,249.511c-25.994-1.39-46.432-22.621-46.432-47.623s20.438-45.241,46.432-45.241
											c26.787,0,49.012,21.231,49.012,47.622C-122.244,230.461-144.469,250.703-171.256,249.511z"/>
									</g>
									<g opacity="0.5">
										<path fill="#FFFFFF" d="M-171.057,241.97c-21.826-1.19-39.09-19.049-39.09-40.082c0-20.835,17.264-37.899,39.09-37.899
											c22.422,0,41.273,17.858,41.273,40.082C-129.783,226.096-148.635,243.161-171.057,241.97z"/>
									</g>
									<path opacity="0.5" fill="#FFFFFF" enable-background="new    " d="M-132.563,189.786
										c-5.953-15.082-21.232-25.797-38.496-25.797c-21.826,0-39.09,16.866-39.09,37.899c0,6.349,1.588,12.303,4.365,17.66
										c-1.785-4.563-2.777-9.326-2.777-14.287c0-20.835,17.264-37.899,39.09-37.899
										C-153.596,167.362-139.309,176.491-132.563,189.786z"/>
								</g>
								<g>
									<path fill="#FFFFFF" d="M-164.113,212.407h-10.318v-2.184c0-1.587-0.396-2.779-0.992-3.771
										c-0.594-0.99-2.182-2.381-4.563-4.166c-3.373-2.381-5.955-4.763-7.145-6.746c-1.389-1.985-1.984-4.366-1.984-7.145
										c0-4.365,1.389-7.54,4.564-10.119c3.174-2.58,7.34-3.771,12.5-3.771c6.352,0,12.5,1.588,18.059,4.763l-4.168,8.333
										c-4.762-2.58-9.127-3.771-12.898-3.771c-2.182,0-3.967,0.596-5.158,1.39c-1.189,0.794-1.785,2.183-1.785,3.771
										c0,1.39,0.396,2.778,1.189,3.969c0.992,1.19,2.779,2.58,5.357,4.563c2.777,1.984,4.764,3.97,5.756,5.755
										c0.992,1.786,1.586,3.969,1.586,6.35v2.777V212.407z M-164.707,230.065c-1.191,1.19-2.777,1.786-4.961,1.786
										s-3.771-0.595-4.961-1.786s-1.785-2.777-1.785-4.763s0.596-3.771,1.785-4.763c1.189-0.991,2.777-1.588,4.961-1.588
										s3.77,0.597,4.961,1.588c1.189,0.992,1.785,2.58,1.785,4.763S-163.518,229.073-164.707,230.065z"/>
								</g>
							</g>
							<g clip-path="url(#SVGID_7_)">
								
									<linearGradient id="SVGID_25_" gradientUnits="userSpaceOnUse" x1="-81.918" y1="36.2197" x2="18.3848" y2="36.2197" gradientTransform="matrix(-1.9843 0 0 1.9843 -23.8604 153.239)">
									<stop  offset="0" style="stop-color:#444B8C"/>
									<stop  offset="0.9964" style="stop-color:#26264F"/>
								</linearGradient>
								<path opacity="0.3" fill="url(#SVGID_25_)" enable-background="new    " d="M-60.334,213.793v28.375
									c0,5.358,2.777,9.724,5.953,9.724l0,0c1.984,0,3.77-1.588,4.762-3.969l0,0c8.531,20.438,28.771,36.907,54.369,44.845
									c10.119,2.978,21.23,4.762,32.74,4.961c41.271,0.594,76.791-20.041,89.49-49.012c1.189,2.579,3.174,4.167,5.158,4.167l0,0
									c0.198,0,0.198,0,0.198,0c3.573,0,6.351-4.563,6.351-10.12v-29.169c0-5.556-3.176-10.119-6.549-10.119
									c-1.389,0-2.779,0.595-3.771,1.785c-9.128-24.604-34.327-43.851-66.075-50.399l0,0l0,0
									c-7.938-1.588-16.271-2.382-25.002-2.382c-42.465,0.396-77.783,22.819-88.498,52.979l0,0
									c-0.795-1.19-2.184-1.785-3.373-1.785l0,0C-57.756,203.674-60.533,208.239-60.334,213.793z"/>
								
									<linearGradient id="SVGID_26_" gradientUnits="userSpaceOnUse" x1="-64.9302" y1="109.8711" x2="2.4312" y2="109.8711" gradientTransform="matrix(-1.9843 0 0 1.9843 -23.8604 153.239)">
									<stop  offset="0" style="stop-color:#444B8C"/>
									<stop  offset="0.9964" style="stop-color:#26264F"/>
								</linearGradient>
								<path opacity="0.3" fill="url(#SVGID_26_)" enable-background="new    " d="M-21.244,323.722
									c-7.145,10.12-9.326,23.018-5.756,35.122c0,0.198,0.199,0.595,0.199,0.794l1.389,4.563
									c2.58,8.532,5.158,17.264,7.738,25.796c5.359,17.858,18.059,31.749,34.129,38.893c6.947,3.175,14.486,4.96,22.225,5.158
									c24.805,0.794,46.829-14.881,54.172-38.692c2.975-9.525,5.752-18.851,8.729-28.177l1.389-4.564
									c0-0.197,0.198-0.595,0.198-0.793c3.771-12.104,1.588-25.398-5.952-35.916c-3.373-4.563-7.54-8.334-12.303-11.11
									c-5.953-3.373-12.897-5.557-19.843-5.557l-55.162-0.794C-2.395,308.247-13.904,314-21.244,323.722z"/>
							</g>
							<g clip-path="url(#SVGID_7_)">
								<g>
									<path fill="#FFFFFF" d="M-52.992,201.293c10.518-29.366,45.043-51.393,86.514-51.789c8.334,0,16.668,0.794,24.408,2.381
										c30.953,6.35,55.756,25.199,64.487,49.21c2.381,6.151,3.571,12.698,3.571,19.446c0,7.936-1.588,15.675-4.762,22.818
										c-12.304,28.375-47.027,48.416-87.506,48.021c-11.313-0.199-22.227-1.984-32.146-4.961
										c-25.002-7.74-44.646-23.813-53.18-43.854c-2.975-6.946-4.563-14.485-4.563-22.224
										C-56.168,213.793-54.979,207.444-52.992,201.293z"/>
									<path fill="#D8DEE8" d="M-38.113,228.081v-17.463c0-7.539,5.953-13.69,13.295-13.69l114.889-0.198
										c7.74,0,13.891,6.152,13.891,13.891v17.857c0,17.066-13.493,30.757-30.359,30.56l-81.949-0.597
										C-24.617,258.44-37.912,244.749-38.113,228.081z"/>
									<path fill="#D8DEE8" d="M-1.006,243.954L-1.006,243.954c0-16.27,12.898-29.366,28.971-29.366h11.707
										c16.271,0,29.367,13.295,29.367,29.765l0,0c0,16.468-13.096,29.763-29.367,29.565l-11.707-0.198
										C11.893,273.521-1.006,260.226-1.006,243.954z"/>
									
										<linearGradient id="SVGID_27_" gradientUnits="userSpaceOnUse" x1="-61.6182" y1="35.2656" x2="3.7817" y2="35.2656" gradientTransform="matrix(-1.9843 0 0 1.9843 -23.8604 153.239)">
										<stop  offset="0" style="stop-color:#444B8C"/>
										<stop  offset="0.9964" style="stop-color:#26264F"/>
									</linearGradient>
									<path fill="url(#SVGID_27_)" d="M-31.363,223.118v-7.738c0-7.54,5.953-13.691,13.295-13.691l102.784-0.197
										c7.54,0,13.69,6.151,13.69,13.89v7.937c0,11.906-9.723,21.629-21.629,21.629l-87.307-0.396
										C-22.238,244.55-31.564,235.026-31.363,223.118z"/>
									<path fill="#D8DEE8" d="M70.426,225.7c0.794-1.19,1.391-2.58,1.391-3.969c0-4.762-4.961-8.531-11.113-8.531
										c-6.15,0-11.109,3.769-11.109,8.531c0,1.389,0.594,2.779,1.389,3.969H70.426z"/>
									<path fill="#D8DEE8" d="M14.67,225.7c0.793-1.19,1.389-2.58,1.389-3.969c0-4.762-4.961-8.531-10.914-8.531
										c-5.951,0-10.912,3.769-10.912,8.531c0,1.389,0.594,2.779,1.389,3.969H14.67z"/>
									
										<linearGradient id="SVGID_28_" gradientUnits="userSpaceOnUse" x1="-78.6577" y1="35.3662" x2="-72.8798" y2="35.3662" gradientTransform="matrix(-1.9843 0 0 1.9843 -23.8604 153.239)">
										<stop  offset="0" style="stop-color:#444B8C"/>
										<stop  offset="0.9964" style="stop-color:#26264F"/>
									</linearGradient>
									<path fill="url(#SVGID_28_)" d="M122.219,202.086c0.198-0.396,0.198-0.596,0.396-0.992c0.992-1.189,2.182-1.785,3.57-1.785
										c3.572,0,6.151,4.564,6.151,9.921v28.573c0,5.357-2.579,9.724-5.952,9.724c-2.184,0-3.572-1.588-4.763-3.969
										c-0.597-1.588-0.794-3.571-0.794-5.755V209.23C120.828,206.452,121.025,204.071,122.219,202.086z"/>
									
										<linearGradient id="SVGID_29_" gradientUnits="userSpaceOnUse" x1="13.3677" y1="35.2168" x2="19.1914" y2="35.2168" gradientTransform="matrix(-1.9843 0 0 1.9843 -23.8604 153.239)">
										<stop  offset="0" style="stop-color:#444B8C"/>
										<stop  offset="0.9964" style="stop-color:#26264F"/>
									</linearGradient>
									<path fill="url(#SVGID_29_)" d="M-61.924,237.011v-27.78c0-5.158,2.58-9.523,5.756-9.523l0,0
										c3.176,0,5.754,4.166,5.754,9.523v27.78c0,5.356-2.578,9.524-5.754,9.524l0,0
										C-59.344,246.536-61.924,242.168-61.924,237.011z"/>
								</g>
								<path fill="#FFFFFF" d="M-23.627,316.976c7.145-9.722,18.453-15.477,30.559-15.279l53.971,0.794
									c6.945,0.199,13.691,1.985,19.447,5.557c4.563,2.778,8.729,6.35,11.904,10.914c7.54,10.119,9.723,23.216,5.953,35.121
									c0,0.397-0.198,0.596-0.198,0.794l-1.39,4.563c-2.777,9.326-5.754,18.454-8.532,27.582
									c-7.341,23.414-28.771,38.693-52.979,37.899c-7.738-0.198-15.08-1.984-21.826-4.961
									c-15.676-6.945-28.178-20.637-33.336-37.899c-2.58-8.334-4.961-16.866-7.541-25.2l-1.389-4.563
									c0-0.398-0.197-0.597-0.197-0.794C-32.754,339.795-30.77,327.096-23.627,316.976z"/>
								<polygon fill="#D8DEE8" points="97.811,354.876 96.422,359.439 -27.596,356.663 -28.984,352.296 								"/>
								<path opacity="0.3" fill="#D8DEE8" enable-background="new    " d="M45.029,258.837c3.969-4.367,7.541-8.93,10.518-13.892
									c3.375-5.754,5.953-11.904,7.342-18.453c0.199-0.397,0.199-0.596,0.199-0.793c0.793-3.969,1.189-7.938,1.189-12.104
									c0-3.969-0.396-7.937-1.189-12.104c-0.199-1.588-0.596-3.174-0.992-4.763c-0.398-1.587-0.992-3.373-1.588-5.159
									c-5.357-16.271-5.557-29.168-2.578-39.686c30.953,6.35,55.756,25.199,64.487,49.21c0.991-1.19,2.183-1.785,3.571-1.785
									c3.572,0,6.15,4.563,6.15,9.921v28.573c0,5.358-2.777,9.724-6.15,9.724c-1.985,0-3.572-1.588-4.762-3.969
									c-12.304,28.375-47.027,48.416-87.506,48.021c-11.313-0.198-22.227-1.984-32.146-4.962
									c8.93-3.372,17.66-7.737,25.598-12.896C33.918,269.354,40.068,264.393,45.029,258.837z"/>
								<path opacity="0.3" fill="#D8DEE8" enable-background="new    " d="M42.449,369.759c6.746-3.771,12.105-7.54,16.668-11.312
									c1.785-1.388,3.373-2.975,4.961-4.364c18.454-17.66,16.072-32.74,16.271-46.035c4.563,2.778,8.729,6.35,11.904,10.914
									c7.54,10.119,9.723,23.216,5.953,35.121c0,0.397-0.198,0.596-0.198,0.794l-1.39,4.563
									c-2.777,9.326-5.754,18.454-8.532,27.582c-7.341,23.414-28.771,38.693-52.979,37.899c-7.738-0.198-15.08-1.984-21.826-4.961
									C2.764,406.864,10.701,388.608,42.449,369.759z"/>
							</g>
							<g clip-path="url(#SVGID_7_)">
								<g>
									
										<linearGradient id="SVGID_30_" gradientUnits="userSpaceOnUse" x1="130.0566" y1="173.9302" x2="86.14" y2="148.1902" gradientTransform="matrix(-1.9835 0.0593 0.0593 1.9835 342.3712 142.6129)">
										<stop  offset="0" style="stop-color:#311944"/>
										<stop  offset="1" style="stop-color:#893976"/>
									</linearGradient>
									<path fill="url(#SVGID_30_)" d="M135.514,486.037c2.182,2.58,4.364,4.961,6.746,7.144
										c-0.199,0.198-0.398,0.397-0.596,0.794c-3.176,5.754-1.189,13.294,4.167,16.469c5.356,3.176,12.104,1.19,15.08-4.762
										c0.198-0.396,0.198-0.596,0.397-0.992c2.977,1.19,5.951,1.984,9.127,2.579c0,0.397,0,0.596,0,0.992
										c0,6.747,4.961,12.104,11.111,11.905s10.913-5.557,10.913-12.303c0-0.396,0-0.596,0-0.991
										c2.978-0.596,5.953-1.589,8.931-2.778c0,0.396,0.197,0.794,0.396,0.992c3.175,5.755,9.921,7.54,15.081,4.167
										s6.746-10.715,3.77-16.47c-0.199-0.198-0.396-0.596-0.595-0.794c2.381-2.382,4.563-4.763,6.548-7.342
										c0.199,0.199-2.977,1.985-2.777,2.184c5.356,3.373,15.477-0.397,18.453-6.151s0.992-13.096-4.166-16.271
										c-0.199-0.197-0.597-0.197-0.795-0.396c0.993-3.175,1.588-6.548,2.184-9.921c0.396,0,0.596,0,0.992,0
										c5.953,0,10.715-5.556,10.715-12.104c0-6.548-4.961-11.904-10.914-11.904c-0.396,0-0.596,0-0.991,0
										c-0.597-3.175-1.587-6.55-2.579-9.725c0.197,0,0.596-0.197,0.793-0.396c5.16-3.373,6.748-10.715,3.771-16.47
										c-2.978-5.755-9.724-7.738-14.883-4.365c-0.197,0.199-0.596,0.397-0.793,0.596c-1.986-2.581-4.168-4.961-6.549-7.144
										c0-0.198,0.198-0.597,0.396-0.794c2.977-5.755,0.992-13.097-4.168-16.47c-5.158-3.176-11.904-1.191-14.881,4.563
										c-0.199,0.396-0.199,0.595-0.396,0.992c-2.779-1.19-5.953-1.984-8.93-2.58c0-0.396,0-0.596,0-0.992
										c-0.199-6.746-4.762-12.302-18.057-10.715c-5.953,0.794-3.97,4.167-3.97,10.914c0,0.396,0,0.595,0,0.991
										c-2.978,0.794-5.952,1.588-8.929,2.777c0-0.396-0.199-0.595-0.397-0.992c-2.978-5.754-8.532-10.715-20.835-3.175
										c-5.357,3.175-1.389,9.524,1.786,15.279c0.199,0.198,0.397,0.595,0.597,0.793c-2.383,2.382-4.565,4.763-6.55,7.342
										c-0.198-0.199-0.595-0.396-0.793-0.595c-5.356-3.374-12.104-1.191-15.081,4.563c-3.175,5.953-1.189,13.295,4.167,16.668
										c0.199,0.198,0.597,0.198,0.794,0.396c-0.992,3.176-1.785,6.549-2.381,9.922c-0.396,0-0.596,0-0.992,0
										c-6.15,0-11.111,5.556-11.111,12.303s5.16,12.104,11.311,12.104c0.396,0,0.596,0,0.992,0
										c0.596,3.373,1.389,6.747,2.579,9.922c-0.198,0-0.595,0.198-0.794,0.396c-5.357,3.373-7.143,10.913-3.969,16.668
										c3.174,5.754,9.922,7.54,15.278,4.167C135.115,487.028,135.313,486.831,135.514,486.037z M146.426,465.398
										c-11.311-21.033-4.961-48.018,14.088-60.32c18.85-12.104,43.455-5.159,54.567,15.676
										c11.112,20.636,4.961,47.622-13.89,59.925C182.341,493.179,157.734,486.432,146.426,465.398z"/>
									
										<linearGradient id="SVGID_31_" gradientUnits="userSpaceOnUse" x1="76.0259" y1="144.3423" x2="85.8156" y2="148.7477" gradientTransform="matrix(-1.9835 0.0593 0.0593 1.9835 342.3712 142.6129)">
										<stop  offset="0" style="stop-color:#311944"/>
										<stop  offset="1" style="stop-color:#893976"/>
									</linearGradient>
									<path fill="url(#SVGID_31_)" d="M121.821,456.47c0.596,3.373,1.39,6.746,2.579,9.921c-0.197,0-0.596,0.198-0.793,0.397
										c-5.358,3.373-7.145,10.912-3.969,16.667c3.174,5.755,9.922,7.541,15.278,4.167c0.198-0.199,0.595-0.397,0.793-0.596
										c2.185,2.58,4.366,4.961,6.747,7.145c-0.199,0.198-0.396,0.396-0.596,0.793c-3.176,5.954-5.357,14.883,0,18.058
										c5.357,3.373,16.271-0.198,19.248-6.15c0.197-0.397,0.197-0.597,0.396-0.992c2.978,1.189,5.953,1.983,9.128,2.579
										c0,0.396,0,0.596,0,0.992c0,6.547,1.191,13.294,7.342,12.897c11.112-0.794,14.685-6.747,14.685-13.493
										c0-0.396,0-0.596,0-0.992c1.388-0.396,2.976-0.794,4.364-1.189c-2.381-4.762-4.961-9.524-7.144-14.485
										c-0.794-1.786-1.587-3.771-2.381-5.556c-15.874,2.976-32.345-4.763-41.074-20.835c-10.317-19.049-5.952-43.06,9.128-56.552
										c-5.16-8.931-10.32-17.859-15.677-26.59c-0.992,3.176-0.793,6.746,0.992,9.922c0.2,0.197,0.397,0.596,0.596,0.794
										c-2.381,2.381-4.563,4.762-6.548,7.342c-0.199-0.2-0.596-0.398-0.794-0.597c-5.356-3.372-12.699-6.944-19.446,3.572
										c-3.57,5.557,3.176,14.088,8.533,17.461c0.197,0.198,0.596,0.198,0.793,0.397c-0.992,3.175-1.785,6.548-2.381,9.921
										c-0.396,0-0.596,0-0.992,0c-6.15,0-11.111,5.556-11.111,12.303s5.159,12.104,11.311,12.104
										C121.025,455.875,121.424,455.875,121.821,456.47z"/>
									
										<linearGradient id="SVGID_32_" gradientUnits="userSpaceOnUse" x1="74.231" y1="129.3306" x2="121.3057" y2="193.5815" gradientTransform="matrix(-1.9835 0.0593 0.0593 1.9835 342.3712 142.6129)">
										<stop  offset="0" style="stop-color:#FF9085"/>
										<stop  offset="1" style="stop-color:#FB6FBB"/>
									</linearGradient>
									<path fill="url(#SVGID_32_)" d="M130.154,487.426c2.183,2.581,4.365,4.961,6.746,7.144
										c-0.199,0.198-0.397,0.398-0.596,0.794c-3.175,5.754-1.189,13.295,4.168,16.47c5.356,3.176,12.102,1.19,15.079-4.763
										c0.198-0.396,0.198-0.595,0.397-0.992c2.977,1.19,5.951,1.984,9.127,2.58c0,0.396,0,0.596,0,0.991
										c0,6.747,4.961,12.105,11.111,11.906c6.151-0.199,10.914-5.557,10.914-12.303c0-0.396,0-0.596,0-0.992
										c2.977-0.594,5.953-1.587,8.93-2.777c0,0.396,0.197,0.793,0.396,0.991c3.175,5.755,9.923,7.541,15.081,4.167
										c5.16-3.373,6.945-10.715,3.77-16.469c-0.198-0.198-0.396-0.597-0.594-0.794c2.381-2.381,4.563-4.764,6.547-7.343
										c0.199,0.199,0.596,0.397,0.795,0.597c5.357,3.374,11.904,1.19,14.881-4.564c2.978-5.754,0.992-13.096-4.166-16.271
										c-0.198-0.199-0.596-0.199-0.795-0.397c0.994-3.175,1.588-6.548,2.184-9.921c0.396,0,0.596,0,0.992,0
										c5.953,0,10.715-5.555,10.715-12.104s-4.96-11.905-10.913-11.905c-0.396,0-0.596,0-0.991,0
										c-0.597-3.175-1.589-6.548-2.58-9.723c0.198,0,0.596-0.198,0.793-0.397c5.16-3.373,6.748-10.715,3.771-16.469
										c-2.977-5.755-9.723-7.739-14.883-4.365c-0.198,0.199-0.596,0.397-0.793,0.595c-1.985-2.58-4.168-4.961-6.549-7.144
										c0-0.198,0.199-0.595,0.396-0.793c2.977-5.755,1.189-13.098-4.167-16.47c-5.159-3.176-11.905-1.191-14.882,4.563
										c-0.198,0.397-0.198,0.596-0.396,0.992c-2.779-1.19-5.953-1.984-8.93-2.579c0-0.397,0-0.596,0-0.992
										c0-6.747-4.961-12.104-11.111-12.104s-10.914,5.356-10.914,12.104c0,0.396,0,0.595,0,0.992
										c-2.977,0.793-5.953,1.587-8.929,2.777c0-0.396-0.198-0.596-0.397-0.992c-3.174-5.754-9.92-7.738-15.277-4.365
										s-7.145,10.914-3.969,16.668c0.199,0.198,0.396,0.596,0.595,0.794c-2.381,2.381-4.563,4.762-6.548,7.342
										c-0.198-0.198-0.596-0.397-0.795-0.596c-5.555-3.374-12.301-1.191-15.277,4.564c-3.175,5.951-1.189,13.294,4.167,16.667
										c0.198,0.198,0.595,0.198,0.794,0.396c-0.992,3.175-1.785,6.548-2.382,9.921c-0.396,0-0.595,0-0.992,0
										c-6.149,0-11.11,5.558-11.11,12.304c0,6.745,5.16,12.104,11.311,12.104c0.396,0,0.596,0,0.992,0
										c0.595,3.373,1.389,6.746,2.578,9.921c-0.197,0-0.596,0.198-0.793,0.396c-5.358,3.374-7.145,10.914-3.969,16.668
										c3.174,5.755,9.922,7.54,15.278,4.167C129.359,488.218,129.559,488.02,130.154,487.426z M140.671,466.589
										c-11.31-20.834-4.961-48.019,14.089-60.321c19.049-12.303,43.654-5.159,54.766,15.676s4.961,47.82-13.89,60.123
										C176.586,494.371,151.98,487.624,140.671,466.589z"/>
								</g>
							</g>
							<g clip-path="url(#SVGID_7_)">
								<g>
									<g>
										
											<linearGradient id="SVGID_33_" gradientUnits="userSpaceOnUse" x1="1910.8154" y1="13604.5156" x2="1873.6274" y2="13669.8223" gradientTransform="matrix(1.4031 -1.4031 -1.4031 -1.4031 16718.7637 21947.6582)">
											<stop  offset="0" style="stop-color:#444B8C"/>
											<stop  offset="0.9964" style="stop-color:#26264F"/>
										</linearGradient>
										<path fill="url(#SVGID_33_)" d="M283.34,190.778c-17.462,16.072-44.844,15.875-61.115,0.396
											c-15.873-15.279-15.873-40.082,0-56.155c16.271-16.469,43.653-18.057,61.115-2.976
											C301.197,147.519,301.197,174.11,283.34,190.778z"/>
									</g>
									<g>
										
											<linearGradient id="SVGID_34_" gradientUnits="userSpaceOnUse" x1="1910.9541" y1="13605.9375" x2="1873.7659" y2="13671.2441" gradientTransform="matrix(1.4031 -1.4031 -1.4031 -1.4031 16718.7637 21947.6582)">
											<stop  offset="0" style="stop-color:#AA80F9"/>
											<stop  offset="0.9964" style="stop-color:#6165D7"/>
										</linearGradient>
										<path fill="url(#SVGID_34_)" d="M281.553,188.594c-17.461,16.072-44.844,15.875-61.115,0.396
											c-15.873-15.278-15.873-40.082,0-56.154c16.271-16.469,43.654-18.057,61.115-2.977
											C299.412,145.336,299.412,171.926,281.553,188.594z"/>
									</g>
									<g opacity="0.5">
										<path fill="#FFFFFF" d="M277.188,184.228c-14.881,13.69-38.295,13.69-52.187,0.397c-13.69-12.898-13.69-34.131,0-47.821
											c13.892-14.088,37.306-15.478,52.187-2.579C292.468,147.519,292.468,170.14,277.188,184.228z"/>
									</g>
									<path opacity="0.3" fill="#FFFFFF" enable-background="new    " d="M284.727,143.749c-1.785-3.571-4.365-6.746-7.539-9.523
										c-14.883-12.898-38.297-11.509-52.188,2.579c-11.904,12.104-13.492,29.765-4.563,42.662
										c-6.746-12.501-4.563-28.375,6.35-39.487c13.89-14.088,37.305-15.477,52.188-2.578
										C281.355,139.384,283.141,141.368,284.727,143.749z"/>
								</g>
								<g>
									<path fill="#FFFFFF" d="M232.341,146.925c1.588-2.976,3.97-5.356,7.144-6.945c3.176-1.587,6.748-2.381,10.715-2.381
										c4.764,0,8.931,1.19,12.502,3.175c3.572,1.984,6.349,4.961,8.334,8.532c1.984,3.572,2.977,7.739,2.977,12.104
										c0,6.549-1.984,11.509-5.754,15.08c-3.969,3.571-9.128,5.357-16.072,5.357c-4.762,0-9.127-0.794-12.897-2.381v-5.159
										c2.183,0.794,4.364,1.39,6.747,1.785c2.381,0.397,4.365,0.596,6.35,0.596c4.96,0,8.93-1.389,11.51-3.969
										c2.578-2.778,3.967-6.548,3.967-11.509c0-3.572-0.793-6.945-2.183-9.723c-1.388-2.978-3.372-5.16-6.151-6.549
										c-2.776-1.39-5.951-2.183-9.523-2.183c-2.777,0-5.357,0.595-7.54,1.784c-2.183,1.191-3.969,2.978-5.159,5.16
										c-1.189,2.182-1.785,4.762-1.785,7.738c0,2.579,0.396,4.961,0.991,6.549c0.794,1.785,1.589,2.578,2.778,2.578
										c1.388,0,1.984-1.191,1.984-3.77l-0.597-13.295c1.191-0.396,2.778-0.795,4.563-0.992c1.984-0.198,3.572-0.396,5.16-0.396
										c3.967,0,7.142,1.19,9.523,3.571c2.381,2.183,3.571,5.356,3.571,9.128c0,3.374-0.992,5.954-2.778,7.938
										c-1.785,1.984-4.365,2.977-7.54,2.977c-2.977,0-5.358-1.189-7.342-3.57h-0.396c-0.397,1.189-1.191,1.983-2.184,2.578
										c-0.992,0.596-2.182,0.992-3.572,0.992c-2.182,0-3.769-0.595-5.356-1.785c-1.587-1.389-2.777-2.976-3.571-5.158
										c-0.794-2.184-1.189-4.565-1.189-7.145C229.566,153.67,230.559,150.297,232.341,146.925z M255.561,155.458
										c-1.39-1.389-3.175-2.184-5.358-2.184c-1.191,0-2.183,0-3.175,0.198l0.396,5.953c0.198,2.579,0.794,4.366,1.587,5.556
										c0.993,1.19,2.183,1.786,3.771,1.786c2.977,0,4.564-1.983,4.564-5.755C257.346,158.631,256.751,156.647,255.561,155.458z"
										/>
								</g>
							</g>
						</g>
					</g>
					<g id="Layer_3">
						<g>
							<g>
								<g>
									<g opacity="0.3">
										
											<linearGradient id="SVGID_35_" gradientUnits="userSpaceOnUse" x1="1511.2354" y1="-79.9385" x2="1573.1716" y2="-79.9385" gradientTransform="matrix(1.1408 1.6235 -1.6235 1.1408 -1628.0857 -2399.0579)">
											<stop  offset="0" style="stop-color:#B37CFF"/>
											<stop  offset="1" style="stop-color:#F895E7"/>
										</linearGradient>
										<path fill="url(#SVGID_35_)" d="M187.697-6.459c-0.793-1.19-0.596-2.381,0.199-2.977c1.785-1.587,3.771-3.174,5.754-4.564
											c0.994-0.793,2.184-0.594,2.977,0.397l0,0c0.794,0.993,0.596,2.382-0.396,2.978c-1.984,1.388-3.771,2.777-5.556,4.365
											C189.881-5.467,188.492-5.467,187.697-6.459C187.697-6.659,187.5-6.659,187.697-6.459z M203.374-17.373
											c-0.198,0-0.198-0.198-0.198-0.198c-0.596-1.191-0.197-2.381,0.793-2.977c2.184-1.191,4.366-2.184,6.549-3.176
											c0.992-0.396,2.381,0,2.777,1.19c0.398,0.991-0.197,2.382-1.189,2.778c-2.184,0.793-4.367,1.787-6.351,2.977
											C204.762-16.182,203.572-16.58,203.374-17.373z M220.238-24.715c-0.197-0.198-0.396-0.396-0.396-0.595
											c-0.198-0.991,0.397-2.183,1.587-2.579c2.381-0.596,4.764-1.191,7.145-1.588c1.189-0.197,2.381,0.596,2.578,1.785
											c0.199,1.191-0.594,2.382-1.784,2.58c-2.183,0.396-4.563,0.992-6.747,1.587C221.827-23.326,220.836-23.723,220.238-24.715
											z M238.893-27.293c-0.197-0.397-0.396-0.795-0.396-1.19c-0.199-1.19,0.794-2.183,1.984-2.183c2.381,0,4.961,0,7.342,0
											c1.189,0,1.984,0.992,1.984,2.183s-0.994,1.983-2.184,1.983c-2.182-0.198-4.563-0.198-6.945,0
											C240.083-26.301,239.289-26.7,238.893-27.293z M257.344-25.906c-0.396-0.397-0.594-0.992-0.396-1.587
											c0.199-1.191,1.39-1.984,2.58-1.786c2.382,0.397,4.763,0.992,7.144,1.587c1.19,0.199,1.983,1.391,1.588,2.58
											c-0.198,1.191-1.39,1.984-2.579,1.587c-2.184-0.595-4.564-1.19-6.746-1.587C258.338-25.31,257.941-25.708,257.344-25.906z
											 M275.801-20.946c-0.396-0.396-0.595-1.189-0.197-1.984c0.396-1.189,1.586-1.587,2.776-1.189
											c2.183,0.992,4.365,1.984,6.55,3.175c1.189,0.595,1.586,1.985,0.99,2.978c-0.595,1.189-1.984,1.586-2.977,0.991
											c-2.183-0.993-4.166-1.985-6.35-2.977C276.195-20.151,275.8-20.35,275.801-20.946z M325.404,40.566
											c-0.197-0.197-0.396-0.396-0.396-0.793c-0.397-2.183-0.991-4.564-1.588-6.746c-0.198-0.992,0.397-2.184,1.588-2.58
											c0.992-0.197,2.183,0.397,2.579,1.588c0.596,2.381,1.191,4.763,1.588,7.144c0.198,1.19-0.596,2.381-1.785,2.58
											C326.596,41.957,325.604,41.559,325.404,40.566z M292.07-11.42c-0.594-0.795-0.594-1.787,0-2.58
											c0.597-0.793,1.986-1.19,2.978-0.396c1.983,1.389,3.97,2.977,5.755,4.563c0.793,0.795,0.992,1.986,0.198,2.978
											c-0.794,0.794-1.985,0.992-2.978,0.198c-1.785-1.587-3.771-2.975-5.556-4.365C292.27-11.221,292.07-11.221,292.07-11.42z
											 M319.65,23.305c0-0.198-0.198-0.198-0.198-0.396c-0.793-2.184-1.786-4.367-2.976-6.351
											c-0.597-1.192-0.199-2.382,0.793-2.978c1.19-0.596,2.381-0.197,2.977,0.793c1.191,2.185,2.184,4.367,3.175,6.55
											c0.397,0.991-0.198,2.381-1.19,2.776C321.438,24.098,320.247,23.9,319.65,23.305z M305.961,1.279
											c-0.794-0.992-0.596-2.183,0.198-3.176c0.794-0.794,2.183-0.794,2.977,0.198c1.587,1.786,3.175,3.771,4.563,5.755l0,0
											c0.794,0.993,0.596,2.184-0.396,2.977s-2.184,0.596-2.977-0.396C308.938,4.85,307.548,3.065,305.961,1.279
											C305.961,1.279,305.762,1.279,305.961,1.279z"/>
										
											<linearGradient id="SVGID_36_" gradientUnits="userSpaceOnUse" x1="1576.1826" y1="-96.2056" x2="1579.799" y2="-96.2056" gradientTransform="matrix(1.1408 1.6235 -1.6235 1.1408 -1628.0857 -2399.0579)">
											<stop  offset="0" style="stop-color:#B37CFF"/>
											<stop  offset="1" style="stop-color:#F895E7"/>
										</linearGradient>
										<path fill="url(#SVGID_36_)" d="M328.184,57.037c1.191,0,2.184-0.992,2.184-2.183s0-2.381,0-3.571
											s-0.993-1.983-2.184-1.983c-1.189,0-1.983,0.993-1.983,2.183c0,1.19,0,2.184,0,3.373c0,0.396,0.198,0.794,0.396,1.19
											C326.994,56.64,327.589,56.838,328.184,57.037z"/>
									</g>
									<g opacity="0.3">
										
											<linearGradient id="SVGID_37_" gradientUnits="userSpaceOnUse" x1="1594.9609" y1="-68.4844" x2="1597.4432" y2="-68.4844" gradientTransform="matrix(1.1408 1.6235 -1.6235 1.1408 -1628.0857 -2399.0579)">
											<stop  offset="0" style="stop-color:#B37CFF"/>
											<stop  offset="1" style="stop-color:#F895E7"/>
										</linearGradient>
										<path fill="url(#SVGID_37_)" d="M301.197,116.962c0.795,0.794,2.184,0.794,2.978,0c0.992-0.794,1.786-1.786,2.579-2.579
											c0.992-0.794,0.794-2.184,0-2.977c-0.793-0.992-2.184-0.795-2.977,0c-0.793,0.793-1.588,1.586-2.381,2.381
											c-0.795,0.793-0.795,1.983-0.199,2.777C301.396,116.763,301.396,116.763,301.197,116.962z"/>
										
											<linearGradient id="SVGID_38_" gradientUnits="userSpaceOnUse" x1="1534.1787" y1="-40.3599" x2="1597.9738" y2="-40.3599" gradientTransform="matrix(1.1408 1.6235 -1.6235 1.1408 -1628.0857 -2399.0579)">
											<stop  offset="0" style="stop-color:#B37CFF"/>
											<stop  offset="1" style="stop-color:#F895E7"/>
										</linearGradient>
										<path fill="url(#SVGID_38_)" d="M174.006,104.857c-0.396-0.794-0.992-1.588-1.588-2.382
											c-0.594-0.993-0.396-2.381,0.596-2.977c0.993-0.594,2.381-0.396,2.977,0.596c1.191,1.984,2.58,3.771,3.97,5.556
											c0.793,0.993,0.595,2.183-0.397,2.978c-0.793,0.794-2.183,0.596-2.977-0.396
											C175.793,107.042,174.999,106.048,174.006,104.857z M166.863,92.752c0-0.197-0.198-0.197-0.198-0.396
											c-0.992-2.183-1.983-4.563-2.778-6.747c-0.396-1.189,0-2.381,1.19-2.777c1.19-0.397,2.382,0,2.778,1.19
											c0.992,2.183,1.785,4.366,2.777,6.351c0.596,0.992,0,2.182-0.992,2.777C168.648,93.547,167.459,93.151,166.863,92.752z
											 M184.127,116.565c-0.596-0.794-0.596-1.984,0.198-2.777c0.793-0.795,2.183-0.795,2.977,0
											c1.587,1.586,3.373,3.174,5.158,4.563c0.992,0.793,1.19,1.983,0.397,2.976c-0.795,0.992-1.985,1.19-2.978,0.397
											c-1.786-1.39-3.571-3.175-5.356-4.763C184.325,116.763,184.325,116.763,184.127,116.565z M161.109,75.094
											c-0.198-0.198-0.396-0.596-0.396-0.793c-0.595-2.382-0.993-4.764-1.389-7.145c-0.198-1.19,0.596-2.183,1.785-2.381
											c1.191-0.199,2.184,0.596,2.381,1.785c0.199,2.184,0.595,4.564,1.191,6.747c0.396,1.19-0.397,2.381-1.588,2.579
											C162.3,76.086,161.307,75.689,161.109,75.094z M198.811,128.075c-0.396-0.795-0.396-1.588,0-2.381
											c0.596-1.191,1.984-1.391,2.977-0.795c1.984,1.19,3.969,2.381,5.953,3.373c1.189,0.596,1.588,1.985,0.992,2.977
											c-0.596,1.19-1.985,1.588-2.978,0.992c-2.183-1.189-4.366-2.381-6.351-3.571
											C199.207,128.47,199.009,128.272,198.811,128.075z M215.279,135.812c-0.396-0.594-0.396-1.388-0.198-1.983
											c0.396-1.191,1.588-1.785,2.778-1.39c2.183,0.794,4.365,1.388,6.547,1.984c1.191,0.198,1.787,1.389,1.588,2.579
											c-0.198,1.191-1.389,1.785-2.579,1.588c-2.381-0.596-4.763-1.189-6.944-1.984
											C216.072,136.409,215.677,136.209,215.279,135.812z M233.336,139.979c-0.396-0.396-0.396-0.794-0.396-1.389
											c0.199-1.189,1.191-2.182,2.381-1.984c2.383,0.198,4.763,0.396,6.945,0.396c1.191,0,2.184,0.992,2.184,2.183
											s-0.993,2.183-2.184,2.183c-2.381-0.198-4.763-0.396-7.144-0.595C234.328,140.773,233.932,140.375,233.336,139.979z
											 M251.988,139.583c-0.198-0.197-0.396-0.596-0.396-0.991c0-1.19,0.794-2.183,1.984-2.382
											c2.183-0.198,4.563-0.596,6.746-0.991c1.189-0.199,2.381,0.595,2.58,1.785c0.197,1.19-0.596,2.382-1.787,2.579
											c-2.381,0.595-4.762,0.992-7.143,1.19C253.178,140.971,252.386,140.575,251.988,139.583z M270.044,136.011
											c0-0.199-0.198-0.397-0.198-0.595c-0.396-1.19,0.199-2.383,1.391-2.778c2.183-0.794,4.166-1.587,6.35-2.579
											c0.992-0.398,2.381,0.198,2.777,1.189c0.397,0.992-0.198,2.382-1.19,2.777c-2.183,0.992-4.563,1.786-6.746,2.58
											C271.633,137.003,270.641,136.606,270.044,136.011z M286.711,127.875c0-0.199,0-0.199,0-0.199
											c-0.596-0.993-0.197-2.381,0.794-2.977c1.39-0.793,2.778-1.785,4.167-2.777c0.396-0.198,0.993-0.596,1.389-0.992
											c0.994-0.794,2.184-0.598,2.978,0.396c0.794,0.992,0.596,2.183-0.396,2.977c-0.597,0.396-0.992,0.794-1.588,1.189
											c-1.389,0.994-2.777,1.985-4.365,2.978C288.697,129.066,287.309,128.868,286.711,127.875z"/>
										
											<linearGradient id="SVGID_39_" gradientUnits="userSpaceOnUse" x1="1527.8184" y1="-26.8813" x2="1531.3895" y2="-26.8813" gradientTransform="matrix(1.1408 1.6235 -1.6235 1.1408 -1628.0857 -2399.0579)">
											<stop  offset="0" style="stop-color:#B37CFF"/>
											<stop  offset="1" style="stop-color:#F895E7"/>
										</linearGradient>
										<path fill="url(#SVGID_39_)" d="M160.314,57.435c1.191,0,2.184-0.992,2.184-2.184c0-1.189,0-2.182,0-3.372
											c0.199-1.191-0.794-2.183-1.984-2.183c-1.191-0.199-2.183,0.793-2.183,1.983s0,2.381,0,3.571
											c0,0.396,0.198,0.794,0.396,1.191C159.125,57.037,159.918,57.433,160.314,57.435z"/>
									</g>
									<g>
										
											<linearGradient id="SVGID_40_" gradientUnits="userSpaceOnUse" x1="1701.6807" y1="3.1372" x2="1474.1172" y2="-96.7685" gradientTransform="matrix(1.1408 1.6235 -1.6235 1.1408 -1628.0857 -2399.0579)">
											<stop  offset="0" style="stop-color:#A737D5"/>
											<stop  offset="1" style="stop-color:#EF497A"/>
										</linearGradient>
										<path fill="url(#SVGID_40_)" d="M180.555,43.742c-0.199,0.596,0,0.992,0.396,1.191l10.119,6.944
											c-0.397,5.755,0.396,11.509,1.984,17.264l-8.137,9.127c-0.396,0.396-0.396,0.794-0.197,1.189l7.143,12.898
											c0.199,0.397,0.596,0.596,0.992,0.596l12.104-2.184c4.167,4.365,8.731,7.938,13.69,10.715l0.795,12.303
											c0,0.597,0.398,0.795,0.793,0.992l14.089,3.969c0.595,0.199,0.991,0,1.19-0.396l6.944-10.119
											c5.755,0.397,11.509-0.396,17.265-1.984l9.127,8.137c0.396,0.396,0.793,0.396,1.189,0.197l12.898-7.144
											c0.396-0.198,0.595-0.595,0.595-0.991l-1.785-11.312c4.365-4.167,7.937-8.729,10.715-13.69l12.302-0.793
											c0.596,0,0.795-0.398,0.992-0.795l3.969-14.089c0.199-0.594,0-0.991-0.396-1.19l-10.12-6.943
											c0.398-5.755-0.396-11.509-1.984-17.265l8.137-9.127c0.396-0.396,0.396-0.793,0.197-1.19l-7.144-12.897
											c-0.198-0.396-0.595-0.595-0.991-0.595l-12.104,2.183c-4.167-4.365-8.729-7.938-13.691-10.715l-0.794-12.303
											c0-0.596-0.396-0.794-0.794-0.992l-14.088-3.969c-0.595-0.199-0.992,0-1.19,0.396L247.82,1.279
											c-5.754-0.396-11.508,0.396-17.262,1.984l-9.129-8.136c-0.396-0.396-0.793-0.396-1.189-0.198l-12.897,7.145
											c-0.397,0.197-0.596,0.594-0.596,0.991l2.183,12.104c-4.365,4.167-7.937,8.73-10.715,13.691l-12.303,0.793
											c-0.596,0-0.794,0.397-0.992,0.795L180.555,43.742z"/>
										<path opacity="0.56" fill="#FFFFFF" enable-background="new    " d="M232.939,63.583
											c-4.168-5.951-3.373-14.088,1.983-19.246c5.953-5.555,15.278-5.357,20.835,0.596c2.579,2.778,4.167,6.548,3.969,10.518
											c0,3.967-1.785,7.539-4.563,10.316c-5.952,5.556-15.278,5.358-20.835-0.595C233.932,64.577,233.336,63.982,232.939,63.583
											z M254.17,48.506c-0.197-0.597-0.595-0.993-0.992-1.39c-4.365-4.563-11.509-4.762-16.072-0.396
											c-4.563,4.365-4.762,11.509-0.396,16.072c4.365,4.563,11.509,4.762,16.071,0.396c2.183-2.183,3.572-4.961,3.572-7.938
											C256.553,52.671,255.759,50.49,254.17,48.506z"/>
										<path opacity="0.56" fill="#FFFFFF" enable-background="new    " d="M235.719,89.581
											c9.326,2.58,19.049,1.389,27.581-3.373c1.191-0.596,2.183-1.19,3.175-1.984c6.945-4.764,11.707-11.707,14.088-19.843
											c2.58-9.326,1.391-19.049-3.373-27.581c-9.722-17.462-31.945-23.614-49.408-13.89c-1.19,0.594-2.182,1.189-3.174,1.983
											c-4.365,3.175-8.137,7.144-10.715,11.707c-0.199,0.396,0,0.992,0.396,1.19c0.397,0.197,0.794,0.197,0.991,0
											c0,0,0.199,0,0.199-0.198c2.58-4.366,5.953-8.136,10.119-11.112c0.993-0.596,1.985-1.189,2.978-1.785
											c16.469-9.326,37.7-3.373,47.026,13.295c4.564,8.135,5.754,17.461,3.176,26.391c-2.184,7.739-6.748,14.288-13.295,18.851
											c-0.994,0.794-1.985,1.389-2.978,1.984c-5.953,3.373-12.501,4.761-18.851,4.365c-11.51-0.596-22.422-6.945-28.375-17.66
											c-1.191-2.184-2.184-4.365-2.977-6.746c0-0.398-0.596-0.794-0.992-0.596c0,0.197-0.199,0.197-0.199,0.197
											c-0.396,0.199-0.594,0.596-0.396,0.992c0.198,0.199,0.198,0.199,0.198,0.396v0.199l0,0
											c0.596,1.785,1.191,3.57,2.184,5.356c0.198,0.396,0.397,0.596,0.596,0.992l0,0c0.594,1.19,1.189,2.183,1.983,3.175
											C220.438,82.833,227.384,87.594,235.719,89.581z"/>
									</g>
								</g>
								<g>
									<g opacity="0.3">
										
											<linearGradient id="SVGID_41_" gradientUnits="userSpaceOnUse" x1="1474.3936" y1="-28.2876" x2="1476.1591" y2="-28.2876" gradientTransform="matrix(1.1408 1.6235 -1.6235 1.1408 -1628.0857 -2399.0579)">
											<stop  offset="0" style="stop-color:#B37CFF"/>
											<stop  offset="1" style="stop-color:#F895E7"/>
										</linearGradient>
										<path fill="url(#SVGID_41_)" d="M98.803-34.042c0.397,0.397,1.391,0.397,1.786-0.198c0.794-0.794,1.39-1.587,2.183-2.381
											c0.597-0.396,0.597-1.39,0-1.786c-0.396-0.596-1.389-0.596-1.785,0c-0.793,0.794-1.389,1.786-2.184,2.58
											c-0.396,0.396-0.396,1.191,0,1.587C98.803-34.042,99.001-34.042,98.803-34.042z"/>
										
											<linearGradient id="SVGID_42_" gradientUnits="userSpaceOnUse" x1="1473.6807" y1="-48.1777" x2="1508.2788" y2="-48.1777" gradientTransform="matrix(1.1408 1.6235 -1.6235 1.1408 -1628.0857 -2399.0579)">
											<stop  offset="0" style="stop-color:#B37CFF"/>
											<stop  offset="1" style="stop-color:#F895E7"/>
										</linearGradient>
										<path fill="url(#SVGID_42_)" d="M105.945-41.581c-0.396-0.596-0.396-1.389,0.199-1.588
											c1.389-1.189,2.976-2.381,4.563-3.571c0.396-0.397,0.595-0.595,0.992-0.793c0.595-0.397,1.389-0.2,1.784,0.396
											c0.398,0.596,0.199,1.39-0.396,1.786c-0.396,0.199-0.596,0.397-0.991,0.595c-1.389,0.992-2.977,2.184-4.365,3.373
											C107.335-40.985,106.342-40.985,105.945-41.581L105.945-41.581z M117.256-49.518c-0.197,0-0.197-0.199-0.197-0.199
											c-0.397-0.595,0-1.389,0.594-1.785c2.184-0.991,4.365-1.983,6.549-2.777c0.794-0.198,1.588,0.197,1.785,0.794
											c0.199,0.794-0.197,1.587-0.793,1.786c-1.983,0.793-4.168,1.785-6.15,2.777C118.447-48.526,117.652-48.725,117.256-49.518
											z M130.551-53.885c0,0-0.199-0.197-0.199-0.396c-0.197-0.794,0.199-1.39,0.992-1.587c2.182-0.596,4.564-0.992,6.945-1.191
											c0.595,0,1.389,0.397,1.389,1.191c0,0.595-0.396,1.389-1.189,1.389c-2.381,0.198-4.563,0.596-6.746,0.992
											C131.146-53.289,130.552-53.487,130.551-53.885z M144.043-55.271c-0.198-0.198-0.198-0.595-0.198-0.794
											c0-0.793,0.597-1.389,1.39-1.389c2.381,0,4.763,0.197,7.144,0.396c0.794,0.198,1.39,0.793,1.19,1.588
											c-0.198,0.793-0.793,1.387-1.588,1.189c-2.183-0.396-4.563-0.596-6.746-0.596
											C144.639-54.875,144.243-55.075,144.043-55.271z M157.734-53.289c-0.197-0.396-0.396-0.794-0.197-1.19
											c0.197-0.595,0.992-0.992,1.588-1.189c2.381,0.793,4.563,1.389,6.746,2.381c0.794,0.396,0.992,1.189,0.794,1.785
											c-0.396,0.793-1.19,0.992-1.786,0.793c-1.984-0.793-4.167-1.586-6.35-2.183C158.133-52.892,157.934-53.09,157.734-53.289z
											 M170.436-48.129c-0.199-0.396-0.199-0.992,0-1.389c0.396-0.595,1.19-0.793,1.785-0.396
											c1.984,1.191,4.168,2.58,5.953,3.969c0.594,0.396,0.594,1.189,0.198,1.786c-0.396,0.594-1.19,0.594-1.786,0.396
											c-1.785-1.389-3.572-2.58-5.557-3.77C170.832-47.733,170.634-47.93,170.436-48.129z M181.745-39.596
											c-0.595-0.596-0.397-1.39-0.001-1.787c0.396-0.396,1.189-0.595,1.785,0c1.588,1.588,3.176,3.375,4.764,5.16
											c0.396,0.396,0.396,1.389-0.199,1.785c-0.396,0.396-1.389,0.396-1.785-0.197C184.92-36.422,183.333-38.008,181.745-39.596
											C181.745-39.596,181.547-39.596,181.745-39.596z M193.65-22.928c-0.198,0-0.198-0.199-0.198-0.199
											c-0.793-1.785-1.785-3.571-2.777-5.158c0-0.398-0.198-0.596-0.397-0.794c-0.396-0.595-0.198-1.39,0.397-1.786
											c0.595-0.396,1.39-0.199,1.785,0.396c0,0.198,0.199,0.596,0.397,0.795c1.19,1.586,2.183,3.57,2.977,5.356
											c0.396,0.595,0,1.39-0.596,1.785C194.643-22.135,194.048-22.333,193.65-22.928z"/>
									</g>
									<g opacity="0.3">
										
											<linearGradient id="SVGID_43_" gradientUnits="userSpaceOnUse" x1="1489.1211" y1="-15.0352" x2="1528.6135" y2="-15.0352" gradientTransform="matrix(1.1408 1.6235 -1.6235 1.1408 -1628.0857 -2399.0579)">
											<stop  offset="0" style="stop-color:#B37CFF"/>
											<stop  offset="1" style="stop-color:#F895E7"/>
										</linearGradient>
										<path fill="url(#SVGID_43_)" d="M97.216,33.623c-0.397-0.596-0.198-1.39,0.198-1.983c0.596-0.397,1.389-0.199,1.786,0.396
											c1.19,1.787,2.579,3.572,4.167,5.16c0.595,0.396,0.595,1.189,0,1.785c-0.396,0.596-1.191,0.596-1.786,0
											C99.993,37.393,98.605,35.41,97.216,33.623L97.216,33.623z M93.445,28.067c0-0.198,0-0.198,0-0.198
											c-1.19-2.184-2.182-4.168-2.977-6.351c-0.197-0.793,0.199-1.587,0.795-1.785c0.793-0.198,1.588,0.198,1.785,0.794
											c0.794,1.983,1.785,3.969,2.777,5.952c0.199,0.597,0,1.39-0.596,1.786C94.636,28.662,94.041,28.463,93.445,28.067z
											 M106.543,43.742c-0.396-0.396-0.396-1.19,0-1.586c0.396-0.596,1.189-0.596,1.785-0.199
											c1.785,1.39,3.572,2.779,5.357,3.97c0.594,0.396,0.793,1.19,0.396,1.785s-1.189,0.793-1.786,0.396
											c-1.985-1.19-3.771-2.579-5.556-4.167C106.542,43.742,106.542,43.742,106.543,43.742z M88.286,15.168
											c0-0.198-0.198-0.198-0.198-0.396c-0.595-2.183-0.993-4.364-1.389-6.747c0-0.793,0.396-1.389,1.189-1.587
											c0.795,0,1.389,0.396,1.588,1.19c0.397,2.183,0.793,4.365,1.389,6.548c0.199,0.596-0.197,1.39-0.991,1.588
											C89.277,15.962,88.684,15.764,88.286,15.168z M117.852,51.083c-0.396-0.396-0.396-0.992-0.197-1.389
											c0.396-0.595,1.189-0.992,1.785-0.595c1.984,0.991,3.969,1.785,6.151,2.579c0.595,0.396,0.992,1.189,0.794,1.786
											c-0.396,0.595-1.191,0.991-1.785,0.793c-2.184-0.793-4.367-1.785-6.351-2.777
											C118.051,51.481,117.852,51.283,117.852,51.083z M130.552,55.451c-0.198-0.199-0.198-0.597-0.198-0.992
											c0.198-0.795,0.793-1.19,1.588-0.992c2.183,0.396,4.365,0.793,6.547,0.992c0.795,0,1.191,0.595,1.191,1.389
											s-0.596,1.189-1.39,1.189c-2.381-0.197-4.763-0.396-6.944-0.991C131.146,56.045,130.75,55.846,130.552,55.451z
											 M144.042,56.839c-0.198-0.198-0.198-0.596-0.198-0.794c0-0.794,0.596-1.39,1.389-1.39c2.185,0,4.367-0.199,6.549-0.596
											c0.793,0,1.39,0.396,1.588,1.189c0,0.795-0.396,1.391-1.189,1.589c-2.382,0.397-4.564,0.595-6.945,0.595
											C144.838,57.433,144.441,57.236,144.042,56.839z"/>
										
											<linearGradient id="SVGID_44_" gradientUnits="userSpaceOnUse" x1="1484.7803" y1="-12.5034" x2="1487.4812" y2="-12.5034" gradientTransform="matrix(1.1408 1.6235 -1.6235 1.1408 -1628.0857 -2399.0579)">
											<stop  offset="0" style="stop-color:#B37CFF"/>
											<stop  offset="1" style="stop-color:#F895E7"/>
										</linearGradient>
										<path fill="url(#SVGID_44_)" d="M87.492,2.471c0.794,0,1.39-0.595,1.39-1.39c0-0.991,0-2.183,0-3.174
											c0.199-0.795-0.397-1.391-1.19-1.391c-0.793-0.199-1.39,0.396-1.39,1.191c0,0.992,0,2.183,0,3.373
											c0,0.396,0,0.595,0.199,0.793C86.896,2.074,87.294,2.469,87.492,2.471z"/>
									</g>
									<g>
										
											<linearGradient id="SVGID_45_" gradientUnits="userSpaceOnUse" x1="1683.79" y1="43.8218" x2="1456.2267" y2="-56.0838" gradientTransform="matrix(1.1408 1.6235 -1.6235 1.1408 -1628.0857 -2399.0579)">
											<stop  offset="0" style="stop-color:#A737D5"/>
											<stop  offset="1" style="stop-color:#EF497A"/>
										</linearGradient>
										<path fill="url(#SVGID_45_)" d="M100.986-7.057c-0.197,0.397,0,0.596,0.199,0.795l6.746,4.762
											c-0.197,3.771,0.199,7.738,1.389,11.509l-5.356,6.151c-0.198,0.197-0.198,0.596,0,0.793l4.763,8.533
											c0.198,0.396,0.596,0.396,0.793,0.396l8.137-1.39c2.777,2.978,5.755,5.358,9.128,7.145l0.396,8.136
											c0,0.199,0.198,0.595,0.397,0.595l9.524,2.58c0.396,0.198,0.594,0,0.793-0.199l4.762-6.745
											c3.771,0.198,7.738-0.199,11.51-1.39l6.15,5.357c0.199,0.197,0.596,0.197,0.795,0l8.531-4.764
											c0.396-0.197,0.396-0.594,0.396-0.793l-1.389-8.135c2.977-2.779,5.357-5.756,7.144-9.129l8.136-0.396
											c0.199,0,0.596-0.198,0.596-0.397l2.578-9.523c0.199-0.397,0-0.596-0.197-0.793l-6.549-4.564
											c0.199-3.77-0.198-7.738-1.389-11.509l5.357-6.151c0.197-0.197,0.197-0.595,0-0.793l-4.764-8.533
											c-0.197-0.396-0.595-0.396-0.793-0.396l-8.136,1.389c-2.778-2.976-5.755-5.358-9.128-7.143l-0.596-8.136
											c0-0.199-0.198-0.597-0.396-0.597l-9.127-2.776c-0.398-0.199-0.596,0-0.794,0.197l-4.763,6.746
											c-3.771-0.197-7.738,0.199-11.51,1.391l-6.15-5.357c-0.197-0.199-0.595-0.199-0.794,0l-8.532,4.762
											c-0.396,0.198-0.396,0.596-0.396,0.795l1.39,8.135c-2.978,2.777-5.358,5.755-7.144,9.128l-8.135,0.396
											c-0.199,0-0.597,0.198-0.597,0.396L100.986-7.057z"/>
										<path opacity="0.56" fill="#FFFFFF" enable-background="new    " d="M135.709,5.248c-1.189-1.588-1.785-3.77-1.785-5.952
											c0.198-2.579,1.191-5.159,3.176-6.945c4.166-3.771,10.516-3.571,14.285,0.397c3.771,4.166,3.573,10.516-0.396,14.285
											c-1.984,1.787-4.365,2.778-7.143,2.778c-2.58-0.198-5.16-1.19-6.945-3.175C136.504,6.438,136.107,6.042,135.709,5.248z
											 M150.197-4.674c-0.199-0.197-0.397-0.595-0.596-0.793c-2.779-2.976-7.541-2.976-10.517-0.199
											c-1.588,1.39-2.382,3.176-2.382,5.16c0,1.983,0.595,3.968,1.984,5.356l0,0c1.389,1.588,3.174,2.382,5.158,2.382
											s3.969-0.595,5.357-1.984C151.98,2.667,152.378-1.499,150.197-4.674z"/>
										<path opacity="0.56" fill="#FFFFFF" enable-background="new    " d="M156.743,21.318c0.794-0.396,1.39-0.992,2.185-1.389
											c4.762-3.373,8.135-8.135,9.723-13.691c1.983-6.35,1.189-13.295-2.184-19.049c-3.373-5.953-8.73-10.119-15.08-11.906
											c-6.351-1.983-13.295-1.189-19.05,2.184c-0.794,0.398-1.587,0.992-2.183,1.39c-2.978,2.183-5.557,4.96-7.342,8.136
											c-0.397,0.596-0.199,1.39,0.396,1.785c0.396,0.396,0.992,0.198,1.389,0c0.198,0,0.198-0.197,0.396-0.396
											c1.588-2.779,3.771-5.16,6.548-7.144c0.595-0.396,1.39-0.795,1.983-1.19c5.16-2.976,11.311-3.572,17.065-1.984
											c5.755,1.587,10.517,5.358,13.492,10.517c2.976,5.16,3.571,11.311,1.983,17.064c-1.586,5.159-4.563,9.326-8.729,12.303
											c-0.595,0.396-1.388,0.795-1.983,1.19c-5.16,2.976-11.311,3.571-17.064,1.983c-0.198,0-0.198,0-0.198,0l0,0
											c-1.985-0.596-3.771-1.389-5.557-2.381c-2.976-1.984-5.755-4.763-7.54-7.938c-0.198,0-0.198-0.198-0.198-0.198l0,0
											c-0.597-1.388-1.39-2.778-1.786-4.364c-0.197-0.597-0.793-0.992-1.587-0.795c-0.198,0-0.198,0.198-0.397,0.198
											c-0.594,0.199-0.793,0.794-0.594,1.39v0.198c0.396,1.785,1.189,3.373,1.983,4.763c0.397,0.793,0.993,1.588,1.39,2.183
											C131.146,24.693,145.434,28.067,156.743,21.318z"/>
									</g>
								</g>
							</g>
							<g>
								
									<linearGradient id="SVGID_46_" gradientUnits="userSpaceOnUse" x1="-2404.7998" y1="-75.4199" x2="-2407.647" y2="197.9016" gradientTransform="matrix(1.9843 0 0 1.9843 4710.9116 153.239)">
									<stop  offset="0" style="stop-color:#CB236D"/>
									<stop  offset="1" style="stop-color:#4C246D"/>
								</linearGradient>
								<path fill="url(#SVGID_46_)" d="M-49.818-12.213v527.221c0,6.149-5.158,11.508-11.111,11.707l-5.754,0.198
									c-2.58,0-4.961-0.992-6.748-2.382c-2.381-1.785-3.77-4.961-3.77-8.532V-13.008L-49.818-12.213z"/>
								<g>
									
										<linearGradient id="SVGID_47_" gradientUnits="userSpaceOnUse" x1="-2391.5605" y1="-117.4634" x2="-2422.1094" y2="-66.3275" gradientTransform="matrix(1.9843 0 0 1.9843 4710.9116 153.239)">
										<stop  offset="0" style="stop-color:#CB236D"/>
										<stop  offset="1" style="stop-color:#4C246D"/>
									</linearGradient>
									<path fill="url(#SVGID_47_)" d="M-63.709-56.264c13.691,0.396,24.605,12.104,24.605,25.993
										c0,9.128-4.762,16.866-11.707,21.033c-0.396,0.199-0.795,0.397-1.191,0.596c-1.588,0.794-3.174,1.39-4.762,1.785
										c-2.182,0.597-4.563,0.794-6.945,0.794c-4.961-0.197-9.523-1.785-13.295-4.365c-6.746-4.763-11.311-12.699-11.311-21.629
										C-88.314-46.145-77.201-57.059-63.709-56.264z"/>
									
										<linearGradient id="SVGID_48_" gradientUnits="userSpaceOnUse" x1="-2391.8804" y1="-112.5684" x2="-2415.6304" y2="-72.813" gradientTransform="matrix(1.9843 0 0 1.9843 4710.9116 153.239)">
										<stop  offset="0" style="stop-color:#B37CFF"/>
										<stop  offset="1" style="stop-color:#F895E7"/>
									</linearGradient>
									<path opacity="0.3" fill="url(#SVGID_48_)" enable-background="new    " d="M-57.756-51.901
										c10.518,0.396,19.049,9.523,19.049,20.24c0,6.945-3.77,13.096-9.127,16.271c-0.197,0.198-0.596,0.397-0.795,0.596
										c-1.189,0.595-2.381,0.992-3.77,1.389c-1.586,0.396-3.373,0.596-5.357,0.596c-3.77,0-7.342-1.39-10.316-3.374
										c-5.359-3.769-8.932-9.921-8.932-16.866C-77.004-43.764-68.273-52.295-57.756-51.901z"/>
								</g>
								<g>
									
										<linearGradient id="SVGID_49_" gradientUnits="userSpaceOnUse" x1="573.6436" y1="-301.0977" x2="573.6436" y2="-208.8995" gradientTransform="matrix(-1.8771 0.2554 0.2707 1.9656 1135.1125 370.1738)">
										<stop  offset="0" style="stop-color:#FDF53F"/>
										<stop  offset="1" style="stop-color:#D93C65"/>
									</linearGradient>
									<path fill="url(#SVGID_49_)" d="M121.225,8.82c0,0.596-0.199,1.191-0.596,1.588L89.277,43.346
										c-0.397,0.397-0.795,0.794-1.389,0.794L-107.76,74.499l-25.201,3.97c-0.396,0-0.793-0.2-0.99-0.597l-1.191-3.174
										l24.209-31.749c0,0-31.154-22.621-31.352-23.216l-1.588-5.159l27.383-3.175L78.959-17.572l39.884,24.405l2.183-0.991
										L121.225,8.82z"/>
									
										<linearGradient id="SVGID_50_" gradientUnits="userSpaceOnUse" x1="-2783.021" y1="-303.5327" x2="-2789.2148" y2="-226.0419" gradientTransform="matrix(1.872 -0.2899 0.3038 1.9609 5288.1436 -231.8406)">
										<stop  offset="0" style="stop-color:#FDF53F"/>
										<stop  offset="1" style="stop-color:#D93C65"/>
									</linearGradient>
									<path fill="url(#SVGID_50_)" d="M78.96-19.357l41.868,25.002c0.197,0,0.197,0.198,0,0.397L87.889,39.376
										c-0.398,0.397-0.992,0.794-1.588,0.794l-220.85,34.328c-0.197,0-0.395-0.198-0.197-0.397l22.225-35.121
										c0.398-0.396,0.197-0.992-0.199-1.389l-31.152-22.819c-0.197,0-0.197-0.397,0-0.397l220.65-34.129
										C77.57-19.754,78.167-19.754,78.96-19.357z"/>
								</g>
								<g>
									
										<linearGradient id="SVGID_51_" gradientUnits="userSpaceOnUse" x1="-1903.0088" y1="38.291" x2="-1901.1981" y2="120.7776" gradientTransform="matrix(1.8823 0.1593 -0.1673 1.9771 3570.3875 302.0432)">
										<stop  offset="0" style="stop-color:#A737D5"/>
										<stop  offset="1" style="stop-color:#EF497A"/>
									</linearGradient>
									<path fill="url(#SVGID_51_)" d="M101.38,214.985c-0.198,0.594-0.597,0.991-0.992,1.389l-37.306,24.207
										c-0.594,0.396-0.99,0.396-1.586,0.396l-191.48-16.271l-24.605-1.983c-0.396,0-0.795-0.397-0.795-0.794l-0.395-3.373
										l30.16-24.604c0,0-24.406-28.574-24.406-29.17l-0.199-4.166c0-0.597,0.398-0.992,0.992-0.992l25.598,3.175l191.084,17.461
										l32.146,32.344l2.184-0.595L101.38,214.985z"/>
									
										<linearGradient id="SVGID_52_" gradientUnits="userSpaceOnUse" x1="-1900.0029" y1="79.5239" x2="-1906.0365" y2="155.0088" gradientTransform="matrix(1.8823 0.1593 -0.1673 1.9771 3570.3875 302.0432)">
										<stop  offset="0" style="stop-color:#B37CFF"/>
										<stop  offset="1" style="stop-color:#F895E7"/>
									</linearGradient>
									<path fill="url(#SVGID_52_)" d="M68.047,178.673l33.732,33.138c0.197,0,0.197,0.198,0,0.396l-38.693,24.01
										c-0.596,0.396-1.189,0.396-1.785,0.396l-216.086-18.256c-0.199,0-0.396-0.197-0.199-0.396l28.971-28.176
										c0.199-0.398,0.396-0.994,0-1.391l-23.811-28.177c-0.398-0.397,0-0.793,0.395-0.793L66.063,177.68
										C66.658,177.878,67.253,178.077,68.047,178.673z"/>
									<g>
										<path opacity="0.56" fill="#FFFFFF" enable-background="new    " d="M-62.518,188.198v-0.795
											c0.197-1.785,1.586-3.175,3.373-2.977l115.285,8.93c1.787,0.198,3.176,1.588,2.977,3.373v0.794
											c-0.197,1.787-1.588,3.175-3.373,2.978l-115.285-8.93C-61.326,191.372-62.717,189.983-62.518,188.198z"/>
										<path opacity="0.56" fill="#FFFFFF" enable-background="new    " d="M-62.518,207.245v-0.793
											c0-1.588,1.588-2.976,3.176-2.777l114.689,8.929c1.588,0,2.977,1.588,2.777,3.175v0.795c0,1.588-1.588,2.976-3.174,2.777
											l-114.691-8.93C-61.525,210.42-62.717,208.834-62.518,207.245z"/>
									</g>
								</g>
								<g>
									
										<linearGradient id="SVGID_53_" gradientUnits="userSpaceOnUse" x1="656.4219" y1="-9.3188" x2="658.213" y2="72.273" gradientTransform="matrix(-2.0753 -0.1724 -0.1643 1.9775 1268.0018 122.5684)">
										<stop  offset="0" style="stop-color:#53D8FF"/>
										<stop  offset="1" style="stop-color:#3840F7"/>
									</linearGradient>
									<path fill="url(#SVGID_53_)" d="M-246.061,106.841c0,0.595,0.396,1.19,0.793,1.587l36.113,29.963
										c0.398,0.396,0.992,0.596,1.588,0.596L1.973,156.448l26.984,2.184c0.396,0,0.795-0.199,0.992-0.596l0.992-3.176
										L2.766,125.692c0,0,31.154-23.811,31.352-24.406l1.189-4.563L6.139,95.134l-209.34-16.072l-40.281,25.994l-2.381-0.992
										L-246.061,106.841z"/>
									
										<linearGradient id="SVGID_54_" gradientUnits="userSpaceOnUse" x1="659.2881" y1="31.3379" x2="653.3008" y2="106.2454" gradientTransform="matrix(-2.0753 -0.1724 -0.1643 1.9775 1268.0018 122.5684)">
										<stop  offset="0" style="stop-color:#53D8FF"/>
										<stop  offset="1" style="stop-color:#3840F7"/>
									</linearGradient>
									<path fill="url(#SVGID_54_)" d="M-203.398,77.673l-42.266,26.589c-0.199,0-0.199,0.197,0,0.396l37.699,30.16
										c0.398,0.398,1.191,0.795,1.787,0.795l236.523,19.645c0.199,0,0.396-0.199,0.199-0.396L4.152,122.319
										c-0.197-0.396-0.197-0.992,0.199-1.389L34.91,97.317c0.396-0.197,0.197-0.793-0.199-0.793l-235.93-19.645
										C-201.814,76.681-202.607,76.879-203.398,77.673z"/>
									<g>
										<path opacity="0.56" fill="#FFFFFF" enable-background="new    " d="M-198.441,96.327v-0.795
											c0.199-1.787,1.787-3.175,3.572-2.977l112.311,8.73c1.785,0.197,3.174,1.785,2.977,3.571v0.793
											c-0.199,1.787-1.785,3.175-3.572,2.978l-112.311-8.73C-197.248,99.897-198.639,98.309-198.441,96.327z"/>
										<path opacity="0.56" fill="#FFFFFF" enable-background="new    " d="M-198.439,116.168v-0.793
											c0.199-1.588,1.588-2.977,3.373-2.778l111.715,8.729c1.586,0.199,2.975,1.588,2.777,3.375v0.793
											c-0.199,1.588-1.588,2.976-3.373,2.777l-111.715-8.73C-197.447,119.342-198.639,117.755-198.439,116.168z"/>
									</g>
								</g>
								<g>
									
										<linearGradient id="SVGID_55_" gradientUnits="userSpaceOnUse" x1="22.6563" y1="-72.5083" x2="10.373" y2="-15.8903" gradientTransform="matrix(-1.9843 0 0 1.9843 -23.8604 153.239)">
										<stop  offset="0" style="stop-color:#A737D5"/>
										<stop  offset="1" style="stop-color:#EF497A"/>
									</linearGradient>
									<circle fill="url(#SVGID_55_)" cx="-63.51" cy="33.822" r="8.334"/>
									
										<linearGradient id="SVGID_56_" gradientUnits="userSpaceOnUse" x1="20.0698" y1="-70.5073" x2="20.3432" y2="-58.0514" gradientTransform="matrix(-1.9843 0 0 1.9843 -23.8604 153.239)">
										<stop  offset="0" style="stop-color:#A737D5"/>
										<stop  offset="1" style="stop-color:#EF497A"/>
									</linearGradient>
									<circle fill="url(#SVGID_56_)" cx="-64.106" cy="32.432" r="5.159"/>
								</g>
								<g>
									
										<linearGradient id="SVGID_57_" gradientUnits="userSpaceOnUse" x1="21.8638" y1="-29.1851" x2="10.0334" y2="25.3453" gradientTransform="matrix(-1.9843 0 0 1.9843 -23.8604 153.239)">
										<stop  offset="0" style="stop-color:#A737D5"/>
										<stop  offset="1" style="stop-color:#EF497A"/>
									</linearGradient>
									<circle fill="url(#SVGID_57_)" cx="-62.121" cy="118.946" r="8.137"/>
									
										<linearGradient id="SVGID_58_" gradientUnits="userSpaceOnUse" x1="19.376" y1="-27.251" x2="19.6394" y2="-15.2503" gradientTransform="matrix(-1.9843 0 0 1.9843 -23.8604 153.239)">
										<stop  offset="0" style="stop-color:#A737D5"/>
										<stop  offset="1" style="stop-color:#EF497A"/>
									</linearGradient>
									<circle fill="url(#SVGID_58_)" cx="-62.717" cy="117.755" r="4.961"/>
								</g>
								<g>
									
										<linearGradient id="SVGID_59_" gradientUnits="userSpaceOnUse" x1="22.2695" y1="8.8247" x2="9.9804" y2="65.4698" gradientTransform="matrix(-1.9843 0 0 1.9843 -23.8604 153.239)">
										<stop  offset="0" style="stop-color:#A737D5"/>
										<stop  offset="1" style="stop-color:#EF497A"/>
									</linearGradient>
									<circle fill="url(#SVGID_59_)" cx="-62.717" cy="195.34" r="8.334"/>
									
										<linearGradient id="SVGID_60_" gradientUnits="userSpaceOnUse" x1="19.5679" y1="10.8291" x2="19.8414" y2="23.29" gradientTransform="matrix(-1.9843 0 0 1.9843 -23.8604 153.239)">
										<stop  offset="0" style="stop-color:#A737D5"/>
										<stop  offset="1" style="stop-color:#EF497A"/>
									</linearGradient>
									<circle fill="url(#SVGID_60_)" cx="-63.112" cy="193.952" r="5.159"/>
								</g>
								<g>
									<path opacity="0.56" fill="#FFFFFF" enable-background="new    " d="M-39.697,17.748l-0.199-0.793
										c-0.199-1.588,0.992-3.176,2.58-3.373L65.666-2.69c1.587-0.197,3.175,0.992,3.373,2.58l0.197,0.793
										c0.199,1.588-0.991,3.175-2.578,3.374L-36.127,20.328C-37.912,20.527-39.303,19.336-39.697,17.748z"/>
									<path opacity="0.56" fill="#FFFFFF" enable-background="new    " d="M-35.73,35.607l-0.199-0.794
										c-0.197-1.588,0.795-3.175,2.381-3.373l102.39-16.073c1.587-0.197,3.175,0.795,3.373,2.383l0.198,0.793
										c0.197,1.588-0.794,3.175-2.381,3.373L-32.357,37.988C-33.945,38.186-35.332,36.996-35.73,35.607z"/>
								</g>
							</g>
							<g>
								<g>
									
										<linearGradient id="SVGID_61_" gradientUnits="userSpaceOnUse" x1="-2281.4277" y1="48.7671" x2="-2358.1479" y2="344.1393" gradientTransform="matrix(1.9843 0 0 1.9843 4710.9116 153.239)">
										<stop  offset="0" style="stop-color:#CB236D"/>
										<stop  offset="1" style="stop-color:#4C246D"/>
									</linearGradient>
									<path fill="url(#SVGID_61_)" d="M48.402,248.917c-3.373,14.684-10.914,39.486-27.582,59.131
										c22.225,12.104,49.013,21.231,81.555,25.002c0,0,34.328,123.62,46.432,179.576c1.588,7.143,7.144,12.501,14.287,13.493
										c18.256,2.777,54.368,6.548,88.696,0.197c6.151-0.992,10.715-6.151,11.312-12.302
										c2.977-32.939,10.715-142.074-6.748-238.708c0,0-73.418-17.858-139.891-16.072
										C96.025,259.83,72.214,256.059,48.402,248.917z"/>
									
										<linearGradient id="SVGID_62_" gradientUnits="userSpaceOnUse" x1="10922.8691" y1="-20.1924" x2="10987.6504" y2="-20.1924" gradientTransform="matrix(-1.9843 0.0189 0.0189 1.9843 21722.6738 64.8911)">
										<stop  offset="0" style="stop-color:#F9B776"/>
										<stop  offset="1" style="stop-color:#F47960"/>
									</linearGradient>
									<path fill="url(#SVGID_62_)" d="M21.02,308.247c16.668-19.646,24.209-44.448,27.582-59.133
										c-52.98-15.873-106.754-52.187-116.875-93.459c0,0-5.951-0.396-12.5,7.541C-80.773,163.196-66.883,259.83,21.02,308.247z"
										/>
								</g>
								<g>
									
										<linearGradient id="SVGID_63_" gradientUnits="userSpaceOnUse" x1="-4514.4604" y1="-31.1836" x2="-4471.0073" y2="67.6821" gradientTransform="matrix(1.9843 -0.0189 0.0189 1.9843 8907.0713 188.462)">
										<stop  offset="0" style="stop-color:#F9B776"/>
										<stop  offset="1" style="stop-color:#F47960"/>
									</linearGradient>
									<path fill="url(#SVGID_63_)" d="M-92.482,157.245c-2.977-4.168-6.15-9.326-8.334-13.295
										c-2.379-3.97-3.174-8.731-1.984-13.098c1.588-5.754,4.764-9.921,7.342-14.684l-12.896-13.096c0,0-3.57-4.365,0.795-8.73
										c0,0,26.588,23.018,40.279,41.271c2.58,3.571,0.199,21.827,0,25.994c-4.563,8.928-12.5,5.754-11.904,3.571
										C-79.186,165.179-86.924,165.179-92.482,157.245z"/>
									
										<linearGradient id="SVGID_64_" gradientUnits="userSpaceOnUse" x1="10987.0566" y1="-63.2993" x2="11005.1885" y2="-91.1765" gradientTransform="matrix(-1.9843 0.0189 0.0189 1.9843 21722.6738 64.8911)">
										<stop  offset="0" style="stop-color:#F9B776"/>
										<stop  offset="1" style="stop-color:#F47960"/>
									</linearGradient>
									<path fill="url(#SVGID_64_)" d="M-90.893,132.243c2.779,4.166,6.35,23.611,6.35,23.611l10.318-11.509l-3.77-9.724
										l-11.707-9.723C-92.082,126.089-93.473,128.272-90.893,132.243z"/>
								</g>
								
									<linearGradient id="SVGID_65_" gradientUnits="userSpaceOnUse" x1="-2222.9023" y1="64.0386" x2="-2297.9346" y2="352.9124" gradientTransform="matrix(1.9843 0 0 1.9843 4710.9116 153.239)">
									<stop  offset="0" style="stop-color:#CB236D"/>
									<stop  offset="1" style="stop-color:#4C246D"/>
								</linearGradient>
								<path fill="url(#SVGID_65_)" d="M275.801,385.236c20.835-10.715,42.066-13.89,53.773-14.882
									c-10.715-53.179-73.221-94.849-73.221-94.849l-24.803,64.489C231.551,339.995,270.839,360.036,275.801,385.236z"/>
								
									<linearGradient id="SVGID_66_" gradientUnits="userSpaceOnUse" x1="10781.2617" y1="72.1533" x2="10863.1836" y2="72.1533" gradientTransform="matrix(-1.9843 0.0189 0.0189 1.9843 21722.6738 64.8911)">
									<stop  offset="0" style="stop-color:#F9B776"/>
									<stop  offset="1" style="stop-color:#F47960"/>
								</linearGradient>
								<path fill="url(#SVGID_66_)" d="M168.648,418.174c0,0,112.707,78.577,153.186,2.778c9.326-17.264,10.715-34.527,7.54-50.6
									c-11.707,0.794-32.938,4.167-53.772,14.882c1.389,6.746,0.198,13.692-4.564,20.638
									c-23.217,33.731-93.262-4.961-93.262-4.961L168.648,418.174z"/>
								
									<linearGradient id="SVGID_67_" gradientUnits="userSpaceOnUse" x1="10844.1152" y1="-15.5015" x2="10876.4941" y2="-15.5015" gradientTransform="matrix(-1.9843 0.0189 0.0189 1.9843 21722.6738 64.8911)">
									<stop  offset="0" style="stop-color:#F9B776"/>
									<stop  offset="1" style="stop-color:#F47960"/>
								</linearGradient>
								<path fill="url(#SVGID_67_)" d="M140.076,205.063l7.342,52.782c0.396,2.976,2.184,5.754,4.762,7.342
									c25.2,15.676,45.838,6.151,51.592,2.977c0.992-0.396,1.389-1.588,0.992-2.579l-21.629-60.918L140.076,205.063z"/>
								<g>
									
										<linearGradient id="SVGID_68_" gradientUnits="userSpaceOnUse" x1="2028.0459" y1="5258.6216" x2="2015.9377" y2="5218.686" gradientTransform="matrix(-1.4928 -1.3072 -1.3072 1.4928 10026.3643 -4999.9253)">
										<stop  offset="0" style="stop-color:#F9B776"/>
										<stop  offset="1" style="stop-color:#F47960"/>
									</linearGradient>
									<path fill="url(#SVGID_68_)" d="M191.07,164.187l-17.064,47.425c-25.002,14.484-53.773,16.072-56.947-1.588
										c-3.175-17.66,19.644-61.513,19.644-61.513L191.07,164.187z"/>
									
										<linearGradient id="SVGID_69_" gradientUnits="userSpaceOnUse" x1="2017.0645" y1="5189.0591" x2="2027.1921" y2="5246.8252" gradientTransform="matrix(-1.4928 -1.3072 -1.3072 1.4928 10026.3643 -4999.9253)">
										<stop  offset="0" style="stop-color:#2B3582"/>
										<stop  offset="1" style="stop-color:#150E42"/>
									</linearGradient>
									<path fill="url(#SVGID_69_)" d="M176.189,189.983c0.793,0.397,1.189,1.389,0.992,2.184l-6.351,19.246
										c-0.397,1.191,0.594,2.58,1.983,2.381c15.082-1.982,28.971-16.666,32.146-20.238c0.397-0.396,0.992-0.596,1.588-0.596
										c3.571,0.397,16.271,1.39,16.866-10.119c0.396-8.334-4.167-11.311-7.738-12.303c-1.39-0.397-1.785-1.985-0.794-2.978
										c2.976-2.976,5.952-9.127,0.992-20.041c-6.151-13.095-19.049-12.103-24.406-11.11c-1.192,0.197-2.184-0.597-2.184-1.787
										c0-3.77-1.19-11.707-11.905-16.271c-11.509-4.96-19.645,3.374-22.62,7.541c-0.595,0.992-1.983,0.992-2.778,0
										c-19.246-24.407-30.754,6.548-26.191,18.851c4.763,12.502,26.787,17.858,41.67,21.231
										c14.882,3.373,10.715,6.151,10.715,6.151c-0.992,4.959-4.564,10.912-6.35,13.69c-0.596,0.794-0.198,2.183,0.794,2.579
										L176.189,189.983z"/>
									
										<linearGradient id="SVGID_71_" gradientUnits="userSpaceOnUse" x1="2015.6709" y1="5258.4312" x2="2004.7769" y2="5222.501" gradientTransform="matrix(-1.4928 -1.3072 -1.3072 1.4928 10026.3643 -4999.9253)">
										<stop  offset="0" style="stop-color:#F9B776"/>
										<stop  offset="1" style="stop-color:#F47960"/>
									</linearGradient>
									<path fill="url(#SVGID_71_)" d="M164.879,199.706c8.135,3.373,24.208-0.992,22.818-10.517
										c-1.189-9.524-17.659,1.984-17.659,1.984L164.879,199.706z"/>
								</g>
								<g>
									<g>
										
											<linearGradient id="SVGID_72_" gradientUnits="userSpaceOnUse" x1="10598.1133" y1="78.2446" x2="10643.333" y2="266.6596" gradientTransform="matrix(-1.9843 0 0 1.9843 21154.9355 153.239)">
											<stop  offset="0" style="stop-color:#2B3582"/>
											<stop  offset="1" style="stop-color:#150E42"/>
										</linearGradient>
										<path fill="url(#SVGID_72_)" d="M188.293,467.185l-88.499,0.794c-1.19,0-2.381-0.596-3.175-1.588
											c-22.62-29.565-67.861-120.047-78.775-142.271c-1.189-2.383,0.398-5.358,3.176-5.558
											c19.445-1.587,51.789,0.199,79.568,2.58c23.018,1.984,43.059,4.167,50.004,4.961c1.588,0.198,2.977,1.19,3.373,2.777
											l38.098,133.343C192.857,464.606,191.07,466.987,188.293,467.185z"/>
										
											<linearGradient id="SVGID_74_" gradientUnits="userSpaceOnUse" x1="10567.2773" y1="128.0562" x2="10592.8994" y2="128.0562" gradientTransform="matrix(-1.9843 0 0 1.9843 21154.9355 153.239)">
											<stop  offset="0" style="stop-color:#F9B776"/>
											<stop  offset="1" style="stop-color:#F47960"/>
										</linearGradient>
										<path fill="url(#SVGID_74_)" d="M154.561,417.58c-6.547,4.167-10.316-2.383-10.316-2.383l6.15-6.746
											c-8.93,4.365-9.922-3.771-9.922-3.771l6.549-4.96c-10.518,3.373-11.312-6.747-11.312-6.747s16.272-5.953,30.161-8.135
											c13.889-2.183,18.056,7.739,20.238,15.477c2.184,7.739-3.174,29.565-3.174,29.565
											C164.284,432.66,161.307,413.413,154.561,417.58z"/>
									</g>
									
										<linearGradient id="SVGID_75_" gradientUnits="userSpaceOnUse" x1="-2329.2202" y1="98.2808" x2="-2322.4629" y2="126.4365" gradientTransform="matrix(1.9843 0 0 1.9843 4710.9116 153.239)">
										<stop  offset="0" style="stop-color:#53D8FF"/>
										<stop  offset="1" style="stop-color:#3840F7"/>
									</linearGradient>
									<path fill="url(#SVGID_75_)" d="M92.057,349.717c-6.15,0-11.111,4.961-11.111,11.112c0,6.15,4.961,11.11,11.111,11.11
										c6.151,0,11.111-4.96,11.111-11.11C103.168,354.677,98.208,349.717,92.057,349.717z"/>
									<path fill="#FFFFFF" d="M152.576,367.375l-7.738-26.589c-1.389-4.167-4.762-7.343-9.128-8.334
										c-24.604-4.962-89.491-6.151-92.269-6.151v2.977c0.596,0,67.268,0.992,91.674,6.15c3.175,0.596,5.754,3.176,6.746,6.351
										l7.738,26.392L152.576,367.375z"/>
								</g>
							</g>
							<g>
								
									<linearGradient id="SVGID_76_" gradientUnits="userSpaceOnUse" x1="-10.813" y1="197.0142" x2="72.876" y2="97.9823" gradientTransform="matrix(-1.9843 0 0 1.9843 -23.8604 153.239)">
									<stop  offset="0" style="stop-color:#A737D5"/>
									<stop  offset="1" style="stop-color:#EF497A"/>
								</linearGradient>
								<path fill="url(#SVGID_76_)" d="M-74.424,526.119c-1.982,0.396-3.77-1.39-3.375-3.57
									c3.572-15.479,8.533-69.848-75.203-116.675c-75.799-42.267-55.559-111.317-42.064-141.082
									c1.785-3.97,7.738-3.176,8.334,1.189c4.959,36.908,34.328,49.013,99.809,110.325
									c69.051,64.489,21.033,139.098,14.484,148.622C-73.033,525.523-73.631,525.92-74.424,526.119L-74.424,526.119z"/>
								
									<linearGradient id="SVGID_78_" gradientUnits="userSpaceOnUse" x1="55.3867" y1="189.2974" x2="81.4235" y2="79.1059" gradientTransform="matrix(-1.9843 0 0 1.9843 -23.8604 153.239)">
									<stop  offset="0" style="stop-color:#A737D5"/>
									<stop  offset="1" style="stop-color:#EF497A"/>
								</linearGradient>
								<path fill="url(#SVGID_78_)" d="M-84.543,527.904c-2.184,0.396-4.365-1.588-4.365-3.97
									c0.793-7.738-5.357-13.69-58.934-19.247c-50.004-5.356-62.305-38.892-65.281-53.377c-0.398-1.984,1.982-3.373,3.57-1.984
									c29.168,27.186,59.131-9.722,98.023,2.978c35.32,11.509,32.145,59.131,30.557,71.83
									C-81.17,526.119-82.758,527.507-84.543,527.904L-84.543,527.904z"/>
								<path opacity="0.47" fill="#FFFFFF" enable-background="new    " d="M-182.369,303.881c0.199-0.198,0.396,0,0.596,0.199l0,0
									c1.984,4.96,4.564,9.723,7.539,14.286c2.977,4.364,6.152,8.729,9.725,12.698c3.373,3.97,7.342,7.74,11.311,11.312
									s8.334,6.746,12.699,9.723l1.588,1.19l1.785,0.991l1.785,0.992l1.785,0.992c1.191,0.595,2.381,1.389,3.572,1.984
									l3.572,1.983c4.762,2.579,9.523,5.556,13.889,8.73c8.93,6.549,17.064,13.891,24.209,22.224
									c7.143,8.334,13.295,17.462,18.057,27.384c4.764,9.723,8.137,20.239,9.922,31.152c0.795,5.357,1.389,10.715,1.389,16.271
									c0.199,5.357-0.197,10.914-0.992,16.271c-1.586,10.914-4.563,21.431-8.729,31.55c-0.199,0.397-0.598,0.596-0.795,0.397
									c-0.396-0.198-0.594-0.596-0.396-0.794c3.77-10.121,6.547-20.638,7.738-31.353s0.795-21.628-0.992-32.145
									c-1.785-10.517-5.357-20.835-10.119-30.359s-10.914-18.454-17.857-26.59c-7.145-8.135-15.082-15.477-23.813-21.628
									c-4.365-3.175-8.928-5.953-13.691-8.532c-4.762-2.58-9.523-5.357-14.088-8.533c-9.127-6.149-17.461-13.491-24.406-22.024
									c-1.785-2.184-3.373-4.365-4.961-6.548s-2.975-4.563-4.365-6.944c-1.389-2.382-2.58-4.961-3.77-7.342
									c-1.191-2.58-2.184-5.159-2.977-7.739C-183.359,303.286-183.16,303.086-182.369,303.881z"/>
								<path opacity="0.47" fill="#FFFFFF" enable-background="new    " d="M-82.955,519.173c0,0.396-0.199,0.595-0.596,0.195
									c-0.197,0-0.197-0.198-0.197-0.396c0-0.396,0-0.793,0-1.19v-1.389c0-0.794,0-1.786,0-2.58
									c-0.197-1.785-0.197-3.373-0.396-5.159c-0.398-3.57-0.793-6.943-1.389-10.316c-1.191-6.748-3.176-13.494-6.152-19.646
									c-1.586-3.174-3.373-6.15-5.555-8.729c-2.184-2.778-4.764-4.961-7.74-6.747c-2.975-1.587-6.15-2.778-9.523-3.373
									c-1.785-0.198-3.373-0.396-5.158-0.396s-3.373,0.198-5.16,0.396c-6.746,0.992-13.691,2.182-20.438,3.571
									c-6.748,1.19-13.691,2.778-20.438,3.969c-3.375,0.794-6.748,1.19-10.318,1.588c-3.574,0.198-6.947,0.396-10.518,0
									c-3.572-0.398-6.945-1.39-10.119-3.175c-2.979-1.588-5.754-3.97-8.137-6.549c-0.197-0.199-0.199-0.397,0-0.596
									c0.199-0.197,0.398-0.197,0.596,0c2.381,2.579,4.961,4.763,7.938,6.351c2.977,1.587,6.35,2.58,9.725,2.977
									c3.373,0.396,6.943,0.396,10.316,0c3.572-0.397,6.945-0.992,10.318-1.588c6.945-1.389,13.691-2.777,20.438-4.167
									c3.57-0.794,6.943-1.388,10.318-1.984l5.158-0.991c1.785-0.198,3.373-0.596,5.158-0.793
									c1.787-0.199,3.572-0.199,5.357-0.199s3.572,0,5.357,0.396c3.572,0.596,6.945,1.985,9.922,3.771
									c2.977,1.786,5.754,4.166,7.938,6.944c2.184,2.779,3.969,5.754,5.557,8.931c2.975,6.35,4.762,13.096,5.953,20.041
									c0.594,3.373,1.189,6.943,1.389,10.316c0.197,1.589,0.396,3.374,0.396,5.159c0,0.794,0,1.786,0,2.58v1.389
									C-82.955,518.379-82.955,518.776-82.955,519.173C-82.758,519.173-82.758,519.373-82.955,519.173z"/>
							</g>
						</g>
					</g>
				</g>
			</g>
		</g>
		<g id="Capa_2">
			<g id="Layer_1_2_">
				<g id="Layer_2_2_">
				</g>
				<g id="Layer_1_3_">
					<g>
						<g>
							<g>
								<g>
									<g>
										<g>
											<path fill="#530F1E" d="M14.369,233.4c0,0,71.528-134.506,83.503-213.28c57.469,23.363,130.177,4.919,130.177,4.919
												s-6.741,83.007,8.2,151.366C157.6,191.231,14.369,233.4,14.369,233.4z"/>
										</g>
									</g>
								</g>
								<g>
									<path fill="#DA2037" d="M14.57,233.297c0,0,71.53-134.506,83.504-213.28c57.265,23.468,130.072,4.715,130.072,4.715
										L14.57,233.297z"/>
								</g>
								<g>
									<path fill="#F8BC04" d="M183.065,68.728L14.367,233.4c0,0,71.53-134.508,83.504-213.28
										C155.235,43.28,183.065,68.728,183.065,68.728z"/>
								</g>
								<g>
									<path fill="#A44322" d="M14.473,233.603L183.171,68.93c0,0,38.137,39.115,53.078,107.475
										C157.6,191.231,14.369,233.4,14.473,233.603z"/>
								</g>
							</g>
						</g>
					</g>
				</g>
			</g>
		</g>
	</g>
</g>
</svg>
