<?xml version="1.0" encoding="utf-8"?>
<!-- Generator: Adobe Illustrator 16.0.3, SVG Export Plug-In . SVG Version: 6.00 Build 0)  -->
<!DOCTYPE svg PUBLIC "-//W3C//DTD SVG 1.1//EN" "http://www.w3.org/Graphics/SVG/1.1/DTD/svg11.dtd">
<svg version="1.1" id="Layer_1" xmlns="http://www.w3.org/2000/svg" xmlns:xlink="http://www.w3.org/1999/xlink" x="0px" y="0px"
	 width="516px" height="648px" viewBox="156.445 -56.86 516 648" enable-background="new 156.445 -56.86 516 648"
	 xml:space="preserve">
<g id="Layer_1_1_" display="none">
	<g display="inline">
		<g>
			<path fill="#AABBCC" d="M464.797,377.804c14.088,7.144,31.946,0.596,39.686-14.684c7.738-15.278,2.579-33.534-11.509-40.677
				c-0.794-0.397-1.39-0.596-2.183-0.992c2.579-8.532,4.563-17.065,5.952-25.598c0.794,0,1.588,0,2.381,0
				c16.073-1.389,28.971-16.271,28.574-33.137c-0.397-16.867-13.691-29.367-29.765-27.78c-0.793,0-1.587,0.198-2.579,0.396
				c-1.588-8.333-3.969-16.469-6.945-24.406c0.794-0.396,1.39-0.794,2.183-1.389c13.691-9.723,18.256-28.772,9.922-42.662
				s-26.391-17.263-40.082-7.54c-0.794,0.396-1.39,0.992-1.984,1.588c-5.357-5.953-11.509-11.509-17.858-16.668
				c0.396-0.794,0.992-1.588,1.389-2.382c7.738-15.278,17.858-31.946,3.771-38.892c-32.939-16.072-47.027-2.381-54.766,12.898
				c-0.397,0.793-0.794,1.587-0.992,2.381c-7.938-2.183-15.874-3.771-24.01-4.563c0-0.794,0-1.786,0-2.58
				c-0.397-16.866,4.563-25.994-11.509-26.192c-35.32-0.595-47.226,14.684-46.829,31.55c0,0.794,0,1.786,0.198,2.58
				c-8.135,2.381-16.072,5.159-23.811,8.73c-0.397-0.794-0.794-1.588-1.19-2.183c-8.334-13.89-26.391-17.264-40.083-7.54
				c-13.691,9.723-18.255,28.771-9.921,42.661c0.396,0.794,0.992,1.39,1.389,1.984c-6.15,6.151-11.905,12.699-17.064,19.843
				c-0.595-0.396-1.389-0.794-2.183-1.19c-14.088-7.144-31.946-0.596-39.686,14.684c-7.738,15.279-2.579,33.534,11.509,40.678
				c0.794,0.396,1.39,0.595,2.183,0.992c-2.579,8.532-4.563,17.064-5.952,25.597c-0.794,0-1.588,0-2.382,0
				c-16.072,1.389-28.97,16.271-28.573,33.138c0.397,16.866,13.691,29.367,29.765,27.779c0.793,0,1.587-0.198,2.579-0.396
				c1.587,8.334,3.969,16.47,6.945,24.406c-0.794,0.397-1.39,0.794-2.184,1.39c-13.691,9.723-18.255,28.771-9.921,42.661
				s35.915,20.239,49.805,10.715c0.794-0.396-8.333-3.968-7.738-4.563c5.357,5.953,11.509,11.509,17.858,16.668
				c-0.396,0.794-0.992,1.587-1.389,2.381c-7.739,15.279-2.58,33.534,11.509,40.678c14.088,7.144,31.946,0.595,39.686-14.684
				c0.396-0.794,0.793-1.588,0.991-2.381c7.938,2.183,15.875,3.77,24.01,4.563c0,0.794,0,1.786,0,2.579
				c0.397,16.867,13.691,29.367,29.765,27.78c16.072-1.389,28.97-16.271,28.573-33.138c0-0.793,0-1.785-0.198-2.579
				c8.135-2.381,16.072-5.159,23.811-8.73c0.397,0.793,0.794,1.587,1.19,2.183c8.334,13.89,26.391,17.263,40.082,7.54
				c13.692-9.723,18.256-28.772,9.922-42.662c-0.396-0.794-0.992-1.389-1.389-1.984c6.15-6.151,11.905-12.699,17.064-19.843
				C463.407,377.011,464.003,377.606,464.797,377.804z M288.792,380.186c-51.193-25.994-70.044-92.07-41.868-147.63
				c28.177-55.56,92.666-79.371,143.86-53.377c51.193,25.994,70.044,92.07,41.867,147.63
				C404.475,382.171,339.987,406.179,288.792,380.186z"/>
			<path fill="#AABBCC" d="M499.124,295.854c16.073-1.389,28.971-16.271,28.574-33.137c-0.397-16.867-13.691-29.367-29.765-27.78
				c-0.793,0-1.587,0.198-2.579,0.396c-1.588-8.333-3.969-16.469-6.945-24.406c0.794-0.396,1.39-0.794,2.183-1.389
				c13.691-9.723,30.757-32.939,21.033-45.837c-18.453-24.604-37.502-13.89-51.393-4.167c-0.793,0.397-1.389,0.992-1.983,1.588
				c-5.358-5.953-11.509-11.509-17.858-16.668c0.396-0.794,0.991-1.588,1.389-2.381c4.167-8.334,4.563-17.462,1.786-25.399
				c-13.295,23.415-26.392,47.027-39.289,70.641c40.876,29.962,53.972,89.094,28.375,139.494
				c-21.628,42.661-64.687,66.671-106.753,63.694c-1.786,4.961-3.771,9.724-5.755,14.485c-5.357,13.097-11.707,25.796-17.858,38.693
				c3.969,0.794,7.739,1.389,11.707,1.786c0,0.794,0,1.786,0,2.579c0.397,16.866,10.517,31.153,39.686,29.565
				c16.072-0.793,18.851-17.858,18.652-34.725c0-0.793,0-1.785-0.198-2.579c8.135-2.381,16.072-5.159,23.811-8.73
				c0.397,0.793,0.794,1.587,1.19,2.183c8.334,13.89,37.305,19.843,51.194,10.119c13.691-9.723,7.144-31.152-1.19-45.043
				c-0.396-0.793-0.992-1.389-1.389-1.983c6.15-6.151,11.905-12.7,17.064-19.843c0.595,0.396,1.389,0.793,2.183,1.19
				c14.088,7.144,31.946,0.595,39.686-14.684c7.738-15.279,2.579-33.534-11.509-40.678c-0.794-0.396-1.389-0.595-2.183-0.992
				c2.579-8.532,4.563-17.064,5.952-25.597C497.537,296.052,498.331,296.052,499.124,295.854z"/>
			<path fill="#D8DEE8" d="M480.075,379.591c14.089,7.144,31.947,0.596,39.686-14.684c7.739-15.278,2.58-33.534-11.509-40.678
				c-0.794-0.396-1.389-0.595-2.183-0.992c2.58-8.532,4.563-17.064,5.953-25.597c0.794,0,1.587,0,2.381,0
				c16.072-1.39,28.971-16.271,28.573-33.138c-0.396-16.866-13.691-29.367-29.764-27.779c-0.794,0-1.588,0.198-2.58,0.396
				c-1.587-8.334-3.968-16.47-6.944-24.406c0.794-0.396,1.389-0.794,2.183-1.389c13.691-9.724,18.255-28.772,9.921-42.662
				s-26.391-17.263-40.082-7.54c-0.794,0.396-1.389,0.992-1.984,1.587c-5.357-5.952-11.509-11.509-17.858-16.668
				c0.397-0.793,0.992-1.587,1.39-2.381c7.738-15.278,2.579-33.534-11.509-40.678c-14.089-7.143-31.947-0.595-39.686,14.684
				c-0.397,0.794-0.794,1.588-0.992,2.382c-7.938-2.183-15.874-3.771-24.01-4.564c0-0.793,0-1.785,0-2.579
				c-0.396-16.866-13.691-29.367-29.764-27.78c-16.072,1.39-28.971,16.271-28.573,33.138c0,0.794,0,1.786,0.198,2.579
				c-8.136,2.382-16.072,5.159-23.812,8.731c-0.396-0.794-0.794-1.588-1.19-2.183c-8.334-13.891-26.391-17.264-40.082-7.541
				c-13.691,9.724-18.256,28.772-9.922,42.662c0.397,0.794,0.992,1.389,1.39,1.984c-6.151,6.151-11.906,12.699-17.065,19.843
				c-0.595-0.396-1.389-0.794-2.183-1.19c-14.088-7.144-31.946-0.596-39.685,14.684c-7.739,15.278-2.58,33.534,11.509,40.678
				c0.793,0.396,1.389,0.595,2.183,0.991c-2.58,8.533-4.564,17.065-5.953,25.598c-0.794,0-1.588,0-2.381,0
				c-16.073,1.389-28.971,16.271-28.574,33.137c0.397,16.867,13.691,29.368,29.765,27.78c0.794,0,1.587-0.198,2.579-0.396
				c1.588,8.334,3.969,16.469,6.945,24.406c-0.794,0.396-1.389,0.794-2.183,1.389c-13.691,9.724-18.256,28.772-9.922,42.662
				s26.391,17.263,40.083,7.54c0.793-0.396,1.389-0.992,1.983-1.587c5.358,5.952,11.509,11.509,17.858,16.667
				c-0.396,0.794-0.992,1.588-1.389,2.382c-7.738,15.278-2.579,33.534,11.509,40.677c14.088,7.144,31.946,0.596,39.686-14.684
				c0.396-0.793,0.794-1.587,0.992-2.381c7.937,2.183,15.874,3.771,24.01,4.564c0,0.793,0,1.785,0,2.579
				c0.396,16.866,13.691,29.367,29.764,27.779c16.072-1.389,28.971-16.271,28.573-33.137c0-0.794,0-1.786-0.198-2.58
				c8.136-2.381,16.072-5.158,23.812-8.73c0.396,0.794,0.793,1.588,1.19,2.183c8.334,13.89,26.391,17.264,40.082,7.54
				c13.691-9.723,18.255-28.771,9.921-42.661c-0.396-0.794-0.992-1.39-1.389-1.984c6.151-6.151,11.905-12.699,17.064-19.843
				C478.489,378.797,479.282,379.194,480.075,379.591z M303.873,381.773c-51.194-25.994-69.847-92.07-41.67-147.63
				s92.665-79.37,143.859-53.377c51.194,25.994,70.045,92.07,41.868,147.63C419.556,383.956,355.266,407.966,303.873,381.773z"/>
		</g>
		<g>
			
				<linearGradient id="SVGID_1_" gradientUnits="userSpaceOnUse" x1="3.1833" y1="371.8298" x2="66.0642" y2="371.8298" gradientTransform="matrix(1.9843 0 0 1.9843 147.8117 -590.1697)">
				<stop  offset="0" style="stop-color:#311944"/>
				<stop  offset="1" style="stop-color:#893976"/>
			</linearGradient>
			<path fill="url(#SVGID_1_)" d="M278.871,143.661c0,34.526-27.78,64.29-62.107,66.672c-34.526,2.381-62.505-24.01-62.505-58.734
				s27.979-64.489,62.505-66.672C251.091,82.744,278.871,109.135,278.871,143.661z"/>
			
				<linearGradient id="SVGID_2_" gradientUnits="userSpaceOnUse" x1="6.9495" y1="372.9246" x2="69.8309" y2="372.9246" gradientTransform="matrix(1.9843 0 0 1.9843 147.8117 -590.1697)">
				<stop  offset="0" style="stop-color:#FFC444"/>
				<stop  offset="0.9964" style="stop-color:#F36F56"/>
			</linearGradient>
			<path fill="url(#SVGID_2_)" d="M286.213,145.844c0,34.526-27.78,64.29-62.107,66.672c-34.526,2.183-62.505-24.01-62.505-58.734
				s27.979-64.489,62.505-66.672C258.433,84.927,286.213,111.317,286.213,145.844z"/>
			<path fill="#FFFFFF" d="M221.923,183.743c-2.778,0.198-5.159-0.992-6.549-3.373l-23.612-37.701
				c-2.183-3.571-0.992-8.334,2.579-10.913c3.572-2.381,8.334-1.588,10.716,1.984l16.271,26.192l21.431-43.853
				c1.983-3.969,6.548-5.755,10.317-3.969c3.771,1.786,5.357,6.35,3.374,10.12l-27.78,56.75
				C227.479,181.56,224.9,183.346,221.923,183.743C222.121,183.545,221.923,183.545,221.923,183.743z"/>
		</g>
		<g>
			
				<linearGradient id="SVGID_3_" gradientUnits="userSpaceOnUse" x1="167.1497" y1="495.3074" x2="232.6497" y2="495.3074" gradientTransform="matrix(1.9843 0 0 1.9843 147.8117 -590.1697)">
				<stop  offset="0" style="stop-color:#311944"/>
				<stop  offset="1" style="stop-color:#893976"/>
			</linearGradient>
			<path fill="url(#SVGID_3_)" d="M545.755,457.771c-36.114,2.579-66.274-25.002-66.274-61.711s29.962-67.466,66.274-68.656
				c35.319-1.19,63.695,26.59,63.695,61.909C609.45,424.435,581.074,455.191,545.755,457.771z"/>
			
				<linearGradient id="SVGID_4_" gradientUnits="userSpaceOnUse" x1="169.3494" y1="496.0076" x2="234.8494" y2="496.0076" gradientTransform="matrix(1.9843 0 0 1.9843 147.8117 -590.1697)">
				<stop  offset="0" style="stop-color:#FF9085"/>
				<stop  offset="1" style="stop-color:#FB6FBB"/>
			</linearGradient>
			<path fill="url(#SVGID_4_)" d="M550.12,459.16c-36.113,2.579-66.274-25.002-66.274-61.711s29.963-67.465,66.274-68.655
				c35.32-1.19,63.695,26.589,63.695,61.909C613.816,426.022,585.639,456.779,550.12,459.16z"/>
			<path fill="#FFFFFF" d="M609.45,390.901c0,32.938-26.392,61.512-59.33,63.894c-33.732,2.381-61.513-23.415-61.513-57.544
				c0-34.13,27.78-62.703,61.513-63.894C583.258,332.167,609.45,357.962,609.45,390.901z"/>
			<g>
				<g>
					<g>
						<defs>
							<path id="SVGID_5_" d="M605.283,391.099c0,30.558-24.407,56.948-54.965,59.131c-31.152,2.183-56.948-21.628-56.948-53.178
								s25.796-58.14,56.948-59.132C580.678,336.73,605.283,360.542,605.283,391.099z"/>
						</defs>
						<clipPath id="SVGID_6_">
							<use xlink:href="#SVGID_5_"  overflow="visible"/>
						</clipPath>
						<g clip-path="url(#SVGID_6_)">
							
								<linearGradient id="SVGID_7_" gradientUnits="userSpaceOnUse" x1="212.6721" y1="473.5925" x2="203.6245" y2="501.64" gradientTransform="matrix(1.9843 0 0 1.9843 147.8117 -590.1697)">
								<stop  offset="0" style="stop-color:#AB316D"/>
								<stop  offset="1" style="stop-color:#792D3D"/>
							</linearGradient>
							<path fill="url(#SVGID_7_)" d="M542.977,352.208c-10.715,0.396-20.835,6.945-25.398,15.478
								c-5.357,10.318,1.786,14.882-1.786,31.152c-3.175,15.081-10.913,18.058-9.524,27.78c1.39,10.715,11.707,16.668,15.874,19.247
								c18.454,10.914,47.425,8.532,62.108-7.937c1.19-1.39,11.31-12.699,8.532-22.621c-2.382-8.73-12.898-8.136-15.081-17.263
								c-1.785-7.739,5.357-10.914,4.564-22.225c-0.199-2.183-0.794-12.897-8.731-17.263c-5.357-2.977-11.111-1.587-13.294-0.992
								C557.66,355.978,551.509,352.01,542.977,352.208z"/>
							
								<linearGradient id="SVGID_8_" gradientUnits="userSpaceOnUse" x1="171.7493" y1="520.4431" x2="232.6497" y2="520.4431" gradientTransform="matrix(1.9843 0 0 1.9843 147.8117 -590.1697)">
								<stop  offset="0" style="stop-color:#FF9085"/>
								<stop  offset="1" style="stop-color:#FB6FBB"/>
							</linearGradient>
							<path fill="url(#SVGID_8_)" d="M488.608,438.921c0,0,54.171-35.122,120.843-7.739c0,0-8.533,27.581-59.33,32.542
								C497.736,468.883,488.608,438.921,488.608,438.921z"/>
							
								<linearGradient id="SVGID_9_" gradientUnits="userSpaceOnUse" x1="201.9797" y1="498.4734" x2="202.0971" y2="521.2314" gradientTransform="matrix(1.9843 0 0 1.9843 147.8117 -590.1697)">
								<stop  offset="0.0036" style="stop-color:#F36F56"/>
								<stop  offset="1" style="stop-color:#FFC444"/>
							</linearGradient>
							<path fill="url(#SVGID_9_)" d="M540.596,394.472l-1.984,15.279c-0.596,5.159-4.167,9.723-9.128,11.707l-16.469,6.548
								c0,0,31.55,13.097,71.434-4.563l-18.256-5.159c-5.159-1.588-8.73-6.35-8.929-11.905l-0.596-12.898L540.596,394.472z"/>
							
								<linearGradient id="SVGID_10_" gradientUnits="userSpaceOnUse" x1="205.1555" y1="465.7488" x2="199.9128" y2="501.0798" gradientTransform="matrix(1.9843 0 0 1.9843 147.8117 -590.1697)">
								<stop  offset="0.0036" style="stop-color:#F36F56"/>
								<stop  offset="1" style="stop-color:#FFC444"/>
							</linearGradient>
							<path fill="url(#SVGID_10_)" d="M565.2,379.987c0,12.7-7.738,26.788-17.263,27.384c-9.524,0.595-17.264-12.898-17.264-25.796
								s7.739-20.239,17.264-20.637C557.462,360.542,565.2,367.09,565.2,379.987z"/>
							
								<linearGradient id="SVGID_11_" gradientUnits="userSpaceOnUse" x1="206.1526" y1="471.3308" x2="196.8074" y2="500.3009" gradientTransform="matrix(1.9843 0 0 1.9843 147.8117 -590.1697)">
								<stop  offset="0" style="stop-color:#AB316D"/>
								<stop  offset="1" style="stop-color:#792D3D"/>
							</linearGradient>
							<path fill="url(#SVGID_11_)" d="M555.676,368.876c-5.159,0.595-12.897,2.183-18.453,8.136
								c-9.128,9.921-4.763,24.803-8.731,25.993c-3.571,0.992-9.127-9.524-9.127-21.231c0-9.921,3.373-21.628,12.302-25.002
								c5.159-1.984,6.747,0.794,23.415,1.786c9.723,0.596,5.952,5.159,8.136,6.548c9.723,6.747,8.532,30.558,3.175,31.153
								C563.812,396.457,560.439,390.305,555.676,368.876z"/>
						</g>
					</g>
				</g>
			</g>
		</g>
		<g>
			
				<linearGradient id="SVGID_12_" gradientUnits="userSpaceOnUse" x1="210.7493" y1="424.7322" x2="277.7493" y2="424.7322" gradientTransform="matrix(1.9843 0 0 1.9843 147.8117 -590.1697)">
				<stop  offset="0" style="stop-color:#311944"/>
				<stop  offset="1" style="stop-color:#893976"/>
			</linearGradient>
			<path fill="url(#SVGID_12_)" d="M633.658,320.46c-37.106,1.19-67.664-28.971-67.664-67.068c0-38.099,30.756-69.053,67.664-68.656
				c36.312,0.198,65.282,30.359,65.282,67.068S669.97,319.269,633.658,320.46z"/>
			
				<linearGradient id="SVGID_13_" gradientUnits="userSpaceOnUse" x1="213.0725" y1="424.7322" x2="280.072" y2="424.7322" gradientTransform="matrix(1.9843 0 0 1.9843 147.8117 -590.1697)">
				<stop  offset="0" style="stop-color:#FF9085"/>
				<stop  offset="1" style="stop-color:#FB6FBB"/>
			</linearGradient>
			<path fill="url(#SVGID_13_)" d="M638.42,320.46c-37.105,1.19-67.663-28.971-67.663-67.068c0-38.099,30.756-69.053,67.663-68.656
				c36.313,0.198,65.282,30.359,65.282,67.068C703.504,288.512,674.533,319.269,638.42,320.46z"/>
			<path fill="#FFFFFF" d="M699.139,251.803c0,34.328-26.986,62.901-60.719,63.894c-34.526,0.992-62.901-26.788-62.901-62.306
				c0-35.519,28.375-64.092,62.901-63.894C672.153,189.498,699.139,217.475,699.139,251.803z"/>
			<g>
				<g>
					<g>
						<defs>
							<path id="SVGID_14_" d="M694.774,251.803c0,31.748-25.002,58.338-56.354,59.132c-31.946,0.992-58.139-25.002-58.139-57.743
								c0-32.938,26.391-59.329,58.139-59.131C669.772,194.26,694.774,220.055,694.774,251.803z"/>
						</defs>
						<clipPath id="SVGID_15_">
							<use xlink:href="#SVGID_14_"  overflow="visible"/>
						</clipPath>
						<g clip-path="url(#SVGID_15_)">
							
								<linearGradient id="SVGID_16_" gradientUnits="userSpaceOnUse" x1="215.4495" y1="450.2263" x2="277.8494" y2="450.2263" gradientTransform="matrix(1.9843 0 0 1.9843 147.8117 -590.1697)">
								<stop  offset="0" style="stop-color:#AB316D"/>
								<stop  offset="1" style="stop-color:#792D3D"/>
							</linearGradient>
							<path fill="url(#SVGID_16_)" d="M575.321,296.846c0,0,55.361-34.129,123.818-2.977c0,0-8.73,28.375-60.719,31.55
								C584.647,328.595,575.321,296.846,575.321,296.846z"/>
							
								<linearGradient id="SVGID_17_" gradientUnits="userSpaceOnUse" x1="246.2869" y1="427.3591" x2="246.4058" y2="450.4298" gradientTransform="matrix(1.9843 0 0 1.9843 147.8117 -590.1697)">
								<stop  offset="0.0036" style="stop-color:#F36F56"/>
								<stop  offset="1" style="stop-color:#FFC444"/>
							</linearGradient>
							<path fill="url(#SVGID_17_)" d="M628.499,252.597l-1.984,15.676c-0.596,9.921-10.318,13.89-10.318,13.89
								c11.311,13.493,33.138,12.501,40.876-0.794c-5.357-1.984-11.112-10.119-11.311-15.874l-0.595-13.295L628.499,252.597z"/>
							
								<linearGradient id="SVGID_18_" gradientUnits="userSpaceOnUse" x1="249.657" y1="395.532" x2="243.8329" y2="431.5001" gradientTransform="matrix(1.9843 0 0 1.9843 147.8117 -590.1697)">
								<stop  offset="0.0036" style="stop-color:#F36F56"/>
								<stop  offset="1" style="stop-color:#FFC444"/>
							</linearGradient>
							<path fill="url(#SVGID_18_)" d="M653.699,238.509c0,13.295-7.938,27.582-17.66,27.78s-17.66-14.089-17.66-27.383
								c0-13.295,7.938-20.637,17.66-20.835C645.762,218.071,653.699,225.215,653.699,238.509z"/>
							
								<linearGradient id="SVGID_19_" gradientUnits="userSpaceOnUse" x1="246.5232" y1="402.9822" x2="243.6725" y2="420.587" gradientTransform="matrix(1.9843 0 0 1.9843 147.8117 -590.1697)">
								<stop  offset="0" style="stop-color:#444B8C"/>
								<stop  offset="0.9964" style="stop-color:#26264F"/>
							</linearGradient>
							<path fill="url(#SVGID_19_)" d="M617.783,242.279c0.992-0.198,1.984-0.396,2.977-0.596c-0.396-1.19-2.381-5.952,0-10.119
								c2.183-4.167,7.342-6.151,11.311-5.953c4.563,0.198,7.144,2.381,9.524,0.794c1.19-0.992,1.588-2.58,1.786-3.969
								c0.198,0.794,0.396,1.984,0.992,3.373c1.587,3.969,4.563,4.763,6.151,7.342c0.992,1.786,1.785,4.564,0,9.724
								c0.793,0,1.785-0.199,2.579-0.199c0.992-2.976,1.984-6.944,2.58-11.905c0.991-7.342,1.785-12.501-1.191-15.08
								c-0.595-0.397-3.175-2.382-9.127-0.596c-1.39-1.587-4.366-4.167-8.93-5.556c-1.587-0.397-9.326-2.778-16.47,2.183
								c-4.762,3.571-8.532,9.921-7.342,15.278c0.596,2.778,2.382,4.167,3.969,9.525
								C617.387,239.104,617.585,240.89,617.783,242.279z"/>
							
								<linearGradient id="SVGID_20_" gradientUnits="userSpaceOnUse" x1="258.7981" y1="397.033" x2="252.9922" y2="432.8887" gradientTransform="matrix(1.9843 0 0 1.9843 147.8117 -590.1697)">
								<stop  offset="0.0036" style="stop-color:#F36F56"/>
								<stop  offset="1" style="stop-color:#FFC444"/>
							</linearGradient>
							<path fill="url(#SVGID_20_)" d="M651.318,243.469c0,0,1.191-5.754,4.564-5.357c3.373,0.596-1.39,10.12-4.564,11.311V243.469z
								"/>
							
								<linearGradient id="SVGID_21_" gradientUnits="userSpaceOnUse" x1="241.116" y1="394.1521" x2="235.2805" y2="430.1904" gradientTransform="matrix(1.9843 0 0 1.9843 147.8117 -590.1697)">
								<stop  offset="0.0036" style="stop-color:#F36F56"/>
								<stop  offset="1" style="stop-color:#FFC444"/>
							</linearGradient>
							<path fill="url(#SVGID_21_)" d="M620.562,243.668c0,0-1.19-5.754-4.563-5.159c-3.572,0.596,1.587,10.12,4.563,11.311V243.668
								z"/>
						</g>
					</g>
				</g>
			</g>
		</g>
		<g>
			
				<linearGradient id="SVGID_22_" gradientUnits="userSpaceOnUse" x1="147.4495" y1="349.1023" x2="232.6497" y2="349.1023" gradientTransform="matrix(1.9843 0 0 1.9843 147.8117 -590.1697)">
				<stop  offset="0" style="stop-color:#311944"/>
				<stop  offset="1" style="stop-color:#893976"/>
			</linearGradient>
			<path fill="url(#SVGID_22_)" d="M526.508,187.315c-47.027-0.397-86.117-39.487-86.117-87.109
				c0-47.623,38.892-84.53,86.117-82.348c46.034,2.183,82.942,41.074,82.942,86.911C609.45,150.804,572.542,187.712,526.508,187.315
				z"/>
			
				<linearGradient id="SVGID_23_" gradientUnits="userSpaceOnUse" x1="150.2493" y1="349.1023" x2="235.4495" y2="349.1023" gradientTransform="matrix(1.9843 0 0 1.9843 147.8117 -590.1697)">
				<stop  offset="0" style="stop-color:#FF9085"/>
				<stop  offset="1" style="stop-color:#FB6FBB"/>
			</linearGradient>
			<path fill="url(#SVGID_23_)" d="M532.064,187.315c-47.027-0.397-86.117-39.487-86.117-87.109c0-47.623,39.09-84.53,86.117-82.348
				c46.035,2.183,82.942,41.074,82.942,86.911C615.006,150.804,578.297,187.712,532.064,187.315z"/>
			<path fill="#FFFFFF" d="M609.45,104.769c0,42.86-34.328,77.188-77.387,76.791c-43.853-0.396-80.165-36.709-80.165-81.156
				s36.313-78.577,80.165-76.593C575.122,25.796,609.45,61.909,609.45,104.769z"/>
			<g>
				<g>
					<g>
						<defs>
							<path id="SVGID_24_" d="M603.894,104.571c0,39.686-31.748,71.434-71.632,71.037c-40.678-0.397-74.013-34.13-74.013-75.006
								s33.335-72.822,73.814-71.037C571.948,31.351,603.894,64.885,603.894,104.571z"/>
						</defs>
						<clipPath id="SVGID_25_">
							<use xlink:href="#SVGID_24_"  overflow="visible"/>
						</clipPath>
						<g clip-path="url(#SVGID_25_)">
							
								<linearGradient id="SVGID_26_" gradientUnits="userSpaceOnUse" x1="246.1057" y1="263.4641" x2="145.1285" y2="454.6954" gradientTransform="matrix(1.9843 0 0 1.9843 147.8117 -590.1697)">
								<stop  offset="0" style="stop-color:#AB316D"/>
								<stop  offset="1" style="stop-color:#792D3D"/>
							</linearGradient>
							<path fill="url(#SVGID_26_)" d="M473.726,154.773c-4.167-12.303,11.707-16.47,13.691-45.043
								c0.198-1.984,2.778-41.074,8.93-48.615c0.794-0.991,1.786-1.785,1.786-1.785c2.976-2.381,7.738-1.984,24.208-8.93
								c14.286-5.952,13.294-5.754,15.278-6.151c10.715-1.983,26.391,7.739,31.748,20.835c4.564,11.707-0.992,21.629,7.342,42.266
								l0,0c10.318,29.565,15.478,44.447,10.914,53.773C573.138,189.3,483.25,182.354,473.726,154.773z"/>
							
								<linearGradient id="SVGID_27_" gradientUnits="userSpaceOnUse" x1="193.0349" y1="375.2771" x2="189.1965" y2="443.8909" gradientTransform="matrix(1.9843 0 0 1.9843 147.8117 -590.1697)">
								<stop  offset="0" style="stop-color:#444B8C"/>
								<stop  offset="0.9964" style="stop-color:#26264F"/>
							</linearGradient>
							<path fill="url(#SVGID_27_)" d="M452.098,154.575c0,0,70.441-39.884,157.353,2.381c0,0-11.112,34.923-77.387,36.312
								C463.805,194.657,452.098,154.575,452.098,154.575z"/>
							
								<linearGradient id="SVGID_28_" gradientUnits="userSpaceOnUse" x1="192.658" y1="352.363" x2="192.8091" y2="381.685" gradientTransform="matrix(1.9843 0 0 1.9843 147.8117 -590.1697)">
								<stop  offset="0.0036" style="stop-color:#F36F56"/>
								<stop  offset="1" style="stop-color:#FFC444"/>
							</linearGradient>
							<path fill="url(#SVGID_28_)" d="M519.761,102.388l-2.579,19.645c-0.992,6.746-5.557,12.104-11.906,14.286l-21.43,6.945
								c0,0,41.074,20.438,92.863,1.389l-23.612-8.532c-6.747-2.58-11.311-9.128-11.509-16.271l-0.596-16.667L519.761,102.388z"/>
							
								<linearGradient id="SVGID_29_" gradientUnits="userSpaceOnUse" x1="196.7122" y1="310.0486" x2="189.9543" y2="355.5908" gradientTransform="matrix(1.9843 0 0 1.9843 147.8117 -590.1697)">
								<stop  offset="0.0036" style="stop-color:#F36F56"/>
								<stop  offset="1" style="stop-color:#FFC444"/>
							</linearGradient>
							<path fill="url(#SVGID_29_)" d="M551.708,85.919c0,16.47-9.922,34.13-22.423,33.732c-12.501-0.198-22.62-18.453-22.62-35.121
								s10.119-25.398,22.62-25.002S551.708,69.449,551.708,85.919z"/>
							
								<linearGradient id="SVGID_30_" gradientUnits="userSpaceOnUse" x1="212.9812" y1="302.571" x2="174.7266" y2="375.018" gradientTransform="matrix(1.9843 0 0 1.9843 147.8117 -590.1697)">
								<stop  offset="0" style="stop-color:#AB316D"/>
								<stop  offset="1" style="stop-color:#792D3D"/>
							</linearGradient>
							<path fill="url(#SVGID_30_)" d="M506.07,95.245c2.183,0-0.992-17.462,7.342-22.025c5.556-2.977,15.08,0.198,20.438,5.953
								c8.532,9.127,3.77,21.826,10.119,24.803c4.167,1.786,9.524-1.785,12.104-4.365c8.136-8.136,6.944-25.994-2.58-36.312
								c-7.738-8.334-18.057-8.93-20.636-8.93c-14.287-0.396-27.185,9.723-30.161,22.025
								C500.514,85.72,504.483,95.245,506.07,95.245z"/>
						</g>
					</g>
				</g>
			</g>
		</g>
		<g>
			<g>
				<g>
					
						<linearGradient id="SVGID_31_" gradientUnits="userSpaceOnUse" x1="68.2366" y1="509.1667" x2="94.7147" y2="447.9861" gradientTransform="matrix(1.9843 0 0 1.9843 147.8117 -590.1697)">
						<stop  offset="0" style="stop-color:#FF9085"/>
						<stop  offset="1" style="stop-color:#FB6FBB"/>
					</linearGradient>
					<path fill="url(#SVGID_31_)" d="M307.048,274.425c0,0,54.964,30.558,52.979,56.552c-1.785,25.994-56.948,14.684-56.948,14.684
						L307.048,274.425z"/>
					
						<linearGradient id="SVGID_32_" gradientUnits="userSpaceOnUse" x1="-1107.6638" y1="681.988" x2="-1098.6377" y2="681.988" gradientTransform="matrix(-1.9763 0.178 0.178 1.9763 -2047.791 -590.7227)">
						<stop  offset="0" style="stop-color:#444B8C"/>
						<stop  offset="0.9964" style="stop-color:#26264F"/>
					</linearGradient>
					<path fill="url(#SVGID_32_)" d="M245.933,557.381c-0.992,0.794-0.992,2.778-0.992,4.167c0,0.596,0,0.794,0,0.992
						c0.595,1.39,3.373,1.39,8.135,1.588c7.144,0.198,9.326,0.794,9.922-0.397c0.396-0.992-0.992-2.579-0.992-2.777
						c-0.794-0.992-1.786-1.19-3.572-1.786c-3.373-0.992-5.754-1.389-6.548-1.587C247.322,556.984,246.528,556.786,245.933,557.381z
						"/>
					
						<linearGradient id="SVGID_33_" gradientUnits="userSpaceOnUse" x1="-1572.0984" y1="626.2117" x2="-1568.1379" y2="618.0143" gradientTransform="matrix(-1.9795 0.1377 0.1377 1.9795 -2945.7419 -462.3665)">
						<stop  offset="0" style="stop-color:#FFC444"/>
						<stop  offset="0.9964" style="stop-color:#F36F56"/>
					</linearGradient>
					<path fill="url(#SVGID_33_)" d="M251.091,550.238l0.199,8.135c-0.199,0.397-2.778,1.39-4.564,0.397l-1.389-8.136
						L251.091,550.238z"/>
					
						<linearGradient id="SVGID_34_" gradientUnits="userSpaceOnUse" x1="-1318.8879" y1="728.2771" x2="-1309.2982" y2="728.2771" gradientTransform="matrix(-1.9386 0.4232 0.4232 1.9386 -2540.6323 -296.7364)">
						<stop  offset="0" style="stop-color:#444B8C"/>
						<stop  offset="0.9964" style="stop-color:#26264F"/>
					</linearGradient>
					<path fill="url(#SVGID_34_)" d="M306.85,556.19c-1.191,1.19-1.588,3.572-0.596,4.763s2.579,0.396,6.746,0.794
						c4.564,0.396,5.755,1.587,8.93,0.793c1.19-0.198,3.571-0.992,3.571-1.984c0-0.595-1.19-0.992-4.762-2.579
						c-5.357-1.984-5.159-2.183-6.35-2.381C311.215,555.198,308.437,554.603,306.85,556.19z"/>
					
						<linearGradient id="SVGID_35_" gradientUnits="userSpaceOnUse" x1="-1484.5022" y1="678.1912" x2="-1480.4583" y2="669.821" gradientTransform="matrix(-1.9632 0.2883 0.2883 1.9632 -2796.9944 -344.1936)">
						<stop  offset="0" style="stop-color:#FFC444"/>
						<stop  offset="0.9964" style="stop-color:#F36F56"/>
					</linearGradient>
					<path fill="url(#SVGID_35_)" d="M310.025,548.848l1.983,7.739c-0.198,0.396-2.579,1.587-4.563,0.595l-2.977-7.54
						L310.025,548.848z"/>
					
						<linearGradient id="SVGID_36_" gradientUnits="userSpaceOnUse" x1="440.4729" y1="462.0125" x2="414.8951" y2="404.3541" gradientTransform="matrix(1.9815 0.1058 -0.1058 1.9815 -504.0077 -436.3999)">
						<stop  offset="0" style="stop-color:#311944"/>
						<stop  offset="1" style="stop-color:#893976"/>
					</linearGradient>
					<path fill="url(#SVGID_36_)" d="M298.714,380.583c-0.992,25.597-0.794,54.567,1.786,86.117
						c2.579,31.153,6.746,59.528,11.905,84.53c-2.977,0.595-5.953,1.19-8.93,1.983c-7.143-7.342-15.874-18.651-19.644-34.327
						c-2.382-9.723-1.19-14.485-2.183-26.391c-1.786-18.851-7.144-28.971-12.104-44.448c-4.563-13.89-9.921-34.129-11.905-60.917
						C271.133,384.75,285.023,382.765,298.714,380.583z"/>
					
						<linearGradient id="SVGID_37_" gradientUnits="userSpaceOnUse" x1="436.5295" y1="463.7615" x2="410.9518" y2="406.1033" gradientTransform="matrix(1.9815 0.1058 -0.1058 1.9815 -504.0077 -436.3999)">
						<stop  offset="0" style="stop-color:#311944"/>
						<stop  offset="1" style="stop-color:#893976"/>
					</linearGradient>
					<path opacity="0.3" fill="url(#SVGID_37_)" enable-background="new    " d="M294.547,500.631
						c-3.175-12.897-9.524-16.469-9.723-28.573c-0.199-8.73,2.976-9.326,2.777-17.66c-0.396-12.501-7.738-19.049-11.311-26.985
						c-3.968-8.334-5.357-21.827,5.159-44.051c-7.937,1.19-15.874,2.381-23.811,3.77c1.984,26.788,7.143,47.027,11.905,60.917
						c5.159,15.478,10.318,25.598,12.104,44.448c1.19,11.905,0,16.667,2.183,26.391c3.77,15.676,12.501,26.985,19.644,34.327
						c0.794-0.198,1.588-0.396,2.183-0.396c-7.54-9.128-10.317-17.263-10.913-23.812
						C293.357,518.093,297.92,513.727,294.547,500.631z"/>
					
						<linearGradient id="SVGID_38_" gradientUnits="userSpaceOnUse" x1="80.3347" y1="612.6433" x2="54.756" y2="554.9828" gradientTransform="matrix(1.9795 -0.1377 0.1377 1.9795 47.8638 -669.6255)">
						<stop  offset="0" style="stop-color:#311944"/>
						<stop  offset="1" style="stop-color:#893976"/>
					</linearGradient>
					<path fill="url(#SVGID_38_)" d="M268.949,378.996c-3.571,32.541-6.746,65.679-9.723,99.411
						c-2.183,25.398-4.167,50.4-5.952,75.006c-2.977,0.198-5.953,0.396-9.128,0.595c-2.58-5.556-5.953-13.89-8.136-24.604
						c-2.579-12.898-1.389-20.637-1.984-33.932c-0.794-14.882-2.977-18.255-5.952-37.304c-6.151-38.495-9.326-57.742,0.595-69.251
						C232.042,385.345,241.766,376.218,268.949,378.996z"/>
					
						<linearGradient id="SVGID_39_" gradientUnits="userSpaceOnUse" x1="37.925" y1="499.0769" x2="77.0336" y2="408.7124" gradientTransform="matrix(1.9843 0 0 1.9843 147.8117 -590.1697)">
						<stop  offset="0" style="stop-color:#FF9085"/>
						<stop  offset="1" style="stop-color:#FB6FBB"/>
					</linearGradient>
					<path fill="url(#SVGID_39_)" d="M190.968,277.798c16.271-5.556,41.074-11.707,71.434-10.318
						c17.66,0.794,32.74,3.771,44.646,7.144c1.587,9.128,3.175,18.057,4.762,27.185c0.397,9.128,0.397,21.43-0.595,35.915
						s-1.984,14.684-4.365,35.32c-3.771,33.534-2.184,42.265-8.93,46.233c-4.365,2.579-5.953-0.596-28.177-2.778
						c-14.882-1.389-22.62-2.183-30.161,0.397c-10.317,3.571-13.691,9.326-18.057,7.54c-4.167-1.786-4.563-8.93-5.159-21.231
						c-0.793-19.05-0.793-31.749-0.793-36.511c-0.397-21.231-5.755-37.305-12.501-57.94
						C198.906,295.656,194.341,285.139,190.968,277.798z"/>
					<g>
						
							<linearGradient id="SVGID_40_" gradientUnits="userSpaceOnUse" x1="717.3245" y1="-393.4211" x2="718.3312" y2="-420.2375" gradientTransform="matrix(1.7747 0.8872 -0.8872 1.7747 -1372.3827 349.2767)">
							<stop  offset="0" style="stop-color:#FFC444"/>
							<stop  offset="0.9964" style="stop-color:#F36F56"/>
						</linearGradient>
						<path fill="url(#SVGID_40_)" d="M260.417,246.446c-0.198,5.357-0.992,9.524-1.785,12.303c-0.794,3.373-1.39,4.167-1.984,4.762
							c-0.992,0.992-2.382,1.786-10.12,3.373c-4.167,0.794-4.762,0.794-4.762,1.191c-0.596,1.983,10.317,9.524,22.224,8.334
							c7.144-0.596,13.89-4.366,13.691-6.549s-7.54-1.389-9.326-5.357c-1.389-2.777,0.595-6.548,2.579-9.723
							C269.149,251.209,262.005,250.017,260.417,246.446z"/>
						<g>
							
								<linearGradient id="SVGID_41_" gradientUnits="userSpaceOnUse" x1="-2073.2463" y1="174.1711" x2="-2080.0728" y2="156.8332" gradientTransform="matrix(-1.9819 -0.0984 -0.0984 1.9819 -3839.5256 -276.1493)">
								<stop  offset="0" style="stop-color:#311944"/>
								<stop  offset="1" style="stop-color:#6B3976"/>
							</linearGradient>
							<path fill="url(#SVGID_41_)" d="M273.514,249.224c1.786-2.183,2.183-6.151,0.396-8.731c-1.587-2.183-4.167-2.579-5.754-2.977
								c-4.564-0.793-10.318,0.794-12.699,4.961c-1.39,2.381,0.992,7.739,1.389,8.731c0.396,0.991,1.19,1.389,1.984,2.381
								c0.992,1.19,2.579,2.977,5.159,6.151c0.198-0.794,0.595-1.984,1.19-2.977c0.198-0.397,1.19-2.183,2.381-3.572
								C269.942,250.415,271.926,251.209,273.514,249.224z"/>
							
								<linearGradient id="SVGID_42_" gradientUnits="userSpaceOnUse" x1="-243.6316" y1="213.7356" x2="-243.9456" y2="239.0292" gradientTransform="matrix(1.9841 -0.023 0.023 1.9841 743.8589 -180.7661)">
								<stop  offset="0" style="stop-color:#FFC444"/>
								<stop  offset="0.9964" style="stop-color:#F36F56"/>
							</linearGradient>
							<path fill="url(#SVGID_42_)" d="M260.021,256.963c0,0,2.778,5.159,8.73,4.961c5.357,0,6.747-12.104,3.572-14.684
								c-1.19-0.992-3.374-1.39-5.159-0.992c-1.19,0.198-1.588,0.595-3.373,0.992c-1.588,0.396-2.184,0.198-2.58,0.595
								c-0.595,0.397-1.19,1.786-0.396,5.357c-0.992-0.992-2.183-1.587-2.977-1.19c-0.198,0-0.596,0.198-0.794,0.596
								C256.25,253.986,257.242,255.772,260.021,256.963z"/>
							
								<linearGradient id="SVGID_43_" gradientUnits="userSpaceOnUse" x1="-2075.4548" y1="175.0486" x2="-2082.2878" y2="157.694" gradientTransform="matrix(-1.9819 -0.0984 -0.0984 1.9819 -3839.5256 -276.1493)">
								<stop  offset="0" style="stop-color:#311944"/>
								<stop  offset="1" style="stop-color:#6B3976"/>
							</linearGradient>
							<path fill="url(#SVGID_43_)" d="M261.013,247.24c0.198,0.198-0.596,1.19-0.794,2.579c-0.198,2.58,2.183,5.953,4.961,6.35
								c1.587,0.198,2.183-0.793,4.762-0.793c1.588,0,2.977,0.198,3.969,0.396c0.596,2.977-0.198,5.754-2.183,6.945
								c-2.183,1.389-4.762,0.396-5.953-0.199c-0.793-0.198-3.175-1.19-4.167-3.373c-1.19-2.381,0.199-3.571-1.19-5.357
								c-0.793-0.794-1.587-1.19-2.579-2.778c-0.198-0.396-0.396-0.793-0.396-0.992C258.632,248.629,260.616,246.843,261.013,247.24
								z"/>
							
								<linearGradient id="SVGID_44_" gradientUnits="userSpaceOnUse" x1="-2082.0989" y1="164.5593" x2="-2081.7437" y2="167.7273" gradientTransform="matrix(-1.9819 -0.0984 -0.0984 1.9819 -3839.5256 -276.1493)">
								<stop  offset="0" style="stop-color:#FFC444"/>
								<stop  offset="1" style="stop-color:#F36F56"/>
							</linearGradient>
							<path fill="url(#SVGID_44_)" d="M271.926,256.566c0,0-1.19,0.595-3.175,0.396h-0.198c0,0.198,1.19,1.19,2.381,0.794
								c0.794-0.198,1.588-0.992,1.39-1.19C272.124,256.566,271.926,256.566,271.926,256.566z"/>
						</g>
					</g>
					
						<linearGradient id="SVGID_45_" gradientUnits="userSpaceOnUse" x1="8.0076" y1="486.1287" x2="47.1166" y2="395.763" gradientTransform="matrix(1.9843 0 0 1.9843 147.8117 -590.1697)">
						<stop  offset="0" style="stop-color:#FF9085"/>
						<stop  offset="1" style="stop-color:#FB6FBB"/>
					</linearGradient>
					<path fill="url(#SVGID_45_)" d="M207.636,364.709c0.396,4.365-0.595,7.342-2.183,9.524c-7.144,9.128-31.352,5.357-45.638-6.746
						c-10.716-9.128-16.271-23.018-16.073-35.717c0.397-24.605,23.216-48.615,56.948-56.949
						c4.961,14.882,9.922,29.963,15.081,44.845c-20.835,0.396-33.534,16.072-31.748,27.185
						C185.412,355.383,195.135,362.923,207.636,364.709z"/>
					
						<linearGradient id="SVGID_46_" gradientUnits="userSpaceOnUse" x1="45.0046" y1="502.1404" x2="84.1139" y2="411.7742" gradientTransform="matrix(1.9843 0 0 1.9843 147.8117 -590.1697)">
						<stop  offset="0" style="stop-color:#FF9085"/>
						<stop  offset="1" style="stop-color:#FB6FBB"/>
					</linearGradient>
					<path opacity="0.3" fill="url(#SVGID_46_)" enable-background="new    " d="M289.388,408.164
						c-10.913-4.762-10.913-14.286-21.231-18.453c-14.684-5.755-30.757,7.54-33.336,3.968c-2.58-3.77,16.668-15.675,14.088-27.383
						c-1.984-9.325-15.477-7.738-22.818-20.438c-6.945-12.104-0.199-23.216-6.35-27.383c-2.183-1.588-5.953-2.183-13.295,1.19
						c5.159,15.874,8.73,29.764,8.929,47.027c0,4.563,0,17.461,0.794,36.511c0.397,12.302,0.992,19.247,5.159,21.231
						s7.738-3.969,18.057-7.54c7.54-2.58,15.279-1.786,30.161-0.397c22.224,2.183,23.812,5.357,28.177,2.778
						c2.778-1.786,4.167-4.167,5.159-9.128C298.714,410.346,293.951,409.95,289.388,408.164z"/>
				</g>
				<g>
					
						<linearGradient id="SVGID_47_" gradientUnits="userSpaceOnUse" x1="-2473.2488" y1="436.5164" x2="-2500.3005" y2="468.4198" gradientTransform="matrix(1.9843 0 0 1.9843 5270.0449 -590.1697)">
						<stop  offset="0" style="stop-color:#311944"/>
						<stop  offset="1" style="stop-color:#893976"/>
					</linearGradient>
					<path fill="url(#SVGID_47_)" d="M348.519,370.86c-5.556-1.39-10.913-6.35-13.096-13.295L305.46,264.9
						c-2.579-8.136,0.397-17.264,6.747-20.637c6.548-3.571,16.866,0,19.843,8.532l33.335,97.229
						c3.374,9.723-0.396,19.247-8.135,21.231C355.266,371.654,350.503,371.257,348.519,370.86z"/>
					
						<linearGradient id="SVGID_48_" gradientUnits="userSpaceOnUse" x1="-2476.6394" y1="433.5906" x2="-2504.6846" y2="466.6656" gradientTransform="matrix(1.9843 0 0 1.9843 5270.0449 -590.1697)">
						<stop  offset="0" style="stop-color:#311944"/>
						<stop  offset="1" style="stop-color:#893976"/>
					</linearGradient>
					<path opacity="0.3" fill="url(#SVGID_48_)" enable-background="new    " d="M312.207,244.065
						c6.548-3.572,16.866,0,19.843,8.532l30.358,88.498c-5.357-2.183-11.508-2.579-17.263-9.326
						c-9.524-10.913-4.762-23.612-12.303-35.519c-3.373-5.357-9.326-11.111-21.43-13.096l-5.953-18.454
						C302.881,256.764,305.858,247.438,312.207,244.065z"/>
					
						<linearGradient id="SVGID_49_" gradientUnits="userSpaceOnUse" x1="88.4094" y1="418.571" x2="72.8825" y2="436.8825" gradientTransform="matrix(1.9843 0 0 1.9843 147.8117 -590.1697)">
						<stop  offset="0.0036" style="stop-color:#E38DDD"/>
						<stop  offset="1" style="stop-color:#9571F6"/>
					</linearGradient>
					<ellipse fill="url(#SVGID_49_)" cx="307.842" cy="258.55" rx="23.414" ry="24.208"/>
					
						<linearGradient id="SVGID_50_" gradientUnits="userSpaceOnUse" x1="-2473.2688" y1="379.697" x2="-2449.8538" y2="509.2106" gradientTransform="matrix(1.9843 0 0 1.9843 5270.0449 -590.1697)">
						<stop  offset="0" style="stop-color:#AA80F9"/>
						<stop  offset="0.9964" style="stop-color:#6165D7"/>
					</linearGradient>
					<path fill="url(#SVGID_50_)" d="M306.452,234.937c-5.357,16.072-5.357,31.748,0,47.622l134.533,59.528l1.786-168.067
						L306.452,234.937z"/>
					
						<linearGradient id="SVGID_51_" gradientUnits="userSpaceOnUse" x1="-2479.8899" y1="387.5789" x2="-2458.083" y2="508.1976" gradientTransform="matrix(1.9843 0 0 1.9843 5270.0449 -590.1697)">
						<stop  offset="0" style="stop-color:#AA80F9"/>
						<stop  offset="0.9964" style="stop-color:#6165D7"/>
					</linearGradient>
					<path opacity="0.3" fill="url(#SVGID_51_)" enable-background="new    " d="M398.323,291.093
						c-13.69-6.151-17.857-27.78-32.938-28.376c-11.31-0.396-14.484,11.906-25.001,10.518c-10.318-1.39-12.104-14.883-23.217-19.248
						c-4.96-1.984-9.921-1.389-14.684,0.397c-0.595,9.325,0.596,18.851,3.969,28.573l134.533,59.528l-9.921-57.346
						C415.389,293.87,405.269,294.068,398.323,291.093z"/>
					
						<linearGradient id="SVGID_52_" gradientUnits="userSpaceOnUse" x1="-1917.3113" y1="398.3123" x2="-1966.8507" y2="456.7365" gradientTransform="matrix(-1.9843 0 0 1.9843 -3410.8367 -590.1697)">
						<stop  offset="0.0036" style="stop-color:#E38DDD"/>
						<stop  offset="1" style="stop-color:#9571F6"/>
					</linearGradient>
					<ellipse fill="url(#SVGID_52_)" cx="442.772" cy="258.153" rx="63.298" ry="83.935"/>
					
						<linearGradient id="SVGID_53_" gradientUnits="userSpaceOnUse" x1="-1901.9841" y1="426.4021" x2="-1969.9457" y2="428.1335" gradientTransform="matrix(-1.9843 0 0 1.9843 -3410.8367 -590.1697)">
						<stop  offset="0" style="stop-color:#311944"/>
						<stop  offset="1" style="stop-color:#893976"/>
					</linearGradient>
					<path fill="url(#SVGID_53_)" d="M442.772,339.111c7.342,0,14.684-1.983,21.628-5.952c7.144-3.969,13.493-9.723,19.05-17.064
						c11.707-15.478,18.057-36.114,18.057-58.14s-6.35-42.662-18.057-58.139c-5.557-7.342-11.906-13.097-19.05-17.065
						c-6.944-3.968-14.286-5.952-21.628-5.952s-14.684,1.984-21.629,5.952c-7.144,3.969-13.493,9.724-19.049,17.065
						c-4.961,6.548-8.929,13.89-11.707,21.826c-4.167,11.112,7.738,22.819,7.738,35.519c0,13.691-11.707,27.383-6.944,39.09
						c2.778,7.144,6.548,13.891,10.913,19.844c5.556,7.341,11.905,13.096,19.049,17.064
						C428.088,337.128,435.232,339.111,442.772,339.111z"/>
					<g>
						<g>
							<g>
								<defs>
									<path id="SVGID_54_" d="M442.772,339.111c7.342,0,14.684-1.983,21.628-5.952c7.144-3.969,13.493-9.723,19.05-17.064
										c11.707-15.478,18.057-36.114,18.057-58.14s-6.35-42.662-18.057-58.139c-5.557-7.342-11.906-13.097-19.05-17.065
										c-6.944-3.968-14.286-5.952-21.628-5.952s-14.684,1.984-21.629,5.952c-7.144,3.969-13.493,9.724-19.049,17.065
										c-11.707,15.477-18.057,36.113-18.057,58.139s6.35,42.662,18.057,58.14c5.556,7.342,11.905,13.096,19.049,17.064
										C428.088,337.128,435.232,339.111,442.772,339.111z"/>
								</defs>
								<clipPath id="SVGID_55_">
									<use xlink:href="#SVGID_54_"  overflow="visible"/>
								</clipPath>
								
									<linearGradient id="SVGID_56_" gradientUnits="userSpaceOnUse" x1="-2457.5774" y1="386.9275" x2="-2442.6978" y2="469.2297" gradientTransform="matrix(1.9843 0 0 1.9843 5270.0449 -590.1697)">
									<stop  offset="0" style="stop-color:#FFC444"/>
									<stop  offset="0.9964" style="stop-color:#F36F56"/>
								</linearGradient>
								<path clip-path="url(#SVGID_55_)" fill="url(#SVGID_56_)" d="M447.931,259.145c0,21.231-18.058,38.098-40.281,37.701
									c-21.826-0.396-39.09-17.462-39.09-38.296c0-20.637,17.462-37.503,39.09-37.701
									C429.873,220.849,447.931,237.914,447.931,259.145z"/>
							</g>
						</g>
						<g>
							<g>
								<defs>
									<path id="SVGID_57_" d="M442.772,339.111c7.342,0,14.684-1.983,21.628-5.952c7.144-3.969,13.493-9.723,19.05-17.064
										c11.707-15.478,18.057-36.114,18.057-58.14s-6.35-42.662-18.057-58.139c-5.557-7.342-11.906-13.097-19.05-17.065
										c-6.944-3.968-14.286-5.952-21.628-5.952s-14.684,1.984-21.629,5.952c-7.144,3.969-13.493,9.724-19.049,17.065
										c-11.707,15.477-18.057,36.113-18.057,58.139s6.35,42.662,18.057,58.14c5.556,7.342,11.905,13.096,19.049,17.064
										C428.088,337.128,435.232,339.111,442.772,339.111z"/>
								</defs>
								<clipPath id="SVGID_58_">
									<use xlink:href="#SVGID_57_"  overflow="visible"/>
								</clipPath>
								
									<linearGradient id="SVGID_59_" gradientUnits="userSpaceOnUse" x1="-2447.1555" y1="397.6589" x2="-2436.2212" y2="458.1407" gradientTransform="matrix(1.9843 0 0 1.9843 5270.0449 -590.1697)">
									<stop  offset="0" style="stop-color:#FFC444"/>
									<stop  offset="0.9964" style="stop-color:#F36F56"/>
								</linearGradient>
								<path opacity="0.3" clip-path="url(#SVGID_58_)" fill="url(#SVGID_59_)" enable-background="new    " d="M444.359,258.749
									c0,15.874-8.929,28.375-19.644,27.978c-10.517-0.396-19.05-13.096-19.05-28.375c0-15.278,8.533-27.978,19.05-27.978
									C435.628,230.374,444.359,243.073,444.359,258.749z"/>
							</g>
						</g>
					</g>
				</g>
				
					<linearGradient id="SVGID_60_" gradientUnits="userSpaceOnUse" x1="102.8127" y1="457.0818" x2="107.9325" y2="469.2853" gradientTransform="matrix(1.9843 0 0 1.9843 147.8117 -590.1697)">
					<stop  offset="0" style="stop-color:#FFC444"/>
					<stop  offset="0.9964" style="stop-color:#F36F56"/>
				</linearGradient>
				<path fill="url(#SVGID_60_)" d="M358.242,321.054c0,0-3.374-3.77-8.533-3.77s0.199,1.19,2.977,4.96
					c2.58,3.572,2.58,3.572,2.58,3.572s2.579,3.969,4.167,2.778C360.822,327.404,358.242,321.054,358.242,321.054z"/>
			</g>
			<g>
				
					<linearGradient id="SVGID_61_" gradientUnits="userSpaceOnUse" x1="30.9133" y1="488.2146" x2="32.2872" y2="506.0748" gradientTransform="matrix(1.9843 0 0 1.9843 147.8117 -590.1697)">
					<stop  offset="0" style="stop-color:#311944"/>
					<stop  offset="1" style="stop-color:#893976"/>
				</linearGradient>
				<path fill="url(#SVGID_61_)" d="M233.233,405.187c-0.595,0-0.992-0.396-0.992-0.992c-0.991-9.921-4.166-19.445-9.127-26.589
					c-4.365-6.35-9.524-10.119-13.89-10.119l0,0c-15.875,0-19.248,36.51-19.248,36.708c0,0.596-0.595,0.992-1.19,0.992
					c-0.595,0-0.992-0.595-0.992-1.19c0.198-1.587,3.572-38.693,21.431-38.693l0,0c5.158,0,10.913,3.969,15.676,11.112
					c5.158,7.54,8.532,17.263,9.524,27.581C234.424,404.593,234.027,405.187,233.233,405.187L233.233,405.187z"/>
				
					<linearGradient id="SVGID_62_" gradientUnits="userSpaceOnUse" x1="4.1975" y1="504.7546" x2="17.487" y2="527.04" gradientTransform="matrix(1.9843 0 0 1.9843 147.8117 -590.1697)">
					<stop  offset="0" style="stop-color:#AA80F9"/>
					<stop  offset="0.9964" style="stop-color:#6165D7"/>
				</linearGradient>
				<path fill="url(#SVGID_62_)" d="M167.157,479.995l20.834,10.517l12.699-38.693l-20.834-51.988l-5.953,1.39l-8.93,74.807
					C164.776,477.613,165.768,479.399,167.157,479.995z"/>
				
					<linearGradient id="SVGID_63_" gradientUnits="userSpaceOnUse" x1="6.218" y1="503.5515" x2="19.5072" y2="525.8364" gradientTransform="matrix(1.9843 0 0 1.9843 147.8117 -590.1697)">
					<stop  offset="0" style="stop-color:#AA80F9"/>
					<stop  offset="0.9964" style="stop-color:#6165D7"/>
				</linearGradient>
				<path opacity="0.3" fill="url(#SVGID_63_)" enable-background="new    " d="M200.691,451.818l-20.834-51.988l-3.572,0.794
					c-0.396,6.945-0.198,12.699,0,16.866c1.39,17.66,5.953,22.621,3.771,34.923c-1.786,10.318-5.953,11.708-5.556,18.652
					c0.396,7.54,5.556,13.89,11.905,18.851l1.587,0.794L200.691,451.818z"/>
				
					<linearGradient id="SVGID_64_" gradientUnits="userSpaceOnUse" x1="27.343" y1="513.7283" x2="64.7579" y2="542.5563" gradientTransform="matrix(1.9843 0 0 1.9843 147.8117 -590.1697)">
					<stop  offset="0" style="stop-color:#AA80F9"/>
					<stop  offset="0.9964" style="stop-color:#6165D7"/>
				</linearGradient>
				<polygon fill="url(#SVGID_64_)" points="179.857,399.83 257.64,399.83 283.435,482.971 188.191,490.71 				"/>
				
					<linearGradient id="SVGID_65_" gradientUnits="userSpaceOnUse" x1="34.7185" y1="480.1257" x2="38.5351" y2="504.4569" gradientTransform="matrix(1.9843 0 0 1.9843 147.8117 -590.1697)">
					<stop  offset="0" style="stop-color:#311944"/>
					<stop  offset="1" style="stop-color:#893976"/>
				</linearGradient>
				<path fill="url(#SVGID_65_)" d="M204.065,406.973c-0.397,0-0.992-0.396-0.992-0.794c-0.198-0.992-5.357-23.216,1.785-34.129
					c1.984-3.175,4.961-4.961,8.533-5.755c18.651-3.373,30.16,36.709,30.558,38.495c0.198,0.596-0.199,1.19-0.794,1.389
					c-0.596,0.199-1.19-0.198-1.389-0.793c-0.199-0.397-11.311-39.884-28.177-36.908c-2.977,0.596-5.357,2.184-7.144,4.763
					c-6.746,10.12-1.588,32.146-1.588,32.542C205.057,406.379,204.659,406.973,204.065,406.973
					C204.263,406.973,204.065,406.973,204.065,406.973z"/>
				<g opacity="0.3">
					
						<linearGradient id="SVGID_66_" gradientUnits="userSpaceOnUse" x1="27.8196" y1="513.1091" x2="65.2346" y2="541.9371" gradientTransform="matrix(1.9843 0 0 1.9843 147.8117 -590.1697)">
						<stop  offset="0" style="stop-color:#AA80F9"/>
						<stop  offset="0.9964" style="stop-color:#6165D7"/>
					</linearGradient>
					<path fill="url(#SVGID_66_)" d="M257.64,399.83h-38.495c-1.984,1.984-3.175,4.167-3.373,6.747
						c-0.596,11.707,26.391,15.676,28.97,31.748c1.786,11.707-9.723,25.002-20.041,30.954c-10.913,6.351-18.255,3.176-25.597,10.12
						c-3.175,2.977-5.159,6.945-6.35,10.914l90.681-7.342L257.64,399.83z"/>
				</g>
				
					<linearGradient id="SVGID_67_" gradientUnits="userSpaceOnUse" x1="26.2659" y1="501.8494" x2="26.8802" y2="502.0776" gradientTransform="matrix(1.9843 0 0 1.9843 147.8117 -590.1697)">
					<stop  offset="0" style="stop-color:#311944"/>
					<stop  offset="1" style="stop-color:#893976"/>
				</linearGradient>
				<circle fill="url(#SVGID_67_)" cx="204.065" cy="407.172" r="2.977"/>
				
					<linearGradient id="SVGID_68_" gradientUnits="userSpaceOnUse" x1="46.1487" y1="501.6804" x2="46.763" y2="501.9085" gradientTransform="matrix(1.9843 0 0 1.9843 147.8117 -590.1697)">
					<stop  offset="0" style="stop-color:#311944"/>
					<stop  offset="1" style="stop-color:#893976"/>
				</linearGradient>
				<circle fill="url(#SVGID_68_)" cx="243.353" cy="406.775" r="2.977"/>
			</g>
			
				<linearGradient id="SVGID_69_" gradientUnits="userSpaceOnUse" x1="27.6013" y1="480.9529" x2="31.0628" y2="491.5181" gradientTransform="matrix(1.9843 0 0 1.9843 147.8117 -590.1697)">
				<stop  offset="0" style="stop-color:#FFC444"/>
				<stop  offset="0.9964" style="stop-color:#F36F56"/>
			</linearGradient>
			<path fill="url(#SVGID_69_)" d="M198.906,368.28c0,0,5.754-7.144,9.921-2.977c4.365,4.167,5.556,11.708,1.39,11.708
				c-4.167,0-11.509-6.35-12.7-5.357C197.715,371.654,197.913,369.47,198.906,368.28z"/>
		</g>
		<g>
			<g>
				
					<linearGradient id="SVGID_70_" gradientUnits="userSpaceOnUse" x1="140.6628" y1="476.7722" x2="107.8369" y2="730.906" gradientTransform="matrix(1.9843 0 0 1.9843 147.8117 -590.1697)">
					<stop  offset="0" style="stop-color:#FFC444"/>
					<stop  offset="0.9964" style="stop-color:#F36F56"/>
				</linearGradient>
				<path fill="url(#SVGID_70_)" d="M395.943,568.295c25.2-3.175,57.346-11.707,70.243-35.915
					c2.977-5.755,6.151-16.866-1.587-21.033c-7.144-3.771-16.271,0.198-21.431,5.158c-3.77,3.572-6.944,11.906-11.311,14.485
					c-6.35,3.771-9.723-6.548-9.723-10.715c0.396-9.524,12.104-13.493,19.843-15.478c12.897-3.373,27.979-6.35,27.185-21.033
					s-15.08-23.414-25.994-16.866c-8.929,5.159-7.738,16.47-13.89,23.216c-5.556,5.953-7.342-3.77-6.945-8.532
					c0.794-10.318,9.922-17.858,16.47-24.803c7.54-7.739,15.874-23.613,7.938-33.932c-4.564-5.952-16.47-7.342-23.415-6.35
					c-34.129,4.961-11.509,49.012-17.66,53.973c-6.15,4.96-12.104-3.771-12.104-16.867c0-13.096-1.984-22.818-15.676-18.651
					s-16.271,38.296-0.595,51.591c15.676,13.096-0.992,27.581-5.159,18.057c-2.977-6.746-5.755-24.604-14.485-26.589
					c-14.485-3.175-14.287,26.391-10.12,33.336c5.953,9.723,19.248,11.905,26.59,20.239c2.183,2.381,6.944,8.532,5.159,12.104
					c-2.58,4.961-9.922-0.396-12.7-2.579c-6.15-5.159-14.484-22.621-23.018-11.112C333.042,544.285,350.701,565.715,395.943,568.295
					z"/>
				<g opacity="0.8">
					<path fill="#FFFFFF" d="M399.515,566.112c-0.596,0-0.992-0.596-1.191-1.19c0-0.596-0.793-52.385,22.025-114.096
						c0.199-0.596,0.794-0.992,1.39-0.794c0.595,0.198,0.793,0.794,0.595,1.389c-22.422,61.314-21.826,112.905-21.826,113.501
						C400.705,565.318,400.11,566.112,399.515,566.112L399.515,566.112z"/>
				</g>
			</g>
			
				<linearGradient id="SVGID_71_" gradientUnits="userSpaceOnUse" x1="120.9587" y1="515.2195" x2="99.7694" y2="679.2644" gradientTransform="matrix(1.9843 0 0 1.9843 147.8117 -590.1697)">
				<stop  offset="0" style="stop-color:#AA80F9"/>
				<stop  offset="0.9964" style="stop-color:#6165D7"/>
			</linearGradient>
			<path fill="url(#SVGID_71_)" d="M408.84,546.071c-4.167-3.572-12.897,1.984-16.469,3.968c-2.183,1.191-4.961,2.977-7.54,1.984
				c-2.58-1.19-2.381-3.968-0.794-5.952c2.778-3.572,8.334-4.564,12.303-6.151c4.365-1.786,8.333-4.365,10.317-8.731
				c1.786-3.373,1.984-8.532,0.199-11.905c-5.358-9.524-12.897-1.984-17.264,3.572c-1.984,2.777-6.746,7.342-10.317,4.166
				c-3.771-3.373-0.596-9.524,2.381-12.302c3.77-3.572,8.334-5.953,12.501-8.93c3.77-2.777,7.54-6.746,5.158-11.509
				c-1.983-3.77-6.746-5.952-10.913-5.556c-9.524,0.794-11.111,14.684-17.263,20.041c-2.183,1.984-7.342,3.373-9.922,1.588
				c-2.777-1.984-0.992-6.151,0-8.533c2.977-6.944,23.613-30.558,6.35-33.533c-4.365-0.794-10.317,0.595-13.691,3.373
				c-6.35,5.159-9.723,15.477-11.509,23.216c-2.579,12.303-2.579,25.795,0.397,37.899c6.548,26.787,21.827,35.519,21.827,35.519
				c6.548,2.183,14.882,3.175,21.826,1.785c8.136-1.785,17.858-7.738,21.827-15.08C410.031,552.421,411.42,548.254,408.84,546.071z"
				/>
		</g>
	</g>
</g>
<g>
	<g>
		<g>
			<g>
				<g id="Layer_2_1_">
					<g>
						<g display="none">
							
								<linearGradient id="SVGID_72_" gradientUnits="userSpaceOnUse" x1="87.6497" y1="441.8279" x2="187.9543" y2="441.8279" gradientTransform="matrix(1.9843 0 0 1.9843 147.8117 -590.1697)">
								<stop  offset="0" style="stop-color:#444B8C"/>
								<stop  offset="0.9964" style="stop-color:#26264F"/>
							</linearGradient>
							<path display="inline" opacity="0.3" fill="url(#SVGID_72_)" enable-background="new    " d="M514.999,265.098
								L514.999,265.098c-1.191,0-2.58,0.595-3.374,1.785l0,0c-10.715-30.16-46.034-52.583-88.498-52.979
								c-8.73,0-17.064,0.794-25.002,2.381l0,0l0,0c-31.748,6.549-56.948,25.796-66.075,50.4c-0.992-1.19-2.382-1.785-3.771-1.785
								c-3.373,0-6.548,4.563-6.548,10.119v29.169c0,5.557,2.777,10.12,6.35,10.12c0,0,0,0,0.198,0l0,0
								c1.984,0,3.969-1.588,5.159-4.167c12.699,28.971,48.218,49.606,89.49,49.012c11.509-0.199,22.62-1.984,32.74-4.961
								c25.597-7.938,45.837-24.406,54.369-44.845l0,0c0.992,2.381,2.777,3.969,4.762,3.969l0,0c3.175,0,5.953-4.365,5.953-9.724
								v-28.375C520.951,269.662,518.174,265.098,514.999,265.098z"/>
							
								<linearGradient id="SVGID_73_" gradientUnits="userSpaceOnUse" x1="104.6375" y1="515.4802" x2="171.9998" y2="515.4802" gradientTransform="matrix(1.9843 0 0 1.9843 147.8117 -590.1697)">
								<stop  offset="0" style="stop-color:#444B8C"/>
								<stop  offset="0.9964" style="stop-color:#26264F"/>
							</linearGradient>
							<path display="inline" opacity="0.3" fill="url(#SVGID_73_)" enable-background="new    " d="M450.51,369.868l-55.162,0.794
								c-6.945,0-13.89,2.183-19.843,5.556c-4.763,2.777-8.93,6.548-12.303,11.111c-7.54,10.517-9.723,23.812-5.952,35.916
								c0,0.198,0.198,0.595,0.198,0.793l1.389,4.564c2.977,9.326,5.755,18.651,8.73,28.177
								c7.342,23.811,29.367,39.486,54.171,38.692c7.738-0.198,15.278-1.983,22.224-5.158c16.072-7.144,28.771-21.034,34.129-38.893
								c2.58-8.532,5.159-17.263,7.739-25.795l1.389-4.563c0-0.199,0.198-0.596,0.198-0.794c3.572-12.104,1.39-25.002-5.754-35.122
								C474.322,375.424,462.813,369.67,450.51,369.868z"/>
						</g>
						<g display="none">
							<g display="inline">
								<path fill="#FFFFFF" d="M516.586,281.766c0,7.738-1.587,15.278-4.563,22.224c-8.532,20.041-28.177,36.113-53.179,43.853
									c-9.921,2.977-20.835,4.762-32.146,4.961c-40.479,0.396-75.203-19.645-87.506-48.02c-3.175-7.144-4.762-14.883-4.762-22.819
									c0-6.747,1.19-13.295,3.571-19.446c8.731-24.01,33.534-42.86,64.488-49.21c7.739-1.587,16.073-2.381,24.407-2.381
									c41.471,0.397,75.997,22.423,86.514,51.79C515.396,268.868,516.586,275.218,516.586,281.766z"/>
								<path fill="#D8DEE8" d="M468.766,319.864l-81.95,0.596c-16.866,0.198-30.359-13.493-30.359-30.559v-17.858
									c0-7.738,6.151-13.89,13.89-13.89l114.889,0.198c7.342,0,13.295,6.151,13.295,13.691v17.462
									C498.331,306.173,485.036,319.864,468.766,319.864z"/>
								<path fill="#D8DEE8" d="M432.453,335.143l-11.707,0.198c-16.271,0.198-29.367-13.097-29.367-29.565l0,0
									c0-16.47,13.096-29.765,29.367-29.765h11.707c16.072,0,28.971,13.097,28.971,29.367l0,0
									C461.424,321.65,448.526,334.945,432.453,335.143z"/>
								
									<linearGradient id="SVGID_74_" gradientUnits="userSpaceOnUse" x1="107.9495" y1="440.8748" x2="173.3513" y2="440.8748" gradientTransform="matrix(1.9843 0 0 1.9843 147.8117 -590.1697)">
									<stop  offset="0" style="stop-color:#444B8C"/>
									<stop  offset="0.9964" style="stop-color:#26264F"/>
								</linearGradient>
								<path fill="url(#SVGID_74_)" d="M470.948,305.974l-87.308,0.396c-11.906,0-21.629-9.723-21.629-21.629v-7.937
									c0-7.738,6.151-13.89,13.691-13.89l102.785,0.198c7.342,0,13.295,6.151,13.295,13.691v7.738
									C491.982,296.45,482.656,305.974,470.948,305.974z"/>
								<path fill="#D8DEE8" d="M409.436,287.124c0.794-1.19,1.389-2.58,1.389-3.969c0-4.763-4.96-8.532-11.111-8.532
									s-11.112,3.77-11.112,8.532c0,1.389,0.596,2.778,1.39,3.969H409.436z"/>
								<path fill="#D8DEE8" d="M464.797,287.124c0.794-1.19,1.389-2.58,1.389-3.969c0-4.763-4.961-8.532-10.913-8.532
									c-5.953,0-10.914,3.77-10.914,8.532c0,1.389,0.596,2.778,1.39,3.969H464.797z"/>
								
									<linearGradient id="SVGID_75_" gradientUnits="userSpaceOnUse" x1="90.908" y1="440.9744" x2="96.6854" y2="440.9744" gradientTransform="matrix(1.9843 0 0 1.9843 147.8117 -590.1697)">
									<stop  offset="0" style="stop-color:#444B8C"/>
									<stop  offset="0.9964" style="stop-color:#26264F"/>
								</linearGradient>
								<path fill="url(#SVGID_75_)" d="M339.59,270.654v28.573c0,2.183-0.198,4.167-0.794,5.755
									c-1.19,2.381-2.579,3.969-4.763,3.969c-3.373,0-5.952-4.366-5.952-9.724v-28.573c0-5.357,2.579-9.921,6.151-9.921
									c1.389,0,2.579,0.595,3.571,1.785c0.198,0.397,0.198,0.596,0.396,0.992C339.392,265.495,339.59,267.876,339.59,270.654z"/>
								
									<linearGradient id="SVGID_76_" gradientUnits="userSpaceOnUse" x1="182.9329" y1="440.824" x2="188.7561" y2="440.824" gradientTransform="matrix(1.9843 0 0 1.9843 147.8117 -590.1697)">
									<stop  offset="0" style="stop-color:#444B8C"/>
									<stop  offset="0.9964" style="stop-color:#26264F"/>
								</linearGradient>
								<path fill="url(#SVGID_76_)" d="M516.586,307.959L516.586,307.959c-3.175,0-5.754-4.167-5.754-9.524v-27.78
									c0-5.357,2.579-9.524,5.754-9.524l0,0c3.175,0,5.755,4.365,5.755,9.524v27.78
									C522.341,303.593,519.761,307.959,516.586,307.959z"/>
							</g>
							<path display="inline" fill="#FFFFFF" d="M489.6,412.927c0,0.198-0.198,0.396-0.198,0.794l-1.389,4.563
								c-2.58,8.334-4.961,16.866-7.54,25.2c-5.159,17.263-17.66,30.954-33.336,37.899c-6.746,2.977-14.088,4.763-21.827,4.961
								c-24.208,0.794-45.638-14.485-52.979-37.899c-2.778-9.128-5.755-18.256-8.532-27.582l-1.39-4.563
								c0-0.198-0.198-0.396-0.198-0.794c-3.77-11.905-1.587-25.002,5.953-35.121c3.175-4.564,7.342-8.136,11.905-10.914
								c5.755-3.571,12.501-5.357,19.446-5.556l53.972-0.794c12.104-0.198,23.414,5.557,30.558,15.279
								C491.188,388.52,493.172,401.219,489.6,412.927z"/>
							<polygon display="inline" fill="#D8DEE8" points="489.402,413.72 488.013,418.086 363.996,420.863 362.608,416.3 							"/>
							<path display="inline" opacity="0.3" fill="#D8DEE8" enable-background="new    " d="M433.247,335.143
								c7.937,5.159,16.668,9.524,25.597,12.897c-9.921,2.977-20.835,4.763-32.146,4.961c-40.479,0.396-75.203-19.645-87.506-48.02
								c-1.19,2.381-2.777,3.969-4.762,3.969c-3.373,0-6.151-4.366-6.151-9.724v-28.573c0-5.357,2.579-9.921,6.151-9.921
								c1.389,0,2.579,0.595,3.571,1.785c8.731-24.01,33.534-42.86,64.488-49.21c2.977,10.517,2.778,23.415-2.579,39.686
								c-0.596,1.786-1.19,3.572-1.588,5.159c-0.396,1.588-0.793,3.175-0.991,4.763c-0.794,4.167-1.191,8.135-1.191,12.104
								c0,4.167,0.397,8.136,1.191,12.104c0,0.198,0,0.396,0.198,0.794c1.389,6.548,3.968,12.699,7.342,18.453
								c2.977,4.961,6.548,9.524,10.517,13.891C420.349,325.817,426.5,330.778,433.247,335.143z"/>
							<path display="inline" opacity="0.3" fill="#D8DEE8" enable-background="new    " d="M447.137,481.384
								c-6.746,2.977-14.088,4.763-21.827,4.961c-24.208,0.794-45.638-14.485-52.979-37.899c-2.778-9.128-5.755-18.256-8.532-27.582
								l-1.39-4.563c0-0.198-0.198-0.396-0.198-0.794c-3.77-11.905-1.587-25.002,5.953-35.121
								c3.175-4.564,7.342-8.136,11.905-10.914c0.198,13.295-2.183,28.375,16.271,46.035c1.587,1.39,3.175,2.977,4.96,4.365
								c4.564,3.771,9.922,7.541,16.668,11.311C449.716,450.032,457.654,468.288,447.137,481.384z"/>
						</g>
					</g>
				</g>
			</g>
		</g>
	</g>
</g>
<path fill="#D0D1DE" d="M557.487,284.757H448.999c-20.26,0-34.742-17.128-28.326-33.744c0.107-0.268,0.203-0.549,0.33-0.824
	c10.211-22.449,40.367-16.535,48.356-6.108c0,0-20.375-36.92,23.143-36.92c36.513,0,25.21,35.889,25.21,35.889
	s6.868-27.681,28.309-25.581c34.716,3.406,14.07,37.981,14.07,37.981s34.79-7.822,34.449,10.895
	C594.192,285.068,557.487,284.757,557.487,284.757z"/>
<path fill="#D0D1DE" d="M352.958,181.954h-66.121c-12.348,0-21.175-10.439-17.264-20.566c0.065-0.163,0.124-0.335,0.201-0.502
	c6.223-13.683,24.603-10.078,29.472-3.723c0,0-12.418-22.502,14.105-22.502c22.253,0,15.365,21.874,15.365,21.874
	s4.186-16.871,17.253-15.591c21.159,2.076,8.576,23.149,8.576,23.149s21.204-4.768,20.996,6.64
	C375.329,182.143,352.958,181.954,352.958,181.954z"/>
<path fill="#D0D1DE" d="M493.302,134.66H466.23c-5.056,0-8.67-4.274-7.068-8.421c0.026-0.066,0.05-0.137,0.082-0.206
	c2.548-5.602,10.073-4.126,12.066-1.524c0,0-5.084-9.213,5.775-9.213c9.111,0,6.291,8.956,6.291,8.956s1.714-6.907,7.064-6.383
	c8.663,0.85,3.511,9.478,3.511,9.478s8.682-1.952,8.597,2.719C502.461,134.738,493.302,134.66,493.302,134.66z"/>
<g>
	<g>
		<circle fill="#28C9D9" cx="332.685" cy="382.232" r="127.378"/>
		<circle fill="#213872" cx="332.686" cy="382.232" r="108.656"/>
		<g>
			<path fill="#FEFEFE" d="M332.807,384.964h-0.041c-1.172,0-2.118-0.951-2.118-2.119v-87.203c0-1.168,0.946-2.114,2.118-2.114
				h0.041c1.167,0,2.113,0.946,2.113,2.114v87.203C334.921,384.012,333.974,384.964,332.807,384.964z"/>
			<path fill="#FEFEFE" d="M334.668,383.999l-0.018,0.036c-0.559,1.027-1.839,1.415-2.866,0.856l-51.694-27.804
				c-1.028-0.559-1.411-1.838-0.856-2.865l0.022-0.041c0.555-1.027,1.839-1.412,2.867-0.856l51.69,27.808
				C334.839,381.686,335.222,382.97,334.668,383.999z"/>
		</g>
	</g>
	<g>
		<g>
			<rect x="369.745" y="386.724" fill="#D0D1DE" width="231.907" height="143.545"/>
			<polygon fill="#110239" points="485.698,464.861 601.652,393.089 601.652,386.724 369.745,386.724 369.745,393.089 			"/>
			<polygon fill="#D0D1DE" points="485.698,458.496 369.745,386.724 601.652,386.724 			"/>
		</g>
		<polygon opacity="0.32" fill="#B1B3C8" points="369.745,530.269 572.78,530.269 572.78,415.596 572.78,409.237 572.78,409.237 
			369.745,409.237 		"/>
		<g>
			<rect x="329.67" y="419.269" fill="#D0D1DE" width="231.903" height="143.545"/>
			<polygon fill="#110239" points="445.624,497.402 561.573,425.629 561.573,419.269 329.67,419.269 329.67,425.629 			"/>
			<polygon fill="#D0D1DE" points="445.624,491.041 329.67,419.269 561.573,419.269 			"/>
		</g>
	</g>
	<path fill="#E45940" d="M496.699,260.686l8.31-0.581l8.311-0.586c0,0,3.989,22.471,8.515,24.86c0,0,7.232,26.369-13.157,27.808
		c-24.675,1.735-16.923-25.689-16.923-25.689C495.902,283.5,496.699,260.686,496.699,260.686z"/>
	<path fill="#CC1C4A" d="M545.391,386.798l9.018-48.882c-1.252-22.061-4.262-43.815-4.262-43.815
		c-11.558-6.62-28.313-9.722-28.313-9.722l-0.146,0.116c-8.437,7.022-20.411,7.875-29.755,2.115l-0.18-0.113
		c0,0-17.697,5.485-28.213,13.655c0,0-1.279,12.557,1.363,27.854c2.194,12.699,5.182,25.252,9.271,37.475l7.132,21.317H545.391z"/>
	<path fill="#A01849" d="M545.391,386.798l9.018-48.882c-0.263-4.598-0.318-9.1-0.257-13.363
		c-12.744,19.186-27.743,37.948-51.933,31.824c-14.907-3.777-24.99-22.03-35.86-31.455c-0.797-0.689-1.582-1.342-2.361-2.004
		c0.374,1.927,0.744,3.947,1.092,6.039c2.072,12.42,5.12,24.674,9.117,36.618l7.101,21.223H545.391z"/>
	<g>
		<path fill="#F88667" d="M483.709,266.058c2.12-2.813,5.164,1.023,5.164,1.023s-4.852-14.707-1.515-21.539
			c3.338-6.832,15.905-4.245,15.905-4.245s12.081-4.323,16.343,1.978c4.265,6.297,1.515,21.534,1.515,21.534
			s2.483-4.222,4.971-1.739c2.493,2.487-3.14,9.6-4.465,10.501c0,0-7.703,17.211-14.843,17.712
			c-7.143,0.504-17.181-15.458-17.181-15.458C488.167,275.117,481.592,268.865,483.709,266.058z"/>
		<path fill="#110239" d="M506.781,247.012c0,0,9.445,0.982,10.832,5.922c0.679,2.398,0.309,5.075,0.028,7.504
			c-0.147,1.289-0.563,8.17-0.215,8.311c0.342,0.135,0.96-0.077,1.197-0.293c1.189-1.086,2.072-2.655,2.88-4.034
			c1.593-2.717,4.17-2.465,5.02-0.874c0,0,0.341-24.72-9.999-24.86C506.187,238.548,506.781,247.012,506.781,247.012z"/>
		<path fill="#110239" d="M500.709,247.44c0,0-9.213,2.298-9.897,7.382c-0.333,2.469,0.407,5.065,1.024,7.432
			c0.328,1.257,1.703,8.008,1.379,8.198c-0.32,0.185-0.961,0.058-1.226-0.123c-1.335-0.91-2.426-2.333-3.418-3.586
			c-1.96-2.47-4.476-1.857-5.093-0.163c0,0-3.802-24.432,6.415-26.018C500.114,238.976,500.709,247.44,500.709,247.44z"/>
	</g>
	<path fill="#F88667" d="M528.229,429.067c-0.752,1.396-4.242,3.339-3.231,5.4c0.51,1.036,3.664-0.804,4.394-1.602
		c1.028-1.122,8.271-10.559,9.519-13.354c0.976-2.189,1.897-4.321,2.952-6.313c-2.223-1.573-4.209-3.543-5.998-5.674
		c-3.406,1.238-7.062,3.052-10.412,4.205c-1.787,0.617-3.735,0.991-5.548,1.495c-1.145,0.32-3.56,0.73-3.784,2.208
		c-0.247,1.628,2.173,1.339,3.128,1.231c1.379-0.163,3.979-1.253,4.812,0.379c1.208,2.375-3.234,4.649-4.78,6.075
		c-1.435,1.319-6.624,5.325-3.124,5.971c0.739,0.135,6.107-3.763,6.942-4.268c-0.183,0.194-3.657,3.037-3.832,3.24
		c-0.921,1.055-3.525,3.188-2.898,4.399c1.338,2.595,7.165-3.475,8.046-4.277c0.012-0.011-2.23,2.407-2.223,2.397
		c-1.876,1.807-3.088,3.362-1.695,4.093C522.256,435.596,526.502,430.572,528.229,429.067z"/>
	<path fill="#CC1C4A" d="M529.126,408.931l11.641,8.852c0,0,40.512-43.385,37.555-60.506c-4.857-28.122-19.207-60.19-27.72-62.925
		c-3.535-1.136-7.577,13.219-2.875,33.513c0,0,8.34,29.895,7.814,33.012C555.014,364.002,529.126,408.931,529.126,408.931z"/>
	<g>
		<path fill="#F88667" d="M485.197,452.871c0.635,1.458,3.953,3.679,2.777,5.653c-0.587,0.987-3.585-1.104-4.248-1.955
			c-0.932-1.205-7.368-11.21-8.385-14.095c-0.792-2.258-1.536-4.461-2.43-6.53c2.346-1.388,4.485-3.186,6.445-5.165
			c3.295,1.516,6.793,3.62,10.032,5.045c1.735,0.761,3.641,1.292,5.402,1.944c1.118,0.416,3.493,1.021,3.598,2.514
			c0.113,1.64-2.279,1.157-3.222,0.967c-1.363-0.274-3.862-1.578-4.823-0.012c-1.402,2.265,2.835,4.896,4.263,6.444
			c1.322,1.433,6.17,5.853,2.625,6.205c-0.745,0.077-5.78-4.249-6.567-4.822c0.163,0.207,3.393,3.329,3.55,3.542
			c0.83,1.128,3.251,3.471,2.53,4.626c-1.548,2.472-6.86-4.053-7.67-4.923c-0.01-0.013,2.027,2.583,2.018,2.569
			c1.723,1.956,2.802,3.605,1.353,4.218C490.615,459.871,486.792,454.516,485.197,452.871z"/>
		<path fill="#CC1C4A" d="M484.482,432.88l-11.01,7.332c0,0-38.021-46.857-34.248-63.82c6.188-27.835,16.715-70.42,25.226-76.938
			c2.948-2.257,12.402,15.594,11.705,26.749c0,0-14.09,55.605-13.71,58.747C462.817,388.095,484.482,432.88,484.482,432.88z"/>
	</g>
	<path fill="#110239" d="M520.134,241.64c0,0,0.208-3.777-4.093-6.116c-4.295-2.338-12.844-3.389-19.617,0
		c-6.774,3.385-8.83,4.151-10.808,3.024c-1.975-1.131-0.725-2.258-0.725-2.258s-4.436-0.041-4.221,6.842
		c0.218,6.882,8.676,15.427,19.729,15.427C517.281,258.559,522.743,246.76,520.134,241.64z"/>
</g>
</svg>
