<?xml version="1.0" encoding="utf-8"?>
<!-- Generator: Adobe Illustrator 22.0.0, SVG Export Plug-In . SVG Version: 6.00 Build 0)  -->
<svg version="1.1" id="Layer_1" xmlns="http://www.w3.org/2000/svg" xmlns:xlink="http://www.w3.org/1999/xlink" x="0px" y="0px"
	 viewBox="0 0 4000 4000" style="enable-background:new 0 0 4000 4000;" xml:space="preserve">
<style type="text/css">
	.st0{opacity:5.000000e-02;}
	.st1{fill:#B2B2B2;}
	.st2{fill:#707070;}
	.st3{fill:#FFFFFF;}
	.st4{opacity:0.3;}
	.st5{fill:#1D1D1B;}
	.st6{opacity:0.55;}
	.st7{opacity:0.4;}
	.st8{fill:#000072;}
	.st9{fill:#9D9D9C;}
	.st10{fill:none;stroke:#000072;stroke-width:19.975;stroke-linecap:round;stroke-linejoin:round;stroke-miterlimit:10;}
	.st11{opacity:0.5;}
	.st12{opacity:0.25;}
	.st13{fill:#E2E2E2;}
	.st14{fill:#A9A9A9;}
	.st15{fill:#252525;}
	.st16{fill:#DA2037;}
	.st17{fill:#530F1E;}
	.st18{fill:#F8BC04;}
	.st19{fill:#A44322;}
</style>
<g>
	<g>
		<g class="st0">
			<g>
				<g>
					<g>
						<g>
							<ellipse class="st1" cx="1672" cy="3624" rx="796.5" ry="87.4"/>
						</g>
					</g>
				</g>
			</g>
		</g>
		<g>
			<g>
				<g>
					<g>
						<g>
							<path class="st2" d="M2428,2548.4c-2.5,0-5-3.9-6.2-10.7c-1.7-9.5-0.3-21.1,3.1-25.8c79.2-110.6,152.8-364.8,197-680.1
								c49.3-351.9,56.4-734.2,20.1-1076.5c-1.1-10.2,1-20.9,4.7-23.9c3.6-3,7.5,2.8,8.6,13c37.1,350.5,29.8,741.7-20.5,1101.4
								c-45.4,323.9-121.5,585.8-203.6,700.6C2430.1,2547.7,2429.1,2548.4,2428,2548.4z"/>
						</g>
					</g>
				</g>
			</g>
		</g>
		<g>
			<g>
				<g>
					<g>
						<g>
							<g>
								<g>
									<path class="st3" d="M1511.3,3559.6c12.4,34.5,47.8,54.8,84,48.8c63.5-10.5,115.4-45.8,155.1-107
										c30.2-46.5,53.3-107.9,69.2-184.9c3.2-15.3-1.2-31.2-11.7-42.8l-118.4-131.5l-189.8,319.6c-0.1,0.5-0.1,0.9-0.1,1.4
										C1497.2,3497.5,1500.7,3529.8,1511.3,3559.6z"/>
								</g>
							</g>
						</g>
					</g>
				</g>
				<g class="st4">
					<g>
						<g>
							<g>
								<g>
									<path class="st1" d="M1511.3,3559.6c12.4,34.5,47.8,54.8,84,48.8c63.5-10.5,115.4-45.8,155.1-107
										c20.6-41,37.1-90.9,49.2-150c3.2-15.3-1.2-31.2-11.7-42.8L1669.5,3177l-169.9,286.1
										C1497.2,3497.5,1500.7,3529.8,1511.3,3559.6z"/>
								</g>
							</g>
						</g>
					</g>
				</g>
				<g>
					<g>
						<g>
							<g>
								<g>
									<path class="st5" d="M1582.7,3621.9c-36.8,0-70.4-22.8-83.1-58.1c-11-30.6-15.1-65.3-12.3-103.1c0.1-1.9,0.7-3.8,1.7-5.5
										l189.8-319.6c2-3.4,5.6-5.7,9.5-6.1c4-0.4,7.9,1.1,10.5,4.1l118.4,131.5c13.1,14.6,18.6,34.7,14.7,53.7
										c-37.2,180.5-116,282.1-234.4,301.7C1592.5,3621.5,1587.5,3621.9,1582.7,3621.9z M1512,3465.5
										c-2.1,33.2,1.6,63.4,11.1,89.9c10.3,28.6,39.8,45.7,70.2,40.7c107.1-17.8,179.2-112.7,214-282.1c2.3-11.3-1-23.3-8.8-32
										l-107-118.9L1512,3465.5z"/>
								</g>
							</g>
						</g>
					</g>
				</g>
			</g>
			<g>
				<g>
					<g>
						<g>
							<g>
								<g>
									<path class="st3" d="M1140.2,2642.7c-3.9,71.5-1.8,210.3,67.1,364.8c59.7,133.9,143.5,220.8,195.1,266.9l164.8-329.6
										C1424.8,2844.1,1282.5,2743.4,1140.2,2642.7z"/>
								</g>
							</g>
						</g>
					</g>
				</g>
				<g>
					<g>
						<g>
							<g>
								<g>
									<path class="st5" d="M1402.3,3286.9c-3,0-6-1.1-8.3-3.2c-85.5-76.7-152.2-167.9-198.1-271.1
										c-82.8-186.1-75.9-360.7-55.5-474.4c0.8-4.6,4.1-8.3,8.5-9.7c4.4-1.4,9.2-0.3,12.5,3l414.5,404.5c3.9,3.8,4.9,9.7,2.4,14.5
										L1413.5,3280c-1.7,3.5-5,5.9-8.8,6.7C1403.9,3286.8,1403.1,3286.9,1402.3,3286.9z M1161.1,2566
										c-16.4,110-17.1,268.4,57.6,436.4c42.3,95.1,102.8,179.7,179.9,251.6l153.3-306.6L1161.1,2566z"/>
								</g>
							</g>
						</g>
					</g>
				</g>
				<g class="st4">
					<g>
						<g>
							<g>
								<g>
									<path class="st5" d="M1230,2917.4c35,89.9,204.7,159.8,214.7,344.6l109.9-259.7L1230,2917.4z"/>
								</g>
							</g>
						</g>
					</g>
				</g>
			</g>
			<g>
				<g>
					<g>
						<g>
							<g>
								<g>
									<path class="st3" d="M660.8,2541.7c11.4,38.2,37.2,80.1,90.1,100.2c59.7,22.7,189.6,56.1,320-3c1.5-0.7,3.1-1.4,4.6-2.2
										c125.4-58.5,185.6-161.5,206-204.2c5.8-12,8.4-19.3,8.4-19.3L1190,2228l-53.3-98.7c0,0-13.7,25.9-35.2,61
										c-10.6,17.4-23.2,37.1-36.9,57c-28.9,41.9-62.8,84.8-94.8,109.7c-5.7,4.4-11.4,8.3-17,11.5c-54.7,31.4-103.6,2.7-119.1-1.9
										C711.9,2330,633.5,2449.8,660.8,2541.7z"/>
								</g>
							</g>
						</g>
					</g>
				</g>
				<g>
					<g>
						<g>
							<g>
								<g>
									<path class="st3" d="M660.8,2541.7c11.4,38.2,37.2,80.1,90.1,100.2c59.7,22.7,189.6,56.1,320-3c1.5-0.7,3.1-1.4,4.6-2.2
										c3-13.7,4.8-27.6,4.8-41.6c0-55.1-28.4-105.8-55.9-153.6c-16.8-29.1-33.8-58.4-54.8-84.4c-5.7,4.4-11.4,8.3-17,11.5
										c-54.7,31.4-103.6,2.7-119.1-1.9C711.9,2330,633.5,2449.8,660.8,2541.7z"/>
								</g>
							</g>
						</g>
					</g>
				</g>
				<g class="st4">
					<g>
						<g>
							<g>
								<g>
									<path class="st5" d="M1177.6,2205.1l12.4,23l100.1,185.2c0,0-2.6,7.2-8.4,19.3c-20.7,43.1-82.1,148.2-210.7,206.4
										c-130.5,59-260.4,25.7-320,3c-53-20.1-78.8-62.1-90.1-100.2c-3.2-10.8-5-22-5.4-33.3c23.1-1.7,53.1-8.3,81.9-13
										c36.9-6,53.7-7.2,75-1.5c13.2,3.5,27,7.2,38.2,18.4c27.5,27.4,6.1,65.5,25,84.9c23.8,24.4,97.3,4.8,144.8-35
										c61.7-51.7,70.5-130.3,74.9-169.8c7.8-70.1-8-127.2-20-159.8c3.1-7.3,10.3-20.7,25-30
										C1122.2,2188.8,1152.1,2190,1177.6,2205.1z"/>
								</g>
							</g>
						</g>
					</g>
				</g>
				<g>
					<g>
						<g>
							<g>
								<g>
									<path class="st5" d="M913,2685c-74.1,0-135.7-19-167.1-30.9c-61-23.2-86.8-71.7-97.7-108.3
										c-15.8-53.2,0.8-116.1,41.4-156.5c38.3-38.2,91.9-50.6,147-34c2.8,0.8,5.9,2.1,9.8,3.7c20.2,8.1,57.9,23.2,99.4-0.6
										c77.5-44.4,178.1-232.4,179.1-234.3c2.2-4.1,6.4-6.6,11-6.6c0,0,0,0,0,0c4.6,0,8.8,2.5,11,6.6l153.5,283.9
										c1.7,3.1,2,6.8,0.8,10.2c-2.3,6.4-58.2,157-225.7,232.8C1019.2,2676.3,963.2,2685,913,2685z M789,2373
										c-30.9,0-59.1,11.6-81.6,34c-34.3,34.2-48.4,87.1-35.1,131.7c9.3,31.2,31.1,72.5,82.6,92.1c49.7,18.9,179.5,56.5,310.4-2.7
										c140.9-63.8,199.4-187.1,210.5-213.5L1135.9,2156c-29.1,51.4-109,184.8-177.6,224.1c-52,29.8-98.7,11.1-121.1,2.1
										c-3.2-1.3-6-2.4-7.7-2.9C815.6,2375,802,2373,789,2373z"/>
								</g>
							</g>
						</g>
					</g>
				</g>
				<g>
					<g>
						<g>
							<g>
								<g>
									<path class="st5" d="M1070.4,2651.9c-2,0-3.9-0.5-5.8-1.4c-6.1-3.2-8.5-10.7-5.3-16.8c35.3-67.4-63.9-213.6-105-264.3
										c-4.3-5.4-3.5-13.2,1.8-17.6c5.3-4.4,13.2-3.5,17.6,1.8c6.5,8,157.9,195.9,107.8,291.6
										C1079.2,2649.5,1074.8,2651.9,1070.4,2651.9z"/>
								</g>
							</g>
						</g>
					</g>
				</g>
				<g>
					<g>
						<g>
							<g>
								<g>
									<path class="st3" d="M691,2628.6c0,0,65.6,50.2,107.3,14.4c41.7-35.8,52.9-255.5,9-292.1c-28.8-24-98.5-21.7-135.2,1.2
										c-36.6,22.9-32.7,69.9-31.2,102.4C644.3,2523.2,626,2586.9,691,2628.6z"/>
								</g>
							</g>
						</g>
					</g>
				</g>
				<g class="st6">
					<g>
						<g>
							<g>
								<g>
									<path class="st3" d="M641,2454.4c-1.5-32.5-5.5-79.5,31.2-102.4c36.6-22.9,106.3-25.2,135.2-1.2
										c6.1,5.1,11.2,13.9,15.2,25.2c-0.1-0.1-0.1-0.2-0.2-0.2c-28.8-24-98.5-21.7-135.2,1.2c-36.6,22.9-32.7,69.9-31.2,102.4
										c2.2,46.4-5.4,90.6,9.5,127.1C631.4,2566,643.7,2512,641,2454.4z"/>
								</g>
							</g>
						</g>
					</g>
				</g>
				<g class="st4">
					<g>
						<g>
							<g>
								<g>
									<path class="st5" d="M798.3,2643c-41.7,35.8-107.3-14.4-107.3-14.4c-32.9-21.1-44.4-47.8-48.2-77.9
										c5.4,5.4,11.8,10.5,19.3,15.3c0,0,65.6,50.2,107.3,14.4c31-26.6,45.1-154.4,32.4-233.5c2,1.2,3.9,2.6,5.6,4
										C851.2,2387.5,840,2607.2,798.3,2643z"/>
								</g>
							</g>
						</g>
					</g>
				</g>
				<g>
					<g>
						<g>
							<g>
								<g>
									<path class="st5" d="M762.2,2668.4c-37.5,0-73.6-26-78.4-29.6c-57-36.8-56-90.6-55.1-142.7c0.2-13.4,0.5-27.3-0.2-41.1
										l-0.2-4c-1.7-33.3-4.2-83.7,37.2-109.6c38.6-24.1,115.3-28.9,149.8-0.2c27.6,23.1,32.2,91.2,32.5,129.8
										c0.5,69.8-12.3,156.4-41.4,181.4C792.8,2664.2,777.4,2668.4,762.2,2668.4z M698.5,2618.7c0.8,0.6,58.2,43.5,91.6,14.9
										c18.5-15.9,33.2-88.7,32.7-162.2c-0.5-67.7-13-102-23.5-110.8c-23.9-19.9-87-18.8-120.6,2.2c-28.9,18.1-27,56.4-25.5,87.2
										l0.2,4c0.7,14.6,0.4,28.9,0.2,42.7c-0.9,51.5-1.6,92.2,44,121.5C698,2618.3,698.3,2618.5,698.5,2618.7z"/>
								</g>
							</g>
						</g>
					</g>
				</g>
				<g>
					<g>
						<g>
							<g>
								<g>
									<path class="st3" d="M882.6,2397.5c0,0-34.7-79.4-88.5-56.8c-36.6,15.3-59.2,118.1-19.9,128.1c30.6,7.8,45.3-46,45.3-46
										s-10.1,67.8,37.5,93.8"/>
								</g>
							</g>
						</g>
					</g>
				</g>
				<g>
					<g>
						<g>
							<g>
								<g>
									<path class="st5" d="M880.9,2398.3c-27-18.1-45.2-58.1-80.8-45c-25.7,12-44.3,77-27.7,100.2c16.2,14.3,31.3-20.5,34.4-34.3
										c4.2-15.4,26.8-11.5,25.7,4.3c-1.9,32.2,1.1,67.2,25.3,91.3c1.5,1.3,0.1,3.9-1.8,3.4c-40.7-10.5-55.9-59.6-49.5-97.4
										l25.6,5.4c-5.5,15.8-11.6,29.4-23.1,42.2c-4,4.3-9.1,8-14.4,10.6c-13.6,6.1-31.3,2.7-40.9-8.8c-20.7-26.3-12.3-65.4-2.8-94
										c8.4-23.3,24.4-48.4,51.5-52.3c34.5-6.5,66.6,20.7,78.2,50.1C882,2376.3,888.8,2402.2,880.9,2398.3L880.9,2398.3z"/>
								</g>
							</g>
						</g>
					</g>
				</g>
			</g>
			<g>
				<g>
					<g>
						<g>
							<g>
								<g>
									<path class="st3" d="M1152.6,2750.1c12,48.2,27.7,95.1,53.8,137.9c2.9,4.7,5.9,9.4,9,14.1c0.1,0.1,0.2,0.3,0.3,0.4
										c5.2,7.6,10.7,15,16.7,22.3c43,47.8,102.3,73.6,170.7,79.3c1,0.1,2.1,0.1,3.1,0.3c1.9,0.1,3.9,0.3,5.9,0.4
										c-19.2,38.2-33.3,76.6-42.4,115c-6.8,28.2-10.9,56.5-12.5,84.8c-58.1-5.6-99.4,12.4-124.9,55.8c-0.4,0.7-0.8,1.4-1.1,2.1
										c-2.9,5.3-5.1,11.1-6.5,17c-8.9,38.8-2.5,77.7,14.7,114.3c0.1,0.2,0.2,0.4,0.3,0.6c43.4,91.2,154.8,167.1,265.2,185.7
										c18.9,3.2,38.3,1.6,56.1-4.7c8.5-2.9,16.6-7,24.2-12.1c37.1-25.1,65.7-66.2,82-121.2c2.9-9.8,5-19.9,7-30
										c9.6-48.3,26.4-96.9,50.6-146.3c18.1-36.8,40.3-74,66.8-111.8c13.9-19.9,30-38.1,47.1-55.2
										c64.2-64.2,112.2-141.8,142.8-233.8c42.5-147.7-4.7-428.6-44.9-699.1l-314.3-18.5l-449.7-26.5
										C1145.1,2361.5,1126.2,2589.2,1152.6,2750.1z"/>
								</g>
							</g>
						</g>
					</g>
				</g>
				<g>
					<g>
						<g>
							<g>
								<g>
									<path class="st3" d="M1505.1,3580c25.7,4.3,52.3-0.1,74.6-13.2c1.9-1.1,3.8-2.3,5.6-3.5c37.1-25.1,65.7-66.2,82-121.2
										c2.9-9.8,5-19.9,7-30c9.6-48.3,26.4-96.9,50.6-146.3c-61.4-76.2-149.3-132.6-246.2-145.1c-36.1-4.6-72.6-3.2-108.9-0.9
										c-6.8,28.2-10.9,56.5-12.5,84.8c-58.1-5.6-99.4,12.4-124.9,55.8c-3.5,5.9-6.1,12.4-7.6,19.2c-0.8,3.7-1.5,7.4-2.1,11.1
										C1202.2,3422.8,1354.4,3554.7,1505.1,3580z"/>
								</g>
							</g>
						</g>
					</g>
				</g>
				<g>
					<g>
						<g>
							<g>
								<g>
									<path class="st5" d="M1236.5,2921.3c49,44.5,111.4,67.8,176.8,71c8.7,0.5,14.2,10.4,10.2,18
										c-15.3,30.4-27.8,62.1-36.9,94.8c-9.1,32.6-14.8,66.2-16.7,100c-0.4,7.1-6.6,12.4-13.7,11.7c-21.7-2-43.6-0.9-62.9,6.4
										c-27.5,10.4-52.8,35.6-57.5,65.7c-20.9,133.9,127.6,243.6,244,272.9c37.5,10.4,73.1,11.5,105-13.6
										c12.8-9.9,24.4-21.4,34-34.5c27.4-35.9,39.1-79.7,47.6-123.7c16.4-68.9,46.3-134.3,83.1-194.4c4.5-7.5,14.2-22.3,19-29.7
										c19-29.6,42.2-57.4,67.4-82.1c55.4-56.8,98.1-125.6,125.8-199.9c4-10.5,8-21,10.3-31.9c4-15,7-34,9.2-49.4
										c2.8-27.6,4.9-57.4,4.6-85.2c-1.3-184.7-35.4-367.2-61.4-549.8c0,0,11.6,10.6,11.6,10.6l-764-44.9l13.1-11
										c-21.5,207.4-49.3,418.3-20,625.9c2.2,16.4-21.8,20-24.7,3.9c-16.4-105.4-14.4-211.8-8.8-317.6
										c6-105.5,16.8-210.4,28.7-315c0.8-6.6,6.6-11.4,13.1-11l764,44.9c6,0.4,10.8,4.9,11.6,10.6
										c13.6,91.6,27.9,183.1,39.8,275.2c11.7,92.4,22.1,185,21.9,278.4c-0.3,49.7-3.8,100.3-16.8,149.8
										c-6.4,19.8-13.9,39.1-22.2,58.1c-28.4,65-68.4,125-117.9,175.8c-15.8,15.8-31.8,32.8-45.1,50.7
										c-9.5,12.9-20,28.5-28.8,42.2c-39.8,62.3-72,129.8-89.1,201.7c-5.1,22.4-9.1,46.7-17.7,68.6
										c-23.1,66.6-84.7,139.7-163.7,128.7c-124.5-19.6-260.8-107.7-295.5-234.6c-7.5-33.4-8.8-71.1,6.7-102.5
										c28.3-51.9,82.3-70.3,138.1-64c0,0-13.7,11.7-13.7,11.7c3.8-71.2,24.2-141.2,56.2-204.7l10.5,18.1
										c-34.9-1.7-69.9-9.4-101.8-24.1c-16-7.3-31.3-16.2-45.1-27.1c-13.8-10.8-26.1-23.5-36.1-37.6c-1.7-2.4-1.1-5.8,1.3-7.5
										C1231.9,2919.4,1234.7,2919.7,1236.5,2921.3L1236.5,2921.3z"/>
								</g>
							</g>
						</g>
					</g>
				</g>
				<g>
					<g>
						<g>
							<g>
								<g>
									<path class="st5" d="M1397.7,3006.3c26.8-42.2,61.2-82.5,106-106.1c5.7-2.9,11.4,4.7,6.9,9.3c-16.4,18-33.5,34.4-49.1,52.9
										c-15.5,18.2-29.5,37.5-42.8,57.4C1409.5,3032.9,1389.7,3020.3,1397.7,3006.3L1397.7,3006.3z"/>
								</g>
							</g>
						</g>
					</g>
				</g>
				<g>
					<g>
						<g>
							<g>
								<g>
									<path class="st5" d="M1352.9,3191.6c49.6,7.4,97.6,28.2,137.3,58.3c2.4,1.8,3,5.2,1.2,7.6c-1.7,2.3-4.8,2.9-7.2,1.5
										c-41-25-86.4-40-134.2-42.6C1332.8,3214.7,1335.7,3189.2,1352.9,3191.6L1352.9,3191.6z"/>
								</g>
							</g>
						</g>
					</g>
				</g>
				<g>
					<g>
						<g>
							<g>
								<g>
									<path class="st5" d="M1722.7,3282.7c-3.7,0-7.3-1.6-9.8-4.7c-93.8-118.6-193.3-158.2-343.4-136.7
										c-6.8,1-13.2-3.8-14.1-10.6c-1-6.8,3.8-13.2,10.6-14.1c158.1-22.7,267.7,20.9,366.6,145.9c4.3,5.4,3.4,13.3-2,17.5
										C1728.2,3281.9,1725.4,3282.7,1722.7,3282.7z"/>
								</g>
							</g>
						</g>
					</g>
				</g>
				<g>
					<g>
						<g>
							<g>
								<g>
									<path class="st5" d="M1522.7,3590.9c-7.6,0-16.4-0.6-26.8-2c-28.4-3.8-56.3-12.5-83-25.9c-4.9-2.5-6.9-8.5-4.5-13.4
										c2.5-4.9,8.5-6.9,13.4-4.5c24.7,12.4,50.6,20.5,76.8,24c32.2,4.3,45.9,0.1,54.1-4c4.9-2.5,12.3-6.2,16.3-11.8
										c11.3-15.9-0.5-50.8-35.2-103.6c-37.9-57.8-82.7-90.6-112.4-112.3c-43.5-31.8-80.5-49.6-110.1-53.1
										c-21.1-2.5-50.1-5.8-66.4,11.8c-14.8,15.9-16,45-3.2,74.1c2.2,5-0.1,10.9-5.1,13.2c-5,2.2-10.9-0.1-13.2-5.1
										c-16-36.4-13.4-73.9,6.8-95.7c23.3-25.1,59.4-20.9,83.4-18.1c12.3,1.4,49.8,5.8,119.6,56.8
										c30.8,22.5,77.4,56.6,117.3,117.4c17.8,27.2,59.6,91,34.7,126.1c-6.9,9.7-17.4,15-23.6,18.1
										C1553.8,3586.9,1542.6,3590.9,1522.7,3590.9z"/>
								</g>
							</g>
						</g>
					</g>
				</g>
				<g>
					<g>
						<g>
							<g>
								<g>
									<path class="st5" d="M1464.8,3576.5c-3.1,0-6.1-1.4-8.1-4.1c-3.3-4.5-2.3-10.7,2.2-14l104.4-76.2c4.5-3.3,10.7-2.3,14,2.2
										c3.3,4.5,2.3,10.7-2.2,14l-104.4,76.2C1468.9,3575.9,1466.8,3576.5,1464.8,3576.5z"/>
								</g>
							</g>
						</g>
					</g>
				</g>
				<g>
					<g>
						<g>
							<g>
								<g>
									<path class="st5" d="M1380.7,3545.3c-3,0-6-1.3-7.9-3.9c-3.4-4.4-2.5-10.6,1.9-14l146.5-112.3c4.4-3.3,10.6-2.5,14,1.9
										c3.4,4.4,2.5,10.6-1.9,14l-146.5,112.3C1385,3544.6,1382.8,3545.3,1380.7,3545.3z"/>
								</g>
							</g>
						</g>
					</g>
				</g>
				<g>
					<g>
						<g>
							<g>
								<g>
									<path class="st5" d="M1320.5,3504c-3,0-5.9-1.3-7.9-3.9c-3.4-4.4-2.6-10.6,1.8-14l158.9-123.1c4.3-3.4,10.6-2.6,14,1.8
										c3.4,4.4,2.6,10.6-1.8,14l-158.9,123.1C1324.8,3503.3,1322.7,3504,1320.5,3504z"/>
								</g>
							</g>
						</g>
					</g>
				</g>
				<g>
					<g>
						<g>
							<g>
								<g>
									<path class="st5" d="M1265.7,3446.8c-2.9,0-5.8-1.3-7.7-3.7c-3.5-4.3-2.8-10.6,1.4-14.1l145.7-118.7
										c4.3-3.5,10.6-2.8,14.1,1.4c3.5,4.3,2.8,10.6-1.4,14.1L1272,3444.5C1270.1,3446.1,1267.9,3446.8,1265.7,3446.8z"/>
								</g>
							</g>
						</g>
					</g>
				</g>
				<g>
					<g>
						<g>
							<g>
								<g>
									<path class="st5" d="M1235,3381.8c-2.6,0-5.2-1-7.1-3c-3.9-3.9-3.8-10.3,0.2-14.1l95.9-93.8c3.9-3.9,10.3-3.8,14.1,0.2
										c3.9,3.9,3.8,10.3-0.2,14.1l-95.9,93.8C1240.1,3380.8,1237.6,3381.8,1235,3381.8z"/>
								</g>
							</g>
						</g>
					</g>
				</g>
				<g class="st7">
					<g>
						<g>
							<g>
								<g>
									<g>
										<path class="st1" d="M1505.1,3580c25.7,4.3,52.3-0.1,74.6-13.2c6.9-12.2,5.9-27.5,3-41.3c-3.6-17-9.8-33.5-18-48.7
											c-12.3-22.8-29.2-42.7-46-62.4c-20.5-24.2-41.1-48.4-65.6-68.5c-16.5-13.4-34.5-24.9-52.7-35.9
											c-24.3-14.7-49.5-29.1-77.5-34.5c-14.6-2.8-29.5-3.1-44.3-3.4c-6.5-0.1-13-0.3-19.4,0.6c-13.8,1.9-26.2,8.5-36.4,18
											C1202.2,3422.8,1354.4,3554.7,1505.1,3580z"/>
									</g>
								</g>
							</g>
						</g>
					</g>
				</g>
				<g class="st4">
					<g>
						<g>
							<g>
								<g>
									<g>
										<path class="st8" d="M1514.7,2908.4c-3.2,0.1-6.3,0.6-9.2,1.3L1514.7,2908.4z"/>
									</g>
								</g>
							</g>
						</g>
					</g>
				</g>
				<g class="st4">
					<g>
						<g>
							<g>
								<g>
									<g>
										<path class="st9" d="M1210.1,2893c1.7,3,3.6,6,5.4,9.1c0.1,0.1,0.2,0.3,0.3,0.4c5.2,7.6,10.7,15,16.7,22.3
											c43,47.8,102.3,73.6,170.7,79.3c1,0.1,2.1,0.1,3.1,0.3c13.2-8.4,25-19,34.7-31.9c16.5-21.7,31.2-51.2,55.4-57.7l-1,0.1
											c28.8-28.1,65.4-49.6,104.8-51.4c39.4-1.7,80.9,19.5,96.9,57.2c14.6,34.5,5.8,75.4-11.2,108.7
											c-17.1,33.3-41.6,61.6-61.2,93.4c-37.3,61-55,134.7-49.6,206.8c1.2,16.6,3.6,33.8-1.5,49.6c-5.2,15.8-21,29.3-36.3,24.7
											c-6.4-1.9-11.8-6.6-16.9-11.2c-68.2-61.7-144-124.6-234-132.3c-17.6-1.5-36.6-0.3-52.5,7c-2.8,5.3-4.9,11.1-6.2,17
											c-8.1,37-2.9,74.2,11.9,109.3c0.1,0.2,0.2,0.4,0.3,0.6c43.4,91.2,154.8,167.1,265.2,185.7c18.9,3.2,38.3,1.6,56.1-4.7
											c4-2,7.9-4.4,11.7-7.1c35.5-25.1,62.9-66.2,78.5-121.2c2.7-9.8,4.8-19.9,6.7-30c9.2-48.3,25.3-96.9,48.5-146.3
											c17.3-36.8,38.7-74,63.9-111.8c13.3-19.9,28.7-38.1,45.1-55.2c61.5-64.2,107.5-141.8,136.8-233.8
											c40.7-147.7-4.5-428.6-43-699.1l-301-18.5c-0.2,0.5-0.3,0.9-0.5,1.4c-20.8,59.6-30.4,123.2-54.4,181.5
											c-24,58.3-67.3,113.3-126.7,126.6c44,14.7,93.7,10.2,134.6-12.2c22.9-12.6,43-30.5,66.3-42.3
											c23.3-11.9,52.2-17.1,74.6-3.5c30.1,18.2,35.8,60.6,35.8,97c-0.1,63.7-7.8,127.4-22.8,189.3c-4.2,17.5-9.2,35.3-19.6,49.6
											c-23.9,33.3-68.5,39.9-108.1,43.7c-58.3,5.7-116.6,11.4-174.8,17.1c23.1-1.3,42.2,25.9,39.3,50.4
											c-3,25.5-22.7,45.7-44.3,58c-43.2,24.6-96.5,24.8-143.4,9.2C1245.3,2911.9,1227.3,2903.3,1210.1,2893z"/>
									</g>
								</g>
							</g>
						</g>
					</g>
				</g>
				<g>
					<g>
						<g>
							<g>
								<g>
									<path class="st10" d="M1689.5,2777.5"/>
								</g>
							</g>
						</g>
					</g>
				</g>
				<g>
					<g>
						<g>
							<g>
								<g>
									<g>
										<path class="st3" d="M1986.8,2546.9c-33.4,18.8-66.6,33.2-99.5,41.8l15,129.8c34.3-5.3,66.2-14,93.9-28.7
											C1995.2,2644.5,1991.8,2596.5,1986.8,2546.9z"/>
									</g>
								</g>
							</g>
						</g>
					</g>
					<g class="st4">
						<g>
							<g>
								<g>
									<g>
										<path class="st5" d="M1946.3,2614.7c-0.8-16.4-1.9-33.2-3.2-50.2c10.4-5.3,20.7-11.2,31.1-17.6c4.2,46.7,7.2,91.9,8,134.6
											c-23.7,13.8-51,22.1-80.4,27l-2.7-25.8c0.9-0.2,1.7-0.5,2.6-0.7C1929.2,2674.1,1947.9,2645.9,1946.3,2614.7z"/>
									</g>
								</g>
							</g>
						</g>
					</g>
					<g>
						<g>
							<g>
								<g>
									<g>
										<path class="st3" d="M1837.4,2608.6c3.3,39.9,6.7,79.9,10,119.9c-17.1,6.9-37.2,13.7-60,19.1c-26,6.2-49.6,9.4-69.8,10.8
											c-3.3-38.3-6.7-76.6-10-114.9C1750.8,2632,1794.1,2620.3,1837.4,2608.6z"/>
									</g>
								</g>
							</g>
						</g>
					</g>
					<g class="st4">
						<g>
							<g>
								<g>
									<g>
										<path class="st5" d="M1749.7,2715.8c11.1-2.8,21.5-5.9,31.1-9.2c12.5-4.3,20.5-16.9,19.4-30.5
											c-1.6-19.9-3.2-39.7-4.8-59.6c9.5-2.6,18.9-5.3,28.4-7.9c2.9,36,5.8,71.9,8.7,107.9c-14.9,6.2-32.4,12.3-52.3,17.2
											c-22.6,5.6-43.2,8.4-60.8,9.7c-0.6-7.1-1.2-14.2-1.8-21.3C1727.7,2720.7,1738.4,2718.6,1749.7,2715.8z"/>
									</g>
								</g>
							</g>
						</g>
					</g>
					<g>
						<g>
							<g>
								<g>
									<g>
										<path class="st3" d="M1632.7,2658.6l10,109.9c-151,25.5-292.2,30.2-414.5-5l-5-114.9
											C1345.5,2667.4,1484.9,2667.6,1632.7,2658.6z"/>
									</g>
								</g>
							</g>
						</g>
					</g>
					<g class="st11">
						<g>
							<g>
								<g>
									<g>
										<path class="st3" d="M1632.7,2673.6c-147.5,9-286.7,8.8-408.8-9.9l-0.7-15.1c122.3,18.8,261.7,19,409.5,10l10,109.9
											c-0.4,0.1-0.9,0.1-1.3,0.2L1632.7,2673.6z"/>
									</g>
								</g>
							</g>
						</g>
					</g>
					<g class="st4">
						<g>
							<g>
								<g>
									<g>
										<path class="st5" d="M1230,2649.5l1.5,77.8c98.2,32.4,210.8,33.9,331.5,17.9c22.2-2.9,38.4-21.8,37.1-43.4l-2.7-42.8
											c6.9-0.4,13.7-0.7,20.7-1.1l9.6,101.8c-145.6,23.6-281.7,28-399.7-4.6l-4.8-106.4
											C1225.4,2648.9,1227.8,2649.2,1230,2649.5z"/>
									</g>
								</g>
							</g>
						</g>
					</g>
					<g>
						<g>
							<g>
								<g>
									<g>
										<path class="st3" d="M1183.2,2638.6l5,109.9l-41-21.3c-4.9-33.9-7.5-67.9-9.2-102L1183.2,2638.6z"/>
									</g>
								</g>
							</g>
						</g>
					</g>
					<g class="st4">
						<g>
							<g>
								<g>
									<g>
										<path class="st5" d="M1147.2,2697.3l39.6,20.5l1.4,30.7l-41-21.3c-4.9-33.9-7.5-67.9-9.2-102l1.8,0.5
											C1141.6,2649.7,1143.8,2673.5,1147.2,2697.3z"/>
									</g>
								</g>
							</g>
						</g>
					</g>
					<g>
						<g>
							<g>
								<g>
									<g>
										<path class="st5" d="M1902.3,2728.5c-2.2,0-4.3-0.7-6.1-2c-2.2-1.6-3.6-4.1-3.9-6.8l-15-129.8c-0.6-4.9,2.6-9.6,7.4-10.8
											c30.5-7.9,63.1-21.7,97.1-40.8c2.9-1.7,6.5-1.7,9.5-0.2c3,1.6,5,4.5,5.3,7.9c5.4,54.4,8.5,101.4,9.4,143.7
											c0.1,3.8-2,7.3-5.3,9c-26.4,14-58.2,23.8-97.1,29.8C1903.3,2728.5,1902.8,2728.5,1902.3,2728.5z M1898.2,2596l12.8,110.9
											c29.4-5.2,54.1-12.9,75-23.2c-1-36.2-3.5-75.9-7.7-120.9C1950.5,2577.7,1924.1,2588.6,1898.2,2596z"/>
									</g>
								</g>
							</g>
						</g>
					</g>
					<g>
						<g>
							<g>
								<g>
									<g>
										<path class="st5" d="M1717.5,2768.4c-5.1,0-9.5-3.9-9.9-9.1l-10-114.9c-0.4-4.8,2.7-9.3,7.4-10.5l129.8-35
											c2.9-0.8,5.9-0.2,8.3,1.5c2.4,1.7,4,4.4,4.2,7.3l10,119.9c0.4,4.4-2.2,8.5-6.2,10.1c-19.9,8-40.6,14.6-61.4,19.6
											c-23.4,5.6-47.4,9.3-71.4,11.1C1718,2768.4,1717.8,2768.4,1717.5,2768.4z M1718.2,2651.1l8.4,96.6
											c19.6-1.9,39.2-5.1,58.4-9.7c17.5-4.2,34.9-9.6,51.8-16l-8.4-100.5L1718.2,2651.1z"/>
									</g>
								</g>
							</g>
						</g>
					</g>
					<g>
						<g>
							<g>
								<g>
									<g>
										<path class="st5" d="M1463.2,2797.4c-79.3,0-159-8.1-237.1-24.1c-4.5-0.9-7.8-4.8-8-9.3l-5-114.9c-0.1-3,1.1-5.8,3.3-7.8
											c2.2-2,5.1-2.9,8.1-2.5c64,9,129.3,14.2,194,15.3c70.9,1.3,142.5-2.2,213-10.4c2.7-0.3,5.4,0.5,7.5,2.2
											c2.1,1.7,3.4,4.2,3.6,6.9l10,119.9c0.4,5.2-3.2,9.9-8.4,10.7c-54.9,8.6-110.8,13.3-166.1,14
											C1473.1,2797.4,1468.2,2797.4,1463.2,2797.4z M1237.8,2755.2c79.1,15.7,159.8,23.2,240,22.1
											c51.3-0.7,103.1-4.8,154.1-12.3l-8.4-100.3c-68,7.4-137,10.6-205.4,9.4c-61.5-1.1-123.5-5.8-184.5-13.9L1237.8,2755.2z"/>
									</g>
								</g>
							</g>
						</g>
					</g>
					<g>
						<g>
							<g>
								<g>
									<g>
										<path class="st5" d="M1188.2,2758.5c-1.6,0-3.2-0.4-4.6-1.1l-41-21.3c-2.9-1.5-4.8-4.3-5.3-7.4
											c-4.3-30.1-7.3-62.8-9.3-102.9c-0.2-3.2,1.3-6.3,3.8-8.4c2.5-2,5.9-2.6,9-1.7l45.2,13.4c4.1,1.2,6.9,4.9,7.1,9.1l5,109.9
											c0.2,3.6-1.6,6.9-4.6,8.9C1192,2757.9,1190.1,2758.5,1188.2,2758.5z M1156.4,2720.7l21,10.9l-3.9-85.5l-24.8-7.3
											C1150.6,2669.8,1153.1,2696.3,1156.4,2720.7z"/>
									</g>
								</g>
							</g>
						</g>
					</g>
					<g>
						<g>
							<g>
								<g>
									<g>
										<path class="st3" d="M1487.8,2648.6c0,49.9,0,99.9,0,149.8c-26.1,3.8-58.7,6.3-96,4.3c-36.7-2-68.4-7.9-93.8-14.3v-144.8
											c30.1,2.4,61.8,4.1,94.9,5C1426,2649.5,1457.7,2649.4,1487.8,2648.6z"/>
									</g>
								</g>
							</g>
						</g>
					</g>
					<g class="st11">
						<g>
							<g>
								<g>
									<g>
										<path class="st3" d="M1393,2648.6c33,0.9,64.7,0.8,94.9,0c0,5.1,0,10.2,0,15.3c-25.6,0.5-52.3,0.4-79.9-0.3
											c-33.1-0.9-64.8-2.6-94.9-5V2792c-5.2-1.1-10.2-2.3-15-3.5v-144.8C1328.2,2646,1359.9,2647.7,1393,2648.6z"/>
									</g>
								</g>
							</g>
						</g>
					</g>
					<g class="st4">
						<g>
							<g>
								<g>
									<g>
										<path class="st5" d="M1371.9,2782.8c37.3,2,69.8-0.5,96-4.3c0-43.1,0-86.3,0-129.4c6.7-0.1,13.4-0.2,20-0.4
											c0,49.9,0,99.9,0,149.8c-26.1,3.8-58.7,6.3-96,4.3c-36.7-2-68.4-7.9-93.8-14.3v-15.3
											C1319.5,2777.6,1344.2,2781.3,1371.9,2782.8z"/>
									</g>
								</g>
							</g>
						</g>
					</g>
					<g>
						<g>
							<g>
								<g>
									<g>
										<path class="st5" d="M1418,2813.4c-8.9,0-17.8-0.2-26.6-0.7c-32.2-1.7-64.4-6.6-95.7-14.6c-4.4-1.1-7.5-5.1-7.5-9.7
											v-144.8c0-2.8,1.2-5.4,3.2-7.3c2-1.9,4.8-2.8,7.6-2.6c31.2,2.5,63,4.1,94.4,5c31.4,0.8,63.1,0.8,94.4,0
											c2.7-0.1,5.3,0.9,7.2,2.8c1.9,1.9,3,4.5,3,7.2v149.8c0,5-3.6,9.2-8.6,9.9C1465.7,2811.7,1441.8,2813.4,1418,2813.4z
											 M1308.1,2780.6c27.7,6.6,56,10.6,84.3,12.2c28.4,1.5,57.1,0.5,85.4-3.1v-130.9c-28.3,0.6-56.9,0.5-85.2-0.2
											c-28.1-0.7-56.6-2.1-84.6-4.2L1308.1,2780.6L1308.1,2780.6z"/>
									</g>
								</g>
							</g>
						</g>
					</g>
				</g>
			</g>
			<g>
				<g>
					<g>
						<g>
							<g>
								<g>
									<path class="st3" d="M1822.2,2350.1c15.1,11.3,30.2,23.1,45.1,35.4c4.2,3.4,8.3,6.8,12.4,10.2c0.4,0.4,0.9,0.8,1.3,1.1
										c4.9,4,9.8,8.2,14.5,12.4c4.8,4.2,9.6,8.4,14.5,12.7c19.9,17.8,39.6,36.4,59.1,56c3.9,4,7.9,8.1,11.9,12.1
										c5.5,5.6,10.9,11.3,16.2,17.1c3.9,4.1,7.8,8.2,11.5,12.5c0.4,0.3,0.8,0.8,1.1,1.1c4.3,4.6,8.5,9.4,12.7,14.1
										c4,4.4,7.8,8.8,11.8,13.4c0.4,0.5,0.9,1,1.3,1.5c0.4,0.5,0.8,1,1.3,1.5c4.3,5.1,8.7,10.2,12.9,15.4
										c8.9,10.6,17.6,21.3,26.3,32.4c2.3,2.9,4.6,5.8,6.8,8.7c2.5,3.3,5.1,6.6,7.6,9.8c2.8,3.6,5.5,7.3,8.2,11
										c2.9,3.8,5.7,7.6,8.6,11.5c2.9,3.9,5.7,7.8,8.6,11.7c-2.4,5.4-4.5,10.7-6.4,15.9c-1.9,5.2-3.6,10.2-5,15.2
										c-9.1,31.5-9,57.7-3.4,78.2c0.4,1.2,0.7,2.4,1.1,3.7c0.8,2.4,1.6,4.7,2.5,6.9c1.3,3.4,2.8,6.5,4.5,9.4
										c1.1,2,2.3,3.9,3.5,5.7c1.2,1.7,2.5,3.4,3.7,5.1c0.7,0.9,1.3,1.7,2,2.4c0.7,0.8,1.4,1.5,2.1,2.3c0.7,0.7,1.4,1.4,2.1,2.1
										c0.5,0.4,0.9,0.8,1.3,1.1c0,0,0,0,0,0.1c1.7,1.5,3.5,3,5.3,4.3c0.8,0.5,1.6,1,2.3,1.5c1.5,1,3.1,1.9,4.7,2.8
										c3.1,1.6,6.4,2.9,9.7,3.8c0.8,0.2,1.7,0.4,2.5,0.6c1,0.3,2,0.5,3.1,0.6c0.9,0.1,1.7,0.2,2.6,0.3c2.1,0.2,4.3,0.2,6.4,0
										c0.5,0,1.1,0,1.6-0.1l0.1-0.1c0.9-0.1,2-0.2,2.9-0.4c0,0,0.1,0,0.1,0c1-0.2,2-0.5,3-0.8c1.7-0.4,3.6-1.1,5.3-1.8
										c34.3,35.1,70.4,53.9,108.2,56.3c3,0.2,6,0.3,9.1,0.3c0.1,0,0.1,0,0.1,0c6.1,0,12.2-0.5,18.3-1.3c1.5-0.3,3.1-0.5,4.7-0.8
										l0.1,0c6.3-1,12.6-2.7,18.5-4.7c2.6-0.9,5.2-1.9,7.7-3c2.6-1.1,5-2.2,7.5-3.5c1.2-0.6,2.5-1.3,3.7-1.9
										c2.4-1.3,4.8-2.7,7.1-4.2c3.4-2.2,6.8-4.5,10-7.1c2.1-1.7,4.3-3.5,6.3-5.2l0.1,0c31.4-27.8,57.8-57.8,77.8-90.9
										c3-5.1,6-10.2,8.7-15.5c1.3-2.6,2.7-5.2,4-7.9c0.9-1.8,1.7-3.5,2.5-5.3c0.5-1.2,1-2.5,1.5-3.7c0.6-1.7,1.3-3.5,1.9-5.3
										c0.6-1.6,1-3.2,1.6-4.8c0.5-1.9,1.1-3.9,1.5-5.8c0.3-1.3,0.6-2.7,0.9-4.1c0.3-1.6,0.6-3.2,0.9-4.9c0-0.1,0-0.2,0.1-0.3
										c0.3-1.6,0.5-3.2,0.7-4.9c0.2-2,0.4-4,0.5-6c0.1-1.3,0.2-2.5,0.2-3.7l0.1-2.1c0-1.5,0-2.9-0.1-4.4c0-1,0-2.1-0.1-3.1
										c-0.1-1.7-0.2-3.6-0.4-5.3c-0.8-8.1-2.3-16.2-4.8-24.2c-0.3-1.1-0.7-2.2-1.1-3.3c-4.6-14.8-10.1-29.3-16.2-43.6
										c-2.2-5.1-4.4-10.2-6.8-15.3c-3.1-6.4-6.3-12.8-9.8-19c-8.1-14.6-17.2-28.8-27.2-42.4c-4.8-6.5-9.7-12.8-14.9-19
										c-19-22.8-37.8-44.8-56.4-66.1c-1.4-1.5-2.7-3.1-4-4.6c-6.6-7.5-13.2-14.9-19.7-22.2c-4.8-5.5-9.6-10.7-14.4-16
										c-1.7-1.9-3.4-3.8-5.1-5.7l-0.1,0c-0.3-0.3-0.6-0.7-0.9-1c-4-4.5-8.1-8.9-12.1-13.2c-14-15.2-27.9-30-41.6-44.2
										c-1.1-1.1-2.1-2.1-3.1-3.2c-9.4-9.8-18.8-19.3-28.1-28.6c-0.1-0.1-0.2-0.2-0.3-0.3c-4.3-4.3-8.6-8.6-12.9-12.8
										c-12.9-12.7-25.6-24.8-38.2-36.4c-5-4.6-10-9.2-15-13.7c-5-4.5-9.9-8.9-14.8-13.3c-0.1,0-0.2-0.1-0.2-0.1
										c-3.3-2.8-6.5-5.7-9.7-8.4c-6.8-5.8-13.5-11.5-20.2-17.1c-6.2-5.1-12.2-10-18.3-14.8c-3.1-2.6-6.3-5-9.4-7.4
										c-3.2-2.4-6.3-4.8-9.4-7.2c-9.3-7.1-18.4-13.8-27.5-20.1c-3-2.1-6-4.2-9.1-6.2c-3-2.1-5.9-4.1-8.9-6c-3-2-5.9-3.9-8.9-5.7
										c-2.1-1.4-4.2-2.8-6.4-4c-0.7-0.5-1.5-1-2.3-1.5c-2.9-1.8-5.8-3.6-8.7-5.3c-2.8-1.7-5.7-3.4-8.6-5
										c-2.8-1.6-5.7-3.2-8.5-4.7c-2.8-1.6-5.6-3.1-8.4-4.6c-15-7.8-29.7-14.6-43.8-19.9c-2.1-0.8-4.1-1.6-6.1-2.3
										c-4.9-1.8-9.7-3.4-14.4-4.8c-5.2-1.6-10.2-3-15.2-4.2c-2.1-0.5-4.3-1-6.4-1.4c-0.7-0.2-1.4-0.3-2-0.4
										c-2.1-0.5-4.2-0.8-6.3-1.2c-2.5-0.4-4.9-0.9-7.2-1.2c-2-0.3-3.9-0.5-5.8-0.7c-0.9-0.1-1.8-0.2-2.7-0.3
										c-0.2,0-0.4,0-0.6-0.1c-1.7-0.2-3.4-0.3-5.1-0.4c-2.3-0.2-4.4-0.2-6.5-0.3c-6.7-0.1-13.2,0-19.5,0.7
										c-1.3,0.1-2.6,0.2-3.9,0.4c-0.4,0-0.8,0-1.2,0.1c-1.3,0.1-2.5,0.3-3.7,0.5c-4.8,0.7-9.4,1.6-13.9,2.8
										c-1.3,4.1-2.6,8.2-3.7,12.4C1766.8,2175.8,1774.4,2265.8,1822.2,2350.1z"/>
								</g>
							</g>
						</g>
					</g>
				</g>
				<g>
					<g>
						<g>
							<g>
								<g>
									<path class="st3" d="M2035.7,2550c0.4,0.5,0.8,1,1.3,1.5c4.3,5.1,8.7,10.2,12.9,15.4c8.9,10.6,17.6,21.3,26.3,32.4
										c2.3,2.9,4.6,5.8,6.8,8.7c2.5,3.3,5.1,6.6,7.6,9.8c2.8,3.6,5.5,7.3,8.2,11c2.9,3.8,5.7,7.6,8.6,11.5
										c2.9,3.9,5.7,7.8,8.6,11.7c-2.4,5.4-4.5,10.7-6.4,15.9c-1.9,5.2-3.6,10.2-5,15.2c-9.1,31.5-9,57.7-3.4,78.2
										c0.4,1.2,0.7,2.4,1.1,3.7c0.8,2.4,1.6,4.7,2.5,6.9c1.3,3.4,2.8,6.5,4.5,9.4c1.1,2,2.3,3.9,3.5,5.7c1.2,1.7,2.5,3.4,3.7,5.1
										c0.7,0.9,1.3,1.7,2,2.4c0.7,0.8,1.4,1.5,2.1,2.3c0.7,0.7,1.4,1.4,2.1,2.1c0.5,0.4,0.9,0.8,1.3,1.1c0,0,0,0,0,0.1
										c1.7,1.5,3.5,3,5.3,4.3c0.8,0.5,1.6,1,2.3,1.5c1.5,1,3.1,1.9,4.7,2.8c3.1,1.6,6.4,2.9,9.7,3.8c0.8,0.2,1.7,0.4,2.5,0.6
										c1,0.3,2,0.5,3.1,0.6c0.9,0.1,1.7,0.2,2.6,0.3c2.1,0.2,4.3,0.2,6.4,0c0.5,0,1.1,0,1.6-0.1l0.1-0.1c0.9-0.1,2-0.2,2.9-0.4
										c0,0,0.1,0,0.1,0c1-0.2,2-0.5,3-0.8c1.7-0.4,3.6-1.1,5.3-1.8c34.3,35.1,70.4,53.9,108.2,56.3c3,0.2,6,0.3,9.1,0.3
										c0.1,0,0.1,0,0.1,0c6.1,0,12.2-0.5,18.3-1.3c1.5-0.3,3.1-0.5,4.7-0.8l0.1,0c6.3-1,12.6-2.7,18.5-4.7c2.6-0.9,5.2-1.9,7.7-3
										c2.6-1.1,5-2.2,7.5-3.5c1.2-0.6,2.5-1.3,3.7-1.9c2.4-1.3,4.8-2.7,7.1-4.2c3.4-2.2,6.8-4.5,10-7.1c2.1-1.7,4.3-3.5,6.3-5.2
										l0.1,0c31.4-27.8,57.8-57.8,77.8-90.9c3-5.1,6-10.2,8.7-15.5c1.3-2.6,2.7-5.2,4-7.9c0.9-1.8,1.7-3.5,2.5-5.3
										c0.5-1.2,1-2.5,1.5-3.7c0.6-1.7,1.3-3.5,1.9-5.3c0.6-1.6,1-3.2,1.6-4.8c0.5-1.9,1.1-3.9,1.5-5.8c0.3-1.3,0.6-2.7,0.9-4.1
										c0.3-1.6,0.6-3.2,0.9-4.9c0-0.1,0-0.2,0.1-0.3c0.3-1.6,0.5-3.2,0.7-4.9c0.2-2,0.4-4,0.5-6c0.1-1.3,0.2-2.5,0.2-3.7l0.1-2.1
										c0-1.5,0-2.9-0.1-4.4c0-1,0-2.1-0.1-3.1c-0.1-1.7-0.2-3.6-0.4-5.3c-0.8-8.1-2.3-16.2-4.8-24.2c-0.3-1.1-0.7-2.2-1.1-3.3
										c-4.6-14.8-10.1-29.3-16.2-43.6c-2.2-5.1-4.4-10.2-6.8-15.3c-3.1-6.4-6.3-12.8-9.8-19c-8.1-14.6-17.2-28.8-27.2-42.4
										c-4.8-6.5-9.7-12.8-14.9-19c-19-22.8-37.8-44.8-56.4-66.1c-1.4-1.5-2.7-3.1-4-4.6c-6.6-7.5-13.2-14.9-19.7-22.2
										c-4.8-5.5-9.6-10.7-14.4-16c-1.7-1.9-3.4-3.8-5.1-5.7l-0.1,0c-0.3-0.3-0.6-0.7-0.9-1
										C2190.7,2396.5,2094.6,2460.7,2035.7,2550z"/>
								</g>
							</g>
						</g>
					</g>
				</g>
				<g class="st6">
					<g>
						<g>
							<g>
								<g>
									<g>
										<path class="st3" d="M2434.8,2755.8c2.9-5.4,5.6-10.8,8.2-16.3c1.3-2.8,2.6-5.5,3.7-8.4c0.8-1.9,1.6-3.7,2.3-5.6
											c0.5-1.3,0.9-2.6,1.4-3.9c0.6-1.8,1.1-3.7,1.7-5.5c0.5-1.7,0.9-3.4,1.4-5.1c0.5-2,0.9-4,1.3-6.1c0.3-1.4,0.5-2.8,0.7-4.3
											c0.3-1.7,0.5-3.4,0.7-5.1c0-0.1,0-0.2,0.1-0.3c0.2-1.7,0.4-3.4,0.5-5.1c0.1-2.1,0.2-4.1,0.3-6.2c0-1.3,0.1-2.6,0-3.9
											l0-2.1c-0.1-1.5-0.1-3.1-0.2-4.6c0-1-0.1-2.2-0.2-3.2c-0.1-1.8-0.3-3.7-0.6-5.5c-1.1-8.4-2.9-16.7-5.7-24.9
											c-0.4-1.1-0.8-2.2-1.2-3.4c-5.2-15.1-11.1-30-17.9-44.6c-2.4-5.2-4.8-10.4-7.4-15.6c-3.3-6.5-6.8-13-10.5-19.3
											c-8.6-14.9-18.3-29.2-28.9-42.9c-5.1-6.6-10.2-12.9-15.7-19.1c-19.9-22.9-39.6-45.1-59.1-66.4c-1.4-1.5-2.8-3.1-4.2-4.6
											c-6.9-7.5-13.8-15-20.6-22.3c-5.1-5.5-10.1-10.8-15-16c-1.1-1.2-2.1-2.3-3.2-3.4c9.5-2.7,19-5.1,28.6-7.1
											c0.3,0.3,0.6,0.7,0.9,1l0.1,0c1.7,1.8,3.4,3.7,5.1,5.7c4.7,5.2,9.5,10.5,14.4,16c6.5,7.3,13.1,14.7,19.7,22.2
											c1.3,1.5,2.6,3.1,4,4.6c18.6,21.3,37.4,43.3,56.4,66.1c5.2,6.2,10.1,12.5,14.9,19c10,13.6,19.1,27.7,27.2,42.4
											c3.5,6.3,6.7,12.6,9.8,19c2.4,5.1,4.7,10.2,6.8,15.3c6.2,14.3,11.6,28.9,16.2,43.6c0.4,1.1,0.7,2.2,1.1,3.3
											c2.5,8,4.1,16.1,4.8,24.2c0.2,1.7,0.3,3.6,0.4,5.3c0.1,1,0.1,2.1,0.1,3.1c0.1,1.5,0.1,2.9,0.1,4.4l-0.1,2
											c0,1.2-0.1,2.5-0.2,3.7c-0.1,2-0.3,4-0.5,6c-0.2,1.6-0.4,3.2-0.7,4.9c-0.1,0.1-0.1,0.2-0.1,0.3c-0.3,1.6-0.6,3.2-0.9,4.9
											c-0.3,1.4-0.6,2.8-0.9,4.1c-0.5,1.9-1,3.9-1.5,5.8c-0.5,1.6-1,3.2-1.6,4.8c-0.6,1.8-1.3,3.5-1.9,5.3
											c-0.5,1.2-1,2.5-1.5,3.7c-0.8,1.8-1.6,3.5-2.5,5.3c-1.2,2.7-2.6,5.3-4,7.9c-2.7,5.2-5.7,10.4-8.7,15.5
											c-17.8,29.6-40.9,56.6-67.9,81.9C2404.4,2804.3,2421.3,2780.8,2434.8,2755.8z"/>
									</g>
								</g>
							</g>
						</g>
					</g>
				</g>
				<g class="st4">
					<g>
						<g>
							<g>
								<g>
									<g>
										<path class="st5" d="M1822.2,2350.1c15.1,11.4,30.2,23.1,45.1,35.4c4.2,3.4,8.3,6.8,12.4,10.3c0.4,0.3,0.9,0.7,1.3,1.1
											c4.9,4.1,9.7,8.2,14.5,12.4c4.8,4.2,9.7,8.4,14.5,12.7c19.9,17.8,39.6,36.4,59.1,56c3.9,4,7.9,8.1,11.9,12.1
											c5.5,5.6,10.9,11.3,16.2,17.1c3.9,4.1,7.7,8.3,11.5,12.5c0.4,0.4,0.8,0.8,1.1,1.1c4.3,4.7,8.5,9.4,12.7,14.1
											c4,4.4,7.8,8.9,11.8,13.4c0.9,1,1.7,2,2.6,3c4.4,5.1,8.6,10.2,13,15.3c8.9,10.6,17.6,21.4,26.3,32.4
											c2.3,2.8,4.6,5.7,6.8,8.6c2.5,3.3,5.1,6.6,7.6,9.8c2.8,3.6,5.6,7.3,8.3,11c2.8,3.8,5.7,7.7,8.6,11.5
											c2.9,3.9,5.7,7.8,8.5,11.7c-2.4,5.4-4.5,10.7-6.4,15.9c-1.9,5.2-3.6,10.2-5,15.2c-9.1,31.5-8.9,57.7-3.4,78.2
											c0.3,1.2,0.7,2.4,1.1,3.7c0.8,2.4,1.6,4.6,2.5,6.9c1.3,3.4,2.8,6.5,4.5,9.4c1.1,1.9,2.3,3.8,3.4,5.6
											c1.2,1.8,2.5,3.5,3.8,5.1c0.7,0.8,1.3,1.6,2,2.4c0.7,0.8,1.4,1.5,2.1,2.2c0.7,0.7,1.4,1.4,2.1,2.1
											c0.4,0.4,0.9,0.7,1.3,1.1c4.6-21.3,19.1-40.7,40.3-49.3c29.9-12.1,70.5,1.9,81.5,30.7c-6.2-8.9-16.7-13.7-28-14.8
											c-0.1,0-0.1,0-0.1,0c-11.7-1.1-24.2,1.9-33.4,8.8c-5.1,3.8-9.2,8.3-12.5,13.3c-5,7.5-8.1,16.1-9.6,25.1l-0.1,0
											c0,0,0,0,0,0.1c0.9-0.1,2-0.3,2.9-0.5c0,0,0.1,0,0.1,0c1-0.2,2-0.4,3-0.7c1.8-0.5,3.6-1.1,5.3-1.9
											c34.3,35.2,70.5,53.9,108.3,56.3c3,0.2,6,0.3,9.1,0.3c0.1,0,0.1,0,0.1,0c6.1,0,12.2-0.5,18.4-1.3c1.6-0.2,3.1-0.5,4.7-0.7
											l0.1,0c6.3-1,12.6-2.7,18.5-4.7c2.6-0.9,5.2-1.9,7.7-3c2.6-1.1,5-2.2,7.5-3.5c1.2-0.6,2.5-1.3,3.7-1.9
											c2.4-1.3,4.7-2.7,7-4.1c3.5-2.2,6.8-4.6,10-7.1c2.1-1.7,4.3-3.5,6.3-5.2l0.1,0c31.3-27.8,57.8-57.8,77.8-90.9
											c3-5.1,6-10.3,8.7-15.5c1.3-2.6,2.7-5.2,4-7.9c0.9-1.8,1.7-3.5,2.4-5.3c0.5-1.2,1-2.5,1.5-3.7c0.6-1.7,1.3-3.5,1.9-5.3
											c0.5-1.6,1-3.3,1.5-4.9c0.5-1.9,1.1-3.9,1.5-5.8c0.3-1.4,0.6-2.8,0.9-4.1c0.3-1.6,0.6-3.2,0.9-4.8c0-0.1,0-0.2,0.1-0.3
											c0.3-1.6,0.4-3.3,0.7-4.9c0.2-2,0.4-4,0.5-6c0.1-1.3,0.2-2.5,0.2-3.7c0-0.7,0-1.4,0-2.1c0-1.5,0-2.9,0-4.4
											c0-1,0-2.1-0.1-3.1c-0.1-1.8-0.2-3.6-0.4-5.3c-0.7-8.1-2.3-16.2-4.8-24.2c-0.3-1.1-0.7-2.2-1.1-3.3
											c-6.4,19-15.2,37.2-26.1,54.3c-26,40.4-75.9,76.5-123.9,60.5c-25.6-8.5-43.5-29.8-60.3-49.7
											c-59-69.8-123-136.3-183.5-205.2c-56.5-64.4-109.8-130.7-152.8-203.5c-25.4-43-46.2-98.3-15.8-137.8
											c20.6-26.7,56-35,92.9-36.3c-0.8-0.5-1.6-1-2.4-1.5c-2.9-1.8-5.8-3.6-8.7-5.3c-2.9-1.7-5.7-3.4-8.6-5
											c-2.9-1.7-5.7-3.3-8.5-4.8c-2.8-1.6-5.6-3.1-8.4-4.5c-15-7.9-29.6-14.6-43.8-20c-2.1-0.8-4.1-1.6-6.1-2.3
											c-4.9-1.8-9.7-3.4-14.4-4.8c-5.1-1.6-10.2-2.9-15.2-4.1c-2.1-0.6-4.3-1.1-6.4-1.5c-0.7-0.2-1.4-0.3-2.1-0.5
											c-2.1-0.5-4.2-0.8-6.3-1.2c-2.5-0.4-4.9-0.8-7.2-1.1c-2-0.3-3.9-0.6-5.8-0.7c-0.9-0.1-1.8-0.2-2.7-0.3
											c-0.2,0-0.4,0-0.7-0.1c-1.7-0.2-3.4-0.3-5.1-0.4c-2.2-0.2-4.4-0.2-6.5-0.3c-6.7-0.2-13.2,0-19.5,0.6
											c-1.3,0.1-2.6,0.2-3.9,0.4c-0.4,0-0.9,0.1-1.2,0.1c-1.2,0.1-2.5,0.3-3.7,0.5c-4.7,0.6-9.4,1.6-13.9,2.8
											c-1.3,4.2-2.6,8.3-3.7,12.4C1766.8,2175.8,1774.4,2265.8,1822.2,2350.1z"/>
									</g>
								</g>
							</g>
						</g>
					</g>
				</g>
				<g>
					<g>
						<g>
							<g>
								<g>
									<path class="st5" d="M1798,2048.9c68.4-18.2,149.4,16.2,213.8,57.2c44.2,27.9,85.6,60.7,124.9,94.8l3.6,5.9
										c-0.4-2.6-2.6-5.6-4.9-6.9l1.6,1.1c38.1,33.6,72.2,66.7,102.7,98c61.9,63.9,121.1,130.2,177.1,199.5
										c30.3,38.9,51.7,84.4,66.3,131.4c6.1,20.8,7.1,38.2,4.2,58.8l-1.9,4.7c1.7-2.1,2.5-6.1,1.7-8.8l0.2,4.4l-1.1,6
										c-6.3,29.6-23.2,55.7-40.4,80.1c-18.6,25.3-40.3,48-63.5,68.5c-1.5,1.4-3.4,2.2-5.2,2.6l5.3-2.7
										c-19,16.5-41.8,28.2-66.6,32.2c-8.3,1.4-16.2,2.1-24.7,2.1l2-0.2c-0.6,0.1-1.3,0.2-2,0.2c-24.2,0-48-6.3-69.3-17.5
										c-21.1-11-39.4-26.1-55.6-42.6l11.7,2.3c-8.5,3.4-22.6,8.1-25.7-4.1l12.1,7.9c-4.7,0.6-11.4,0.7-18.7-1.1l1,0.2
										c-8.4-1.7-16.1-5.5-23.2-10.4c-3-2.8-9-5.9-9.5-10.4c-0.1-0.2,3.1,5.2,3.1,5.2c-38.3-35.7-34.3-95.3-17.7-140.5
										c2.3-6.5,5.1-12.7,7.6-19.1l1,9.9c-31.7-44.2-66.1-87.5-102.2-128.4c-56.8-64.1-119-122.6-185.3-176.7
										c-1.4-1.1-1.6-3.1-0.5-4.4c1.1-1.2,2.9-1.4,4.2-0.5c35.7,26,71.6,52.1,103.9,82.3c25.5,23.3,53.3,48.1,77,73.2
										c42.8,44.7,82.5,93,119.1,142.9c2.2,3,2.4,6.7,1,9.9c-9.7,22.8-17.4,47.4-17.6,72.2c-0.5,23.3,6.1,48.3,23.4,63.9
										c1.6,1.4,2.7,3.3,3.1,5.3c0.1,0.2-3.2-5.4-3.2-5.3c8.4,7.5,18.4,11.9,29.9,11.4c-2.5-1.1,12,7.8,11.6,7.9
										c0,0-11.5-8-11.5-8c3.1-0.1,6.5-1.8,9.3-2.6c3.9-1.4,8.2-0.3,10.9,2.5c35.5,37.5,84.1,60.5,130.9,51.3
										c20.6-3.3,39.9-13.5,55.4-27.1c1.5-1.4,3.5-2.3,5.4-2.7l-5.2,2.6c27.8-24.7,52.7-52.2,72.4-83.5
										c9.1-15.2,18.5-31,22.7-48.2c0.8-2.8,1.5-7.2,2.1-10.1l0.2,4.4c-0.3-1.4-0.4-3.1-0.1-4.8c0.3-1.7,1-3.3,1.8-4.5l-1.9,4.7
										c0.6-4.8,1.1-9.1,1.2-14.1c0.1-6-0.3-12.4-1.2-18.2c-2.1-13.7-7.3-27-11.9-40.1c-13.3-35.9-30.9-70.2-54.4-100.4
										c-11.4-15.1-24.7-29.9-37.3-44.8c-25.1-29.6-51.3-60.1-77.6-88.5c-43.2-46.8-78.2-83.6-121-123.7
										c-13.2-12.8-26.9-25.2-40.6-37.4l1.6,1.1c-2.4-1.3-4.7-4.5-5.2-7.1l3.6,5.9c-41.4-36.3-84.1-70.6-130.9-99.5
										c-45.8-27.7-95.7-52.1-149.8-54.2c-7.7-0.3-15.4,0.4-22.7,1c0.4,0.1,0.9,0.1,1.4,0c-6,0.8-12.2,2.3-18.1,3.3
										C1789.4,2070.8,1784.9,2052,1798,2048.9L1798,2048.9z"/>
								</g>
							</g>
						</g>
					</g>
				</g>
				<g>
					<g>
						<g>
							<g>
								<g>
									<path class="st5" d="M2158.9,2807.9c-5.4-31.5,16.3-65.8,51.3-54.5c25.5,9.2,39.6,31.6,51.1,53.8c0.8,1.7,0.1,3.7-1.5,4.6
										c-1.5,0.8-3.4,0.2-4.3-1.2c-6.5-9.7-13.8-18.7-22-26.4c-24.9-24.4-59.4-22-50,19.2
										C2187.5,2820.9,2161.4,2825.7,2158.9,2807.9L2158.9,2807.9z"/>
								</g>
							</g>
						</g>
					</g>
				</g>
				<g>
					<g>
						<g>
							<g>
								<g>
									<path class="st5" d="M2041.8,2558.4c-2,0-4.1-0.5-6-1.6c-6-3.3-8.2-10.9-4.9-17c51.6-93,152.6-160.5,263.8-176.1
										c6.8-1,13.1,3.8,14.1,10.6s-3.8,13.1-10.6,14.1c-103.6,14.6-197.6,77.2-245.5,163.5
										C2050.4,2556.1,2046.2,2558.4,2041.8,2558.4z"/>
								</g>
							</g>
						</g>
					</g>
				</g>
			</g>
			<g>
				<g>
					<g>
						<g>
							<g>
								<g>
									<polygon class="st3" points="1809.4,2013.3 1809.4,2133.1 1519.8,2382.8 1310.1,2397.8 1150.3,2188.1 1165.3,2068.2 
																			"/>
								</g>
							</g>
						</g>
					</g>
				</g>
				<g class="st12">
					<g>
						<g>
							<g>
								<g>
									<g>
										<path class="st5" d="M1230.4,2235.5c42.9,59,119.2,87,192.2,86.5c12.2-0.1,24.5-0.9,36-5c14.8-5.3,27.3-15.8,37.9-27.5
											c9.5-10.5,18.1-23.3,17.7-37.4c-0.5-15.1-11.5-28.2-24.8-35.4s-28.5-9.6-43.4-11.9c42.7,4.6,83.6-16.3,125.8-23.6
											c14.3-2.5,29-3.4,43.1-6.9c11.2-2.7,22-7,32.8-11.3c16.6-6.6,33.2-13.2,49.8-19.8c-5.6,29.9-13,60-28.6,86.2
											c-19.3,32.3-49.8,56.3-80.4,78.2c-44.5,31.9-92.6,61.7-146.6,71c-76.3,13.1-159.9-21-201.3-86.4
											c-10-15.7-17.5-32.9-22.4-50.9"/>
									</g>
								</g>
							</g>
						</g>
					</g>
				</g>
				<g>
					<g>
						<g>
							<g>
								<g>
									<g>
										<path class="st3" d="M1140.3,2108.2c11.1,10.9,27.7,25.7,49.9,40c28.1,18,76.2,42,169.8,49.9c119,10,215.9-14,254.7-25
											c41.2-11.6,78.9-26.1,113-42h0.1c62.6-29.1,113.2-62.9,151.7-92.8c-5-18.3-10-36.6-15-54.9
											c-199.4,14.4-398.9,28.9-598.3,43.3c-30.3,2.2-60.6,4.4-90.9,6.6C1163.6,2058.2,1151.9,2083.2,1140.3,2108.2z"/>
									</g>
								</g>
							</g>
						</g>
					</g>
					<g class="st4">
						<g>
							<g>
								<g>
									<g>
										<path class="st5" d="M1170.5,2104.9c11.2,10.4,28.1,24.4,50.5,37.8c28.4,16.9,76.9,39.4,170.6,45.5
											c119.1,7.8,215.7-17,254.2-28.3c29.1-8.4,56.3-18.2,81.7-28.8h0.1c62.6-29.1,113.2-62.9,151.7-92.8
											c-5-18.3-10-36.6-15-54.9c-199.4,14.4-398.9,28.9-598.3,43.3c-20.6,1.8-41.2,3.5-61.8,5.3
											C1193.1,2056.3,1181.8,2080.6,1170.5,2104.9z"/>
									</g>
								</g>
							</g>
						</g>
					</g>
					<g>
						<g>
							<g>
								<g>
									<g>
										<path class="st5" d="M1417.7,2210.5c-18.9,0-38.4-0.8-58.5-2.5c-96.9-8.2-145.9-33.3-174.3-51.5
											c-18.5-11.8-35.8-25.7-51.6-41.3c-3-3-3.8-7.5-2-11.3l35-74.9c1.5-3.3,4.7-5.5,8.3-5.7l689.1-49.9
											c4.8-0.4,9.1,2.7,10.4,7.3l15,54.9c1.1,3.9-0.3,8-3.5,10.5c-81.3,63.3-171.5,109.2-268.1,136.6
											C1569.8,2196.2,1499.9,2210.5,1417.7,2210.5z M1152.3,2105.9c13.4,12.6,27.9,24,43.2,33.8c26.7,17,72.8,40.6,165.3,48.4
											c104.4,8.8,194.2-8.5,251.1-24.6c92.1-26,178.1-69.4,256-129l-11.1-40.6l-675.1,48.9L1152.3,2105.9z"/>
									</g>
								</g>
							</g>
						</g>
					</g>
				</g>
				<g>
					<g>
						<g>
							<g>
								<g>
									<path class="st3" d="M2024.2,2118.2v-12.3c0-14.1-7.1-27.4-18.8-35.2l-41.7-27.8c-11.1-7.4-24.3-11.5-37.6-10.8
										c-36.3,1.7-81.6,19.1-136,52.5c-61.6,37.8-115.3,87-160.6,143.2c-32.6,40.5-66.6,76.6-103.1,104.7
										c-29.6,22.8-65.9,34.7-103.2,34.2c-19.2-0.3-38.4-2-57.8-5.2c-28.1-4.6-54.4-17.3-75-37c-52.4-50.2-99.4-128.1-144.2-217.7
										c-1.7-3.3-4.7-5.8-8.3-6.6l0,0c-4.6-1.1-9.4,0.4-12.5,4l-35.2,41.1c-12.1,14.2-15.2,34.1-7.6,51.2
										c34.6,78.3,76.4,146.9,122.7,200c25.3,29.1,58.5,50.1,95.8,60.3c47.1,12.8,105.2,19,162.6,16.3
										c78.3-3.7,151.8-37.2,205.7-94.1C1775.7,2266.4,1863.1,2095.2,2024.2,2118.2z"/>
								</g>
							</g>
						</g>
					</g>
				</g>
				<g>
					<g>
						<g>
							<g>
								<g>
									<path class="st5" d="M1436.5,2483.6c-48.6,0-96.8-6-138.2-17.3c-39-10.6-73.8-32.5-100.7-63.4
										c-46.7-53.6-88.6-121.8-124.3-202.6c-9-20.4-5.4-44.7,9.2-61.7l35.2-41.1c5.5-6.5,14.1-9.3,22.4-7.3
										c6.5,1.6,11.9,5.9,14.9,11.9c51.4,103.1,96.6,171.4,142.1,215c18.9,18.1,43,30,69.7,34.4c19,3.1,38,4.8,56.4,5.1
										c0.7,0,1.4,0,2.2,0c34.3,0,67.8-11.4,94.8-32.1c32.6-25.1,65.8-58.9,101.4-103c48-59.6,102.9-108.6,163.2-145.5
										c55.4-34,102.8-52.1,140.8-53.9c15.2-0.7,30.3,3.6,43.6,12.5l41.7,27.8c14.6,9.7,23.3,26,23.3,43.5v12.3
										c0,2.9-1.3,5.6-3.4,7.5c-2.2,1.9-5.1,2.8-8,2.3c-119.3-17-195.4,76.5-276,175.5c-22.7,27.9-46.2,56.7-70.3,82.2
										c-55.8,58.9-131.2,93.4-212.5,97.2C1454.8,2483.3,1445.6,2483.6,1436.5,2483.6z M1134.8,2109.6c-0.7,0-1.5,0.3-2,0.9
										l-35.3,41.1c-9.6,11.3-12,27.2-6.1,40.6c34.4,77.8,76.3,146.1,121.1,197.5c24.3,27.8,55.7,47.6,90.8,57.2
										c47.3,12.9,104,18.5,159.5,15.9c76.1-3.6,146.8-35.9,199-91c23.6-24.9,46.8-53.5,69.3-81.1
										c78.2-96.1,158.9-195.3,282.9-184v-1.1c0-10.8-5.4-20.9-14.4-26.9l-41.7-27.8c-9.6-6.4-20.8-9.7-31.6-9.1
										c-34.6,1.6-78.8,18.8-131.3,51c-58.3,35.7-111.5,83.2-158.1,141c-36.6,45.4-70.9,80.2-104.8,106.3
										c-31.1,23.9-70,36.7-109.4,36.3c-19.4-0.3-39.3-2.1-59.3-5.4c-30.7-5-58.4-18.7-80.3-39.7
										c-47.2-45.2-93.7-115.3-146.2-220.5c-0.3-0.7-1-1.2-1.7-1.4C1135.2,2109.7,1135,2109.6,1134.8,2109.6z"/>
								</g>
							</g>
						</g>
					</g>
				</g>
				<g>
					<g>
						<g>
							<g>
								<g>
									<ellipse class="st3" cx="1402.5" cy="2283" rx="82.4" ry="39.9"/>
								</g>
							</g>
						</g>
					</g>
				</g>
				<g class="st4">
					<g>
						<g>
							<g>
								<g>
									<path class="st5" d="M1385,2302.9c38.6,0,69.9-12.3,69.9-27.5c0-15.2-31.3-27.5-69.9-27.5c-11.5,0-22.4,1.1-32,3.1
										c13.8-5,30.9-8.1,49.5-8.1c45.5,0,82.4,17.9,82.4,39.9s-36.9,39.9-82.4,39.9c-43.4,0-78.9-16.3-82.1-37
										C1330.9,2295.9,1355.8,2302.9,1385,2302.9z"/>
								</g>
							</g>
						</g>
					</g>
				</g>
				<g>
					<g>
						<g>
							<g>
								<g>
									<path class="st5" d="M1402.5,2330.4c-50.4,0-89.9-20.8-89.9-47.4s39.5-47.4,89.9-47.4s89.9,20.8,89.9,47.4
										S1452.9,2330.4,1402.5,2330.4z M1402.5,2250.5c-44.1,0-74.9,17.1-74.9,32.5s30.8,32.5,74.9,32.5s74.9-17.1,74.9-32.5
										S1446.6,2250.5,1402.5,2250.5z"/>
								</g>
							</g>
						</g>
					</g>
				</g>
				<g class="st11">
					<g>
						<g>
							<g>
								<g>
									
										<ellipse transform="matrix(0.995 -9.960274e-02 9.960274e-02 0.995 -219.3223 148.0037)" class="st3" cx="1372.6" cy="2270.5" rx="22.5" ry="7.5"/>
								</g>
							</g>
						</g>
					</g>
				</g>
				<g>
					<g>
						<g>
							<g>
								<g>
									
										<ellipse transform="matrix(0.866 -0.5 0.5 0.866 -804.13 1212.3994)" class="st5" cx="1860.2" cy="2106.7" rx="19.4" ry="12.5"/>
								</g>
							</g>
						</g>
					</g>
				</g>
				<g>
					<g>
						<g>
							<g>
								<g>
									
										<ellipse transform="matrix(0.7399 -0.6728 0.6728 0.7399 -1021.6733 1740.8372)" class="st5" cx="1740.2" cy="2191.5" rx="19.4" ry="12.5"/>
								</g>
							</g>
						</g>
					</g>
				</g>
				<g>
					<g>
						<g>
							<g>
								<g>
									
										<ellipse transform="matrix(0.7399 -0.6728 0.6728 0.7399 -1128.2799 1704.8209)" class="st5" cx="1640.3" cy="2311.4" rx="19.4" ry="12.5"/>
								</g>
							</g>
						</g>
					</g>
				</g>
				<g>
					<g>
						<g>
							<g>
								<g>
									
										<ellipse transform="matrix(0.8983 -0.4394 0.4394 0.8983 -899.4781 916.7482)" class="st5" cx="1530.5" cy="2401.3" rx="19.4" ry="12.5"/>
								</g>
							</g>
						</g>
					</g>
				</g>
				<g>
					<g>
						<g>
							<g>
								<g>
									<ellipse class="st5" cx="1390.8" cy="2416.3" rx="19.4" ry="12.5"/>
								</g>
							</g>
						</g>
					</g>
				</g>
				<g>
					<g>
						<g>
							<g>
								<g>
									
										<ellipse transform="matrix(0.6083 -0.7937 0.7937 0.6083 -1388.1818 1919.7935)" class="st5" cx="1251" cy="2366.4" rx="12.5" ry="19.4"/>
								</g>
							</g>
						</g>
					</g>
				</g>
				<g>
					<g>
						<g>
							<g>
								<g>
									
										<ellipse transform="matrix(0.7833 -0.6216 0.6216 0.7833 -1156.1143 1226.3566)" class="st5" cx="1181.1" cy="2271.5" rx="12.5" ry="19.4"/>
								</g>
							</g>
						</g>
					</g>
				</g>
				<g>
					<g>
						<g>
							<g>
								<g>
									
										<ellipse transform="matrix(0.9716 -0.2368 0.2368 0.9716 -480.9774 328.278)" class="st5" cx="1126.2" cy="2166.5" rx="12.5" ry="19.4"/>
								</g>
							</g>
						</g>
					</g>
				</g>
				<g class="st12">
					<g>
						<g>
							<g>
								<g>
									<g>
										<path class="st5" d="M1083.5,2155.2c0.3,0.9,0.6,1.8,1,2.7c34.6,79,76.2,148.3,122.4,201.9c25.3,29.3,58.4,50.6,95.5,60.8
											c47,13,105,19.1,162.2,16.4c78.1-3.7,151.5-37.5,205.3-95c40-42.7,77.3-93.7,116.8-139.6l-1.7,0.9
											c9-8.4,15.6-19.3,18.9-31.1c4.6-16.6,1.7-36.6-11.8-47.1c-14.8-11.6-36-8.2-54.3-4.3c29.5-25.1,64.2-43.4,98.6-61.4
											c3.7-1.9,7.4-3.9,11.1-5.7c13.8-7,27.9-13.4,42.3-19c9.3-3.6,18.9-7,28.8-6.8c13.4,0.3,25.8,7,37.5,13.5
											c15.5,8.7,31.3,17.5,44.3,29.6c2.2,2,4.2,4.2,6.2,6.4c2.3,0.1,4.6,0.2,6.9,0.4c6.8,7.6,10.7,17.6,10.7,28.1v3.4
											c0.6,2.5,1.1,5,1.4,7.6c-0.5-0.1-0.9-0.2-1.4-0.3v1.6c-7.8-1.1-15.5-1.8-23-2c-14.1,2.2-28.3,7.4-42.5,9.1
											c-9.4,1.1-18.9,0.8-28.1,2.8c-2.4,0.5-4.7,1.2-6.9,2c-0.4,0.1-0.7,0.3-1.1,0.4c-0.3,0.1-0.6,0.2-0.9,0.4
											c-2.9,1.2-5.8,2.5-8.7,3.8c-3.1,1.6-6.2,3.2-9.2,4.9c-19.9,11.4-38.8,24.4-56.6,38.9c-64.3,55.4-118.1,137.2-178,200.4
											c-53.9,56.9-127.5,90.4-205.7,94.1c-57.4,2.7-115.5-3.4-162.6-16.3c-37.2-10.1-70.4-31.2-95.8-60.3
											c-46.3-53.2-88.1-121.8-122.7-200C1076.5,2183,1077.1,2167.9,1083.5,2155.2z"/>
									</g>
								</g>
							</g>
						</g>
					</g>
				</g>
			</g>
			<g>
				<g>
					<g>
						<g>
							<g>
								<g>
									<g>
										<path class="st13" d="M1159.1,1021.5l-18.5-174.8c128.8-102,308.7-116.4,483-51.1l18.5,174.8L1159.1,1021.5z"/>
									</g>
								</g>
							</g>
						</g>
					</g>
					<g class="st6">
						<g>
							<g>
								<g>
									<g>
										<path class="st3" d="M1174.8,861.7c120.5-95.4,285.7-114.1,449.2-62.7l-0.4-3.4c-174.4-65.3-354.3-50.9-483,51.1
											l18.5,174.8l32.2-3.4L1174.8,861.7z"/>
									</g>
								</g>
							</g>
						</g>
					</g>
					<g class="st12">
						<g>
							<g>
								<g>
									<g>
										<path class="st5" d="M1208.7,803.2c84.3-13.6,175.3-9,265.2,13.2c16.3,4,28.3,18,30.1,34.7l12.1,114l-358.8,38l1.9,18.4
											l483-51.1l-18.5-174.8C1478.2,741.2,1328.9,742.2,1208.7,803.2z"/>
									</g>
								</g>
							</g>
						</g>
					</g>
					<g>
						<g>
							<g>
								<g>
									<g>
										<path class="st5" d="M1159.1,1034c-2.8,0-5.6-1-7.9-2.8c-2.6-2.1-4.2-5.1-4.6-8.4l-16.1-152c-2-19.1,6.5-37.8,22.3-48.8
											c120.9-84.5,285-101.5,450.3-46.8c19.4,6.4,33.4,23.8,35.5,44.4l15.8,149.6c0.7,6.9-4.2,13-11.1,13.7l-483,51.1
											C1160,1034,1159.6,1034,1159.1,1034z M1415,768.6c-92.1,0-177.7,24.9-247.7,73.8c-8.3,5.8-12.8,15.7-11.8,25.7l14.8,139.6
											l458.2-48.5l-14.5-137.1c-1.1-10.8-8.4-19.9-18.5-23.3C1534.2,778.6,1473.3,768.6,1415,768.6z"/>
									</g>
								</g>
							</g>
						</g>
					</g>
				</g>
				<g>
					<g>
						<g>
							<g>
								<g>
									<g>
										<g>
											<path class="st13" d="M783.1,1499.1c0,4.6,0,9.1,0.2,13.7c0,2.6,0.1,5.1,0.2,7.7c0.2,5.1,0.4,10.2,0.7,15.3
												c0.2,3.8,0.5,7.6,0.7,11.4c0.3,3.9,0.6,7.9,1,11.8c0.3,3.7,0.7,7.4,1.1,11c0.9,8.3,2,16.6,3.3,24.8
												c0.5,3.6,1.1,7.1,1.7,10.7c0,0.3,0,0.5,0.1,0.8c0.6,3.5,1.2,7,1.9,10.6c0.8,4.1,1.6,8.3,2.5,12.4
												c0.8,3.4,1.5,6.9,2.3,10.3c0.8,3.9,1.8,7.9,2.8,11.8c0.6,2.4,1.2,4.8,1.8,7.2c0.2,0.6,0.3,1.2,0.5,1.8
												c0.5,2.1,1.1,4.1,1.7,6.2c0.6,2.4,1.3,4.8,2,7.1c0.9,3.3,1.9,6.5,2.9,9.8c0.3,0.9,0.6,1.9,0.9,2.8c0.9,3.2,2,6.3,3,9.5
												c1.1,3.5,2.3,7,3.5,10.4c1.5,4.2,3,8.4,4.6,12.6c1.1,3,2.3,6.1,3.5,9.1c4.5,11.5,9.4,22.9,14.6,34.1
												c1.1,2.6,2.4,5.1,3.6,7.7c13.2,27.5,28.4,54,45.3,79.3c0.1,0.2,0.3,0.4,0.4,0.6c119.7,178,327.7,295.8,564.3,295.8
												c370.9,0,671.7-289.5,671.7-646.7c0-117.8-32.7-228.3-89.9-323.4c-0.1-0.1-0.1-0.1-0.1-0.2
												c-6.4-10.7-13.2-21.3-20.3-31.6c-1.4-2.1-2.9-4.3-4.5-6.5c-1.5-2.1-3-4.3-4.5-6.4c-3.3-4.7-6.8-9.3-10.2-13.9
												c-1.3-1.7-2.6-3.4-3.9-5c-3.2-4.1-6.4-8.3-9.8-12.3c-1.6-2-3.2-4-4.9-5.9c-11.8-14.2-24.3-27.9-37.4-41
												c-1.4-1.4-2.8-2.9-4.3-4.3c-2.9-2.9-5.8-5.8-8.8-8.6c-3.2-3-6.4-6-9.6-9c-17.6-16.1-36.1-31.4-55.3-45.6
												c-2-1.5-4.1-3-6.2-4.5c-4.3-3.1-8.7-6.2-13.1-9.2c-2.1-1.5-4.4-2.9-6.6-4.4c-6.9-4.6-13.9-9.1-21-13.5
												c-2-1.2-3.9-2.4-5.9-3.6c-6.9-4.2-13.9-8.2-21-12.1c-2.3-1.3-4.7-2.6-7-3.8c-7.1-3.8-14.2-7.5-21.5-11.1
												c-2.4-1.2-4.8-2.3-7.3-3.5c-7.6-3.6-15.2-7.1-23-10.5c-2.2-0.9-4.4-1.8-6.6-2.8c-2.5-1-5-2.1-7.5-3.1
												c-6.3-2.6-12.7-5.1-19.1-7.4c-2.9-1.1-5.8-2.1-8.7-3.2c-16.9-6-34.2-11.5-51.8-16.2c-2-0.5-3.9-1-5.9-1.5
												c-10-2.6-20.1-5-30.3-7.2c-3.2-0.6-6.4-1.3-9.6-1.9c-4.2-0.8-8.4-1.6-12.7-2.4c-3.1-0.5-6.2-1.1-9.4-1.6
												c-6.6-1.1-13.3-2.1-20-3c-2-0.3-4.1-0.5-6.2-0.8c-2.4-0.3-4.9-0.6-7.4-0.9c-3.7-0.5-7.5-0.8-11.3-1.2c-0.1,0-0.2,0-0.3,0
												c-3.5-0.3-7.1-0.7-10.7-0.9c-11.6-1-23.4-1.6-35.2-2c-3.6-0.1-7.3-0.3-10.9-0.3c-3.9,0-7.8-0.1-11.8-0.1
												c-3.4,0-6.9,0-10.4,0.1c-1.5,0-3.1,0-4.6,0c-3.4,0.1-6.8,0.2-10.1,0.3c-0.6,0-1.1,0-1.6,0.1c-4.1,0.1-8.1,0.3-12.2,0.5
												c-3.7,0.2-7.4,0.5-11.1,0.7c-1.1,0-2.3,0.2-3.4,0.3c-3.7,0.3-7.5,0.6-11.2,0.9c-8.4,0.8-16.9,1.7-25.2,2.8
												c-1.3,0.2-2.6,0.3-4,0.5c-7.1,0.9-14.2,2-21.3,3.2c-4,0.7-8,1.4-11.9,2.1c-0.2,0-0.3,0-0.5,0.1
												c-4.1,0.7-8.3,1.5-12.4,2.4c-2.5,0.5-5.1,1-7.7,1.6c-3.9,0.8-7.9,1.7-11.8,2.6c-0.2,0-0.3,0-0.5,0.1
												c-2.6,0.6-5.2,1.2-7.8,1.9c-2.7,0.6-5.3,1.3-8,2c-1.6,0.4-3.1,0.8-4.7,1.2c-6.7,1.8-13.3,3.6-19.9,5.6
												c-110.1,33.1-208,92.8-285.6,171.2c-4,4-7.9,8-11.7,12.1c-2.7,2.8-5.3,5.6-7.9,8.5c-2.5,2.7-4.9,5.4-7.4,8.2
												c-4.5,5.1-9,10.4-13.4,15.8c-2.3,2.8-4.6,5.6-6.8,8.4c-1.6,2-3.2,4.1-4.8,6.2c-2.2,2.8-4.5,5.7-6.6,8.7
												c-2.5,3.3-4.9,6.6-7.3,10c-0.1,0.1-0.2,0.2-0.2,0.3c-1.2,1.6-2.4,3.3-3.6,5c-2.2,3.2-4.5,6.4-6.7,9.7
												c-2.5,3.6-4.9,7.3-7.3,11c-0.1,0.1-0.2,0.2-0.2,0.3c-1,1.6-2.1,3.2-3.1,4.9c-2,3.2-4.1,6.4-6,9.7
												c-2.5,4-4.9,8.1-7.3,12.3c-0.2,0.3-0.3,0.6-0.5,0.8c-2.5,4.3-4.9,8.6-7.3,12.9c-0.2,0.4-0.4,0.8-0.6,1.1
												c-4.7,8.8-9.3,17.6-13.7,26.6c0,0.1-0.1,0.2-0.1,0.3c-2.2,4.5-4.3,9.1-6.4,13.6c-2.1,4.7-4.2,9.4-6.2,14.1
												c-1,2.3-2,4.7-3,7.1c-0.9,2.3-1.9,4.7-2.9,7.1s-1.9,4.8-2.8,7.2c-0.9,2.3-1.8,4.7-2.7,7.1c-1.8,4.9-3.5,9.8-5.2,14.8
												c-0.8,2.4-1.6,4.9-2.4,7.3c-2.8,8.6-5.5,17.2-7.9,26c-0.7,2.4-1.3,4.8-2,7.3c-0.5,1.7-0.9,3.4-1.3,5.1
												c-0.6,2.2-1.1,4.3-1.6,6.5c-2.2,9.1-4.3,18.2-6.1,27.5c-0.5,2.5-1,5.1-1.5,7.7c0,0.1,0,0.3-0.1,0.5
												c-0.5,2.5-0.9,5.1-1.3,7.7c-0.4,2.3-0.8,4.6-1.1,6.9c-0.7,4.4-1.4,8.9-2,13.3c-0.3,2-0.5,4-0.8,6.1
												c-0.5,3.4-0.8,6.8-1.2,10.2c-0.2,1.8-0.4,3.7-0.6,5.6c-0.5,4.8-0.9,9.7-1.3,14.6C783.8,1465.8,783.1,1482.4,783.1,1499.1
												z"/>
										</g>
									</g>
								</g>
							</g>
						</g>
						<g class="st6">
							<g>
								<g>
									<g>
										<g>
											<path class="st3" d="M788.1,1501.5c0,4.6,0,9.1,0.2,13.7c0,2.6,0.1,5.1,0.2,7.7c0.2,5.1,0.4,10.2,0.7,15.3
												c0.2,3.8,0.5,7.6,0.8,11.4c0.3,3.9,0.6,7.9,1,11.8c0.3,3.7,0.7,7.4,1.1,11c0.9,8.3,2,16.6,3.3,24.8
												c0.5,3.6,1.1,7.1,1.7,10.7c0,0.3,0,0.5,0.2,0.8c0.6,3.5,1.2,7,1.9,10.6c0.8,4.1,1.6,8.3,2.5,12.4
												c0.7,3.4,1.5,6.9,2.3,10.3c0.8,3.9,1.8,7.9,2.8,11.8c0.6,2.4,1.2,4.8,1.8,7.2c0.2,0.6,0.3,1.2,0.5,1.8
												c0.5,2.1,1.1,4.1,1.7,6.2c0.6,2.4,1.3,4.8,2,7.1c0.9,3.3,1.9,6.5,2.9,9.8c0.3,0.9,0.6,1.9,0.9,2.8c0.9,3.2,2,6.3,3,9.5
												c1.1,3.5,2.3,7,3.5,10.4c1.5,4.2,3,8.4,4.6,12.6c1.1,3,2.3,6.1,3.5,9.1c4.5,11.5,9.4,22.9,14.6,34.1
												c1.1,2.6,2.4,5.1,3.6,7.7c13.2,27.5,28.4,54,45.3,79.3c-56.9-95-89.5-205.2-89.5-322.7c0-171.7,69.5-327.7,182.9-443.5
												c30.7,28.3,109.5,20.7,187.6-20.5c86.8-45.8,140-115.9,118.6-156.4c-0.3-0.6-0.7-1.2-1-1.7c58.4-16,120-24.5,183.7-24.5
												c236.6,0,444.5,117.8,564.2,295.7c-6.4-10.7-13.2-21.3-20.3-31.6c-1.4-2.1-2.9-4.3-4.5-6.5c-1.5-2.1-3-4.3-4.5-6.4
												c-3.3-4.7-6.8-9.3-10.2-13.9c-1.3-1.7-2.6-3.4-3.9-5c-3.2-4.1-6.4-8.3-9.8-12.3c-1.6-2-3.2-4-4.9-5.9
												c-11.8-14.2-24.3-27.9-37.4-41c-1.4-1.4-2.8-2.9-4.3-4.3c-2.9-2.9-5.8-5.8-8.8-8.6c-3.2-3.1-6.4-6.1-9.6-9
												c-17.6-16.1-36.1-31.4-55.3-45.6c-2-1.5-4.1-3-6.2-4.5c-4.3-3.1-8.7-6.2-13.1-9.2c-2.1-1.5-4.4-2.9-6.6-4.4
												c-6.9-4.6-13.9-9.1-21-13.5c-2-1.2-3.9-2.4-5.9-3.6c-6.9-4.2-13.9-8.2-21-12.1c-2.3-1.3-4.7-2.6-7-3.8
												c-7.1-3.8-14.2-7.5-21.5-11.1c-2.4-1.2-4.8-2.3-7.3-3.5c-7.6-3.6-15.2-7.1-23-10.5c-2.2-0.9-4.4-1.8-6.6-2.8
												c-2.5-1-5-2.1-7.5-3.1c-6.3-2.6-12.7-5.1-19.1-7.4c-2.9-1.1-5.8-2.1-8.7-3.2c-16.9-6-34.2-11.5-51.8-16.2
												c-2-0.5-3.9-1-5.9-1.5c-10-2.6-20.1-5-30.3-7.2c-3.2-0.6-6.4-1.3-9.6-1.9c-4.2-0.8-8.4-1.6-12.7-2.4
												c-3.1-0.5-6.2-1.1-9.4-1.6c-6.6-1.1-13.3-2.1-20-3c-2-0.3-4.1-0.5-6.2-0.8c-2.4-0.3-4.9-0.6-7.4-0.9
												c-3.7-0.5-7.5-0.8-11.3-1.2c-0.1,0-0.2,0-0.3,0c-3.5-0.3-7.1-0.7-10.7-0.9c-11.6-1-23.4-1.6-35.2-2
												c-3.6-0.2-7.3-0.3-10.9-0.3c-3.9,0-7.8-0.1-11.8-0.1c-3.4,0-6.9,0-10.4,0.1c-1.5,0-3.1,0-4.6,0
												c-3.4,0.1-6.8,0.2-10.1,0.3c-0.5,0-1.1,0-1.6,0.1c-4.1,0.1-8.1,0.3-12.2,0.5c-3.7,0.2-7.4,0.4-11.1,0.7
												c-1.1,0-2.3,0.2-3.4,0.3c-3.7,0.3-7.5,0.6-11.2,0.9c-8.4,0.7-16.8,1.7-25.2,2.8c-1.3,0.2-2.6,0.3-4,0.5
												c-7.1,0.9-14.2,2-21.3,3.2c-4,0.7-8,1.4-11.9,2.1c-0.2,0-0.3,0-0.5,0.1c-4.1,0.7-8.3,1.5-12.4,2.4
												c-2.5,0.5-5.1,1-7.7,1.6c-3.9,0.8-7.8,1.7-11.8,2.6c-0.2,0-0.3,0-0.5,0.1c-2.6,0.6-5.2,1.2-7.8,1.9c-2.7,0.6-5.3,1.3-8,2
												c-1.6,0.4-3.1,0.8-4.7,1.2c-6.7,1.8-13.3,3.6-19.9,5.6c-110.1,33.1-208,92.8-285.6,171.2c-4,4-7.9,8-11.7,12.1
												c-2.7,2.8-5.3,5.6-7.9,8.5c-2.5,2.7-4.9,5.4-7.4,8.2c-4.5,5.1-9,10.4-13.4,15.8c-2.3,2.8-4.6,5.6-6.8,8.4
												c-1.6,2-3.2,4.1-4.8,6.2c-2.2,2.8-4.5,5.7-6.6,8.7c-2.5,3.3-4.9,6.6-7.3,10c-0.1,0.1-0.2,0.2-0.2,0.3
												c-1.2,1.6-2.4,3.3-3.6,5c-2.2,3.2-4.5,6.4-6.7,9.7c-2.5,3.6-4.9,7.3-7.3,11c-0.1,0.1-0.2,0.2-0.2,0.3
												c-1,1.6-2.1,3.2-3.1,4.9c-2,3.2-4.1,6.4-6,9.7c-2.5,4-4.9,8.1-7.3,12.3c-0.2,0.3-0.3,0.6-0.5,0.8
												c-2.5,4.3-4.9,8.6-7.3,12.9c-0.2,0.4-0.4,0.8-0.6,1.1c-4.7,8.8-9.3,17.6-13.7,26.6c0,0.1-0.1,0.2-0.1,0.3
												c-2.2,4.5-4.3,9.1-6.4,13.6c-2.1,4.7-4.2,9.4-6.2,14.1c-1,2.3-2,4.7-3,7.1c-0.9,2.3-1.9,4.7-2.9,7.1s-1.9,4.8-2.8,7.2
												c-0.9,2.3-1.8,4.7-2.7,7.1c-1.8,4.9-3.5,9.8-5.2,14.8c-0.8,2.4-1.6,4.9-2.4,7.3c-2.8,8.6-5.5,17.2-7.9,26
												c-0.7,2.4-1.3,4.8-2,7.3c-0.5,1.7-0.9,3.4-1.3,5.1c-0.6,2.2-1.1,4.3-1.6,6.5c-2.2,9.1-4.3,18.2-6.1,27.5
												c-0.5,2.5-1,5.1-1.5,7.7c0,0.2,0,0.3-0.1,0.5c-0.5,2.5-0.9,5.1-1.3,7.7c-0.4,2.3-0.8,4.6-1.1,6.9
												c-0.7,4.4-1.4,8.9-2,13.3c-0.3,2-0.5,4-0.8,6.1c-0.5,3.4-0.8,6.8-1.2,10.2c-0.2,1.8-0.4,3.7-0.6,5.6
												c-0.5,4.8-0.9,9.7-1.3,14.6C788.7,1468.2,788.1,1484.8,788.1,1501.5z"/>
										</g>
									</g>
								</g>
							</g>
						</g>
						<g class="st4">
							<g>
								<g>
									<g>
										<g>
											<path class="st5" d="M1308.6,2028.1c339.9,0,615.5-266.8,615.5-595.9c0-271.2-187.1-500-443.1-572.2
												c342.7,24.1,613,297.3,613,630.8c0,349.4-296.5,632.6-662.2,632.6c-203.1,0-384.8-87.4-506.3-224.9
												C1030.6,1979.6,1163.7,2028.1,1308.6,2028.1z"/>
										</g>
									</g>
								</g>
							</g>
						</g>
						<g>
							<g>
								<g>
									<g>
										<g>
											<path class="st5" d="M1454.8,2158.3c-377.2,0-684.1-295.7-684.1-659.2S1077.5,840,1454.8,840s684.1,295.7,684.1,659.2
												C2138.9,1862.6,1832,2158.3,1454.8,2158.3z M1454.8,864.9c-363.5,0-659.2,284.5-659.2,634.2s295.7,634.2,659.2,634.2
												s659.2-284.5,659.2-634.2C2113.9,1149.4,1818.2,864.9,1454.8,864.9z"/>
										</g>
									</g>
								</g>
							</g>
						</g>
					</g>
					<g class="st4">
						<g>
							<g>
								<g>
									<g>
										<path class="st5" d="M911.7,1583.9c1.2,197.1,153.4,355.9,339.9,354.7c186.4-1.2,336.6-162,335.3-359.1
											s-153.4-356-339.8-354.7C1060.7,1225.9,910.5,1386.7,911.7,1583.9z"/>
									</g>
								</g>
							</g>
						</g>
					</g>
					<g>
						<g>
							<g>
								<g>
									<g>
										<path class="st13" d="M1477.1,1647.5l108-0.7c46.9-0.3,84.6-38.6,84.3-85.4l0-5c-0.3-46.9-38.6-84.6-85.4-84.3l-108,0.7
											L1477.1,1647.5z"/>
									</g>
								</g>
							</g>
						</g>
					</g>
					<g class="st6">
						<g>
							<g>
								<g>
									<g>
										<path class="st3" d="M1584.5,1472c46.6-0.3,84.6,38.6,85,86.8l0,0c0,3.5-0.2,7-0.6,10.4c-5.3-43.3-41-76.7-84.2-76.4
											l-108.5,0.7l-0.1-20.8L1584.5,1472z"/>
									</g>
								</g>
							</g>
						</g>
					</g>
					<g class="st12">
						<g>
							<g>
								<g>
									<g>
										<path class="st5" d="M1480,1472.7l0.9,137.3l104.5-0.7c40.4-0.3,73.9-29.9,82-69.2c1.3,6,2.1,12.3,2.1,18.7l0,0
											c0.3,48.3-37.2,87.6-83.8,87.9l-108.5,0.7l-1.1-174.8L1480,1472.7z"/>
									</g>
								</g>
							</g>
						</g>
					</g>
					<g>
						<g>
							<g>
								<g>
									<g>
										<path class="st5" d="M1477.1,1657.5c-2.6,0-5.1-1-7-2.9c-1.9-1.9-2.9-4.4-3-7l-1.1-174.8c0-5.5,4.4-10,9.9-10.1l108-0.7
											c0.2,0,0.4,0,0.6,0c52,0,94.5,42.2,94.9,94.3l0,5c0.2,25.3-9.6,49.2-27.4,67.3c-17.8,18-41.6,28.1-66.9,28.2
											L1477.1,1657.5C1477.1,1657.5,1477.1,1657.5,1477.1,1657.5z M1486,1482.7l1,154.8l98-0.6c20-0.1,38.8-8,52.8-22.3
											c14.1-14.2,21.7-33.1,21.6-53.1l0-5c-0.3-41.1-33.8-74.4-74.9-74.4c-0.2,0-0.3,0-0.5,0L1486,1482.7z"/>
									</g>
								</g>
							</g>
						</g>
					</g>
					<g>
						<g>
							<g>
								<g>
									<g>
										
											<ellipse transform="matrix(1 -6.399869e-03 6.399869e-03 1 -9.9458 10.3302)" class="st5" cx="1609.1" cy="1559.2" rx="20.1" ry="20.8"/>
									</g>
								</g>
							</g>
						</g>
					</g>
					<g>
						<g>
							<g>
								<g>
									<g>
										<path class="st13" d="M911.2,1693.3L911.2,1693.3l-1.6-242.5l0,0c-38.6,0.2-69.7,31.8-69.5,70.4l0.7,102.7
											C841.1,1662.5,872.6,1693.6,911.2,1693.3z"/>
									</g>
								</g>
							</g>
						</g>
					</g>
					<g class="st6">
						<g>
							<g>
								<g>
									<g>
										<path class="st3" d="M884.5,1451l25.2-0.2l0.1,20.2l-25.2,0.2c-24.7,0.2-44.6,31.6-44.3,70.2l-0.1-20.2
											C839.9,1482.5,859.8,1451.1,884.5,1451z"/>
									</g>
								</g>
							</g>
						</g>
					</g>
					<g class="st12">
						<g>
							<g>
								<g>
									<g>
										<path class="st5" d="M885.8,1645l25.2-0.2l0.3,48.5l-25.2,0.2c-24.7,0.2-45-31-45.2-69.6l-0.3-48.5
											C840.8,1614,861,1645.1,885.8,1645z"/>
									</g>
								</g>
							</g>
						</g>
					</g>
					<g>
						<g>
							<g>
								<g>
									<g>
										<path class="st5" d="M910.8,1700.8c-20.5,0-39.8-7.9-54.4-22.3c-14.7-14.5-22.9-33.9-23-54.6l-0.7-102.7
											c-0.1-20.7,7.8-40.2,22.3-54.9c14.5-14.7,33.9-22.9,54.6-23c0,0,0,0,0,0c2,0,3.9,0.8,5.3,2.2c1.4,1.4,2.2,3.3,2.2,5.3
											l1.6,242.5c0,4.1-3.3,7.5-7.4,7.5C911.1,1700.8,911,1700.8,910.8,1700.8z M902.2,1458.8c-13.8,1.7-26.6,8-36.6,18.1
											c-11.7,11.9-18.1,27.6-18,44.3l0.7,102.7c0.1,16.7,6.7,32.3,18.6,44c10.1,9.9,22.9,16.1,36.8,17.6L902.2,1458.8z"/>
									</g>
								</g>
							</g>
						</g>
					</g>
					<g>
						<g>
							<g>
								<g>
									<g>
										<path class="st5" d="M840.2,1532c-4.1,0-7.5-3.3-7.5-7.4c0-4.1,3.3-7.5,7.4-7.5l69.9-0.4c0,0,0,0,0,0
											c4.1,0,7.5,3.3,7.5,7.4c0,4.1-3.3,7.5-7.4,7.5L840.2,1532C840.2,1532,840.2,1532,840.2,1532z"/>
									</g>
								</g>
							</g>
						</g>
					</g>
					<g>
						<g>
							<g>
								<g>
									<g>
										<path class="st5" d="M840.8,1626.5c-4.1,0-7.5-3.3-7.5-7.4c0-4.1,3.3-7.5,7.4-7.5l68.6-0.4c0,0,0,0,0,0
											c4.1,0,7.5,3.3,7.5,7.4c0,4.1-3.3,7.5-7.4,7.5L840.8,1626.5C840.9,1626.5,840.8,1626.5,840.8,1626.5z"/>
									</g>
								</g>
							</g>
						</g>
					</g>
					<g>
						<g>
							<g>
								<g>
									<g>
										<path class="st14" d="M881.8,1576.4c1.2,193,153.4,348.5,339.9,347.3c186.4-1.2,336.6-158.7,335.3-351.7
											c-1.2-193-153.4-348.6-339.8-347.4C1030.7,1225.9,880.6,1383.4,881.8,1576.4z"/>
									</g>
								</g>
							</g>
						</g>
					</g>
					<g class="st6">
						<g>
							<g>
								<g>
									<g>
										<g>
											<path class="st3" d="M1217.3,1253.9c-181.7,1.2-328.9,150.8-335.1,337.1c-0.2-4.8-0.4-9.7-0.4-14.6
												c-1.2-193,148.9-350.5,335.3-351.7s338.6,154.3,339.8,347.3c0,4.9-0.1,9.7-0.3,14.6
												C1548.1,1400.4,1399.1,1252.7,1217.3,1253.9z"/>
										</g>
									</g>
								</g>
							</g>
						</g>
					</g>
					<g class="st12">
						<g>
							<g>
								<g>
									<g>
										<path class="st5" d="M1191.2,1844.7c-126.3,0.8-229.7-102.8-230.6-231c0-7.6,0.3-15,0.9-22.4
											c11.9,117.6,110.5,209.4,229.3,208.6c118.9-0.8,216.2-93.7,226.6-211.5c0.7,7.4,1.2,14.9,1.2,22.4
											C1419.6,1738.9,1317.5,1843.9,1191.2,1844.7z"/>
									</g>
								</g>
							</g>
						</g>
					</g>
					<g>
						<g>
							<g>
								<g>
									<g>
										<path class="st5" d="M1219.5,1933.7c-190.7,0-346.4-159.8-347.7-357.3l0,0c-1.3-198.2,153.6-360.5,345.3-361.7
											c0.7,0,1.5,0,2.2,0c92.1,0,178.8,36.8,244.4,103.8c66,67.5,102.7,157.5,103.3,253.4c0.6,96-34.9,186.4-100.1,254.7
											c-65.2,68.4-152.3,106.4-245.2,107C1221,1933.7,1220.2,1933.7,1219.5,1933.7z M891.8,1576.3
											c1.2,186.5,148,337.4,327.7,337.4c0.7,0,1.4,0,2.1,0c87.4-0.6,169.4-36.4,230.9-100.8c61.5-64.5,95.1-150.1,94.5-240.8
											c-0.6-90.8-35.2-175.8-97.6-239.6c-61.8-63.1-143.4-97.8-230.1-97.8c-0.7,0-1.4,0-2.1,0
											C1036.6,1235.9,890.6,1389.1,891.8,1576.3L891.8,1576.3z"/>
									</g>
								</g>
							</g>
						</g>
					</g>
					<g>
						<g>
							<g>
								<g>
									<g>
										<path class="st15" d="M1191.6,1811.4c123.9-0.8,224-107.8,223.2-238.6s-102.3-236.5-226.3-235.7
											c-123.9,0.8-224,107.8-223.2,238.6S1067.7,1812.2,1191.6,1811.4z"/>
									</g>
								</g>
							</g>
						</g>
					</g>
					<g>
						<g>
							<g>
								<g>
									<g>
										<path class="st5" d="M1190.2,1821.4c-62.2,0-120.7-25.4-165.1-71.6c-44.6-46.4-69.3-108.2-69.8-174.1
											c-0.9-136.3,103.7-247.8,233.1-248.7c0.5,0,1,0,1.5,0c62.2,0,120.7,25.4,165.1,71.6c44.6,46.4,69.3,108.2,69.8,174.1
											c0.9,136.3-103.7,247.8-233.1,248.7C1191.2,1821.4,1190.7,1821.4,1190.2,1821.4z M1189.9,1347.1c-0.4,0-0.9,0-1.3,0
											c-118.4,0.8-214.1,103.3-213.3,228.6c0.4,60.7,23.2,117.6,64.2,160.3c40.5,42.2,94,65.5,150.7,65.5c0.4,0,0.9,0,1.3,0
											c118.4-0.8,214.1-103.3,213.3-228.6c-0.4-60.7-23.2-117.6-64.2-160.3C1300.1,1370.3,1246.6,1347.1,1189.9,1347.1z"/>
									</g>
								</g>
							</g>
						</g>
					</g>
					<g class="st4">
						<g>
							<g>
								<g>
									<g>
										<g>
											<path class="st3" d="M1100.2,1653.7c18.3,20,27.5,30,32.5,33.9c18.3,14.1,26.9,10.6,36.6,24.2c4.9,6.8,7.2,15.7,6.3,24.2
												c-0.3,3.3-1.2,6.6-2.9,9.3c-3.8,6-11.1,8.1-17.9,9.1c-44.2,6.6-91.3-21.3-107.9-65c-3.5-9.1-5.7-19.1-4.4-28.9
												c0.4-3,3.5-17.5,15.5-23.1c9.9-4.6,19.8-0.2,24.4,1.8C1090.3,1642.7,1094.9,1647.9,1100.2,1653.7z"/>
										</g>
									</g>
								</g>
							</g>
						</g>
					</g>
					<g class="st11">
						<g>
							<g>
								<g>
									<g>
										<g>
											<path class="st3" d="M1101.9,1395.1c13-11.4,29.9-16.5,46.6-19.5c36.3-6.4,74.4-3.5,108.5,11s64,41,81.1,75.5
												c4.6,9.2,8.3,19.1,8.8,29.5s-2.4,21.3-9.5,28.5c-11,11.1-29.1,10.6-43,3.8s-24.9-18.6-36.7-28.8
												c-24.3-20.8-54.9-36-86-32.9c-15.2,1.5-29.9,7.2-45.1,8.8s-32.4-2.2-41.3-15.4c-6.1-9.1-7-21.2-4.1-31.9
												c2.8-10.5,9.3-19.9,17.8-26.1"/>
										</g>
									</g>
								</g>
							</g>
						</g>
					</g>
					<g class="st11">
						<g>
							<g>
								<g>
									<g>
										<g>
											<path class="st3" d="M1368.9,1560.6c9.9,9.3,10,22.3,10.1,26.4c0,3.3,0.3,19.1-10.5,27.7c-5.5,4.4-11.8,5.3-13.9,5.6
												c-2.4,0.3-7.5,0.9-12.9-1.3c-13.2-5.3-16.7-22.6-17.2-25.2c-0.6-2.9-2.1-11,1.1-20.5c1.3-3.8,5.6-16.5,17.5-20.2
												C1356.2,1549,1367.4,1559.2,1368.9,1560.6z"/>
										</g>
									</g>
								</g>
							</g>
						</g>
					</g>
					<g>
						<g>
							<g>
								<g>
									<g>
										<g>
											<path class="st13" d="M1929.9,1741.6c18.4,16.1,42.3,24.7,66.8,24.7h57.8c20.7,0,40.9-6.7,57.3-19.5
												c124.6-97.6,118.8-333.2,1.6-440.6c-17.1-15.7-39.6-24.2-62.9-24.2H1997c-23.1,0-45.7,7.7-63.8,22.2
												C1799.1,1411.8,1822.2,1647.5,1929.9,1741.6z M1944.2,1526.6c0-97.9,48.1-177.3,107.4-177.3
												c59.3,0,107.4,79.4,107.4,177.3c0,97.9-48.1,177.3-107.4,177.3C1992.2,1703.9,1944.2,1624.5,1944.2,1526.6z"/>
										</g>
									</g>
								</g>
							</g>
						</g>
						<g class="st6">
							<g>
								<g>
									<g>
										<g>
											<g>
												<path class="st3" d="M1937.6,1539c0-42,9.2-80.5,24.4-110.1c-11.2,28-17.8,61.6-17.8,97.7
													c0,97.9,48.1,177.3,107.4,177.3c6.4,0,12.7-1,18.9-2.8c-9.7,5.1-20,7.9-30.7,7.9
													C1983.3,1708.9,1937.6,1632.9,1937.6,1539z"/>
											</g>
										</g>
									</g>
								</g>
							</g>
							<g>
								<g>
									<g>
										<g>
											<g>
												<path class="st3" d="M2096.9,1750.1c118.5-93.6,112.9-319.4,1.6-422.5c-16.3-15-37.7-23.2-59.8-23.2h-50.8
													c-22,0-43.4,7.4-60.6,21.3c-50.2,40.6-77.1,100.2-85.2,163c6.1-70.8,34.6-139.1,91.2-184.6
													c18.1-14.5,40.6-22.2,63.8-22.2h53.4c23.3,0,45.8,8.5,62.9,24.2c117.1,107.5,123,343.1-1.6,440.6
													c-13.2,10.3-28.9,16.6-45.4,18.7C2077.4,1762.4,2087.8,1757.3,2096.9,1750.1z"/>
											</g>
										</g>
									</g>
								</g>
							</g>
						</g>
						<g>
							<g>
								<g>
									<g>
										<g>
											<ellipse class="st5" cx="2051.5" cy="1526.6" rx="107.4" ry="177.3"/>
										</g>
									</g>
								</g>
							</g>
						</g>
						<g>
							<g>
								<g>
									<g>
										<g>
											<path class="st5" d="M2051.5,1713.9c-64.7,0-117.4-84-117.4-187.3s52.6-187.3,117.4-187.3s117.4,84,117.4,187.3
												S2116.2,1713.9,2051.5,1713.9z M2051.5,1359.3c-53.7,0-97.4,75-97.4,167.3s43.7,167.3,97.4,167.3
												c53.7,0,97.4-75,97.4-167.3S2105.2,1359.3,2051.5,1359.3z"/>
										</g>
									</g>
								</g>
							</g>
						</g>
						<g>
							<g>
								<g>
									<g>
										<g>
											<path class="st13" d="M2025.7,1539.8c-18.3,30.8-38.8,61-61.2,90.6c9.6,23.8,24.1,41.3,40.8,56.2
												c25.4-25,47.4-52.1,66.2-80.3c13.9,22.9,26.5,46.5,37.4,70.2c18.1-21.7,31.4-43.8,37.5-66.6
												c-10.8-24.1-23.3-47.8-37.2-70.6c15.7-33.4,27.5-67.4,35.7-100.7c-11-30.3-25.4-53.9-43.8-69.4
												c-10.2,35.1-23.4,69.4-39.2,102.9c-24.7-30.4-51.8-57.4-80.6-79.3c-13.8,20.8-23.8,43.6-29.5,68.9
												C1977.5,1483.4,2002.6,1510.2,2025.7,1539.8z"/>
										</g>
									</g>
								</g>
							</g>
						</g>
						<g class="st12">
							<g>
								<g>
									<g>
										<g>
											<g>
												<path class="st5" d="M2094,1524.1c8.5-20.5,16.9-42.2,25-64.9c5.4-15.3,10.4-30.3,15-44.9c2.8,5.2,5.5,11,8.1,17.2
													c1,2.4,1.9,4.8,2.7,7.1c-4,13.1-7.9,26.5-11.6,40.3c-7.5,27.6-13.8,54.4-19.2,80.1c-3.3-4.4-6.7-9.3-10-15
													C2099.8,1537,2096.5,1530.2,2094,1524.1z"/>
											</g>
										</g>
									</g>
								</g>
							</g>
							<g>
								<g>
									<g>
										<g>
											<g>
												<path class="st5" d="M2005.3,1651.6c25.4-25,47.4-52.1,66.2-80.3c6.6,11.3,13.2,22.9,19.8,34.8
													c6.1,11.1,12,22,17.7,32.8c4.6-3.7,11.7-10.4,17.2-20.7c7.7-14.4,8-27.9,7.8-34.3c3,5.9,5.9,12,8.9,18.2
													c1.2,2.6,2.4,5.1,3.5,7.6c-6,22.8-19.4,44.9-37.5,66.6c-10.9-23.6-23.5-47.2-37.4-70.2c-18.8,28.2-40.7,55.3-66.2,80.3
													c-16.7-14.9-31.2-32.4-40.8-56.2c1.5-2.2,3.2-4.6,5.3-7.1c3.2-3.8,6.4-6.9,9.3-9.3c1.4,5.2,4.2,13.1,9.9,21.3
													C1994.7,1643.3,2000.9,1648.5,2005.3,1651.6z"/>
											</g>
										</g>
									</g>
								</g>
							</g>
							<g>
								<g>
									<g>
										<g>
											<g>
												<path class="st5" d="M2044,1524.1c-6.7,10-13.3,20-20,30c-1.7-8.3-3.3-16.6-5-25c-10.8-12.3-22.7-25-35.8-38
													c-10.7-10.6-21.3-20.4-31.6-29.4c2.2-9.6,5-18.8,8.3-27.7c11.1,10.3,22.4,21.4,33.8,33.2
													C2012.4,1486.6,2029.1,1505.7,2044,1524.1z"/>
											</g>
										</g>
									</g>
								</g>
							</g>
						</g>
						<g class="st6">
							<g>
								<g>
									<g>
										<g>
											<g>
												<path class="st3" d="M1989.7,1346.5c-19,12.9-34.4,31.1-44,51.9c-0.8,1.6-1.6,3.4-3.1,4.3c-1.6,1-3.7,0.9-5.5,0.8
													c-23.3-1.8-46.6-5.3-69.4-10.3c9.1-16.7,19.5-32.6,31.1-47.6c1.3-1.7,2.8-3.5,4.9-4.3c1.6-0.6,3.3-0.5,5-0.4
													c26.1,1.5,52.2,3.7,78.1,6.6"/>
											</g>
										</g>
									</g>
								</g>
							</g>
						</g>
						<g>
							<g>
								<g>
									<g>
										<g>
											<path class="st5" d="M2005.3,1694.1c-1.8,0-3.6-0.6-5-1.9c-20.2-18-33.8-36.8-42.8-59c-1-2.4-0.6-5.2,1-7.3
												c21.4-28.1,40.9-56.8,58.1-85.5c-22.6-28.5-46.1-53.1-69.8-73c-2.1-1.8-3.1-4.6-2.5-7.4c5.7-25.4,16-49.4,30.6-71.4
												c1.1-1.7,2.9-2.9,5-3.2c2-0.3,4.1,0.2,5.8,1.4c25.8,19.6,50.8,43.5,74.3,71.3c13.6-30.2,25-60.7,33.8-91
												c0.7-2.4,2.6-4.3,5-5.1c2.4-0.7,5.1-0.2,7,1.5c18.8,15.9,34.2,40.3,46,72.6c0.5,1.4,0.6,2.9,0.2,4.3
												c-8.2,33.7-19.8,66.8-34.4,98.4c13.2,21.9,25.1,44.8,35.6,68c0.7,1.6,0.9,3.3,0.4,5c-6,22.5-18.7,45.2-38.9,69.4
												c-1.6,2-4.1,3-6.7,2.6c-2.5-0.3-4.7-2-5.8-4.3c-9.3-20-19.7-39.9-31-59.4c-18.1,25.9-38.4,50-60.5,71.7
												C2009.1,1693.4,2007.2,1694.1,2005.3,1694.1z M1973.1,1631.5c7.2,16.4,17.5,30.8,32,44.7c22.1-22.4,42.3-47.3,60.1-74.1
												c1.4-2.1,3.9-3.4,6.4-3.3c2.6,0.1,4.9,1.4,6.2,3.6c11.9,19.6,22.8,39.7,32.6,60c13.9-18.1,23-35.2,27.9-51.9
												c-10.5-23-22.5-45.6-35.7-67.3c-1.3-2.2-1.4-4.8-0.4-7.1c14.7-31.1,26.3-63.8,34.6-97c-8.8-23.6-19.7-42.4-32.3-56
												c-9.6,30.8-21.7,61.8-36.1,92.2c-1.1,2.3-3.3,3.9-5.9,4.2c-2.6,0.3-5.1-0.7-6.7-2.7c-23-28.4-47.5-52.9-72.9-73
												c-10.5,17.3-18.2,35.8-23.1,55.2c24.4,21,48.5,46.6,71.7,76.3c1.9,2.4,2.1,5.8,0.5,8.4
												C2014.7,1573.1,1994.8,1602.6,1973.1,1631.5z"/>
										</g>
									</g>
								</g>
							</g>
						</g>
						<g>
							<g>
								<g>
									<g>
										<g>
											<path class="st5" d="M2054.5,1776.3h-57.8c-27.3,0-53.3-9.7-73.4-27.2c-59.1-51.6-94.5-143.1-92.5-238.9
												c1.9-89.7,36.1-165.6,96.2-213.9c19.6-15.7,44.5-24.4,70-24.4h53.4c26,0,50.8,9.5,69.7,26.9c61,56,96.6,150.9,92.8,247.7
												c-3.4,87.7-38.1,163.5-95,208.1C2100.1,1768.6,2077.5,1776.3,2054.5,1776.3z M1997.1,1291.9c-21,0-41.5,7.1-57.5,20
												c-55.5,44.5-87,115.1-88.8,198.8c-1.9,88.6,31.8,176.3,85.7,223.4c16.4,14.3,37.8,22.2,60.2,22.2h57.8
												c18.6,0,36.8-6.2,51.1-17.4c52.4-41,84.2-111.4,87.4-193.2c3.6-91.1-29.5-180.1-86.3-232.2
												c-15.2-13.9-35.1-21.6-56.2-21.6L1997.1,1291.9L1997.1,1291.9z"/>
										</g>
									</g>
								</g>
							</g>
						</g>
						<g class="st12">
							<g>
								<g>
									<g>
										<g>
											<g>
												<path class="st5" d="M2123.9,1730.1c-101.6,74.8-204.3-70.8-201.2-144.3c0-0.5,0.6-12.4-3.6-26.8
													c-13.3-46.3-66.2-7.8-70.6-120.3c-12.5,70.1-12.8,147.6,17.5,213.2c16,26.4,37.2,49.4,55.5,74.2
													c39.5,63.5,133.5,47.1,189.1,18.7"/>
											</g>
										</g>
									</g>
								</g>
							</g>
						</g>
					</g>
				</g>
			</g>
		</g>
		<g>
			<g>
				<g>
					<g>
						<g>
							<path class="st2" d="M2184.3,2781.9c-0.2,12.4-3.2,25.3-8.6,36.3c-10,19.8-22.7,33.3-25.2,54.5c-2.7,24.4,4.4,50.3,11.9,73.7
								c2.2,8,6.5,24,8.7,31.9c8.9,37.5,13.4,77.1,8.9,115.6c-2.7,22.2-8.8,44-17,64.6c-16.2,41.5-42.5,75.7-52.6,116.5
								c-1.1,4.5-8.5,4.1-8.2-1.4c3.8-43.8,29.4-81.9,44-121.7c10.9-29.2,16.3-60,14.8-91.1c-0.7-25.7-5.8-52.1-11.9-77
								c-2.2-7.5-6.6-22.6-8.7-30.1c-7.1-21-13.9-43.7-14.7-66c-1.2-18.1,3.2-37.1,11.8-52.7c5.6-10.5,11.8-19.1,15.7-27.4
								c4.1-8.4,5.8-16.9,6.1-26.2C2160.2,2765.1,2184.2,2765.4,2184.3,2781.9L2184.3,2781.9z"/>
						</g>
					</g>
				</g>
			</g>
		</g>
	</g>
</g>
<g>
	<g>
		<g>
			<g>
				<g>
					<g>
						<path class="st16" d="M3741.1,1904.6c-36.2,80.5-97.9,147.6-180.5,196.7c-110.5,65.4-287.5,135-558.6,110
							c0,0,222.5,12.3,360.1-53.8c-155.9,23.4-256.3-40.3-256.3-40.3c204.1,96.3,558.4-49.8,629.4-252.9
							c55.6-157.7,2.7-317.8-80.3-381.5c-56-42.9-119.1-56.6-183.3-12.9c-79.1,53.8-165.6,117.2-228.4,96.6
							c-126.4-41.8-179.7-253.3-221.8-371.5c-14.6-40.9-26.9-76.8-36.8-90.6l7.9-14.3c12,16.3,24.1,51.2,39.8,95.9
							c40.6,114.9,103.5,303.2,222,342c57.4,18.5,130-9.6,203.2-59.7c72.7-49.5,148-66.3,211-18c88.8,68.1,144.5,253.9,86,420.6
							C3750.3,1882,3746,1893,3741.1,1904.6z"/>
					</g>
				</g>
			</g>
		</g>
	</g>
	<g>
		<g>
			<g>
				<g>
					<g>
						<path class="st17" d="M2273.4,796.8c96.4-229.5,126.4-524.3,126.4-524.3s242.5,111.5,458.7,66.8
							c-9,283.4,154.5,800.2,154.5,800.2S2539,899.5,2273.4,796.8z"/>
					</g>
				</g>
			</g>
			<g>
				<path class="st16" d="M2399.7,271.3c0,0,242.7,112.6,458.2,67.5c-9,283.4,154.5,800.2,154.5,800.2L2399.7,271.3z"/>
			</g>
			<g>
				<path class="st18" d="M2858.5,339.3c-9,283.4,154.5,800.2,154.5,800.2l-484-685.1C2529,454.4,2642.8,383.3,2858.5,339.3z"/>
			</g>
			<g>
				<path class="st19" d="M2273.4,796.8c96.4-229.5,255.1-341.8,255.1-341.8l484,685.1C3013,1139.5,2539,899.5,2273.4,796.8z"/>
			</g>
		</g>
	</g>
</g>
</svg>
