<?xml version="1.0" encoding="utf-8"?>
<!-- Generator: Adobe Illustrator 16.0.3, SVG Export Plug-In . SVG Version: 6.00 Build 0)  -->
<!DOCTYPE svg PUBLIC "-//W3C//DTD SVG 1.1//EN" "http://www.w3.org/Graphics/SVG/1.1/DTD/svg11.dtd">
<svg version="1.1" id="Capa_1" xmlns="http://www.w3.org/2000/svg" xmlns:xlink="http://www.w3.org/1999/xlink" x="0px" y="0px"
	 width="602px" height="595.281px" viewBox="117.445 0 602 595.281" enable-background="new 117.445 0 602 595.281"
	 xml:space="preserve">
<g>
	<path fill="#FFFFFF" stroke="#FFFFFF" stroke-miterlimit="10" d="M613.021,279.594c8.098,2.183,12.149,7.637,12.149,16.355
		c0,3.431-0.781,6.937-2.337,10.513c-1.563,3.585-3.584,6.623-6.074,9.112L296.665,226.79c-8.098-2.176-12.149-7.63-12.149-16.355
		c0-3.424,0.861-6.929,2.569-10.514c1.716-3.578,3.666-6.615,5.842-9.112L613.021,279.594z"/>
</g>
<g>
	<path fill="#FFFFFF" stroke="#FFFFFF" stroke-miterlimit="10" d="M292.927,407.452c-2.176-2.497-4.126-5.534-5.842-9.112
		c-1.708-3.585-2.569-7.09-2.569-10.514c0-8.726,4.052-14.18,12.149-16.355l320.094-88.785c2.49,2.49,4.512,5.527,6.074,9.112
		c1.556,3.578,2.337,7.083,2.337,10.514c0,8.717-4.052,14.171-12.149,16.354L292.927,407.452z"/>
</g>
<g>
	<path fill="#FFFFFF" stroke="#FFFFFF" stroke-width="21" stroke-miterlimit="10" d="M417.499,583.812
		c-30.295,0-60.096-4.709-88.603-14.03l2.801-8.569c27.589,9.063,56.473,13.606,85.802,13.606
		c152.091,0,275.813-123.724,275.813-275.79v-0.611h8.946v0.54C702.259,456.061,574.51,583.812,417.499,583.812z M275.249,545.795
		c-87.92-50.775-142.554-145.334-142.554-246.766c0-80.694,34.461-157.951,94.533-211.904l6.003,6.686
		c-58.166,52.234-91.546,127.066-91.546,205.218c0,98.209,52.894,189.823,138.062,238.999L275.249,545.795z M687.358,241.851
		C660.663,115.186,547.18,23.216,417.499,23.216c-48.655,0-96.465,12.829-138.248,37.123l-4.519-7.77
		c43.17-25.093,92.533-38.322,142.743-38.322c0,0,0,0,0.023,0c65.7,0,129.821,22.928,180.503,64.545
		c50.021,41.029,84.883,98.279,98.159,161.198L687.358,241.851z"/>
</g>
</svg>
