<?xml version="1.0" encoding="utf-8"?>
<!-- Generator: Adobe Illustrator 16.0.3, SVG Export Plug-In . SVG Version: 6.00 Build 0)  -->
<!DOCTYPE svg PUBLIC "-//W3C//DTD SVG 1.1//EN" "http://www.w3.org/Graphics/SVG/1.1/DTD/svg11.dtd">
<svg version="1.1" id="Capa_1" xmlns="http://www.w3.org/2000/svg" xmlns:xlink="http://www.w3.org/1999/xlink" x="0px" y="0px"
	 width="602px" height="595.281px" viewBox="117.445 0 602 595.281" enable-background="new 117.445 0 602 595.281"
	 xml:space="preserve">
<g>
	<path fill="#FFFFFF" stroke="#FFFFFF" stroke-miterlimit="10" d="M540.639,190.708c2.176,2.497,4.126,5.535,5.842,9.112
		c1.708,3.585,2.569,7.09,2.569,10.514c0,8.725-4.052,14.179-12.149,16.355l-320.094,88.785c-2.49-2.489-4.512-5.527-6.075-9.112
		c-1.555-3.577-2.336-7.082-2.336-10.513c0-8.718,4.052-14.172,12.149-16.355L540.639,190.708z"/>
</g>
<g>
	<path fill="#FFFFFF" stroke="#FFFFFF" stroke-miterlimit="10" d="M222.322,316.566c-8.097-2.184-12.149-7.638-12.149-16.354
		c0-3.432,0.781-6.937,2.336-10.514c1.563-3.585,3.585-6.623,6.075-9.112l320.093,88.785c8.098,2.176,12.15,7.63,12.15,16.355
		c0,3.424-0.861,6.929-2.57,10.514c-1.715,3.578-3.666,6.615-5.842,9.112L222.322,316.566z"/>
</g>
<g>
	<path fill="#FFFFFF" stroke="#FFFFFF" stroke-width="21" stroke-miterlimit="10" d="M132.696,298.958v-0.54h8.946v0.611
		c0,152.066,123.723,275.79,275.813,275.79c29.329,0,58.213-4.544,85.802-13.606l2.801,8.569
		c-28.507,9.321-58.308,14.03-88.603,14.03C260.445,583.812,132.696,456.061,132.696,298.958z M555.207,538.028
		c85.168-49.176,138.062-140.79,138.062-238.999c0-78.151-33.38-152.984-91.546-205.218l6.003-6.686
		c60.072,53.953,94.533,131.209,94.533,211.904c0,101.432-54.634,195.99-142.554,246.766L555.207,538.028z M138.793,239.991
		c13.276-62.919,48.139-120.169,98.159-161.198c50.682-41.618,114.803-64.545,180.503-64.545c0.023,0,0.023,0,0.023,0
		c50.21,0,99.573,13.229,142.743,38.322l-4.519,7.77c-41.783-24.294-89.593-37.123-138.248-37.123
		c-129.681,0-243.164,91.97-269.858,218.635L138.793,239.991z"/>
</g>
</svg>
