<?xml version="1.0" encoding="utf-8"?>
<!-- Generator: Adobe Illustrator 16.0.3, SVG Export Plug-In . SVG Version: 6.00 Build 0)  -->
<!DOCTYPE svg PUBLIC "-//W3C//DTD SVG 1.1//EN" "http://www.w3.org/Graphics/SVG/1.1/DTD/svg11.dtd">
<svg version="1.1" id="Capa_1" xmlns="http://www.w3.org/2000/svg" xmlns:xlink="http://www.w3.org/1999/xlink" x="0px" y="0px"
	 width="75px" height="77px" viewBox="0 0 75 77" enable-background="new 0 0 75 77" xml:space="preserve">
<g>
	<polyline fill="none" stroke="#22ACCC" stroke-width="1.6798" stroke-miterlimit="10" points="-123.802,-13.134 -123.802,262.781 
		-96.01,262.781 	"/>
	
		<line fill="none" stroke="#22ACCC" stroke-width="1.6798" stroke-miterlimit="10" x1="-94.802" y1="7.408" x2="-124.206" y2="7.408"/>
	
		<line fill="none" stroke="#22ACCC" stroke-width="1.6798" stroke-miterlimit="10" x1="-95.606" y1="60.173" x2="-123.4" y2="60.173"/>
	
		<line fill="none" stroke="#22ACCC" stroke-width="1.6798" stroke-miterlimit="10" x1="-95.606" y1="112.94" x2="-124.206" y2="112.94"/>
	
		<line fill="none" stroke="#22ACCC" stroke-width="1.6798" stroke-miterlimit="10" x1="-96.414" y1="164.901" x2="-123.802" y2="164.901"/>
	
		<line fill="none" stroke="#22ACCC" stroke-width="1.6798" stroke-miterlimit="10" x1="-96.01" y1="216.86" x2="-124.609" y2="216.86"/>
	<g>
		
			<line fill="none" stroke="#22ACCC" stroke-width="0.8272" stroke-miterlimit="10" x1="-123.802" y1="14.558" x2="-107.337" y2="14.558"/>
		
			<line fill="none" stroke="#22ACCC" stroke-width="0.8272" stroke-miterlimit="10" x1="-123.802" y1="19.391" x2="-107.337" y2="19.391"/>
		
			<line fill="none" stroke="#22ACCC" stroke-width="0.8272" stroke-miterlimit="10" x1="-123.802" y1="24.225" x2="-107.337" y2="24.225"/>
		
			<line fill="none" stroke="#22ACCC" stroke-width="0.8272" stroke-miterlimit="10" x1="-123.802" y1="29.058" x2="-107.337" y2="29.058"/>
		
			<line fill="none" stroke="#22ACCC" stroke-width="0.8272" stroke-miterlimit="10" x1="-123.802" y1="33.892" x2="-107.337" y2="33.892"/>
		
			<line fill="none" stroke="#22ACCC" stroke-width="0.8272" stroke-miterlimit="10" x1="-123.802" y1="38.726" x2="-107.337" y2="38.726"/>
		
			<line fill="none" stroke="#22ACCC" stroke-width="0.8272" stroke-miterlimit="10" x1="-123.802" y1="43.559" x2="-107.337" y2="43.559"/>
		
			<line fill="none" stroke="#22ACCC" stroke-width="0.8272" stroke-miterlimit="10" x1="-123.802" y1="48.393" x2="-107.337" y2="48.393"/>
		
			<line fill="none" stroke="#22ACCC" stroke-width="0.8272" stroke-miterlimit="10" x1="-123.802" y1="53.226" x2="-107.337" y2="53.226"/>
	</g>
	<g>
		
			<line fill="none" stroke="#22ACCC" stroke-width="0.8272" stroke-miterlimit="10" x1="-123.4" y1="66.719" x2="-106.936" y2="66.719"/>
		
			<line fill="none" stroke="#22ACCC" stroke-width="0.8272" stroke-miterlimit="10" x1="-123.4" y1="71.553" x2="-106.936" y2="71.553"/>
		
			<line fill="none" stroke="#22ACCC" stroke-width="0.8272" stroke-miterlimit="10" x1="-123.4" y1="76.386" x2="-106.936" y2="76.386"/>
		
			<line fill="none" stroke="#22ACCC" stroke-width="0.8272" stroke-miterlimit="10" x1="-123.4" y1="81.219" x2="-106.936" y2="81.219"/>
		
			<line fill="none" stroke="#22ACCC" stroke-width="0.8272" stroke-miterlimit="10" x1="-123.4" y1="86.053" x2="-106.936" y2="86.053"/>
		
			<line fill="none" stroke="#22ACCC" stroke-width="0.8272" stroke-miterlimit="10" x1="-123.4" y1="90.886" x2="-106.936" y2="90.886"/>
		
			<line fill="none" stroke="#22ACCC" stroke-width="0.8272" stroke-miterlimit="10" x1="-123.4" y1="95.719" x2="-106.936" y2="95.719"/>
		
			<line fill="none" stroke="#22ACCC" stroke-width="0.8272" stroke-miterlimit="10" x1="-123.4" y1="100.553" x2="-106.936" y2="100.553"/>
		
			<line fill="none" stroke="#22ACCC" stroke-width="0.8272" stroke-miterlimit="10" x1="-123.4" y1="105.386" x2="-106.936" y2="105.386"/>
	</g>
	<g>
		
			<line fill="none" stroke="#22ACCC" stroke-width="0.8272" stroke-miterlimit="10" x1="-122.998" y1="118.882" x2="-106.534" y2="118.882"/>
		
			<line fill="none" stroke="#22ACCC" stroke-width="0.8272" stroke-miterlimit="10" x1="-122.998" y1="123.715" x2="-106.534" y2="123.715"/>
		
			<line fill="none" stroke="#22ACCC" stroke-width="0.8272" stroke-miterlimit="10" x1="-122.998" y1="128.549" x2="-106.534" y2="128.549"/>
		
			<line fill="none" stroke="#22ACCC" stroke-width="0.8272" stroke-miterlimit="10" x1="-122.998" y1="133.382" x2="-106.534" y2="133.382"/>
		
			<line fill="none" stroke="#22ACCC" stroke-width="0.8272" stroke-miterlimit="10" x1="-122.998" y1="138.215" x2="-106.534" y2="138.215"/>
		
			<line fill="none" stroke="#22ACCC" stroke-width="0.8272" stroke-miterlimit="10" x1="-122.998" y1="143.049" x2="-106.534" y2="143.049"/>
		
			<line fill="none" stroke="#22ACCC" stroke-width="0.8272" stroke-miterlimit="10" x1="-122.998" y1="147.882" x2="-106.534" y2="147.882"/>
		
			<line fill="none" stroke="#22ACCC" stroke-width="0.8272" stroke-miterlimit="10" x1="-122.998" y1="152.716" x2="-106.534" y2="152.716"/>
		
			<line fill="none" stroke="#22ACCC" stroke-width="0.8272" stroke-miterlimit="10" x1="-122.998" y1="157.549" x2="-106.534" y2="157.549"/>
	</g>
	<g>
		
			<line fill="none" stroke="#22ACCC" stroke-width="0.8272" stroke-miterlimit="10" x1="-122.593" y1="171.041" x2="-106.13" y2="171.041"/>
		
			<line fill="none" stroke="#22ACCC" stroke-width="0.8272" stroke-miterlimit="10" x1="-122.593" y1="175.875" x2="-106.13" y2="175.875"/>
		
			<line fill="none" stroke="#22ACCC" stroke-width="0.8272" stroke-miterlimit="10" x1="-122.593" y1="180.708" x2="-106.13" y2="180.708"/>
		
			<line fill="none" stroke="#22ACCC" stroke-width="0.8272" stroke-miterlimit="10" x1="-122.593" y1="185.542" x2="-106.13" y2="185.542"/>
		
			<line fill="none" stroke="#22ACCC" stroke-width="0.8272" stroke-miterlimit="10" x1="-122.593" y1="190.375" x2="-106.13" y2="190.375"/>
		
			<line fill="none" stroke="#22ACCC" stroke-width="0.8272" stroke-miterlimit="10" x1="-122.593" y1="195.208" x2="-106.13" y2="195.208"/>
		
			<line fill="none" stroke="#22ACCC" stroke-width="0.8272" stroke-miterlimit="10" x1="-122.593" y1="200.042" x2="-106.13" y2="200.042"/>
		
			<line fill="none" stroke="#22ACCC" stroke-width="0.8272" stroke-miterlimit="10" x1="-122.593" y1="204.875" x2="-106.13" y2="204.875"/>
		
			<line fill="none" stroke="#22ACCC" stroke-width="0.8272" stroke-miterlimit="10" x1="-122.593" y1="209.709" x2="-106.13" y2="209.709"/>
	</g>
	<g>
		
			<line fill="none" stroke="#22ACCC" stroke-width="0.8272" stroke-miterlimit="10" x1="-123.94" y1="223.208" x2="-107.476" y2="223.208"/>
		
			<line fill="none" stroke="#22ACCC" stroke-width="0.8272" stroke-miterlimit="10" x1="-123.94" y1="227.385" x2="-107.476" y2="227.385"/>
		
			<line fill="none" stroke="#22ACCC" stroke-width="0.8272" stroke-miterlimit="10" x1="-123.94" y1="231.563" x2="-107.476" y2="231.563"/>
		
			<line fill="none" stroke="#22ACCC" stroke-width="0.8272" stroke-miterlimit="10" x1="-123.94" y1="235.741" x2="-107.476" y2="235.741"/>
		
			<line fill="none" stroke="#22ACCC" stroke-width="0.8272" stroke-miterlimit="10" x1="-123.94" y1="239.918" x2="-107.476" y2="239.918"/>
		
			<line fill="none" stroke="#22ACCC" stroke-width="0.8272" stroke-miterlimit="10" x1="-123.94" y1="244.097" x2="-107.476" y2="244.097"/>
		
			<line fill="none" stroke="#22ACCC" stroke-width="0.8272" stroke-miterlimit="10" x1="-123.94" y1="248.275" x2="-107.476" y2="248.275"/>
		
			<line fill="none" stroke="#22ACCC" stroke-width="0.8272" stroke-miterlimit="10" x1="-123.94" y1="252.453" x2="-107.476" y2="252.453"/>
		
			<line fill="none" stroke="#22ACCC" stroke-width="0.8272" stroke-miterlimit="10" x1="-123.94" y1="256.63" x2="-107.476" y2="256.63"/>
	</g>
</g>
<g opacity="0.8">
	<g>
		<g>
			<linearGradient id="SVGID_1_" gradientUnits="userSpaceOnUse" x1="11.5205" y1="6.2505" x2="70.2464" y2="78.8077">
				<stop  offset="9.999999e-008" style="stop-color:#80CFD5"/>
				<stop  offset="0.4362" style="stop-color:#76C7D8"/>
				<stop  offset="1" style="stop-color:#6EC1DA"/>
			</linearGradient>
			<circle fill="url(#SVGID_1_)" cx="38.341" cy="39.388" r="4.762"/>
		</g>
		<g>
			<linearGradient id="SVGID_2_" gradientUnits="userSpaceOnUse" x1="11.5186" y1="6.248" x2="70.2484" y2="78.8102">
				<stop  offset="9.999999e-008" style="stop-color:#2B4B9F"/>
				<stop  offset="0.0706" style="stop-color:#3155A4"/>
				<stop  offset="0.381" style="stop-color:#4A80B9"/>
				<stop  offset="0.6504" style="stop-color:#5DA2CA"/>
				<stop  offset="0.8657" style="stop-color:#69B9D5"/>
				<stop  offset="1" style="stop-color:#6EC1DA"/>
			</linearGradient>
			<path fill="url(#SVGID_2_)" d="M39.713,49.087l-0.414-2.932c0.079-0.011,0.158-0.023,0.235-0.037l0.516,2.915
				C39.938,49.053,39.826,49.071,39.713,49.087z M36.652,49.037c-0.113-0.02-0.226-0.041-0.337-0.065l0.611-2.896
				c0.077,0.017,0.155,0.031,0.233,0.045L36.652,49.037z M42.946,48.034l-1.394-2.611c0.07-0.038,0.141-0.077,0.21-0.117
				l1.481,2.563C43.146,47.925,43.047,47.98,42.946,48.034z M33.452,47.876c-0.098-0.057-0.195-0.116-0.293-0.176l1.569-2.51
				c0.067,0.042,0.136,0.083,0.204,0.123L33.452,47.876z M45.623,45.937L43.42,43.96c0.054-0.06,0.106-0.12,0.158-0.182l2.269,1.902
				C45.773,45.768,45.699,45.854,45.623,45.937z M30.847,45.694c-0.072-0.087-0.144-0.173-0.213-0.263l2.326-1.831
				c0.05,0.063,0.1,0.125,0.152,0.187L30.847,45.694z M47.424,43.058l-2.743-1.111c0.03-0.074,0.058-0.148,0.085-0.223l2.781,1.014
				C47.509,42.845,47.468,42.952,47.424,43.058z M29.141,42.755c-0.039-0.107-0.076-0.216-0.111-0.324l2.814-0.919
				c0.024,0.076,0.05,0.15,0.077,0.224L29.141,42.755z M48.13,39.727l-2.959-0.098c0.003-0.08,0.005-0.16,0.005-0.241v-0.032h2.96
				v0.032C48.136,39.501,48.134,39.614,48.13,39.727z M28.547,39.404v-0.016c0-0.108,0.002-0.214,0.005-0.321l2.959,0.094
				c-0.003,0.075-0.004,0.151-0.004,0.227L28.547,39.404z M44.835,37.253c-0.024-0.077-0.051-0.152-0.079-0.229l2.78-1.02
				c0.038,0.106,0.075,0.213,0.11,0.32L44.835,37.253z M31.913,37.062l-2.785-1.004c0.038-0.108,0.08-0.215,0.123-0.321l2.747,1.104
				C31.967,36.913,31.939,36.988,31.913,37.062z M43.713,35.161c-0.05-0.061-0.1-0.123-0.15-0.183l2.259-1.914
				c0.074,0.087,0.146,0.176,0.217,0.266L43.713,35.161z M33.094,35.008l-2.269-1.902c0.072-0.086,0.146-0.172,0.222-0.256
				l2.205,1.976C33.198,34.886,33.146,34.947,33.094,35.008z M41.939,33.577c-0.065-0.042-0.133-0.081-0.2-0.12l1.473-2.568
				c0.102,0.058,0.199,0.117,0.298,0.178L41.939,33.577z M34.91,33.476l-1.488-2.559c0.099-0.057,0.198-0.114,0.3-0.167l1.394,2.612
				C35.046,33.398,34.978,33.436,34.91,33.476z M39.743,32.697c-0.077-0.017-0.155-0.031-0.234-0.044l0.503-2.918
				c0.112,0.02,0.225,0.041,0.336,0.064L39.743,32.697z M37.134,32.659l-0.52-2.915c0.112-0.02,0.225-0.038,0.337-0.054l0.418,2.93
				C37.29,32.633,37.212,32.646,37.134,32.659z"/>
		</g>
		<g>
			<g>
				<linearGradient id="SVGID_3_" gradientUnits="userSpaceOnUse" x1="11.5186" y1="6.2476" x2="70.2495" y2="78.8111">
					<stop  offset="9.999999e-008" style="stop-color:#80CFD5"/>
					<stop  offset="0.4362" style="stop-color:#76C7D8"/>
					<stop  offset="1" style="stop-color:#6EC1DA"/>
				</linearGradient>
				<path fill="url(#SVGID_3_)" d="M20.286,70.997l-0.128-0.074c-7.58-4.377-13.334-11.33-16.201-19.575l-0.049-0.14l16.497-5.737
					l0.049,0.14c1.491,4.288,4.488,7.905,8.439,10.187l0.127,0.075L20.286,70.997z M4.285,51.39
					c2.845,8.071,8.48,14.88,15.893,19.203l8.439-14.613c-3.906-2.296-6.88-5.885-8.394-10.133L4.285,51.39z M56.271,33.285
					l-0.049-0.14c-1.496-4.287-4.497-7.901-8.45-10.178l-0.129-0.074l8.719-15.135l0.128,0.074
					c7.585,4.369,13.346,11.314,16.224,19.558l0.048,0.139L56.271,33.285z M48.047,22.785c3.908,2.292,6.886,5.877,8.405,10.123
					l15.932-5.561C69.53,19.279,63.888,12.476,56.47,8.163L48.047,22.785z M28.729,23.073L19.958,7.968l0.129-0.075
					C25.611,4.686,31.923,2.99,38.34,2.99c2.282,0,4.568,0.214,6.795,0.635l0.146,0.027l-3.245,17.162l-0.146-0.027
					c-1.159-0.219-2.354-0.331-3.549-0.331H38.34c-3.34,0-6.618,0.879-9.483,2.542L28.729,23.073z M20.363,8.076l8.473,14.594
					c2.879-1.642,6.162-2.509,9.504-2.509c0.001,0,0.001,0,0.001,0c1.163,0,2.326,0.104,3.459,0.309l3.135-16.581
					c-2.163-0.399-4.381-0.603-6.593-0.603C32.025,3.286,25.813,4.942,20.363,8.076z"/>
			</g>
		</g>
		<g>
			<linearGradient id="SVGID_4_" gradientUnits="userSpaceOnUse" x1="11.5195" y1="6.249" x2="70.2475" y2="78.8087">
				<stop  offset="9.999999e-008" style="stop-color:#2B4B9F"/>
				<stop  offset="0.0706" style="stop-color:#3155A4"/>
				<stop  offset="0.381" style="stop-color:#4A80B9"/>
				<stop  offset="0.6504" style="stop-color:#5DA2CA"/>
				<stop  offset="0.8657" style="stop-color:#69B9D5"/>
				<stop  offset="1" style="stop-color:#6EC1DA"/>
			</linearGradient>
			<path fill="url(#SVGID_4_)" d="M38.341,54.499c-8.332,0-15.11-6.779-15.11-15.111s6.778-15.111,15.11-15.111
				s15.11,6.779,15.11,15.111S46.673,54.499,38.341,54.499z M38.341,24.869c-8.005,0-14.519,6.513-14.519,14.519
				s6.514,14.519,14.519,14.519c8.006,0,14.52-6.513,14.52-14.519S46.347,24.869,38.341,24.869z"/>
		</g>
		<g>
			<linearGradient id="SVGID_5_" gradientUnits="userSpaceOnUse" x1="11.5186" y1="6.248" x2="70.2476" y2="78.8092">
				<stop  offset="9.999999e-008" style="stop-color:#2B4B9F"/>
				<stop  offset="0.0706" style="stop-color:#3155A4"/>
				<stop  offset="0.381" style="stop-color:#4A80B9"/>
				<stop  offset="0.6504" style="stop-color:#5DA2CA"/>
				<stop  offset="0.8657" style="stop-color:#69B9D5"/>
				<stop  offset="1" style="stop-color:#6EC1DA"/>
			</linearGradient>
			<path fill="url(#SVGID_5_)" d="M38.341,57.298c-9.876,0-17.91-8.035-17.91-17.91c0-9.876,8.034-17.91,17.91-17.91
				s17.911,8.034,17.911,17.91C56.252,49.263,48.217,57.298,38.341,57.298z M38.341,21.773c-9.712,0-17.614,7.901-17.614,17.614
				s7.902,17.614,17.614,17.614c9.713,0,17.615-7.901,17.615-17.614S48.054,21.773,38.341,21.773z"/>
		</g>
		<g>
			<linearGradient id="SVGID_6_" gradientUnits="userSpaceOnUse" x1="11.5186" y1="6.248" x2="70.2473" y2="78.8088">
				<stop  offset="9.999999e-008" style="stop-color:#2B4B9F"/>
				<stop  offset="0.0706" style="stop-color:#3155A4"/>
				<stop  offset="0.381" style="stop-color:#4A80B9"/>
				<stop  offset="0.6504" style="stop-color:#5DA2CA"/>
				<stop  offset="0.8657" style="stop-color:#69B9D5"/>
				<stop  offset="1" style="stop-color:#6EC1DA"/>
			</linearGradient>
			<path fill="url(#SVGID_6_)" d="M38.341,57.374c-9.918,0-17.986-8.068-17.986-17.986s8.068-17.986,17.986-17.986
				s17.987,8.068,17.987,17.986S48.259,57.374,38.341,57.374z M38.341,21.698c-9.754,0-17.689,7.936-17.689,17.69
				c0,9.754,7.936,17.69,17.689,17.69s17.689-7.936,17.689-17.69C56.03,29.633,48.095,21.698,38.341,21.698z"/>
		</g>
		<g>
			<linearGradient id="SVGID_7_" gradientUnits="userSpaceOnUse" x1="11.5117" y1="6.2544" x2="70.2409" y2="78.8156">
				<stop  offset="9.999999e-008" style="stop-color:#2B4B9F"/>
				<stop  offset="0.0706" style="stop-color:#3155A4"/>
				<stop  offset="0.381" style="stop-color:#4A80B9"/>
				<stop  offset="0.6504" style="stop-color:#5DA2CA"/>
				<stop  offset="0.8657" style="stop-color:#69B9D5"/>
				<stop  offset="1" style="stop-color:#6EC1DA"/>
			</linearGradient>
			<path fill="url(#SVGID_7_)" d="M36.576,70.17c0,0,0,0-0.004,0l0,0c-0.162-0.009-0.287-0.147-0.277-0.313l0,0
				c0.008-0.163,0.15-0.287,0.313-0.278l0,0c0.162,0.009,0.287,0.15,0.278,0.313l0,0c-0.009,0.156-0.14,0.278-0.296,0.278l0,0
				C36.585,70.17,36.579,70.17,36.576,70.17z M40.437,69.853c-0.013-0.162,0.109-0.305,0.272-0.316l0,0
				c0.162-0.012,0.305,0.11,0.316,0.273l0,0c0.012,0.162-0.109,0.305-0.272,0.316l0,0c-0.006,0.003-0.015,0.003-0.023,0.003l0,0
				C40.578,70.129,40.448,70.01,40.437,69.853z M32.426,69.651c-0.16-0.029-0.264-0.186-0.234-0.346l0,0
				c0.033-0.16,0.187-0.264,0.347-0.234l0,0c0.163,0.03,0.266,0.188,0.236,0.348l0,0c-0.029,0.141-0.153,0.239-0.293,0.239l0,0
				C32.464,69.658,32.446,69.658,32.426,69.651z M44.539,69.297c-0.035-0.159,0.065-0.319,0.225-0.353l0,0
				c0.161-0.035,0.317,0.068,0.353,0.229l0,0c0.036,0.156-0.067,0.316-0.228,0.349l0,0c-0.021,0.007-0.042,0.009-0.063,0.009l0,0
				C44.69,69.53,44.568,69.437,44.539,69.297z M28.385,68.577c0,0,0,0-0.003,0l0,0c-0.154-0.053-0.237-0.223-0.184-0.375l0,0
				c0.053-0.157,0.223-0.24,0.376-0.188l0,0c0.153,0.054,0.236,0.223,0.186,0.377l0,0c-0.044,0.123-0.159,0.2-0.28,0.2l0,0
				C28.446,68.592,28.414,68.587,28.385,68.577z M48.527,68.187c-0.057-0.154,0.021-0.326,0.175-0.383l0,0
				c0.153-0.055,0.325,0.025,0.381,0.179l0,0c0.054,0.153-0.023,0.323-0.177,0.379l0,0c-0.033,0.012-0.068,0.019-0.102,0.019l0,0
				C48.684,68.38,48.571,68.306,48.527,68.187z M24.524,66.958c0,0,0,0,0.002,0l0,0c-0.147-0.074-0.206-0.252-0.133-0.396l0,0
				c0.074-0.146,0.252-0.204,0.396-0.13l0,0c0.148,0.071,0.208,0.249,0.134,0.396l0,0c-0.053,0.104-0.157,0.163-0.267,0.163l0,0
				C24.613,66.99,24.568,66.981,24.524,66.958z M52.325,66.541c-0.073-0.143-0.021-0.323,0.125-0.399l0,0
				c0.144-0.077,0.325-0.021,0.399,0.125l0,0c0.076,0.145,0.021,0.323-0.122,0.399l0,0c-0.044,0.023-0.091,0.035-0.139,0.035l0,0
				C52.482,66.7,52.379,66.641,52.325,66.541z M20.924,64.833c-0.136-0.092-0.169-0.276-0.076-0.411l0,0
				c0.092-0.134,0.278-0.169,0.411-0.078l0,0c0.137,0.092,0.169,0.278,0.077,0.411l0,0c-0.057,0.086-0.151,0.131-0.246,0.131l0,0
				C21.034,64.886,20.975,64.868,20.924,64.833z M55.866,64.397c-0.095-0.133-0.065-0.316,0.071-0.411l0,0
				c0.13-0.098,0.316-0.065,0.411,0.068l0,0c0.094,0.133,0.064,0.317-0.068,0.412l0,0l0,0l0,0c-0.054,0.038-0.112,0.056-0.172,0.056
				l0,0C56.017,64.521,55.925,64.478,55.866,64.397z M17.644,62.239c-0.121-0.11-0.13-0.296-0.021-0.417l0,0
				c0.109-0.122,0.296-0.13,0.417-0.021l0,0c0.122,0.11,0.131,0.299,0.021,0.42l0,0c-0.06,0.063-0.139,0.095-0.22,0.095l0,0
				C17.771,62.316,17.7,62.292,17.644,62.239z M59.087,61.795c-0.113-0.118-0.106-0.305,0.012-0.417l0,0
				c0.118-0.112,0.309-0.106,0.421,0.012l0,0c0.112,0.119,0.105,0.308-0.012,0.421l0,0c0,0,0,0,0-0.003l0,0
				c-0.06,0.057-0.131,0.083-0.205,0.083l0,0C59.223,61.89,59.146,61.857,59.087,61.795z M14.743,59.231L14.743,59.231
				L14.743,59.231c-0.107-0.125-0.089-0.311,0.035-0.417l0,0c0.124-0.104,0.311-0.088,0.418,0.035l0,0
				c0.104,0.125,0.089,0.314-0.036,0.417l0,0c-0.057,0.048-0.124,0.071-0.192,0.071l0,0C14.885,59.338,14.802,59.302,14.743,59.231z
				 M61.929,58.784c-0.127-0.104-0.147-0.29-0.044-0.417l0,0c0.104-0.127,0.29-0.148,0.417-0.044l0,0
				c0.124,0.104,0.146,0.29,0.045,0.417l0,0l0,0l0,0c-0.061,0.071-0.146,0.109-0.231,0.109l0,0
				C62.051,58.849,61.982,58.829,61.929,58.784z M12.273,55.859c-0.089-0.136-0.047-0.32,0.092-0.409l0,0
				c0.137-0.085,0.32-0.047,0.408,0.092l0,0c0.087,0.139,0.045,0.319-0.091,0.408l0,0c-0.051,0.033-0.104,0.047-0.16,0.047l0,0
				C12.425,55.998,12.33,55.948,12.273,55.859z M64.339,55.415c-0.14-0.083-0.184-0.266-0.102-0.406l0,0
				c0.086-0.139,0.267-0.186,0.409-0.1l0,0c0.139,0.086,0.184,0.266,0.098,0.406l0,0c-0.054,0.091-0.151,0.145-0.252,0.145l0,0
				C64.439,55.46,64.386,55.445,64.339,55.415z M10.281,52.186c-0.068-0.148-0.003-0.323,0.148-0.391l0,0
				c0.148-0.068,0.322-0.003,0.391,0.145l0,0c0.067,0.151,0.003,0.326-0.146,0.394l0,0c-0.041,0.017-0.082,0.026-0.124,0.026l0,0
				C10.438,52.36,10.332,52.295,10.281,52.186z M66.271,51.753c-0.15-0.065-0.219-0.24-0.153-0.391l0,0
				c0.064-0.148,0.239-0.219,0.388-0.154l0,0c0.15,0.065,0.219,0.24,0.154,0.391l0,0c-0.048,0.109-0.158,0.178-0.27,0.178l0,0
				C66.349,51.777,66.31,51.768,66.271,51.753z M8.811,48.274c0,0,0,0-0.004,0l0,0c-0.044-0.156,0.045-0.323,0.199-0.37l0,0
				c0.156-0.048,0.322,0.042,0.37,0.198l0,0c0.047,0.157-0.042,0.323-0.198,0.37l0,0c-0.03,0.01-0.057,0.013-0.086,0.013l0,0
				C8.964,48.485,8.849,48.402,8.811,48.274z M67.689,47.857c-0.159-0.041-0.252-0.204-0.207-0.363l0,0
				c0.045-0.158,0.207-0.249,0.364-0.205l0,0c0.157,0.044,0.248,0.208,0.207,0.364l0,0c-0.038,0.13-0.157,0.216-0.287,0.216l0,0
				C67.739,47.87,67.716,47.866,67.689,47.857z M7.88,44.198L7.88,44.198L7.88,44.198c-0.022-0.163,0.087-0.314,0.249-0.338l0,0
				c0.16-0.026,0.312,0.083,0.338,0.246l0,0c0.023,0.163-0.086,0.313-0.246,0.338l0,0c-0.017,0.002-0.032,0.002-0.047,0.002l0,0
				C8.031,44.447,7.904,44.343,7.88,44.198z M68.561,43.811c-0.163-0.021-0.275-0.168-0.256-0.332l0,0
				c0.024-0.163,0.172-0.275,0.336-0.255l0,0c0.159,0.021,0.274,0.172,0.251,0.335l0,0c-0.018,0.148-0.146,0.254-0.29,0.254l0,0
				C68.587,43.813,68.574,43.813,68.561,43.811z M7.514,40.033c-0.003-0.163,0.127-0.295,0.293-0.302l0,0
				c0.163-0.002,0.296,0.127,0.299,0.291l0,0c0.006,0.162-0.124,0.298-0.287,0.302l0,0c-0.003,0-0.006,0-0.009,0l0,0
				C7.649,40.323,7.52,40.196,7.514,40.033z M68.58,39.388c0-0.163,0.134-0.296,0.296-0.296l0,0c0.164,0,0.297,0.133,0.297,0.296
				l0,0l0,0l0,0c0,0.163-0.133,0.296-0.297,0.296l0,0C68.714,39.684,68.58,39.551,68.58,39.388z M68.555,38.115
				c-0.007-0.163,0.121-0.302,0.284-0.308l0,0c0.163-0.005,0.302,0.119,0.307,0.281l0,0c0.007,0.166-0.121,0.302-0.283,0.311l0,0
				c-0.003,0-0.009,0-0.013,0l0,0C68.69,38.399,68.561,38.274,68.555,38.115z M7.97,36.187c-0.163-0.02-0.278-0.165-0.261-0.328l0,0
				l0,0l0,0c0.018-0.163,0.166-0.278,0.325-0.261l0,0c0.163,0.018,0.281,0.166,0.261,0.329h0.003
				c-0.018,0.151-0.148,0.26-0.296,0.26l0,0C7.99,36.187,7.981,36.187,7.97,36.187z M68.11,34.038
				c-0.03-0.16,0.077-0.313,0.239-0.343l0,0c0.16-0.03,0.314,0.08,0.344,0.24l0,0c0.026,0.16-0.08,0.314-0.24,0.343l0,0
				c-0.018,0.003-0.035,0.003-0.053,0.003l0,0C68.258,34.281,68.134,34.183,68.11,34.038z M8.677,32.108
				c-0.159-0.042-0.255-0.202-0.213-0.362l0,0c0.038-0.157,0.201-0.254,0.358-0.212l0,0c0.159,0.041,0.254,0.201,0.213,0.36l0,0
				c-0.033,0.134-0.153,0.223-0.284,0.223l0,0C8.725,32.117,8.7,32.114,8.677,32.108z M67.115,30.062
				c-0.051-0.156,0.036-0.325,0.19-0.373l0,0c0.155-0.05,0.321,0.033,0.372,0.19l0,0c0.051,0.153-0.032,0.322-0.189,0.373l0,0
				c-0.029,0.008-0.062,0.014-0.092,0.014l0,0C67.271,30.267,67.157,30.187,67.115,30.062z M9.932,28.159
				c-0.15-0.062-0.222-0.234-0.162-0.385l0,0c0.063-0.15,0.237-0.225,0.388-0.162l0,0c0.151,0.062,0.225,0.233,0.163,0.385l0,0
				c-0.048,0.116-0.16,0.184-0.275,0.184l0,0C10.007,28.18,9.971,28.174,9.932,28.159z M65.588,26.256L65.588,26.256
				c-0.071-0.146-0.009-0.323,0.14-0.394l0,0c0.147-0.071,0.322-0.013,0.394,0.136l0,0c0.071,0.148,0.012,0.326-0.137,0.397l0,0
				c-0.041,0.021-0.086,0.03-0.13,0.03l0,0C65.745,26.424,65.642,26.362,65.588,26.256z M11.718,24.419
				c-0.143-0.083-0.192-0.263-0.11-0.402l0,0c0.083-0.143,0.264-0.193,0.403-0.11l0,0c0.142,0.08,0.192,0.26,0.109,0.403l0,0
				c-0.054,0.098-0.154,0.148-0.255,0.148l0,0C11.814,24.458,11.762,24.447,11.718,24.419z M63.56,22.694
				c-0.089-0.136-0.053-0.319,0.083-0.409l0,0c0.137-0.092,0.319-0.053,0.411,0.083l0,0c0.09,0.136,0.054,0.32-0.082,0.409l0,0
				c-0.05,0.036-0.107,0.05-0.163,0.05l0,0C63.711,22.827,63.616,22.78,63.56,22.694z M13.988,20.957
				c-0.128-0.098-0.151-0.285-0.054-0.415l0,0c0.101-0.13,0.287-0.154,0.417-0.053l0,0c0.128,0.1,0.151,0.287,0.054,0.417l0,0
				c-0.06,0.074-0.148,0.112-0.237,0.112l0,0C14.106,21.018,14.044,21.001,13.988,20.957z M61.07,19.44
				c-0.109-0.125-0.098-0.311,0.026-0.417l0,0c0.122-0.11,0.309-0.098,0.417,0.027l0,0l0,0l0,0c0.106,0.121,0.096,0.308-0.025,0.417
				l0,0c-0.057,0.051-0.128,0.075-0.196,0.075l0,0C61.21,19.542,61.126,19.505,61.07,19.44z M16.708,17.833
				c-0.115-0.115-0.115-0.302,0.004-0.417l0,0c0.115-0.115,0.302-0.112,0.417,0.003l0,0c0.115,0.115,0.112,0.305-0.003,0.417l0,0
				c-0.057,0.06-0.133,0.086-0.208,0.086l0,0C16.842,17.922,16.765,17.892,16.708,17.833z M58.163,16.548
				c-0.125-0.106-0.139-0.293-0.03-0.417l0,0c0.107-0.125,0.294-0.136,0.418-0.029l0,0l0,0l0,0c0.121,0.106,0.137,0.293,0.029,0.417
				l0,0c-0.059,0.068-0.142,0.104-0.225,0.104l0,0C58.287,16.622,58.216,16.596,58.163,16.548z M19.819,15.104
				c-0.097-0.13-0.07-0.317,0.06-0.412l0,0c0.134-0.101,0.316-0.074,0.415,0.059l0,0c0.098,0.131,0.071,0.314-0.06,0.412v0.003
				c-0.053,0.039-0.115,0.06-0.178,0.06l0,0C19.968,15.225,19.879,15.183,19.819,15.104z M54.892,14.073
				c-0.139-0.089-0.178-0.272-0.086-0.408l0,0c0.089-0.136,0.272-0.175,0.409-0.086l0,0c0.136,0.089,0.175,0.273,0.085,0.409l0,0
				c-0.056,0.089-0.15,0.136-0.248,0.136l0,0C54.998,14.124,54.942,14.105,54.892,14.073z M23.271,12.821
				c-0.08-0.142-0.026-0.322,0.116-0.402l0,0l0,0l0,0c0.142-0.08,0.322-0.027,0.401,0.116l0,0c0.081,0.142,0.027,0.323-0.115,0.402
				l0,0c-0.044,0.023-0.095,0.035-0.142,0.035l0,0C23.429,12.972,23.325,12.918,23.271,12.821z M51.316,12.063
				c-0.148-0.068-0.211-0.246-0.14-0.394l0,0c0.068-0.148,0.245-0.21,0.394-0.139l0,0c0.147,0.068,0.21,0.246,0.139,0.394l0,0
				c-0.05,0.107-0.157,0.169-0.266,0.169l0,0C51.398,12.093,51.357,12.083,51.316,12.063z M26.999,11.024
				c-0.06-0.151,0.018-0.323,0.169-0.382l0,0l0,0l0,0c0.153-0.059,0.325,0.015,0.385,0.169l0,0c0.06,0.154-0.018,0.322-0.169,0.382
				l0,0c-0.036,0.015-0.073,0.021-0.109,0.021l0,0C27.155,11.213,27.046,11.142,26.999,11.024z M47.5,10.559L47.5,10.559
				c-0.157-0.05-0.243-0.216-0.193-0.373l0,0c0.051-0.154,0.217-0.243,0.37-0.192l0,0c0.157,0.051,0.243,0.216,0.193,0.373l0,0
				c-0.039,0.125-0.157,0.208-0.281,0.208l0,0C47.559,10.574,47.529,10.568,47.5,10.559z M30.939,9.754
				c-0.039-0.16,0.059-0.32,0.22-0.358l0,0c0.159-0.038,0.319,0.06,0.357,0.219l0,0c0.035,0.16-0.062,0.32-0.219,0.358h-0.004
				c-0.021,0.003-0.044,0.006-0.067,0.006l0,0C31.093,9.979,30.972,9.887,30.939,9.754z M43.515,9.588L43.515,9.588
				c-0.159-0.026-0.269-0.18-0.239-0.34l0,0c0.026-0.163,0.18-0.269,0.341-0.242l0,0c0.162,0.026,0.269,0.18,0.242,0.343l0,0
				c-0.026,0.142-0.151,0.246-0.293,0.246l0,0C43.551,9.594,43.532,9.591,43.515,9.588z M35.016,9.029
				c-0.018-0.163,0.104-0.308,0.267-0.323l0,0l0,0l0,0c0.16-0.018,0.308,0.101,0.323,0.266l0,0c0.014,0.16-0.104,0.305-0.267,0.323
				l0,0c-0.009,0-0.019,0-0.027,0l0,0C35.161,9.295,35.03,9.183,35.016,9.029z M39.438,9.168L39.438,9.168
				c-0.166-0.006-0.293-0.146-0.287-0.308l0,0c0.006-0.163,0.145-0.291,0.308-0.285l0,0l0,0l0,0
				c0.164,0.006,0.291,0.142,0.285,0.305l0,0c-0.007,0.16-0.137,0.287-0.296,0.287l0,0C39.444,9.168,39.441,9.168,39.438,9.168z"/>
		</g>
		<g>
			<linearGradient id="SVGID_8_" gradientUnits="userSpaceOnUse" x1="10.1982" y1="7.3369" x2="68.9145" y2="79.8822">
				<stop  offset="9.999999e-008" style="stop-color:#80CFD5"/>
				<stop  offset="0.4362" style="stop-color:#76C7D8"/>
				<stop  offset="1" style="stop-color:#6EC1DA"/>
			</linearGradient>
			<path fill="url(#SVGID_8_)" d="M47.096,63.416l-1.014-2.781c3.713-1.354,7.025-3.678,9.58-6.72l2.268,1.904
				C55.042,59.257,51.295,61.885,47.096,63.416z"/>
		</g>
		<g>
			<linearGradient id="SVGID_9_" gradientUnits="userSpaceOnUse" x1="22.4043" y1="-2.5708" x2="81.1405" y2="69.9992">
				<stop  offset="9.999999e-008" style="stop-color:#80CFD5"/>
				<stop  offset="0.4362" style="stop-color:#76C7D8"/>
				<stop  offset="1" style="stop-color:#6EC1DA"/>
			</linearGradient>
			<path fill="url(#SVGID_9_)" d="M60.487,52.17l-2.563-1.482c1.978-3.42,3.022-7.327,3.022-11.301v-0.053h2.96v0.053
				C63.907,43.881,62.726,48.301,60.487,52.17z"/>
		</g>
		<g>
			<linearGradient id="SVGID_10_" gradientUnits="userSpaceOnUse" x1="-3.6563" y1="18.5303" x2="55.0748" y2="91.0939">
				<stop  offset="9.999999e-008" style="stop-color:#80CFD5"/>
				<stop  offset="0.4362" style="stop-color:#76C7D8"/>
				<stop  offset="1" style="stop-color:#6EC1DA"/>
			</linearGradient>
			<path fill="url(#SVGID_10_)" d="M14.317,48.155c-1.023-2.806-1.543-5.755-1.543-8.768c0-1.479,0.128-2.963,0.38-4.411
				l2.916,0.507c-0.223,1.281-0.335,2.594-0.335,3.904c-0.001,2.665,0.458,5.272,1.363,7.752L14.317,48.155z"/>
		</g>
		<g>
			<linearGradient id="SVGID_11_" gradientUnits="userSpaceOnUse" x1="6.2002" y1="10.5518" x2="64.9325" y2="83.1169">
				<stop  offset="9.999999e-008" style="stop-color:#2B4B9F"/>
				<stop  offset="0.0706" style="stop-color:#3155A4"/>
				<stop  offset="0.381" style="stop-color:#4A80B9"/>
				<stop  offset="0.6504" style="stop-color:#5DA2CA"/>
				<stop  offset="0.8657" style="stop-color:#69B9D5"/>
				<stop  offset="1" style="stop-color:#6EC1DA"/>
			</linearGradient>
			<path fill="url(#SVGID_11_)" d="M17.172,31.869l-3.062-1.111l0.051-0.139c1.532-4.226,4.169-7.998,7.624-10.908l0.113-0.095
				l2.098,2.491l-0.113,0.095c-3.02,2.543-5.322,5.838-6.661,9.527L17.172,31.869z M14.49,30.581l2.505,0.908
				c1.346-3.636,3.619-6.887,6.584-9.418l-1.716-2.038C18.541,22.865,15.995,26.507,14.49,30.581z"/>
		</g>
		<g>
			<linearGradient id="SVGID_12_" gradientUnits="userSpaceOnUse" x1="19.1172" y1="0.0967" x2="77.851" y2="72.6637">
				<stop  offset="9.999999e-008" style="stop-color:#2B4B9F"/>
				<stop  offset="0.0706" style="stop-color:#3155A4"/>
				<stop  offset="0.381" style="stop-color:#4A80B9"/>
				<stop  offset="0.6504" style="stop-color:#5DA2CA"/>
				<stop  offset="0.8657" style="stop-color:#69B9D5"/>
				<stop  offset="1" style="stop-color:#6EC1DA"/>
			</linearGradient>
			<path fill="url(#SVGID_12_)" d="M27.009,19.822l-1.485-2.56c3.864-2.244,8.282-3.434,12.775-3.44l0.006,2.96
				C34.331,16.788,30.425,17.839,27.009,19.822z"/>
		</g>
		<g>
			<linearGradient id="SVGID_13_" gradientUnits="userSpaceOnUse" x1="11.5225" y1="6.2456" x2="70.2525" y2="78.8079">
				<stop  offset="9.999999e-008" style="stop-color:#80CFD5"/>
				<stop  offset="0.4362" style="stop-color:#76C7D8"/>
				<stop  offset="1" style="stop-color:#6EC1DA"/>
			</linearGradient>
			<path fill="url(#SVGID_13_)" d="M38.341,67.571c-2.996,0-5.946-0.469-8.769-1.391l0.276-0.844
				c2.732,0.894,5.59,1.347,8.492,1.347c15.051,0,27.296-12.245,27.296-27.295v-0.061h0.888v0.054
				C66.524,54.928,53.882,67.571,38.341,67.571z M24.264,63.809c-8.701-5.026-14.106-14.384-14.106-24.421
				c0-7.987,3.41-15.631,9.355-20.973l0.594,0.661c-5.759,5.173-9.062,12.576-9.062,20.312c0,9.722,5.236,18.784,13.663,23.653
				L24.264,63.809z M65.05,33.729c-2.643-12.537-13.876-21.638-26.709-21.638c-4.813,0-9.544,1.27-13.682,3.672l-0.446-0.768
				c4.273-2.48,9.159-3.792,14.127-3.792h0.001c6.503,0,12.849,2.268,17.867,6.386c4.949,4.062,8.398,9.728,9.711,15.957
				L65.05,33.729z"/>
		</g>
		<g>
			<linearGradient id="SVGID_14_" gradientUnits="userSpaceOnUse" x1="-7.6289" y1="21.7485" x2="51.0988" y2="94.308">
				<stop  offset="9.999999e-008" style="stop-color:#2B4B9F"/>
				<stop  offset="0.0706" style="stop-color:#3155A4"/>
				<stop  offset="0.381" style="stop-color:#4A80B9"/>
				<stop  offset="0.6504" style="stop-color:#5DA2CA"/>
				<stop  offset="0.8657" style="stop-color:#69B9D5"/>
				<stop  offset="1" style="stop-color:#6EC1DA"/>
			</linearGradient>
			<path fill="url(#SVGID_14_)" d="M38.355,73.304h-0.015c-3.904,0-7.733-0.658-11.379-1.955l0.544-1.527
				c3.471,1.235,7.116,1.861,10.835,1.861L38.355,73.304z"/>
		</g>
		<g>
			<linearGradient id="SVGID_15_" gradientUnits="userSpaceOnUse" x1="-5.2842" y1="19.8481" x2="53.4451" y2="92.4095">
				<stop  offset="9.999999e-008" style="stop-color:#2B4B9F"/>
				<stop  offset="0.0706" style="stop-color:#3155A4"/>
				<stop  offset="0.381" style="stop-color:#4A80B9"/>
				<stop  offset="0.6504" style="stop-color:#5DA2CA"/>
				<stop  offset="0.8657" style="stop-color:#69B9D5"/>
				<stop  offset="1" style="stop-color:#6EC1DA"/>
			</linearGradient>
			<path fill="url(#SVGID_15_)" d="M4.425,39.417v-0.029c0-3.899,0.656-7.723,1.95-11.365l1.527,0.543
				c-1.232,3.467-1.857,7.108-1.857,10.822L4.425,39.417z"/>
		</g>
		<g>
			<linearGradient id="SVGID_16_" gradientUnits="userSpaceOnUse" x1="6.4639" y1="10.3423" x2="65.1866" y2="82.8956">
				<stop  offset="9.999999e-008" style="stop-color:#2B4B9F"/>
				<stop  offset="0.0706" style="stop-color:#3155A4"/>
				<stop  offset="0.381" style="stop-color:#4A80B9"/>
				<stop  offset="0.6504" style="stop-color:#5DA2CA"/>
				<stop  offset="0.8657" style="stop-color:#69B9D5"/>
				<stop  offset="1" style="stop-color:#6EC1DA"/>
			</linearGradient>
			<path fill="url(#SVGID_16_)" d="M10.352,23.265l-1.404-0.811c1.944-3.366,4.432-6.354,7.396-8.882l1.052,1.233
				C14.571,17.213,12.202,20.059,10.352,23.265z"/>
		</g>
		<g>
			<linearGradient id="SVGID_17_" gradientUnits="userSpaceOnUse" x1="36.4102" y1="-13.8955" x2="95.1379" y2="58.6639">
				<stop  offset="9.999999e-008" style="stop-color:#2B4B9F"/>
				<stop  offset="0.0706" style="stop-color:#3155A4"/>
				<stop  offset="0.381" style="stop-color:#4A80B9"/>
				<stop  offset="0.6504" style="stop-color:#5DA2CA"/>
				<stop  offset="0.8657" style="stop-color:#69B9D5"/>
				<stop  offset="1" style="stop-color:#6EC1DA"/>
			</linearGradient>
			<path fill="url(#SVGID_17_)" d="M62.914,18.43c-2.409-2.822-5.257-5.19-8.463-7.04l0.81-1.404
				c3.366,1.941,6.356,4.428,8.886,7.391L62.914,18.43z"/>
		</g>
		<g>
			<linearGradient id="SVGID_18_" gradientUnits="userSpaceOnUse" x1="30.6475" y1="-9.2344" x2="89.3761" y2="63.3262">
				<stop  offset="9.999999e-008" style="stop-color:#2B4B9F"/>
				<stop  offset="0.0706" style="stop-color:#3155A4"/>
				<stop  offset="0.381" style="stop-color:#4A80B9"/>
				<stop  offset="0.6504" style="stop-color:#5DA2CA"/>
				<stop  offset="0.8657" style="stop-color:#69B9D5"/>
				<stop  offset="1" style="stop-color:#6EC1DA"/>
			</linearGradient>
			<path fill="url(#SVGID_18_)" d="M49.149,8.944c-3.462-1.229-7.099-1.853-10.809-1.853l-0.045,0V5.471h0.037
				c3.902,0,7.722,0.655,11.358,1.946L49.149,8.944z"/>
		</g>
		<g>
			<g>
				<linearGradient id="SVGID_19_" gradientUnits="userSpaceOnUse" x1="11.5859" y1="6.1943" x2="70.3158" y2="78.7564">
					<stop  offset="9.999999e-008" style="stop-color:#2B4B9F"/>
					<stop  offset="0.0706" style="stop-color:#3155A4"/>
					<stop  offset="0.381" style="stop-color:#4A80B9"/>
					<stop  offset="0.6504" style="stop-color:#5DA2CA"/>
					<stop  offset="0.8657" style="stop-color:#69B9D5"/>
					<stop  offset="1" style="stop-color:#6EC1DA"/>
				</linearGradient>
				<path fill="url(#SVGID_19_)" d="M38.342,68.964L38.342,68.964c-7.899,0-15.326-3.076-20.913-8.661l-0.104-0.104l5.198-5.2
					l0.104,0.104c4.198,4.197,9.779,6.509,15.714,6.509c2.272,0,4.512-0.341,6.655-1.013l0.141-0.044l2.198,7.016l-0.142,0.044
					C44.338,68.511,41.359,68.964,38.342,68.964z M17.743,60.199c5.519,5.463,12.827,8.469,20.599,8.469
					c2.938,0,5.838-0.435,8.622-1.291l-2.021-6.451c-2.13,0.652-4.35,0.982-6.603,0.982c-5.966,0-11.576-2.304-15.818-6.49
					L17.743,60.199z M60.409,36.729l-0.019-0.147c-1.036-8.234-6.523-15.146-14.32-18.039l-0.139-0.052l2.557-6.893l0.139,0.051
					c10.377,3.849,17.679,13.051,19.058,24.015l0.019,0.146L60.409,36.729z M46.313,18.317c7.781,2.944,13.264,9.85,14.353,18.081
					l6.708-0.844c-1.406-10.74-8.558-19.752-18.71-23.575L46.313,18.317z"/>
			</g>
		</g>
		<g>
			<linearGradient id="SVGID_20_" gradientUnits="userSpaceOnUse" x1="11.5029" y1="6.2607" x2="70.2321" y2="78.8219">
				<stop  offset="9.999999e-008" style="stop-color:#2B4B9F"/>
				<stop  offset="0.0706" style="stop-color:#3155A4"/>
				<stop  offset="0.381" style="stop-color:#4A80B9"/>
				<stop  offset="0.6504" style="stop-color:#5DA2CA"/>
				<stop  offset="0.8657" style="stop-color:#69B9D5"/>
				<stop  offset="1" style="stop-color:#6EC1DA"/>
			</linearGradient>
			<path fill="url(#SVGID_20_)" d="M37.298,60.164L37.298,60.164L37.298,60.164c-0.246-0.012-0.432-0.223-0.42-0.465l0,0
				c0.012-0.246,0.219-0.435,0.464-0.423l0,0c0.246,0.013,0.436,0.219,0.421,0.465l0,0c-0.009,0.24-0.207,0.424-0.441,0.424l0,0
				C37.313,60.164,37.307,60.164,37.298,60.164z M40.995,59.577c-0.038-0.242,0.131-0.467,0.373-0.505h-0.003
				c0.243-0.036,0.471,0.13,0.507,0.373l0,0c0.038,0.243-0.127,0.467-0.37,0.506l0,0l0,0l0,0c-0.023,0.003-0.048,0.006-0.068,0.006
				l0,0C41.217,59.957,41.028,59.796,40.995,59.577z M33.139,59.533c-0.236-0.063-0.379-0.302-0.319-0.542l0,0
				c0.062-0.237,0.305-0.379,0.542-0.317l0,0c0.236,0.06,0.378,0.302,0.319,0.539l0,0c-0.053,0.202-0.234,0.334-0.43,0.334l0,0
				C33.213,59.548,33.177,59.542,33.139,59.533z M45.004,58.633c-0.086-0.228,0.032-0.485,0.261-0.568l0,0
				c0.231-0.085,0.485,0.029,0.571,0.261l0,0c0.086,0.23-0.03,0.485-0.261,0.571l0,0l0,0l0,0c-0.05,0.018-0.104,0.027-0.153,0.027
				l0,0C45.24,58.924,45.068,58.814,45.004,58.633z M29.192,58.074c-0.222-0.107-0.311-0.374-0.204-0.596l0,0
				c0.106-0.218,0.373-0.31,0.595-0.201l0,0c0.22,0.107,0.312,0.373,0.201,0.592l0,0c-0.076,0.161-0.233,0.249-0.396,0.249l0,0
				C29.32,58.118,29.254,58.104,29.192,58.074z M48.74,56.898c-0.13-0.208-0.068-0.482,0.142-0.613l0,0
				c0.208-0.13,0.479-0.065,0.61,0.142l0,0c0.13,0.208,0.067,0.482-0.14,0.61l0,0c-0.073,0.047-0.156,0.068-0.236,0.068l0,0
				C48.968,57.105,48.823,57.032,48.74,56.898z M25.619,55.847c-0.192-0.151-0.228-0.429-0.079-0.622l0,0
				c0.15-0.195,0.429-0.23,0.624-0.08l0,0c0.192,0.148,0.229,0.426,0.08,0.622l0,0c-0.089,0.113-0.22,0.172-0.353,0.172l0,0
				C25.797,55.939,25.702,55.91,25.619,55.847z M52.05,54.444c-0.172-0.177-0.162-0.458,0.015-0.627l0,0
				c0.178-0.169,0.459-0.164,0.628,0.015l0,0c0.169,0.177,0.162,0.458-0.015,0.63l0,0c-0.086,0.08-0.198,0.121-0.309,0.121l0,0
				C52.255,54.583,52.136,54.536,52.05,54.444z M22.567,52.95c-0.16-0.184-0.137-0.465,0.047-0.625l0,0
				c0.187-0.16,0.468-0.139,0.628,0.048l0,0c0.16,0.184,0.139,0.465-0.048,0.625l0,0c-0.083,0.074-0.186,0.11-0.29,0.11l0,0
				C22.78,53.106,22.656,53.053,22.567,52.95z M54.8,51.377c-0.201-0.139-0.251-0.415-0.109-0.616l0,0
				c0.139-0.201,0.415-0.251,0.616-0.112l0,0c0.201,0.142,0.251,0.417,0.112,0.619l0,0c-0.089,0.124-0.226,0.189-0.364,0.189l0,0
				C54.966,51.457,54.877,51.434,54.8,51.377z M20.16,49.5L20.16,49.5L20.16,49.5c-0.121-0.213-0.044-0.482,0.172-0.604l0,0
				c0.213-0.118,0.482-0.042,0.604,0.172l0,0c0.119,0.215,0.042,0.485-0.171,0.604l0,0c-0.071,0.039-0.146,0.056-0.217,0.056l0,0
				C20.392,49.728,20.24,49.646,20.16,49.5z M56.881,47.822c-0.228-0.095-0.331-0.358-0.233-0.583l0,0
				c0.095-0.225,0.357-0.329,0.583-0.23l0,0c0.226,0.095,0.329,0.355,0.231,0.583l0,0c-0.071,0.166-0.234,0.266-0.406,0.266l0,0
				C56.996,47.857,56.938,47.845,56.881,47.822z M18.494,45.637L18.494,45.637L18.494,45.637c-0.074-0.234,0.056-0.485,0.29-0.557
				l0,0c0.233-0.074,0.482,0.053,0.557,0.287v0.002c0.073,0.234-0.057,0.483-0.291,0.557l0,0c-0.044,0.012-0.088,0.021-0.133,0.021
				l0,0C18.728,45.948,18.553,45.826,18.494,45.637z M58.196,43.92c-0.24-0.05-0.394-0.284-0.348-0.524l0,0
				c0.051-0.24,0.284-0.396,0.525-0.346l0,0c0.238,0.047,0.396,0.284,0.346,0.524l0,0c-0.041,0.21-0.228,0.355-0.433,0.355l0,0
				C58.258,43.929,58.229,43.926,58.196,43.92z M17.647,41.513c-0.024-0.243,0.153-0.462,0.396-0.486l0,0
				c0.242-0.023,0.462,0.151,0.485,0.397l0,0c0.026,0.242-0.15,0.461-0.396,0.485l0,0c-0.015,0.003-0.03,0.003-0.045,0.003l0,0
				C17.863,41.913,17.671,41.744,17.647,41.513z M58.255,39.388c0-0.006,0-0.012,0-0.018l0,0c0-0.009,0-0.017,0-0.026l0,0
				c0-0.246,0.198-0.444,0.441-0.447l0,0c0.245,0,0.446,0.198,0.446,0.443l0,0c0,0.009,0,0.016,0,0.024l0,0c0,0.008,0,0.015,0,0.023
				l0,0l0,0l0,0c0,0.246-0.197,0.444-0.443,0.444l0,0C58.453,39.832,58.255,39.634,58.255,39.388z M18.04,37.792
				c-0.245-0.024-0.423-0.239-0.398-0.485l0,0l0,0l0,0c0.023-0.243,0.242-0.42,0.485-0.396l0,0c0.245,0.023,0.423,0.242,0.399,0.485
				l0,0c-0.023,0.228-0.217,0.399-0.441,0.399l0,0C18.07,37.795,18.056,37.795,18.04,37.792z M57.844,35.335
				c-0.051-0.24,0.104-0.474,0.343-0.524l0,0c0.24-0.05,0.474,0.104,0.524,0.344l0,0c0.05,0.242-0.104,0.477-0.344,0.527l0,0
				c-0.032,0.006-0.062,0.009-0.092,0.009l0,0C58.068,35.69,57.885,35.545,57.844,35.335z M18.772,33.739
				c-0.234-0.074-0.364-0.322-0.294-0.556l0,0c0.074-0.233,0.323-0.364,0.557-0.29l0,0c0.234,0.071,0.364,0.323,0.293,0.556l0,0
				c-0.059,0.19-0.233,0.311-0.423,0.311l0,0C18.86,33.76,18.816,33.754,18.772,33.739z M56.63,31.495L56.63,31.495
				c-0.098-0.225,0.005-0.488,0.23-0.583l0,0c0.226-0.098,0.485,0.006,0.583,0.231l0,0c0.099,0.225-0.005,0.485-0.23,0.583l0,0
				c-0.057,0.023-0.118,0.036-0.178,0.036l0,0C56.864,31.762,56.701,31.664,56.63,31.495z M20.309,29.917
				c-0.213-0.118-0.291-0.388-0.172-0.604l0,0c0.118-0.213,0.391-0.291,0.604-0.171l0,0c0.212,0.118,0.293,0.387,0.174,0.604l0,0
				c-0.082,0.145-0.233,0.228-0.391,0.228l0,0C20.451,29.974,20.377,29.956,20.309,29.917z M54.664,27.978
				c-0.139-0.201-0.092-0.477,0.109-0.618l0,0c0.201-0.14,0.477-0.092,0.619,0.109l0,0c0.14,0.201,0.092,0.477-0.11,0.618l0,0
				c-0.077,0.054-0.165,0.08-0.254,0.08l0,0C54.889,28.167,54.75,28.103,54.664,27.978z M22.588,26.486
				c-0.187-0.16-0.207-0.441-0.047-0.628l0,0c0.156-0.187,0.438-0.208,0.624-0.047l0,0c0.187,0.159,0.208,0.441,0.047,0.625l0,0
				c-0.085,0.104-0.21,0.157-0.337,0.157l0,0C22.774,26.593,22.671,26.558,22.588,26.486z M52.032,24.929
				c-0.178-0.169-0.187-0.45-0.018-0.628l0,0c0.169-0.181,0.449-0.187,0.63-0.018l0,0c0.178,0.169,0.184,0.45,0.016,0.627l0,0
				c-0.086,0.092-0.205,0.14-0.323,0.14l0,0C52.228,25.051,52.118,25.009,52.032,24.929z M25.507,23.579
				c-0.151-0.195-0.115-0.473,0.077-0.625l0,0c0.192-0.148,0.474-0.115,0.624,0.08l0,0c0.148,0.193,0.116,0.471-0.079,0.622l0,0
				c-0.081,0.062-0.178,0.094-0.272,0.094l0,0C25.727,23.75,25.593,23.691,25.507,23.579z M48.844,22.466L48.844,22.466
				c-0.207-0.13-0.272-0.403-0.142-0.614l0,0c0.13-0.207,0.402-0.272,0.609-0.142l0,0c0.21,0.131,0.272,0.403,0.143,0.613l0,0
				c-0.083,0.133-0.229,0.21-0.376,0.21l0,0C48.998,22.534,48.917,22.511,48.844,22.466z M28.947,21.314
				c-0.106-0.219-0.019-0.486,0.203-0.592l0,0c0,0,0,0-0.002,0l0,0c0.222-0.11,0.488-0.021,0.595,0.202l0,0
				c0.109,0.218,0.018,0.485-0.201,0.595l0,0c-0.063,0.029-0.13,0.044-0.195,0.044l0,0C29.184,21.563,29.023,21.474,28.947,21.314z
				 M45.223,20.695c-0.228-0.085-0.346-0.34-0.26-0.568l0,0c0.082-0.23,0.338-0.349,0.568-0.263l0,0
				c0.23,0.082,0.35,0.337,0.264,0.568l0,0c-0.065,0.18-0.237,0.29-0.418,0.29l0,0C45.327,20.722,45.276,20.713,45.223,20.695z
				 M32.774,19.796c-0.059-0.24,0.083-0.48,0.319-0.542l0,0c0.237-0.062,0.479,0.08,0.542,0.317l0,0
				c0.06,0.236-0.083,0.479-0.319,0.541l0,0c-0.035,0.009-0.074,0.015-0.112,0.015l0,0C33.009,20.127,32.828,19.994,32.774,19.796z
				 M41.324,19.695c-0.242-0.035-0.411-0.263-0.376-0.503l0,0c0.038-0.243,0.264-0.411,0.506-0.374l0,0
				c0.243,0.036,0.409,0.261,0.373,0.504l0,0c-0.032,0.222-0.222,0.379-0.438,0.379l0,0C41.365,19.701,41.345,19.698,41.324,19.695z
				 M36.834,19.079c-0.016-0.245,0.174-0.453,0.42-0.464l0,0c0.246-0.015,0.452,0.174,0.464,0.42l0,0
				c0.013,0.246-0.174,0.454-0.42,0.465l0,0c-0.009,0-0.015,0.002-0.023,0.002l0,0C37.04,19.502,36.846,19.316,36.834,19.079z"/>
		</g>
		<g>
			<linearGradient id="SVGID_21_" gradientUnits="userSpaceOnUse" x1="11.5176" y1="6.2466" x2="70.2499" y2="78.8117">
				<stop  offset="9.999999e-008" style="stop-color:#2B4B9F"/>
				<stop  offset="0.0706" style="stop-color:#3155A4"/>
				<stop  offset="0.381" style="stop-color:#4A80B9"/>
				<stop  offset="0.6504" style="stop-color:#5DA2CA"/>
				<stop  offset="0.8657" style="stop-color:#69B9D5"/>
				<stop  offset="1" style="stop-color:#6EC1DA"/>
			</linearGradient>
			<path fill="url(#SVGID_21_)" d="M38.341,51.857c-6.876,0-12.47-5.594-12.47-12.47s5.594-12.47,12.47-12.47
				s12.471,5.594,12.471,12.47S45.217,51.857,38.341,51.857z M38.341,27.065c-6.794,0-12.321,5.528-12.321,12.322
				s5.527,12.322,12.321,12.322c6.795,0,12.322-5.527,12.322-12.322S45.136,27.065,38.341,27.065z"/>
		</g>
	</g>
</g>
<g>
</g>
<g>
</g>
<g>
</g>
<g>
</g>
<g>
</g>
<g>
</g>
</svg>
