<?xml version="1.0" encoding="utf-8"?>
<!-- Generator: Adobe Illustrator 22.0.0, SVG Export Plug-In . SVG Version: 6.00 Build 0)  -->
<svg version="1.1" id="Layer_1" xmlns="http://www.w3.org/2000/svg" xmlns:xlink="http://www.w3.org/1999/xlink" x="0px" y="0px"
	 viewBox="0 0 331.1 526.4" style="enable-background:new 0 0 331.1 526.4;" xml:space="preserve">
<style type="text/css">
	.st0{fill:#FFFFFF;}
	.st1{fill:#E2E2E2;}
	.st2{fill:#A9A9A9;}
	.st3{fill:#252525;}
	.st4{opacity:0.2;}
	.st5{opacity:6.000000e-02;fill:#FFFFFF;enable-background:new    ;}
	.st6{opacity:0.4;}
	.st7{fill:#DA2037;}
	.st8{fill:#530F1E;}
	.st9{fill:#F8BC04;}
	.st10{fill:#A44322;}
</style>
<g id="Layer_1_1_">
	<g id="Layer_2_3_">
	</g>
	<g id="Layer_1_2_">
		<g>
			<g>
				<g>
					<path class="st0" d="M58.8,373.4c0.1,0.7,0.1,1.4,0.4,2.1c0.1,1.1,0.7,1.9,1.1,2.8c0.6,0.8,1.5,1.5,2.3,2.3
						c0,0.2,0.1,0.5,0.1,0.7c0,0.4-0.1,0.8,0,1.2c0.1,0.5,0.5,0.9,0.7,1.4c0.1,0.4,0.3,0.5,0.6,0.7c0.1,0.2,0.3,0.5,0.6,0.7
						c0.2,0.4,0.5,0.7,0.7,0.9c0.2,0.2,0.3,0.7,0.7,0.9c0.6,0.4,1,1,1.7,1.2c0.6,0.4,1.2,0.7,1.9,0.8c0.6,0.2,0.9,0.6,1.5,0.8
						c1.4,0.6,2.8,1,4.3,1c1.3,0,2.5-0.4,3.5-1.4c0.9-0.7,1.8-1.4,2.4-2.3c0.4-0.6,0.6-1.2,1-1.6c0-0.1,0-0.1,0-0.1
						c0.3,0.2,0.7,0.6,1,0.8c0.9,0.7,2.1,1.2,3.3,1.8c0.8,0.2,1.6,0.6,2.5,1c0.6,0.2,1.2,0.2,1.8,0.5c0.7,0.2,1.3,0.1,2,0.3
						c1.3,0.2,2.7,0.3,4,0.3c0.1,0,0.2,0,0.5,0c1.1-0.1,2.1-0.1,3.2-0.3c0.1-0.1,0.4-0.1,0.5-0.1c0.5-0.1,0.9-0.2,1.4-0.3
						c0.1,0,0.1,0,0.1,0c1.2-0.3,2.4-0.8,3.4-1.4c0.5-0.2,0.9-0.6,1.5-0.9c0.9-0.6,1.9-1.3,2.8-2c0.7-0.5,1.3-1,1.9-1.7
						c0.5-0.3,0.8-0.8,1.2-1.3c0.5-0.8,1.2-1.5,1.7-2.3c0.2-0.3,0.5-0.7,0.7-1c0-0.2,0.1-0.5,0.2-0.7c0.1,0,0.2-0.2,0.2-0.3l0,0
						c0.4,0,0.8-0.1,1.2-0.2c1.1-0.1,2.1-0.4,2.9-1c0.6-0.3,1.1-0.9,1.4-1.4c1-0.9,1.7-2.1,2.3-3.3c0.6-1.3,1.2-2.6,1.6-4
						c0.1-0.7,0.3-1.3,0.4-2c0.1-0.6,0.1-1.1,0.1-1.6l0.1,0c0.4-0.1,0.2-0.3,0-0.6c0-0.1-0.1-0.2-0.2-0.2l-0.1,0
						c-0.1-0.1-0.2-0.2-0.2-0.2c-0.5-0.4-0.8-0.8-1.4-1.2c-1.5-1-3.3-1-4.9-1.1c-0.5-0.1-0.9,0-1.4,0.1c-0.5,0.2-0.9,0.1-1.4,0.2
						c-0.6,0.2-1.3,0.2-2,0.3c-0.4,0-0.7,0.2-1.1,0.3c-0.1,0.1-0.2,0.1-0.4,0.2c-0.1,0-0.2,0.1-0.4,0.2l0,0c-0.2,0-0.6,0.2-0.7,0.5
						c0,0.1-0.1,0.1-0.1,0.1c-1-1.1-2.4-1.8-3.8-2.4c-0.6-0.4-1.2-0.7-1.7-1.1c-1.6-1-3.4-1.6-5.1-1.4c-0.4,0.1-0.7,0.1-1.1,0.2
						c-0.4,0-0.5,0.2-0.6,0.5c-0.2,0.3,0,0.7,0.1,1.1c0,0.1,0.1,0.2,0.1,0.4c-0.5,0.3-1.2,0.1-1.8,0.1c-0.8,0.1-1.9,0.7-2.1,1.5
						s-0.5,1.8-0.3,2.7c-0.1,0.9,0.2,1.6,0.4,2.5c0,0.2,0.1,0.5,0.2,0.6c0,0,0.1,0.1,0.1,0.2l-0.1,0.1c-0.2,0.2-0.6,0.3-0.8,0.6
						c-0.4,0.2-0.6,0.5-0.9,0.7c-0.7,0.5-1.4,0.7-2.2,0.8c-0.8,0-1.5-0.4-2.2-0.5c-1.1-0.5-2-1.1-3-1.7c-0.7-0.4-1.3-0.8-2-1.1
						c-0.2-0.1-0.5-0.4-0.7-0.5l0,0c-0.1-0.2-0.3-0.4-0.6-0.5c-0.3-0.2-0.8-0.5-1.2-0.7c0,0-0.1,0-0.2-0.1c-0.4-0.1-0.6-0.5-0.8-0.7
						c-0.8-0.5-1.6-1.1-2.3-1.7c-0.3-0.4-0.8-0.8-0.9-1.4c0-0.1,0.1-0.1,0.1-0.2c0-0.6-0.8-0.6-1.2-0.7c-0.9-0.4-1.9-0.6-2.9-0.7
						c-0.8,0-1.5,0.2-2.2,0.4c-0.6,0.1-1.2,0.5-1.8,0.7c-1.1,0.5-1.8,1.4-2.5,2.2c-0.4,0.3-0.7,0.8-1.1,1.3
						c-0.2,0.3-0.5,0.6-0.6,0.9c-0.4,0.7-0.7,1.3-1.1,1.9c-0.1,0.4-0.4,0.7-0.5,1.1l0,0.1c-0.2,0-0.4-0.1-0.6-0.1c0,0-0.2-0.1-0.4,0
						c-0.2,0-0.5-0.1-0.6-0.1c-1.6-0.5-3.4,0.7-4,2.2c-0.2,0.5-0.2,0.9-0.4,1.4C58.6,372.1,58.6,372.8,58.8,373.4z M67.1,387.4
						c0.2,0,0.5,0.1,0.6,0.4C67.6,387.7,67.3,387.6,67.1,387.4z"/>
					<path class="st0" d="M90.4,331.1c0.2-0.8,0.5-1.5,0.5-2.2c0-0.7-0.1-1.5-0.4-2.1c-0.7-1.1-1.3-2.4-2.3-3
						c-0.4-0.1-0.8-0.5-1.2-0.6c-0.3-0.2-0.7-0.4-1-0.6c-0.2-0.1-0.6-0.4-0.9-0.4c-0.4-0.1-0.7-0.4-1.2-0.4c-0.9,0.1-2,0.1-2.7,0.8
						c-0.8,0.6-1.3,1.5-1.8,2.4c-0.5,0.8-0.7,1.6-1,2.5c-0.1,0.7-0.5,1.3-0.6,2c-0.2,0.7-0.3,1.4-0.3,2.1c-0.1,0.6-0.1,1.1-0.1,1.5
						c-0.2,0.1-0.4,0.2-0.5,0.5c-0.1,0.1-0.1,0.4-0.1,0.6c-0.1,1.2-0.3,2.5-0.2,3.6c0,0.7,0.1,1.4,0.2,2.1c0.1,0.4,0.1,0.7,0.1,1.1
						c-0.1,0.5-0.1,1.1-0.1,1.5c0.1,0,0.1,0.1,0.2,0.1c0.1,0.1,0.1,0.4,0.1,0.5c0.2,1.3,0.6,2.6,0.9,3.9c0.1,0.5,0.2,0.9,0.3,1.4
						c0.1,0.5-0.1,1.4,0.6,1.5c0.1,0.4,0.3,0.8,0.5,1.2c0.2,0.4,0.2,0.8,0.5,1.3c0.2,0.6,0.6,1.1,0.8,1.5c0.1,0.2,0.3,0.6,0.6,0.4
						c0.7-1.2,1.7-2,2.6-3c0.8-0.9,2-1.4,3.2-1.7c0.6-0.1,1.1-0.3,1.5-0.6c0.7-0.7,1-1.6,1.6-2.4c0.5,0.2,0.5-0.3,0.4-0.6
						c0.1-0.1,0.1-0.5-0.1-0.5c-0.3-1.1-0.6-2.1-1.1-3.1c-0.5-1.3-1.1-2.6-1.5-3.9c-0.3-0.7-0.9-1.5-0.8-2.4
						c0.5-0.6,1.2-0.9,1.7-1.5C89.4,333.7,90.4,332.7,90.4,331.1z"/>
					<path class="st0" d="M86.8,360c0,0.6,0,1.4,0.8,1.4c0.9-0.1,1.7-0.7,2.2-1.4c0.5-0.5,0.8-1.2,0.5-1.8c-0.1-0.4-0.3-0.6-0.6-0.8
						c-0.3-0.2-1.1-0.4-1.3,0.1C87.3,357.4,86.8,358.9,86.8,360z"/>
				</g>
				<g>
					<path class="st1" d="M93.3,351.6c-0.5,0.6,0,0.9,0.5,1.3c0.8,0.5,1.5,1.1,2.2,1.6c0.7,0.5,1.4,1.1,2.1,1.7
						c0.6,0.5,1,1.4,1.9,1.2c0.2,0.1,0.5,0.1,0.7,0.1c0.1-0.1,0.2-0.2,0.2-0.3l0-0.1c0.1,0,0.1,0,0.1,0c0.1,0,0.3,0.2,0.6,0.1
						c0.2-0.1,0.2-0.3,0-0.5l0,0c-0.1,0-0.1,0-0.1,0c0.4-0.6-1.7-1.3-2.1-1.7c-1.9-1.2-3.6-2.5-5-4.2C94,350.3,93.6,351,93.3,351.6z
						 M93.8,352C93.8,351.8,93.8,351.8,93.8,352l0.1,0c0.1,0.1,0.1,0.1,0.2,0.2l0,0C94,352.2,93.9,352.1,93.8,352
						C93.9,352.1,93.8,352,93.8,352L93.8,352z"/>
					<path class="st1" d="M87.7,323c0.7,1.2,2.2,0.1,3.1,3.4c0.8,2.5,0.3,5.2-0.8,7.4c-0.5,0.9-1.3,1.6-1.9,2.4
						c-0.2,0.5-0.1,1.1,0,1.5c0.1,1.2,0.4,2.2,1,3.3c-0.1,0.1-0.1,0.4,0,0.5c0.2,0.2,0.3,0.4,0.6,0.6c0.1,0.1,0.1,0.4,0.2,0.5
						c0,0.1,0,0.1,0,0.2c0,0.1,0.1,0.2,0.2,0.2l0,0.1l0.1,0.1c0.1,0.1,0.1,0.4,0.2,0.5c0.1,0.2,0.1,0.4,0.2,0.5
						c0.1,0.1,0.1,0.2,0.2,0.4c0.1,0.7,1.5,2.2,1.6,2.6c0.7,0.9,1.5,1.9,2.3,2.7c1.3,1.2,2.7,2.1,4.1,3.2c1,0.7,2.1,1.3,3.1,1.9
						c1.3,0.7,2.7,1.7,4.1,2.2c0.9,0.4,2,0.5,3,0.7c0.9,0.2,1.8,0.5,2.7,0.6c0.9,0,1.9,0.1,2.8,0.3c0.5,0.1,0.8,0,1.3,0
						c0.6,0,1.1,0.1,1.6,0.1c0.4,0,0.4-0.3,0.2-0.5c1.3-0.2,2.6-0.3,3.9-0.5c1.3-0.3,2.6-0.6,3.9-1c1.2-0.5,2.1-0.9,3.2-1.5
						c1.3-0.6,2.7-1.1,3.8-2.2c0.7-0.9,0.7-3,0.6-4.1c-0.1-1.5,0.3-2.9,0.5-4.3c0.1-0.8,0.1-1.6,0.5-2.5c0.5-1.3,1.3-2.6,2.2-3.7
						c0.5-0.8,1-1.6,1.7-2.3c1.7-1.9,3.8-3.2,6-4.3c0.2,0.1,0.4-0.1,0.4-0.2l0,0c0.3-1.5,0.2-3.1-0.1-4.6c-0.1-1.3-0.3-2.5-0.7-3.8
						c-1.4-4.5-3.3-8.7-6.2-12.3c-1.3-1.8-3.3-2.9-4.9-4.2c-1.3-1.1-2.8-2-4.4-2.6c-1.4-0.5-2.7-1.2-4.1-1.7c-2.9-1-5.8-1.8-8.9-1.9
						c-0.8,0-1.6,0.2-2.6,0.3c-2.2,0.2-4.5,0.8-6.5,1.7c-0.1,0-0.2,0.1-0.4,0.1c-0.2-0.2-1.1,0.3-1.7,0.7l0,0
						c-0.1,0.1-0.4,0.1-0.4,0.2l0,0c-1.7,1-3.3,1.8-4.8,2.9c-1.1,0.9-2.1,1.7-3.2,2.7c-3,2.8-5.5,6.2-6.9,10
						c-0.2,0.7-0.5,1.4-0.7,2.1C88,322.1,87.7,322.5,87.7,323z"/>
				</g>
				<g>
					<path class="st2" d="M121.1,359.7c0.6,0.1,1.2,0.1,1.8,0.4c0.7,0.2,1.5,0.5,2.2,1c0.5,0.2,0.9,0.8,1.5,0.6
						c0.4-0.3,0.1-0.9,0-1.3c0.2-0.1,0.1-0.4-0.1-0.5c-0.1-0.1-0.1-0.4-0.2-0.5c0-0.1-0.1-0.4-0.2-0.4c0-0.1-0.1-0.1-0.1-0.2
						c-0.1,0-0.1-0.1-0.1-0.1l0,0c0-0.1-0.1-0.2-0.2-0.2c-0.1-0.2-0.3-0.2-0.5-0.1c-1.1,0-2.1,0.3-3.1,0.6
						C121.6,359.1,120.5,359.2,121.1,359.7z M126,360.5L126,360.5L126,360.5L126,360.5L126,360.5z"/>
					<path class="st2" d="M108.9,359.3c0,0.2,0.3,0.2,0.5,0.5c0,0.2,0.2,0.2,0.3,0.4c0.3,0.2,0.7,0.5,1,0.7c0.3,0.2,0.7,0.6,1.2,0.6
						c0.2,0,0.6-0.2,0.8-0.3c0.2-0.2,0.8-0.2,0.9-0.6c0.2,0,0.6,0,0.9,0c0.2-0.1,0.2-0.3,0-0.5c-0.4-0.1-0.6,0-0.9,0
						c-0.1-0.5-1.1-0.2-1.4-0.3c-0.4,0-0.8,0-1.3-0.1c-0.7-0.1-1.4-0.4-2-0.7C108.6,358.7,108.3,359,108.9,359.3z M112.1,360.7
						L112.1,360.7c0.1,0,0.1-0.1,0.1-0.1l0,0c0.1,0,0.1,0,0.2,0C112.4,360.7,112.2,360.7,112.1,360.7z M111.8,361
						c0,0,0.1-0.1,0.2-0.1C111.9,361,111.9,361,111.8,361L111.8,361z"/>
					<path class="st2" d="M79.6,361.5c0.8,1.2,2.3,1.9,3.5,2.7c1.9,1.3,3.7,2.4,5.7,3.5c1.2,0.6,2.2,1.4,3.5,1.4
						c0.7,0,1.3-0.5,1.9-0.9c1.1-0.9,0.7-2.3,0.7-3.6c0.1-1.3,0.3-2.7,1.1-3.7c0.4-0.7,0.7-1.4,1.5-1.6c0.1,0.2,0.4,0.1,0.6,0.1
						c0,0.1,0,0.1,0,0.2c0.1-0.1,0.1-0.1,0.2-0.1c0,0,0.1,0.1,0.2,0.1c0.4-1.8,0.1-2.1-1.3-3.1c-0.7-0.6-1.4-1.2-2.2-1.8
						c-0.6-0.5-2.8-1.8-2.7-2.6c0-0.7,0.6-1.3,0.8-2c0.4-0.7-0.3-1.3-0.7-1.8c-0.5-0.5-0.7-1.2-1.3-1.5c-0.6,0-1.1,1.5-1.3,2
						c-0.5,1.1-0.6,1.5-1.9,1.3c-0.6-0.1-1.2-0.2-1.6,0.1c-0.8,0.3-1.4,1.2-2.1,1.7c-0.8,0.6-1.3,1.3-1.9,2
						c-0.4,0.5-0.8,0.8-1.2,1.4c-0.6,1-1.4,1.9-1.7,3C79.2,359.4,79.1,360.6,79.6,361.5z M87.7,361c-0.4-0.1-0.8-0.2-1.3-0.4
						c0.2-0.7,0.4-1.4,0.6-2.1c0.4-0.9,0.5-1.9,1.8-1.5c0.5,0.1,0.9,0.4,1.2-0.1c0.1,0,0.2,0.1,0.4,0.1c0,0.1,0,0.4,0,0.5
						C90.3,359.1,89.7,360.9,87.7,361z"/>
					<path class="st2" d="M123.6,301.5c1.5,0.5,2.9,1,4.3,1.5c1.2,0.5,2.3,1.1,3.4,1.7c1.5,1,2.9,2,4.2,3.2c0.9,0.8,1.9,1.7,2.7,2.5
						c0.6,0.7,1.2,1.4,1.6,2.1c0.2,0.2,0.3,0.7,0.7,0.7c0.9-0.2,2.2-3.3,1.3-4c-0.7-2.5-2.5-4.3-4.4-5.9c-1.5-1.3-3-2.5-4.8-3.5
						c-1.2-0.6-2.3-1.4-3.7-1.8c-2.1-0.6-4.7-1.2-6.5,0.3c-0.7,0.7-1.7,1.3-1.8,2.3c-0.1,0.2,0.1,0.5,0.3,0.6
						c0.2,0.1,0.5,0.1,0.7,0.1C122.4,301.5,123.1,301.5,123.6,301.5z"/>
					<path class="st2" d="M92.4,311.2c-0.5,0-0.8-0.1-1.2-0.1c-0.7,0-1.2,0.1-1.5,0.7c-0.5,0.5-0.8,1.2-1.2,1.7
						c-0.6,1-1.3,2.2-2,3.3c-0.6,1-1.2,2-1.2,3.2c-0.1,0.7-0.1,1.5,0.4,2.1c0.2,0.2,0.6,0.6,0.9,0.6c0.8,0,1.9-3.4,2.4-4.2
						c1.1-2.3,2.4-4.4,3.6-6.6C93,311.6,92.7,311.2,92.4,311.2z"/>
					<path class="st2" d="M133.3,349.7c0,0.9,0.2,1.8,0.7,2.6c0.3,0.5,1,0.7,1.5,1c-0.4,0.6,1.3,0.8,1.6,0.8
						c-0.1,0.2,0.1,0.5,0.3,0.4c2.5-0.6,3.9-0.9,5.7-2.9c1.8-1.7,3.2-3.8,4.2-6.2c0.8-1.8,1.5-3.6,1.8-5.5c0.3-1.5,0.7-3.7-0.2-5
						c-0.5-0.6-1-1.2-1.7-1.7c-0.6-0.2-1.2-0.6-1.9-0.6c-2.2,0.1-4.2,1.4-5.8,2.7c-1.1,0.8-2.3,1.7-2.9,2.9
						c-0.8,1.8-1.9,3.4-2.5,5.3c-0.4,1.2-0.8,2.2-1,3.4c0,0.4,0,0.8,0,1.2C133.2,348.7,133.1,349.1,133.3,349.7z M142.3,339.6
						c0,0.6-0.2,1.2-0.4,1.8c-0.1,0.5-0.2,0.7-0.7,0.7c-0.7,0-0.7-0.2-0.3-0.7C141.2,340.8,141.7,340.1,142.3,339.6z M144.4,343
						c0.1-0.8,0.6-1.6,0.9-2.6c0.4-0.8,0.4-3.8,1.5-4c0.7,0.4,0.6,1.3,0.6,2c-0.1,2-0.9,4-1.9,5.6
						C145.1,343.9,144.4,343.5,144.4,343z M139.2,350.5c0.5-0.6,1.1-1.2,1.7-1.7c0.5-0.5,1-1,1.5-1.5c0.4-0.1,0.8,0.2,1.2,0.4
						c-0.8,1.6-3,4-4.9,4.1C138.1,351.5,139,350.7,139.2,350.5z M138.2,347.4c0-0.5,0.1-1.1,0.4-1.5c0.1-0.6,0.6-1.4,1.2-0.7
						c0.1,0.7-0.7,1.3-1.1,1.7C138.5,347.1,138.3,347.3,138.2,347.4z"/>
					<path class="st2" d="M96.7,336c0.7,1.7,1.6,3.2,2.9,4.4c0.7,0.6,1.4,1.2,2.1,1.8c0.2,0.1,0.6,0.4,0.8,0.5
						c0.6,0.4,1,0.7,1.6,0.8c0.7,0.2,1.4,0.5,2.1,0.6c0.2,0,0.6,0.1,0.8,0.2c0.5,0.1,0.9,0,1.4,0.1c0.8,0.1,1.5,0.3,2.3,0.3
						c0.4,0,0.7-0.1,1.1-0.2c0.4,0,0.6,0,0.9-0.1c0.8-0.1,1.9-0.2,2.7-0.6c0.4-0.2,0.8-0.3,1.2-0.5c0.6-0.2,1.1-0.6,1.7-0.8
						c0.4-0.2,0.8-0.5,1.3-0.7c0.5-0.3,0.9-0.7,1.4-1.2c0.5-0.5,0.8-0.9,1.2-1.4c0.4-0.6,0.7-1.2,1.2-1.6c0.5-0.5,0.7-0.9,1.1-1.5
						c0.2-0.3,0.4-0.8,0.5-1.2c0.1-0.5,0.4-0.8,0.4-1.3c0.1-0.6,0.2-1.3,0.3-1.9c0.1-0.5,0-1.1,0-1.6c0-1.3,0.1-2.7-0.1-4
						c-0.1-0.6-0.3-1.3-0.4-1.9c-0.2-0.8-0.6-1.5-1-2.2c-0.5-0.7-0.9-1.3-1.4-2c-0.3-0.6-0.8-1.2-1.4-1.7c-0.5-0.4-1-0.7-1.6-1
						c-0.5-0.1-0.9-0.2-1.3-0.5c-0.5-0.2-0.8-0.6-1.4-0.7c-0.4-0.1-0.6-0.1-0.9-0.2c-0.3-0.2-0.8-0.4-1.2-0.5
						c-0.9-0.2-1.9-0.3-2.8-0.5c-0.8-0.1-1.5,0-2.2-0.1c-0.5,0-0.9,0-1.4,0c-0.4,0-0.6,0.1-0.9,0.1c-0.1,0-0.4,0-0.5,0
						c0,0-0.1,0-0.1,0.1c-0.6,0.2-1.3,0.5-1.9,0.7c-1.1,0.3-2.1,0.7-3,1.4c-1.1,0.8-2.1,1.7-2.8,2.8c-0.5,0.6-1,1-1.4,1.6
						c-0.5,0.6-0.7,1.4-1.1,2.1c-0.2,0.5-0.2,1.1-0.5,1.5c-0.1,0.5-0.5,0.8-0.6,1.3c-0.2,0.7-0.4,1.3-0.4,2
						c-0.1,1.4,0.2,2.8,0.5,4.2C96.1,333.8,96.5,334.7,96.7,336z"/>
				</g>
				<g>
					<path class="st0" d="M82.9,360.6L82.9,360.6c0-0.1,0-0.1,0-0.2c0.1-0.1,0.1-0.2,0.2-0.3l0,0c0.1,0,0.2,0.1,0.1,0.1
						c0,0.1-0.1,0.1-0.1,0.2C83.1,360.4,83,360.5,82.9,360.6C83,360.6,82.9,360.6,82.9,360.6L82.9,360.6z"/>
					<path class="st0" d="M82.6,359.7L82.6,359.7L82.6,359.7l-0.1,0.1c0,0.1-0.1,0.2,0,0.4C82.7,360.3,82.8,359.9,82.6,359.7z
						 M82.4,360.3c-0.3-0.2,0-0.7,0.4-0.6S82.8,360.4,82.4,360.3C82.4,360.3,82.3,360.3,82.4,360.3z"/>
					<path class="st0" d="M82.3,361.3c-0.1-0.1-0.2-0.2-0.3-0.4l0,0l0,0l0,0l0,0l0,0l0.1,0C82.2,361.1,82.3,361.2,82.3,361.3
						c0.1-0.2,0.2-0.3,0.4-0.2c0-0.1,0.1-0.1,0.1-0.1l0,0l0,0l0,0l0,0l0,0l0,0c-0.1,0-0.1,0.1-0.2,0.2
						C82.5,361.3,82.4,361.4,82.3,361.3L82.3,361.3C82.3,361.2,82.3,361.2,82.3,361.3z"/>
					<path class="st0" d="M82.4,361.2C82.3,361.1,82.4,361.1,82.4,361.2c0.2,0,0.2-0.1,0.4-0.2l0,0l0,0l0,0l0,0l0,0l0,0l-0.1,0l0,0
						l0,0l0,0c0.1,0-0.1,0.1-0.1,0.1S82.5,361.2,82.4,361.2C82.4,361.2,82.3,361.2,82.4,361.2z"/>
					<path class="st0" d="M82.3,361.1c-0.1,0-0.2-0.1-0.2,0l0,0C82.2,361.1,82.2,361.1,82.3,361.1L82.3,361.1c0,0,0,0.1,0.1,0.1l0,0
						l0,0C82.4,361.2,82.4,361.2,82.3,361.1C82.3,361.2,82.3,361.2,82.3,361.1C82.3,361.2,82.3,361.2,82.3,361.1
						C82.3,361.2,82.3,361.1,82.3,361.1C82.2,361.1,82.2,361.1,82.3,361.1z"/>
					<path class="st0" d="M82.1,361C82,361,82,361,82.1,361C82,361,82,361,82.1,361C82.1,361,82.1,360.9,82.1,361
						C82.1,360.9,82.1,360.9,82.1,361C82.1,360.9,82.1,360.9,82.1,361C82.1,360.9,82.1,360.9,82.1,361
						C82.1,360.9,82.1,360.9,82.1,361C82.1,360.9,82.1,361,82.1,361C82.2,361,82.2,361,82.1,361C82.2,361,82.2,361,82.1,361
						c0.1,0,0.1,0,0.3,0.1l0,0l0,0l0,0l0,0l0,0l0,0l0,0l0,0l0,0l0,0l0,0l0,0l0,0l0,0l0,0l0,0l0,0l-0.1,0c-0.1,0-0.1,0-0.1,0
						C82.2,361,82.1,361,82.1,361S82,361,82.1,361z"/>
					<path class="st0" d="M82.4,360.3c-0.1-0.1-0.1-0.4,0.1-0.4c0-0.1,0.2-0.1,0.4,0c0,0-0.1,0.1-0.1,0l-0.1,0
						c-0.1,0-0.2,0.1-0.2,0.2l0,0C82.4,360.2,82.4,360.2,82.4,360.3C82.4,360.2,82.5,360.2,82.4,360.3c0.2-0.1,0.2-0.2,0.2-0.2
						l0.1,0l0,0C82.8,360.2,82.5,360.3,82.4,360.3C82.4,360.2,82.4,360.2,82.4,360.3z"/>
					<path class="st0" d="M83.3,360.3C83.1,360.3,83.3,360.3,83.3,360.3c0-0.1,0-0.1,0.1-0.2l0,0l0,0.1
						C83.4,360.3,83.4,360.3,83.3,360.3L83.3,360.3z"/>
					<path class="st0" d="M82.9,360.7C82.9,360.6,82.8,360.6,82.9,360.7c0-0.2,0-0.4,0-0.4c0.1-0.1,0.1-0.2,0.2-0.3
						c0.1,0,0.1,0,0.1,0c0.1,0.1,0.1,0.1,0.1,0.1l-0.1,0l0,0C83.1,360.3,83,360.5,82.9,360.7C82.9,360.6,82.9,360.6,82.9,360.7
						C82.9,360.6,82.9,360.6,82.9,360.7c0.1-0.2,0.2-0.3,0.2-0.5c0.1,0,0.1,0,0.1,0l0,0c0,0.1-0.1,0.2-0.1,0.2
						C83,360.6,83,360.6,82.9,360.7C83,360.6,82.9,360.7,82.9,360.7C82.9,360.6,82.9,360.6,82.9,360.7z"/>
					<path class="st0" d="M82.6,359.8L82.6,359.8C82.7,359.7,82.7,359.8,82.6,359.8C82.7,359.8,82.7,359.8,82.6,359.8L82.6,359.8z"
						/>
					<path class="st0" d="M82.3,360.3c-0.1-0.1,0-0.4-0.1-0.4c0-0.1,0.1-0.1,0.1-0.1c0.1,0,0,0.1,0,0.1c-0.1,0.1-0.1,0.4,0.1,0.4
						c0.1,0,0.2-0.2,0.2-0.3c0,0,0.1-0.1,0.1,0C82.9,360.2,82.5,360.5,82.3,360.3L82.3,360.3z"/>
					<path class="st0" d="M82,359.2L82,359.2L82,359.2l-0.1,0.1c0,0.1-0.1,0.2,0,0.4C82,359.8,82.2,359.4,82,359.2z M81.7,359.8
						c-0.2-0.2,0-0.7,0.4-0.6C82.4,359.3,82.1,359.9,81.7,359.8L81.7,359.8z"/>
					<path class="st0" d="M81.8,359.8c-0.2-0.1-0.2-0.4,0.1-0.4c0-0.1,0.2-0.1,0.4,0c0,0-0.1,0.1-0.1,0l-0.1,0
						c-0.1,0-0.2,0.1-0.2,0.2l0,0C81.8,359.7,81.8,359.7,81.8,359.8C81.8,359.7,81.8,359.7,81.8,359.8c0.1-0.1,0.2-0.2,0.2-0.2
						l0.1,0l0,0C82.2,359.7,82,359.8,81.8,359.8S81.7,359.8,81.8,359.8z"/>
					<path class="st0" d="M82,359.3C81.9,359.3,82,359.3,82,359.3C82,359.2,82.1,359.3,82,359.3L82,359.3L82,359.3z"/>
					<path class="st0" d="M81.7,359.8c-0.1-0.1-0.1-0.2-0.1-0.4c0-0.1,0.1-0.1,0.1-0.1c0.1,0,0,0.1,0,0.1c-0.1,0.1-0.1,0.4,0.1,0.4
						c0.1,0,0.2-0.2,0.2-0.3c0,0,0.1-0.1,0.1,0C82.3,359.7,82,360,81.7,359.8L81.7,359.8z"/>
					<path class="st0" d="M81.3,358.7L81.3,358.7L81.3,358.7l-0.1,0.1c0,0.1-0.1,0.2,0,0.4C81.4,359.3,81.6,359,81.3,358.7z
						 M81.1,359.3c-0.3-0.2,0-0.7,0.4-0.6C81.9,358.9,81.5,359.4,81.1,359.3L81.1,359.3z"/>
					<path class="st0" d="M81.1,359.3c-0.1-0.1-0.1-0.4,0.1-0.3c0-0.1,0.2-0.1,0.4,0c0,0-0.1,0.1-0.1,0l-0.1,0
						c-0.1,0-0.2,0.1-0.2,0.2l0,0C81.2,359.2,81.2,359.2,81.1,359.3C81.2,359.2,81.3,359.2,81.1,359.3c0.2-0.1,0.2-0.2,0.2-0.2
						l0.1,0l0,0C81.5,359.2,81.3,359.3,81.1,359.3L81.1,359.3z"/>
					<path class="st0" d="M81.4,358.9C81.3,358.9,81.3,358.9,81.4,358.9C81.4,358.7,81.4,358.9,81.4,358.9L81.4,358.9
						C81.3,358.9,81.3,358.9,81.4,358.9z"/>
					<path class="st0" d="M81,359.3c-0.1-0.1,0-0.2-0.1-0.4c0-0.1,0.1-0.1,0.1-0.1c0.1,0,0,0.1,0,0.1c-0.1,0.1-0.1,0.4,0.1,0.4
						c0.1,0,0.2-0.2,0.2-0.3c0,0,0.1-0.1,0.1,0C81.6,359.2,81.3,359.6,81,359.3L81,359.3z"/>
					<path class="st0" d="M80.6,360c-0.2-0.2-0.1-0.6,0.2-0.7c0,0.1,0.1,0.1,0.1,0.1l0,0l0,0l0,0l0,0l0,0l0,0l0,0l0,0l0,0l0,0l0,0
						l0,0l0,0l0,0l0,0l0,0l0,0l0,0l-0.1,0l0,0l0,0l0,0l0,0l0,0l0,0l0,0l0,0l0,0l0,0l0,0l0,0l0,0l0,0l0,0c0.1,0,0.3,0.1,0.2,0.4
						c-0.1,0.1-0.2,0.1-0.4,0c-0.1,0-0.1,0.1-0.1,0.1l0,0l0,0l0,0l0,0l0,0l0,0l0,0l0,0C80.6,359.9,80.6,359.9,80.6,360
						C80.7,359.9,80.7,359.9,80.6,360C80.7,359.9,80.7,359.9,80.6,360C80.7,359.9,80.7,359.9,80.6,360
						C80.7,359.9,80.7,359.9,80.6,360C80.7,359.9,80.7,359.9,80.6,360C80.7,359.9,80.7,359.9,80.6,360
						C80.7,359.9,80.7,359.9,80.6,360c0.1-0.1,0.2-0.1,0.2-0.1c0.1,0,0.1,0.1,0,0.1C80.7,360,80.6,360,80.6,360L80.6,360
						C80.6,360,80.6,359.9,80.6,360z"/>
					<path class="st0" d="M81.5,360.6L81.5,360.6c0.1-0.1,0.2-0.2,0.2-0.5l0,0l0,0l0,0l0,0l0,0c0,0,0.1,0,0.1,0.1
						C81.7,360.4,81.7,360.5,81.5,360.6C81.6,360.6,81.6,360.6,81.5,360.6L81.5,360.6z"/>
					<path class="st0" d="M81.6,360.6c-0.2,0-0.4-0.1-0.6-0.4c0-0.1,0.1-0.1,0.2-0.1c0-0.1,0-0.2,0.1-0.2c0.1,0,0.2,0.1,0.3,0.2
						c0.1,0-0.1,0.1-0.1,0l0,0l0,0l0,0l0,0l0,0l0,0l0,0l0,0l0,0l0,0l0,0l0,0l0,0l0,0l0,0l0,0l0,0l0,0l0,0l0,0l0,0l0,0
						c-0.1,0-0.1,0-0.1,0c-0.1,0.1,0,0.2,0.1,0.4l0,0l-0.1,0l0,0l0,0l0,0l0,0l0,0l0,0l0,0l0,0l0,0l0,0l0,0l0,0l0,0l0,0l0,0l0,0l0,0
						l0,0l0,0l0,0l0,0l0,0l0,0l0,0l0,0l0,0l0,0l0,0l0,0l0,0l0,0l0,0l0,0l0,0l0,0l0,0l0,0l0,0l0,0l0,0
						C81.5,360.5,81.5,360.5,81.6,360.6C81.5,360.5,81.5,360.5,81.6,360.6C81.5,360.5,81.5,360.5,81.6,360.6
						C81.5,360.5,81.5,360.6,81.6,360.6C81.6,360.6,81.5,360.7,81.6,360.6z"/>
					<path class="st0" d="M81.6,360.7C81.6,360.7,81.6,360.6,81.6,360.7c0.1-0.2,0.2-0.3,0.2-0.5l0.1,0
						C82,360.4,81.8,360.6,81.6,360.7L81.6,360.7L81.6,360.7z"/>
					<path class="st0" d="M81.5,360.7C81.5,360.6,81.4,360.6,81.5,360.7C81.5,360.6,81.6,360.6,81.5,360.7
						C81.6,360.6,81.6,360.6,81.5,360.7C81.6,360.6,81.6,360.6,81.5,360.7c0.1-0.1,0.2-0.1,0.1-0.1
						C81.6,360.7,81.6,360.7,81.5,360.7L81.5,360.7z"/>
					<path class="st0" d="M81.5,360C81.4,360,81.4,360,81.5,360c0-0.1,0.1-0.1,0.4-0.1c0.1,0,0.1,0,0.1,0c0.1,0.1,0.2,0.2,0.1,0.2
						c-0.1,0-0.1,0-0.1,0C81.8,360,81.7,360,81.5,360L81.5,360L81.5,360L81.5,360L81.5,360z"/>
					<path class="st0" d="M81.7,360.4C81.6,360.4,81.6,360.4,81.7,360.4c-0.1-0.1-0.2-0.1-0.3-0.1c0.1-0.1,0.2-0.1,0.2-0.1
						c0.1,0,0,0,0,0C81.5,360.1,81.6,360.3,81.7,360.4C81.7,360.3,81.7,360.4,81.7,360.4L81.7,360.4z"/>
					<path class="st0" d="M81.6,360.1C81.5,360,81.6,360,81.6,360.1C81.6,360,81.6,360,81.6,360.1C81.7,360,81.7,360,81.6,360.1
						C81.7,360.1,81.7,360.1,81.6,360.1L81.6,360.1L81.6,360.1L81.6,360.1L81.6,360.1L81.6,360.1z"/>
					<path class="st0" d="M81.4,360.5C81.3,360.5,81.3,360.5,81.4,360.5c-0.1,0-0.2-0.1-0.2-0.2c0-0.1,0.1-0.1,0.2-0.1l0.1,0l-0.1,0
						c-0.1,0-0.1,0-0.1,0c0,0.1,0,0.1,0,0.2C81.3,360.4,81.3,360.5,81.4,360.5L81.4,360.5C81.4,360.6,81.4,360.6,81.4,360.5z"/>
					<path class="st0" d="M81.6,360.5L81.6,360.5L81.6,360.5L81.6,360.5C81.6,360.4,81.6,360.4,81.6,360.5
						C81.6,360.4,81.6,360.4,81.6,360.5C81.6,360.4,81.6,360.4,81.6,360.5C81.6,360.4,81.6,360.4,81.6,360.5
						C81.6,360.4,81.6,360.4,81.6,360.5C81.6,360.4,81.6,360.4,81.6,360.5C81.6,360.4,81.6,360.4,81.6,360.5
						C81.6,360.4,81.6,360.4,81.6,360.5c-0.1-0.1-0.1-0.1,0-0.1l0,0l0,0C81.6,360.4,81.6,360.4,81.6,360.5
						C81.6,360.4,81.7,360.5,81.6,360.5C81.7,360.5,81.6,360.5,81.6,360.5L81.6,360.5z"/>
					<path class="st0" d="M81.3,360.4C81.3,360.4,81.4,360.3,81.3,360.4C81.5,360.3,81.6,360.4,81.3,360.4L81.3,360.4L81.3,360.4
						L81.3,360.4L81.3,360.4L81.3,360.4L81.3,360.4L81.3,360.4L81.3,360.4L81.3,360.4L81.3,360.4L81.3,360.4L81.3,360.4L81.3,360.4
						L81.3,360.4L81.3,360.4L81.3,360.4L81.3,360.4L81.3,360.4L81.3,360.4L81.3,360.4L81.3,360.4C81.4,360.4,81.4,360.4,81.3,360.4
						C81.4,360.4,81.4,360.4,81.3,360.4C81.4,360.4,81.4,360.4,81.3,360.4C81.4,360.4,81.4,360.4,81.3,360.4
						C81.4,360.4,81.4,360.4,81.3,360.4C81.4,360.4,81.4,360.4,81.3,360.4L81.3,360.4z"/>
					<path class="st0" d="M80.6,359.8C80.6,359.8,80.6,359.7,80.6,359.8c0-0.1,0.1-0.1,0.1-0.1c0.1,0.1,0.1,0.1,0.2,0.1
						c0-0.1,0-0.1,0-0.2l0,0c0.1,0,0.1,0,0.1,0c0.1,0,0.1,0.2,0,0.2c-0.1,0-0.1,0-0.2,0L80.6,359.8
						C80.7,359.8,80.7,359.8,80.6,359.8C80.7,359.7,80.7,359.7,80.6,359.8C80.7,359.7,80.7,359.7,80.6,359.8
						C80.6,359.7,80.6,359.7,80.6,359.8L80.6,359.8L80.6,359.8L80.6,359.8L80.6,359.8z"/>
					<path class="st0" d="M80.7,360C80.7,359.9,80.7,359.9,80.7,360c-0.1-0.1-0.2-0.4-0.1-0.1l0,0l0,0l0,0l0,0l0,0l0,0l0,0l0,0l0,0
						l0,0l0,0l0,0l0,0l0,0l0,0C80.6,359.9,80.6,359.9,80.7,360C80.7,359.9,80.7,359.9,80.7,360C80.7,359.9,80.7,359.9,80.7,360
						C80.7,359.9,80.7,359.9,80.7,360C80.7,359.9,80.7,359.9,80.7,360C80.7,359.9,80.7,359.9,80.7,360
						C80.7,359.9,80.7,359.9,80.7,360C80.7,359.9,80.7,359.9,80.7,360C80.7,359.9,80.7,359.9,80.7,360
						C80.7,359.9,80.7,359.9,80.7,360C80.7,359.9,80.7,359.9,80.7,360C80.7,359.9,80.7,359.9,80.7,360
						C80.8,359.9,80.8,359.9,80.7,360C80.8,359.9,80.8,359.9,80.7,360C80.8,359.9,80.8,359.9,80.7,360
						C80.8,359.9,80.8,359.9,80.7,360C80.8,359.9,80.8,359.9,80.7,360C80.8,359.9,80.8,359.9,80.7,360
						C80.8,359.9,80.8,359.9,80.7,360L80.7,360C80.8,359.9,80.8,359.9,80.7,360C80.8,359.9,80.8,359.9,80.7,360
						C80.8,359.9,80.8,359.9,80.7,360C80.8,359.9,80.8,359.9,80.7,360C80.8,359.9,80.9,359.9,80.7,360L80.7,360L80.7,360L80.7,360
						L80.7,360L80.7,360L80.7,360L80.7,360L80.7,360L80.7,360L80.7,360C80.8,359.9,80.8,359.9,80.7,360
						C80.8,359.9,80.8,359.9,80.7,360C80.8,359.9,80.8,359.9,80.7,360C80.8,359.9,80.8,360,80.7,360L80.7,360z"/>
					<path class="st0" d="M80.8,360C80.7,360,80.8,360,80.8,360L80.8,360C80.8,359.9,80.8,359.9,80.8,360
						C80.9,359.9,80.9,359.9,80.8,360c0.1-0.1,0.1,0,0.1-0.1l0,0l0,0l0,0l0,0l0,0l0,0l0,0C80.9,360,80.8,360,80.8,360L80.8,360z"/>
					<path class="st0" d="M80.7,360C80.6,359.9,80.6,359.9,80.7,360c-0.1-0.2-0.1-0.2-0.1-0.2l0,0C80.6,359.8,80.6,359.9,80.7,360
						L80.7,360L80.7,360L80.7,360C80.8,360,80.8,360,80.7,360C80.8,360,80.7,360,80.7,360L80.7,360L80.7,360z"/>
					<path class="st0" d="M80.6,359.8C80.6,359.7,80.6,359.7,80.6,359.8C80.6,359.7,80.6,359.7,80.6,359.8
						C80.7,359.7,80.6,359.8,80.6,359.8L80.6,359.8z"/>
					<path class="st0" d="M80.7,359.5C80.7,359.5,80.7,359.4,80.7,359.5C80.7,359.4,80.7,359.4,80.7,359.5
						C80.7,359.4,80.7,359.4,80.7,359.5C80.7,359.4,80.7,359.4,80.7,359.5C80.7,359.4,80.7,359.4,80.7,359.5
						C80.7,359.4,80.7,359.4,80.7,359.5C80.7,359.4,80.7,359.4,80.7,359.5C80.7,359.4,80.7,359.4,80.7,359.5
						C80.7,359.4,80.7,359.4,80.7,359.5C80.7,359.4,80.7,359.4,80.7,359.5C80.7,359.4,80.7,359.4,80.7,359.5
						C80.7,359.4,80.7,359.4,80.7,359.5C80.7,359.4,80.7,359.4,80.7,359.5C80.7,359.4,80.7,359.4,80.7,359.5
						C80.7,359.4,80.7,359.4,80.7,359.5C80.7,359.4,80.7,359.4,80.7,359.5c0-0.1,0-0.1,0-0.1l0,0l0,0l0,0l0,0l0,0l0,0l0,0
						C80.7,359.4,80.7,359.4,80.7,359.5C80.7,359.4,80.7,359.4,80.7,359.5C80.7,359.4,80.7,359.4,80.7,359.5
						C80.7,359.4,80.7,359.4,80.7,359.5C80.7,359.4,80.7,359.4,80.7,359.5C80.7,359.4,80.7,359.4,80.7,359.5
						C80.8,359.4,80.8,359.4,80.7,359.5C80.8,359.4,80.8,359.4,80.7,359.5C80.9,359.4,80.9,359.6,80.7,359.5
						C80.8,359.4,80.8,359.4,80.7,359.5C80.8,359.6,80.8,359.6,80.7,359.5L80.7,359.5L80.7,359.5L80.7,359.5L80.7,359.5z"/>
					<path class="st0" d="M80.8,359.6C80.7,359.5,80.7,359.4,80.8,359.6c0-0.1,0.1-0.1,0.1-0.1C80.9,359.6,80.9,359.6,80.8,359.6
						L80.8,359.6L80.8,359.6L80.8,359.6L80.8,359.6L80.8,359.6L80.8,359.6L80.8,359.6L80.8,359.6L80.8,359.6z"/>
					<path class="st0" d="M80.8,359.6L80.8,359.6L80.8,359.6C80.7,359.5,80.7,359.5,80.8,359.6C80.7,359.5,80.7,359.5,80.8,359.6
						C80.7,359.5,80.7,359.5,80.8,359.6C80.7,359.4,80.8,359.4,80.8,359.6C80.8,359.4,80.8,359.4,80.8,359.6L80.8,359.6L80.8,359.6
						L80.8,359.6L80.8,359.6L80.8,359.6L80.8,359.6z"/>
				</g>
				<g>
					<path class="st3" d="M138.5,351.7c0,0.1,0.1,0.2,0.2,0.2c0.5-0.1,0.8-0.5,1.2-0.7c0.6-0.5,1.2-0.8,1.7-1.3
						c0.6-0.6,1.1-1.2,1.5-1.9c0.1-0.1,0.2-0.2,0.2-0.5c-0.1-0.1-0.2-0.2-0.3-0.2c0-0.2-0.2-0.2-0.4-0.1c-0.1,0.1-0.2,0.3-0.4,0.5
						c-0.6,0.6-1.2,1.2-1.7,1.7c-0.5,0.5-1,0.9-1.4,1.3c-0.1,0.1-0.4,0.3-0.6,0.5C138.5,351.2,138.4,351.3,138.5,351.7z"/>
					<path class="st3" d="M144.8,342.7c-0.2,0.3-0.6,1.4,0.1,1.2c0,0.1,0.2,0.2,0.4,0.1c0.6-0.7,0.8-1.8,1.1-2.7
						c0.4-1.1,0.7-2.1,0.7-3.3c0-0.5-0.1-0.8-0.2-1.2c-0.2-0.4-0.6,0-0.6,0.3c-0.2,0.8-0.3,1.8-0.5,2.6c-0.1,0.7-0.4,1.3-0.6,2
						c-0.1,0-0.2,0.1-0.2,0.2C144.9,342.2,144.8,342.5,144.8,342.7z"/>
					<path class="st3" d="M142.3,340.5c0.1-0.2,0.2-0.3,0.2-0.6c-0.3-0.6-0.8,0.2-1.1,0.5c0,0-0.1,0.1-0.1,0.2s-0.1,0.2-0.2,0.3
						c-0.1,0.2-0.2,0.3-0.4,0.5c-0.1,0.2,0.1,0.5,0.3,0.4c0.1,0.1,0.4,0.1,0.5,0C141.9,341.5,142.2,340.9,142.3,340.5z"/>
					<path class="st3" d="M138.5,345.8c-0.1,0.4-0.4,0.6-0.4,0.9c0,0.2,0.3,0.4,0.5,0.2c0.2-0.3,1.5-1.9,1.1-2.2
						c-0.1-0.1-0.2-0.1-0.4,0c-0.2-0.1-0.5,0.1-0.5,0.3C138.7,345.4,138.6,345.7,138.5,345.8z"/>
					<path class="st3" d="M100.7,333.7c0.6,1.4,1.5,2.6,2.4,3.9c0.7,0.8,1.6,1.4,2.6,2c1.2,0.4,2.3,0.7,3.5,0.7
						c0.7-0.1,1.5,0,2.2-0.1c1.4-0.3,2.7-0.8,3.9-1.5c0.7-0.5,1.3-1,1.9-1.7c0.6-0.6,1.3-1.3,1.8-2c0.2-0.2,0.4-0.6,0.5-0.8
						c0.1-0.2,0.2-0.5,0.4-0.7c0.1-0.2,0.1-0.4,0.1-0.5c0.8-2.2,1-4.9-0.2-7.2c0.2-0.2-0.1-0.5-0.2-0.7c-0.1-0.2-0.3-0.5-0.5-0.7
						c-0.6-0.8-1-1.7-1.7-2.4c-0.5-0.7-1.3-1.1-2.1-1.4c-0.7-0.2-1.4-0.8-2.2-1c-3.2-1.1-6.8-0.7-9.4,1.5c-0.6,0.3-1.2,0.9-1.5,1.5
						c-0.7,0.8-1.3,1.7-1.8,2.7C99,328.1,99.4,331.1,100.7,333.7z"/>
				</g>
				<g class="st4">
					<path d="M62.8,384.8c0.5,0.5,0.9,0.7,1.4,1c-0.1-0.1-0.1-0.2-0.2-0.4c-0.1-0.2-0.2-0.5-0.3-0.7c-0.1-0.2-0.2-0.5-0.3-0.8
						c0,0.1,0,0,0,0C62.8,383.9,62.4,384.5,62.8,384.8z"/>
					<path d="M64.1,383.2c0,0.1,0.1,0.2,0.2,0.4c0.3,0.6,0.8,1.1,1.3,1.5c0.3,0.2,0.7,0.6,1,0.8c0.2,0.1,0.5,0.4,0.7,0.5
						c0.1,0.1,0.3,0.2,0.5,0.4l0,0c0.5,0.2,0.9,0.5,1,0.6c0.2,0.1,0.3,0.2,0.6,0.4c0.5,0.2,0.8,0.5,1.3,0.6c1.4,0.7,2.9,1.3,4.6,1.3
						c1.9-0.2,3.9-1.4,5.2-2.8c0.6-0.5,1.1-1,1.5-1.6c0.4-0.3,0.7-0.7,1-1.2c0.2,0.1,0.5,0.4,0.7,0.5c-0.1,0.5,0.3,0.7,0.7,0.8
						c0.8,0.5,1.6,1,2.4,1.3c2.8,1.6,6.1,2.3,9.2,2.3c2.2-0.1,4.5-0.4,6.6-1.1c1.5-0.7,3.1-1.1,4.5-2.1c1.4-0.9,2.7-1.8,4-2.9
						c0.8-0.7,1.4-1.6,2.1-2.4c0.4-0.5,0.6-0.9,1-1.4c0.4-0.6-0.6-1.2-0.9-0.6c-0.1,0-0.1,0-0.2,0c-0.7,0.2-1.4,0-2-0.3
						c-2.5-1.1-4.9-2.5-6.6-4.7c0-0.1-0.1-0.2-0.2-0.4c0-0.2-0.2-0.4-0.5-0.4c0-0.4,0-0.6-0.2-0.7c-0.4-0.1-0.7,0-0.8,0.3
						c0,1.1,0.1,2-0.4,2.9c-1.1,2-3.1,2.9-4.9,1.4c-0.6-0.2-0.9-0.6-1.3-1.1c-0.3-0.4-0.6-1.1-1.2-0.8l0-0.1c-0.1-0.6-1-0.6-1.1,0.1
						c0.1,0.6-0.2,1.3-0.7,1.8c-1.3,1-3.1,0.9-4.5,0.4c-1-0.6-2.2-1.1-3.4-1.1c-3.3,0-5.2,3.2-6.8,5.7c-0.5,0.7-1.1,1.2-1.7,1.7
						c-0.7,0.7-1.7,1.4-2.6,1.7l-0.1,0.1l-0.1,0l-0.1,0l-0.1,0c-0.1,0-0.1,0-0.1,0c-0.2,0-0.4,0.1-0.6,0.1c-0.6,0-1.2,0-1.8,0.1
						c-1.1,0.1-2.1-0.1-3-0.4c-1.1-0.4-2.1-0.8-3-1.3c-0.4-0.1-0.7-0.4-0.9-0.6C64.2,383.1,64.1,383.2,64.1,383.2z"/>
					<path d="M59.6,373.6c0.1,1.2,0.4,2.2,1,3.3c0.3,0.7,0.8,1.4,1.3,2.1c0.1,0.1,0.2,0.6,0.5,0.5c0.1-0.1,0.1-0.4,0.2-0.5
						c0.6-0.8,1.3-0.9,2.2-1c0.8,0,1.6-0.1,2.3-0.1c0.5,0,0.9,0,1.4,0c0.8,0.1,1-1,1.2-1.6c0.1-0.4,0.4-0.6,0.5-0.9
						c0.2-0.3,0.4-0.8,0.6-1.2c0.4-0.7,0.6-1.5,1.1-2.2c0.2-0.5,0.6-0.7,1-1c0.2-0.1,0.5-0.2,0.7-0.5c0.2-0.1,0.4-0.3,0.5-0.5
						c0.2-0.2,0.6-0.5,0.8-0.7c0.1-0.2,0.2-0.3,0.4-0.6c0.1-0.3,0.1-0.8,0.1-1.2c0.1-0.6,0.2-1.2,0.5-1.6c0.1-0.4,0.7-0.7,0.5-1.2
						c0.2-0.1,0.5-0.2,0.7-0.5c0.2,0,0.4-0.3,0.1-0.4l-0.1,0.1c-0.1,0.1-0.2,0.2-0.4,0.3c-0.6,0.2-1.2,0.7-1.8,0.9
						c-0.2,0-0.6,0.1-0.8,0.2c-0.4,0.1-0.6,0.2-0.8,0.5c-0.8,0.6-1.1,1.6-1.6,2.6c-0.2,0.5-0.6,0.8-0.8,1.2c-0.2,0.3-0.5,0.7-0.7,1
						c-0.1,0.2-0.4,0.3-0.6,0.6c-0.1,0.2-0.4,0.5-0.7,0.5c-0.3-0.2-0.6-0.7-0.8-0.9c-0.1-0.1-0.3-0.4-0.5-0.5
						c-0.1-0.1-0.3-0.2-0.5-0.4c-0.2-0.2-0.6-0.5-0.8-0.7c-0.3-0.2-0.6-0.5-0.8-0.7c-0.1-0.1-0.5-0.2-0.7-0.4
						c-0.4-0.1-0.7-0.1-1.1-0.1c-0.4,0-0.6-0.1-0.8,0c-0.2,0.1-0.4,0.1-0.6,0.2c-0.5,0.2-0.9,0.7-1.3,1.2c-0.5,0.5-0.7,1.2-1,1.7
						C60,372,60.1,372.7,59.6,373.6z"/>
					<path d="M78.5,338.3L78.5,338.3L78.5,338.3z"/>
					<path d="M79,339.6L79,339.6L79,339.6z"/>
					<path d="M78.6,337.5L78.6,337.5L78.6,337.5z"/>
					<path d="M90.1,350.5L90.1,350.5L90.1,350.5z"/>
					<path d="M123.6,361.6c0.2,0,1.1,0.2,1.1-0.1c-0.1-0.2-0.3-0.5-0.3-0.7c0-0.2-0.1-0.6-0.2-0.8c-0.1-0.7-0.3-1.3-0.6-1.9l0-0.1
						c0-0.1-0.1-0.2-0.2-0.1c-0.2,0-0.4,0-0.6,0.1c-0.2,0.1-0.5,0.1-0.6,0.2c-0.8,0.2-1.7,0.7-2.6,0.9c-0.5,0.1-1.1,0.1-1.5,0.1
						c-0.7,0.1-1.3,0-2-0.1c-0.4,0-0.8,0-1.2,0c-0.4,0-0.8-0.1-1.2-0.1c-1.6,0-3.3,0-4.9-0.5c-1.3-0.4-2.6-0.7-3.9-1
						c-1.1-0.1-2.1-0.3-3.2-0.3c0.1,0,0.1,0,0.1-0.1c0.1,0,0.2-0.2,0.1-0.4c-0.1,0-0.1,0-0.2,0c-0.1,0-0.1,0-0.1,0
						c-0.1-0.2-0.3-0.4-0.5-0.5c-1.2-0.8-2.3-1.7-3.5-2.6c-0.5-0.5-0.9-0.9-1.4-1.4c-0.2-0.4-0.6-0.6-0.9-0.9
						c-0.3-0.2-0.6-0.6-0.9-1c-0.3-0.5-0.8-0.8-1.2-1.2c-0.6-0.6-0.9-1.2-1.5-1.8c-0.3-0.4-0.8-0.6-1.2-1c-0.3-0.4-0.8-0.6-1-1.1
						c-0.7-1.2-1.5-2.4-1.8-3.8c-0.1-0.7-0.2-1.4-0.4-2c-0.2-0.5-0.3-0.8-0.5-1.3c-0.1-0.4-0.1-0.6-0.2-0.8l0.1,0
						c0.1,0,0.2,0,0.2-0.1c0.2-0.1,0.4-0.1,0.6-0.1c0.1,0.5,0.3,0.8,0.3,0.9c0.2,0.6,0.5,1.2,0.8,1.7c0.2,0.6,0.6,0.9,0.8,1.4
						c0.5,0.6,0.7,1.3,1.2,1.9c0.2,0.5,0.6,0.8,0.8,1.2c0.1,0.2,0.3,0.5,0.5,0.7l0,0L92,345c0.6,0.7,1,1.4,1.6,2
						c0.2,0.2,0.3,0.4,0.6,0.6c0.1,0.1,0.1,0.2,0.2,0.4c0.5,0.7,1,1.3,1.7,1.9c0.2,0.2,0.5,0.4,0.7,0.6c0.7,0.6,1.4,1.3,2.2,1.8
						c0.3,0.2,0.7,0.6,1,0.8c0.3,0.4,0.8,0.5,1.3,0.7c0.6,0.5,1.3,0.7,2,1c0.5,0.2,0.9,0.4,1.4,0.6c1.2,0.7,2.6,1,4,1.2
						c0.6,0.1,1.2,0.2,1.9,0.4c0.9,0.1,2,0.3,3,0.3c1.3,0,2.5-0.1,3.8-0.2c1.2,0,2.2-0.2,3.3-0.4c0.7-0.2,1.5-0.5,2.4-0.7
						c0.6-0.1,1.3-0.3,1.9-0.6c0.5-0.1,0.9-0.5,1.5-0.7c0.9-0.5,1.8-0.9,2.6-1.5c0.6-0.5,1.3-0.8,1.9-1.3c0.2-0.2,0.5-0.3,0.7-0.6
						c0-0.2,0.1-0.4,0.2-0.5l0,0l0-0.1l0,0c0.1-0.2,0.1-0.5,0.1-0.7c0-0.4,0.1-0.8,0-1.2c0-0.2-0.1-0.5-0.1-0.7c0-0.5,0-1.1,0-1.5
						c0-0.2-0.1-0.4-0.1-0.6c0.1-0.6,0.2-1.1,0.5-1.6c0.2-0.6,0.4-1.1,0.6-1.6c0.2-0.5,0.5-1.1,0.7-1.5c0.5-1.1,1-1.9,1.4-2.8
						c0.6-0.9,1.3-1.7,2.1-2.6c0.6-0.6,1.3-1.2,1.9-1.6c0.5-0.3,1.1-0.7,1.5-1c0.2-0.1,0.5-0.3,0.6-0.6c0.1,0,0.2,0,0.2,0
						c0.1,0,0.1,0,0.1,0c0.4-0.5,0.2-1.1,0.3-1.5c0-0.5,0-1.1,0-1.5c-0.1-0.9-0.2-1.8-0.3-2.6c0-0.5-0.1-0.9-0.1-1.4
						c0-0.7-0.2-1.4-0.4-2.1c-0.2-0.8-0.4-1.8-0.7-2.6c-0.1-0.5-0.3-0.9-0.5-1.4c-0.2-0.7-0.5-1.3-0.7-1.9l0,0
						c-0.1-0.1-0.1-0.1-0.1-0.1c-0.1,0-0.1-0.1-0.2-0.2c0-0.1-0.1-0.1-0.1-0.2c0-0.1-0.1-0.1-0.1-0.2c-0.1,0-0.1-0.1-0.1-0.1l0,0.1
						l0,0c0.1,3.5-0.4,6.9-1.5,10.2c-0.6,1.5-1.3,3.2-2.2,4.6c-0.1,0.1-0.2,0.3-0.4,0.6c-0.1,0.1-0.1,0.2-0.2,0.3
						c-0.1,0.2-0.2,0.3-0.4,0.6c0,0.1,0,0.2-0.1,0.4c0,0.2-0.1,0.4-0.2,0.5c-0.1,0.1-0.1,0.2-0.2,0.3c-0.1,0.2-0.2,0.3-0.4,0.6l0,0
						c-0.1,0.2-0.2,0.3-0.4,0.5c0,0.1-0.1,0.2-0.2,0.3l-0.1,0.1c-1.4,1.7-3.1,3.4-4.9,4.9c-0.4,0.3-0.8,0.6-1.3,0.9
						c-1.4,0.9-2.7,1.7-4.3,2.4c-0.2,0.1-0.4,0.1-0.6,0.2c-1.1,0.3-2,0.7-3.1,1l-0.1,0c-0.1,0.1-0.1,0.1-0.2,0.1
						c-1.1,0.2-2,0.3-2.9,0.4c-1.9,0.4-3.8,0.4-5.6,0.4c-2.6-0.1-5.2-0.5-7.5-1.5c-0.4-0.1-0.6-0.2-0.9-0.4c-0.1,0-0.1,0-0.2,0
						c-0.9-0.5-1.7-1-2.6-1.4c-0.9-0.6-1.9-1.3-2.8-2c-1.2-0.8-2.2-1.8-3-2.9c-1-1.2-2-2.5-2.8-3.9l0,0c0-0.1,0-0.2-0.1-0.2
						c0-0.1-0.1-0.1-0.1-0.2c-0.1-0.5-0.9-0.1-0.7,0.3c0,0.1,0.1,0.1,0.1,0.2l0,0c0,0.1,0,0.1,0,0.2c0,0.2,0.1,0.4,0.1,0.5
						c-0.1,0-0.2,0-0.2,0.1l-0.1-0.1l0,0c-0.1,0-0.1,0.1-0.1,0.1c0,0.1-0.1,0.2-0.1,0.4l-0.1,0c0-0.1-0.1-0.1-0.1-0.1
						c-0.4,0-0.2,0.3-0.2,0.5c-0.1-0.1-0.1-0.1-0.2,0l-0.1,0c-0.1,0-0.1,0.1-0.1,0.2l0.1,0.1c-0.1-0.1-0.3-0.2-0.5-0.1
						c-0.1,0.1,0,0.2,0.1,0.4c-0.1,0-0.1,0.1,0,0.2c-0.1,0-0.2,0.1-0.1,0.2c0.1,0.1,0.2,0.1,0.3,0.2c-0.1,0-0.2,0-0.4,0
						c-0.1,0-0.2,0.1-0.2,0.2c0.1,0,0.1,0.1,0.2,0.1c-0.1,0-0.2,0-0.4,0c-0.1-0.1-0.1-0.4-0.2-0.5c-0.5-0.6-0.8-0.4-1.2,0.1
						c-0.1-0.1-0.3-0.2-0.6-0.1c-0.1,0-0.1,0.2,0,0.2c-0.1,0-0.1,0-0.1,0.1l-0.1,0c-0.1,0-0.1,0.2,0,0.2l0.1,0
						c0,0.1,0.1,0.2,0.1,0.4c0,0.2,0,0.5,0,0.7c-0.1,0.1,0,0.4-0.1,0.5c-0.1,0.1,0.1,0.2,0.2,0.1c0,0.7,0.2,1.5,0.2,2.2
						c0.1,0.8,0.2,1.6,0.4,2.5l0,0.1c0,0.7,0,1.4-0.3,2.1c-0.1,0.5-0.5,0.8-0.8,1.2c-0.2,0.1-0.5,0.2-0.7,0.2c-0.2,0-0.4,0-0.6-0.1
						c-1.2-0.4-1.7-1-2.3-2c-0.5-0.7-0.9-1.4-1.1-2.2c-0.1,0-0.1-0.1-0.1-0.1c-0.1,0-0.1-0.1-0.1-0.1l0-0.1l0,0l0-0.1l0,0
						c0-0.1,0-0.1,0-0.1c0-0.1,0-0.1,0-0.1c0-0.1,0-0.1,0-0.1l0,0c0-0.1,0-0.1,0-0.1c0-0.1,0-0.1,0-0.1c-0.1-0.1-0.1-0.2-0.1-0.2
						c-0.1,0-0.1-0.1-0.1-0.1c-0.1,0-0.1-0.1-0.1-0.1s0,0,0-0.1l0-0.1c0-0.1,0-0.1,0-0.1c0-0.1,0-0.1,0-0.1l0-0.1
						c-0.1-0.1-0.1-0.1-0.1-0.2l0-0.1l0,0l0,0c0-0.1,0-0.1,0-0.2l0-0.1c0-0.1,0-0.1,0-0.1c0-0.1,0-0.1,0-0.2c0-0.1,0-0.1,0-0.2
						l0-0.1l0-0.1l0-0.1c0-0.1,0-0.1,0-0.2l0-0.1l0-0.1l0-0.1l0-0.1l0-0.1l0,0c0-0.1,0-0.1,0-0.2c0-0.1,0-0.1,0-0.2
						c0-0.1,0-0.1,0-0.2c0-0.1,0-0.1,0-0.2l0-0.1l0,0l0,0l0,0c0-0.1,0-0.1,0-0.1l0,0l0,0.1c0,0.1,0,0.1,0,0.1c0,0.1,0,0.1,0,0.1l0,0
						l0,0l0,0.1c0,0.1,0,0.4,0,0.5l0,0l0,0l0,0.1l0,0l0,0l0,0l0,0l0,0l0,0l0,0l0,0l0,0l0,0l0,0l0,0l0,0l0,0l0,0l0,0
						c0,0.1,0,0.2,0,0.4c0,0.1,0,0.4,0,0.6c0,0.6,0.1,1.1,0.1,1.5c0.1,0.5,0.1,0.8,0.1,1.3c0.2,0.9,0.3,2,0.6,2.9
						c0.2,0.9,0.3,2,0.6,2.9c0.2,1.2,0.6,2.4,1,3.4c0.2,0.5,0.3,0.9,0.6,1.4c0.1,0.4,0.3,1.1,0.7,0.9c0.6-0.5,0.9-0.9,1.4-1.4
						c0.2-0.2,0.6-0.5,0.9-0.7c0.4-0.2,0.6-0.3,0.9-0.6c0.7-0.3,1.5-0.6,2.2-0.8c0.2-0.1,0.5-0.2,0.6-0.5c0.9,1.1,2.1,1.9,3.3,2.6
						c0.3,0.2,0.8,0.5,1.3,0.7c0.5,0.1,0.7,0.5,1,0.7c0.7,0.6,1.4,1,2.1,1.4c1,0.7,3,2.4,4.3,2.3c0,0.1,0,0.1,0,0.1l0.1,0
						c0.4,0,0.6,0,0.9,0c0.6-0.1,1.1-0.1,1.6-0.1c0.6,0,1.2,0.1,1.8,0.4c0.5,0.1,1.1,0.4,1.6,0.6c0.2,0.1,0.3,0.2,0.6,0.4
						c0.3,0.2,0.7,0.4,1,0.6c0.7,0.5,1.4,1.1,2.1,1.6c0.5,0.2,0.9,0.2,1.4,0.5c0.6,0.1,1.2,0.4,1.8,0.5c0.7,0.1,1.4,0.3,2.1,0.4
						c0.5,0.1,1.1,0.1,1.5,0.1c0.2,0,0.5,0,0.7,0c0.6-0.1,1.3-0.2,2-0.3c0.6-0.1,1.3-0.2,2-0.3c0.7,0,1.4,0.1,2.1,0
						C124.1,361.9,124.3,361.9,123.6,361.6z M85.6,337L85.6,337L85.6,337L85.6,337L85.6,337z M91.7,337.4c0.1,0.1,0.1,0.2,0.2,0.4
						C91.8,337.6,91.8,337.6,91.7,337.4z M92,348.2c0,0.1,0,0.1,0-0.1C91.8,348.1,91.8,348.2,92,348.2
						C91.8,348.3,91.8,348.3,92,348.2L92,348.2c-0.2,0.1-0.2,0.2-0.2,0.2c-0.1,0.1-0.1,0.1-0.2,0.2l-0.1,0.1c-0.1,0-0.1,0.1-0.1,0.1
						c-0.1,0-0.1,0.1-0.1,0.1l0,0.1c0,0.1,0,0.1,0,0.1l0,0l0,0.1l0,0.1c0,0.1-0.1,0.1-0.1,0.2c-0.1,0.1-0.1,0.1-0.1,0.2l0,0
						c-0.1,0-0.1,0.1-0.1,0.1c-0.1,0.1-0.1,0.1-0.1,0.2c-0.1,0.1-0.1,0.1-0.1,0.2c0,0.1,0,0.1,0,0.1c-0.1,0-0.1,0-0.1,0l0,0l0,0
						c-0.1,0-0.1,0-0.1,0c-0.1,0-0.1,0-0.1,0c0-0.1,0-0.1,0-0.1c0-0.1,0-0.1,0-0.1l0-0.1l0,0l0,0.1l0,0c-0.1,0-0.1,0-0.1,0l0,0l0,0
						l0,0l0,0l0,0l0,0c0,0.1,0,0.1,0,0.1l0,0l0,0l0,0l0,0l0,0l0,0l0,0l0,0l0,0l0,0l0,0l0,0l0,0l0,0l0,0.1l0,0.1
						c0,0.1-0.1,0.1-0.1,0.1l0,0c-0.1,0-0.1-0.1-0.1-0.1l0-0.1l0-0.1l0,0l0,0l0,0l0,0l0,0l0,0l0,0l0,0l0,0l0,0l0,0l0,0l0,0l0,0l0,0
						l0,0l0,0l0,0l0,0l0,0l0,0l0,0l0,0l0,0l0,0c0-0.1,0-0.1,0-0.1l0,0l0,0l0,0l0,0l0,0l0-0.1l0,0l0,0l0,0l0,0l0,0l0,0l0,0l0,0l0,0
						l0,0l0,0l0,0l0,0l0,0c-0.1,0-0.1,0-0.1,0l0-0.1c0,0,0.1-0.1,0.1-0.2s0.1-0.2,0.1-0.4l0,0l0,0c0-0.1,0-0.1,0-0.1
						s0.1-0.1,0.1-0.2l0-0.1c0.1,0,0.1-0.1,0.1-0.1s0.1-0.1,0.1-0.2s0.1-0.1,0.1-0.2c0-0.1,0.1-0.1,0.1-0.2c0.1-0.1,0.1-0.2,0.2-0.3
						c0-0.1,0.1-0.2,0.2-0.3l0.1-0.1c0.1,0,0.1,0,0.1,0l0,0l0,0l0,0l0,0l0,0l0,0l0,0l0,0l0,0l0,0l0,0l0,0l0,0l0,0l0,0l0,0l0,0l0,0
						l0,0l0,0l0,0c0-0.1,0.1-0.1,0.1-0.2l0.1,0l0,0.1l0,0l0,0l0,0c0.1,0,0.1,0,0.1,0c0.1,0,0.1,0,0.1,0l0,0l0.1,0l0,0.1
						c0,0.1,0,0.1,0,0.1l0,0l0,0l0,0l0,0.1l0,0c0,0.1,0,0.1,0,0.1l0,0l0,0l0,0c0.1,0,0.1,0.1,0.1,0.1l-0.1,0.1l0,0l0,0
						C91.8,348.1,91.8,348.1,92,348.2C92,348.1,92,348.1,92,348.2C92,348.1,92,348.1,92,348.2L92,348.2z M102.5,357.1
						c-0.4,0.1-0.7,0.1-1.1,0.1C101.8,357.2,102.2,357.1,102.5,357.1C102.5,357,102.5,357,102.5,357.1L102.5,357.1L102.5,357.1z"/>
					<path d="M78.5,338.2L78.5,338.2L78.5,338.2z"/>
					<path d="M78.5,338.3L78.5,338.3L78.5,338.3z"/>
					<path d="M78.5,338.2L78.5,338.2L78.5,338.2z"/>
					<path d="M90.2,350.6L90.2,350.6L90.2,350.6z"/>
					<path d="M78.9,338.6L78.9,338.6L78.9,338.6z"/>
					<path d="M78.9,338.6L78.9,338.6L78.9,338.6z"/>
					<path d="M91.6,348.3C91.7,348.3,91.7,348.2,91.6,348.3C91.7,348.2,91.7,348.2,91.6,348.3C91.7,348.2,91.7,348.2,91.6,348.3
						C91.7,348.3,91.6,348.3,91.6,348.3C91.7,348.3,91.7,348.3,91.6,348.3z"/>
					<path d="M90.2,350.7L90.2,350.7L90.2,350.7z"/>
					<path d="M90.2,350.7L90.2,350.7L90.2,350.7z"/>
					<path d="M90.2,350.7L90.2,350.7L90.2,350.7z"/>
					<polygon points="90.2,350.7 90.2,350.7 90.2,350.7 90.2,350.7 90.2,350.7 					"/>
					<path d="M90.2,350.7L90.2,350.7L90.2,350.7z"/>
					<path d="M90.2,350.7L90.2,350.7L90.2,350.7z"/>
					<path d="M89.9,350.7L89.9,350.7L89.9,350.7z"/>
					<path d="M90.2,350.6L90.2,350.6L90.2,350.6z"/>
					<path d="M90.1,350.5L90.1,350.5L90.1,350.5z"/>
					<path d="M90.1,350.5L90.1,350.5L90.1,350.5z"/>
					<path d="M90.1,350.5L90.1,350.5L90.1,350.5z"/>
					<path d="M90.1,350.5L90.1,350.5L90.1,350.5z"/>
					<path d="M91,349c0.1-0.2,0.1-0.2,0.1-0.2C91.1,348.9,91.1,348.9,91,349C91.1,348.9,91.1,348.9,91,349C91,348.9,91,348.9,91,349
						c0,0.1-0.1,0.2-0.4,0.3l0,0.1l0,0.1l0,0.1l0,0l0-0.1c0.1,0,0.1-0.1,0.1-0.1c0-0.1,0.1-0.1,0.1-0.2C90.9,349.1,91,349.1,91,349
						C91.1,348.9,91.1,348.9,91,349z"/>
					<path d="M91.3,348.6c0.1-0.1,0.1-0.2,0.2-0.2c-0.1,0-0.1,0.1-0.1,0.1C91.3,348.5,91.3,348.6,91.3,348.6L91.3,348.6
						C91.3,348.6,91.3,348.5,91.3,348.6z"/>
					<path d="M113.8,377.5c0.5,0.1,1.1,0.2,1.5,0.3c0.2,0,0.5,0,0.7,0c0.2,0,0.5,0,0.7-0.1c0.4,0,0.7-0.1,1.1-0.2c0.1,0,0.1,0,0.2,0
						l0,0c0.1,0,0.2-0.1,0.4-0.1c0.7-0.2,1.3-0.6,1.9-0.9c0.7-0.5,1.3-0.9,1.8-1.5c0.2-0.2,0.6-0.5,0.7-0.8c0.7-1,1.2-2.3,1.7-3.6
						c0.2-0.8,0.6-1.6,0.7-2.5c0-0.5,0.1-0.9,0.1-1.4c0-0.2,0-0.4,0-0.6c0-0.1,0-0.4-0.1-0.4l0,0l0,0c0,0.1-0.1,0.1-0.1,0.2l0,0.1
						c-0.1,0.2-0.1,0.5-0.2,0.6c0,0.1,0,0.1,0,0.1l0,0.1l0,0l0,0l0,0.1l0,0.1l-0.1,0.1c-0.4,0.6-0.6,1.2-1,1.7
						c-0.2,0.5-0.5,0.9-0.7,1.4c-0.4,0.7-0.8,1.3-1.4,1.7c-0.5,0.5-0.9,0.8-1.5,1c-0.6,0.3-1.2,0.6-1.8,0.7
						c-0.5,0.1-1.1,0.2-1.5,0.2c-0.6-0.1-1.1-0.1-1.6-0.3c-0.6-0.1-1.1-0.4-1.6-0.6c-0.2-0.1-0.4-0.1-0.6-0.2
						c-0.2-0.1-0.5-0.4-0.7-0.5c-0.6-0.4-1.2-0.8-1.6-1.3c-0.6-0.7-1.3-1.4-1.7-2.1c-0.2-0.4-0.5-0.7-0.7-1.1
						c-0.5-0.8-0.9-1.9-2-1.9c-0.9,0-1.7,0.8-2.5,1.3c-0.4,0.1-0.6,0.2-0.9,0.3c-0.4,0.2-0.7,0.3-1.1,0.3c-0.7,0-1.3-0.3-1.9-0.4
						c-0.6-0.2-0.9-0.7-1.4-1c-0.2-0.2-0.5-0.4-0.7-0.6c-0.1,0-0.1-0.1-0.2-0.1c0-0.1-0.1-0.1-0.1-0.1l0,0l0,0l0,0l0,0l0,0l0,0l0,0
						l0,0l0,0l0,0l0,0l0,0l0,0l0,0l0,0l0,0l0,0l0,0l0,0c0.1,0.1,0.1,0.2,0.1,0.4s0,0.2,0,0.4l0,0l0,0l0,0l0,0l0,0l0,0l0,0l0,0
						c0.1,0.1,0.1,0.2,0.1,0.4l0,0.1l0,0l0,0l0,0l0,0l0,0.1c0,0.1,0,0.1,0,0.1l0,0l0,0l0,0c0,0.1,0,0.1,0,0.1l0,0l0,0l0,0l0,0l0,0.1
						l0,0.1l0,0l0,0c0,0.1,0,0.1,0,0.1l0,0l0,0l0,0l0,0.1l0,0l0,0.1l0,0l0,0.1l0,0l0,0l0,0l0,0l0,0l0,0l0,0l0,0l0,0l0,0l0,0l0,0l0,0
						l0,0l0,0l0,0.1l0,0.1l0,0l0,0c0.1,0,0.1,0.1,0.1,0.1l0,0c0.2,0.2,0.3,0.5,0.6,0.6c0.2,0.1,0.3,0.2,0.6,0.4
						c0.6,0.4,1.3,0.6,2,0.8c0.5,0,0.8,0.1,1.3,0.1c0.5,0,0.8-0.1,1.2-0.1c0.5-0.1,1.1-0.1,1.6-0.2c0.1,0,0.2,0,0.4-0.1
						c-0.2,0.3-0.5,0.6-0.8,0.8c-0.1,0.1-0.5,0.2-0.2,0.5l0.1,0.1c0,0.1,0,0.1,0,0.1c0.1,0,0.2,0.1,0.3,0.2c0.3,0.2,0.8,0.6,1.2,1
						c0.2,0.2,0.6,0.4,0.8,0.6c0.3,0.4,0.7,0.7,1.2,1c0.6,0.4,1.2,0.6,1.7,1c0.6,0.2,1.2,0.6,1.9,0.8
						C112.1,376.2,112.8,376.5,113.8,377.5z M97.7,368L97.7,368L97.7,368C97.7,368,97.8,368,97.7,368z"/>
					<polygon points="96.7,365.4 96.7,365.4 96.7,365.4 96.7,365.4 					"/>
					<path d="M97.4,367.7L97.4,367.7L97.4,367.7z"/>
					<path d="M97.4,367.7L97.4,367.7L97.4,367.7z"/>
					<polygon points="96.7,365 96.7,365 96.7,365 96.7,365 96.7,365 96.7,365 					"/>
					<path d="M86.2,359.5c0.1-0.5,0.2-0.7,0.5-1.1c0.2-0.3,0.5-0.5,0.7-0.7c0.6-0.6,1.4-0.9,2.2-0.8c0,0.1,0,0.1,0,0.1
						s0,0.1,0.1,0.1c0.2,0,0.1-0.2,0-0.4c0-0.1,0-0.2-0.1-0.2c-0.1-0.1-0.3-0.2-0.5-0.4c-0.6-0.5-1.6-0.5-2.3-0.1
						c-0.4,0.2-0.7,0.6-0.9,0.9c-0.4,0.6-0.5,1.5-0.3,2.2c0,0.1,0.1,0.5,0.3,0.5C86.2,359.7,86.2,359.5,86.2,359.5z"/>
					<path d="M94.1,366.4c0.1-0.4,0.1-0.7,0-1.1c-0.1-0.2-0.1-0.5-0.3-0.6l0,0c-0.1,0.1-0.1,0.1-0.1,0.1l0,0
						c-0.1,0.1-0.1,0.1-0.1,0.1l0,0c-0.1,0.1-0.1,0.1-0.1,0.1l-0.1,0.1c0,0.1,0,0.1-0.1,0.2c0,0.1-0.1,0.1-0.1,0.2
						c0,0.1-0.1,0.2-0.2,0.3c-0.1,0.1-0.1,0.1-0.1,0.1c-0.1,0.1-0.1,0.1-0.1,0.1l-0.1,0.1l-0.1,0.1l-0.1,0.1
						c-0.1,0.1-0.1,0.1-0.1,0.1l-0.1,0c-0.1,0.1-0.1,0.1-0.2,0.1l0,0l0,0c-0.1,0-0.1,0-0.1,0l0,0c-0.1,0-0.1,0-0.1,0l0,0l0,0l0,0
						l0,0l-0.1,0l0,0l0,0c-0.1,0-0.1,0-0.1,0c-0.1,0-0.1,0-0.1,0c-0.1,0-0.1,0-0.1,0l-0.1,0l-0.1,0l0,0l0,0l0,0l0,0l0,0l0,0l0,0l0,0
						l0,0l0,0l0,0l0,0l0,0l0,0l0,0l-0.1,0l-0.1,0l-0.1,0c-0.1,0-0.1,0-0.1,0c-0.1,0-0.1,0-0.1,0l-0.1,0l-0.1,0l-0.1,0
						c-0.1,0-0.1,0-0.1,0l0,0l0,0l-0.1,0c-0.1,0-0.1,0-0.2,0c-0.1,0-0.1,0-0.2,0c-0.1-0.1-0.1-0.1-0.2-0.1l-0.1,0
						c-0.1-0.1-0.1-0.1-0.2-0.1l0,0c0-0.1-0.1-0.1-0.1-0.1l0,0c-0.1,0-0.1,0-0.1,0l-0.1,0c-0.1,0-0.1-0.1-0.2-0.1
						c0-0.1-0.1-0.1-0.1-0.1c0-0.1-0.1-0.1-0.1-0.1l-0.1,0c0-0.1-0.1-0.1-0.1-0.1l-0.1,0c0-0.1-0.1-0.1-0.1-0.1
						c0-0.1-0.1-0.1-0.1-0.1c-0.1,0-0.1,0-0.1,0l0,0c0-0.1-0.1-0.1-0.1-0.1c0-0.1-0.1-0.1-0.1-0.1l0,0l0,0l0,0l0,0l0,0l-0.1-0.1
						l-0.1,0l-0.1-0.1l0,0c0-0.1-0.1-0.1-0.1-0.1c0-0.1-0.1-0.1-0.1-0.1c0-0.1-0.1-0.1-0.1-0.1c0-0.1-0.1-0.1-0.1-0.1
						c-0.1,0-0.1-0.1-0.2-0.1s-0.1-0.1-0.2-0.1c0-0.1-0.1-0.1-0.1-0.1c0-0.1-0.1-0.1-0.1-0.1c0-0.1-0.1-0.1-0.1-0.1
						c0-0.1-0.1-0.1-0.1-0.1l0,0l0,0c0-0.1-0.1-0.1-0.1-0.1c0-0.1-0.1-0.1-0.1-0.1l-0.1-0.1c0-0.1-0.1-0.1-0.1-0.1l0,0l-0.1-0.1l0,0
						l-0.1,0l0,0c-0.1,0-0.1,0-0.1,0l0,0c0-0.1-0.1-0.1-0.1-0.1c0-0.1-0.1-0.1-0.1-0.1c0-0.1-0.1-0.1-0.1-0.1l0,0l0,0l0,0l-0.1-0.1
						c0-0.1-0.1-0.1-0.1-0.1c-0.1,0-0.1-0.1-0.2-0.1c0,0,0-0.1-0.1-0.1c-0.1,0-0.1-0.1-0.2-0.1c-0.1,0-0.1-0.1-0.2-0.1l0,0
						c-0.1,0-0.1-0.1-0.2-0.1l0,0l0,0l0,0l0,0l0,0l0,0c0-0.1-0.1-0.1-0.1-0.1l-0.1-0.1l0,0l0,0l0,0c-0.1,0-0.1,0-0.1,0
						c-0.1-0.1-0.2-0.2-0.3-0.4c-0.7-0.4-1.4-1-1.6-1.8c-0.1-0.4,0-0.8,0.1-1.3c0-0.1,0-0.2-0.1-0.2l0,0c0,0.1-0.1,0.2-0.1,0.2
						c-0.1,0-0.1,0.1-0.1,0.1c0,0.1,0,0.1,0,0.1l0,0l0,0l0,0c0,0.1,0,0.1,0,0.1c0,0.1,0,0.1,0,0.1l0,0l0,0.1c0,0.1,0,0.1,0,0.1l0,0
						c0,0.1,0,0.1,0,0.1l0,0.1l0,0.1l0,0l0,0l0,0l0,0l0,0l0,0l0,0l0,0l0,0l0,0l0,0l0,0.1l0,0.1l0,0.1c0.1,0.1,0.1,0.1,0.1,0.2
						c0,0.1,0,0.2,0.1,0.4c0.1,0,0.1,0.1,0.1,0.1l0,0c0,0.2,0.2,0.5,0.3,0.6c0.2,0.4,0.7,0.6,1,0.8c0.6,0.5,1.2,1,1.7,1.3
						c0.7,0.5,1.3,0.8,2,1.2c0.8,0.5,1.5,1,2.3,1.4c0.5,0.2,0.9,0.5,1.4,0.7c0.2,0.1,0.6,0.2,0.9,0.4c0.2,0.1,0.6,0.2,0.8,0.2
						c0.4,0,0.6,0.1,0.8,0.1l0.1,0c0.7-0.1,1.4-0.5,1.9-0.9C94.2,366.4,94.6,366,94.1,366.4z"/>
					<path d="M85.6,363.7L85.6,363.7L85.6,363.7z"/>
					<path d="M84.3,362.9L84.3,362.9L84.3,362.9z"/>
					<path d="M91.5,366.2L91.5,366.2L91.5,366.2z"/>
					<path d="M91.5,366.2L91.5,366.2L91.5,366.2z"/>
					<path d="M91.5,366.2L91.5,366.2L91.5,366.2z"/>
					<path d="M91.5,366.2L91.5,366.2L91.5,366.2z"/>
					<path d="M87.9,365L87.9,365L87.9,365z"/>
					<path d="M86.8,364.3L86.8,364.3C86.7,364.3,86.7,364.2,86.8,364.3C86.7,364.3,86.8,364.3,86.8,364.3L86.8,364.3L86.8,364.3
						L86.8,364.3L86.8,364.3z"/>
					<path d="M86.6,364.2C86.6,364.2,86.7,364.2,86.6,364.2C86.7,364.2,86.7,364.2,86.6,364.2C86.7,364.2,86.7,364.2,86.6,364.2
						L86.6,364.2L86.6,364.2z"/>
					<path d="M86.7,363.8c0,0,0.1,0,0.2,0.1l0,0l0,0C86.8,364,86.8,363.8,86.7,363.8L86.7,363.8z"/>
					<path d="M83.1,362L83.1,362L83.1,362z"/>
					<path d="M83.1,362L83.1,362L83.1,362z"/>
					<path d="M91.5,365.8L91.5,365.8C91.5,365.8,91.6,365.8,91.5,365.8C91.6,365.8,91.6,365.8,91.5,365.8c0.1,0,0.1,0,0.2,0l0,0
						C91.6,365.8,91.6,365.8,91.5,365.8L91.5,365.8L91.5,365.8z"/>
					<path d="M91.8,365.8C91.9,365.8,91.9,365.8,91.8,365.8L91.8,365.8L91.8,365.8L91.8,365.8C91.9,365.8,91.9,365.8,91.8,365.8z"/>
					<path d="M93.7,364.4c0.1-0.1,0.1-0.2,0.1-0.1l0,0L93.7,364.4C93.7,364.3,93.7,364.3,93.7,364.4z"/>
					<path d="M94.8,363.1c0-0.1,0.1-0.2,0.2-0.3c0-0.1-0.1-0.2-0.2-0.1l0,0.1c-0.1,0.2-0.2,0.3-0.2,0.5l-0.1,0.1
						c0.1-0.1,0.1-0.1,0.1-0.1C94.6,363.1,94.7,363.1,94.8,363.1C94.7,363.1,94.7,363.1,94.8,363.1
						C94.7,363.1,94.7,363.1,94.8,363.1L94.8,363.1z"/>
					<path d="M80.2,359.8L80.2,359.8L80.2,359.8z"/>
					<path d="M80.5,358.6L80.5,358.6L80.5,358.6z"/>
					<path d="M80.6,358.6L80.6,358.6L80.6,358.6z"/>
					<path d="M133.7,349.8c0,0.1,0,0.2,0.1,0.2c0,0.1,0.1,0.1,0.1,0.1c-0.1,0-0.2,0.1-0.1,0.2c0,0,0,0.1,0.1,0.1
						c-0.1,0-0.1,0.2,0,0.2l0,0c-0.1-0.1-0.2-0.1-0.2,0.1c0,0.1,0.1,0.1,0.1,0.1c0.2,0.1,0.3,0.2,0.6,0.4c0.6,0.4,1.4,0.6,2,1.1
						c0,0.1,0,0.1,0.1,0.1l0,0c0.5,0.4,0.9,0.7,1.4,0.8c0.2,0,0.4,0,0.6,0c0.2,0,0.4,0,0.6,0c0.1,0,0.2,0,0.4,0
						c0.4,0,0.7-0.1,1.1-0.2c0.1,0,0.1,0,0.1-0.1c0-0.1,0-0.1-0.1-0.1c-0.2,0.1-0.5,0.2-0.8,0.2c-0.5,0.1-0.8,0-1.3,0
						c-0.2,0-0.5-0.1-0.7-0.2c-0.2-0.1-0.5-0.2-0.7-0.5c-0.1-0.2-0.3-0.5-0.5-0.8c-0.1-0.2-0.1-0.4-0.2-0.6c-0.1,0-0.1-0.1-0.1-0.1
						c-0.1,0-0.1-0.1-0.1-0.2c0-0.4,0-0.6,0-0.8c0-0.6,0-1.2,0.1-1.8c0.1-0.7,0.1-1.4,0.3-2.1c0.2-1.1,0.6-2.1,1-3.2
						c0.2-0.6,0.6-1.2,1-1.7c0.4-0.6,0.8-1.3,1.3-1.9c0.5-0.7,1.1-1.3,1.7-1.9c0.7-0.6,1.4-1.2,2.1-1.6c0.2-0.1,0.4-0.2,0.6-0.3
						c0.7-0.3,1.3-0.6,2-0.7c0.1-0.1,0.2-0.1,0.4-0.1l-0.1,0l0,0l-0.1,0c-0.1,0-0.2-0.1-0.4-0.1l0,0c-0.1,0-0.1-0.1-0.2-0.1
						c-0.1,0-0.1,0-0.1,0l0,0c-0.8,0.3-1.6,0.6-2.5,0.9c0,0-0.1,0-0.2,0c-0.6,0-1.2-0.1-1.8-0.4c-0.1,0-0.2,0-0.4,0
						c-0.2,0.1-0.1,0.2,0,0.4c0,0.1,0,0.1,0,0.1c-0.2,0.2-0.5,0.3-0.7,0.6c-0.6,0.5-1.1,0.9-1.5,1.5c-0.2,0.3-0.5,0.7-0.7,1
						c-0.4,0.5-0.8,0.8-1.1,1.4c-0.4,0.5-0.6,1-0.8,1.5c-0.2,0.3-0.4,0.8-0.5,1.2c-0.1,0.2-0.2,0.5-0.4,0.7
						c-0.1,0.4-0.2,0.8-0.4,1.2c-0.2,0.6-0.4,1.1-0.4,1.6c0.1,0.1,0,0.4,0,0.6c-0.1,0-0.1,0-0.1,0c-0.2-0.1-0.4,0.1-0.2,0.2
						c0.2,0.1,0.6,0.2,0.8,0.4c0.2,0.1,0.6,0.2,0.8,0.4c-0.1,0-0.1,0.1-0.1,0.2c0,0.4-0.3,1.9-0.2,2.9c-0.1-0.1-0.3-0.2-0.6-0.4
						c-0.2-0.1-0.5-0.2-0.8-0.4l0,0C133.8,350.1,133.7,350.1,133.7,349.8z"/>
					<path d="M148.9,336.3c-0.1-0.1-0.1-0.1-0.4-0.1l0,0.1c0.1,0.1,0.1,0.2,0.2,0.2s0.1,0,0.1,0c0.1,0,0.1-0.1,0.1-0.1l0,0l0,0
						C149,336.3,148.9,336.3,148.9,336.3S148.8,336.3,148.9,336.3z"/>
					<path d="M148.9,336C149,336.2,149,336.2,148.9,336C149,336,149,336,148.9,336C149,336,149,336,148.9,336L148.9,336
						C149,336,149,336,148.9,336z"/>
					<path d="M143.4,342.2c0.5-1.2,0.8-2.3,1.1-3.5c0.1-0.2,0.1-0.5,0.1-0.7l0-0.1c-0.1,0-0.1,0-0.2,0c-0.2,0-0.2,0.3-0.2,0.5
						c-0.3-0.2-0.5,0.3-0.5,0.6c0,0,0,0.1,0,0.2c-0.1,0.2-0.1,0.4-0.1,0.6c0,0.1-0.1,0.2,0,0.2c-0.1,0.2-0.2,0.6-0.4,0.8
						c-0.1,0.2-0.2,0.6-0.4,0.8c-0.2,0.5-0.5,0.8-0.6,1.3c-0.1,0-0.4,0.1-0.2,0.2c0,0.1,0.1,0.2,0.1,0.2c0.1,0.1,0.2,0.1,0.4,0.1
						l0.1-0.1C143,343,143.1,342.6,143.4,342.2z"/>
					<path d="M140.4,347.3c0.5-0.5,0.8-1,1.2-1.6l0.1-0.1c0.2,0.2,0.5,0.4,0.7,0.5c0.5,0.2,1.3,0.8,1.8,0.7c0-0.1,0-0.1,0-0.2
						c0.1,0,0.2-0.1,0.1-0.2c-0.2-0.2-0.6-0.4-0.8-0.5c-0.5-0.2-0.9-0.6-1.4-0.8c-0.5-0.4-1-0.7-1.6-1.1c-0.2-0.1-0.5-0.4-0.8-0.5
						c-0.2,0-0.4,0.1-0.2,0.2c0,0.1,0.1,0.1,0.2,0.2c-0.1,0-0.2-0.1-0.4-0.1l-0.1,0c0,0.1,0,0.1,0,0.2c0,0.1,0.1,0.1,0.1,0.1
						c0.2,0.1,0.3,0.2,0.6,0.4c0.3,0.4,0.8,0.6,1.3,0.8c-0.1,0.1-0.2,0.3-0.4,0.5c-0.2,0.2-0.4,0.3-0.5,0.6
						c-0.1,0.1-0.4,0.2-0.1,0.4c-0.2,0.2-0.5,0.6-0.7,0.9c-0.2,0.2-0.5,0.5-0.7,0.7c-0.1,0.2-0.5,0.3-0.7,0.6
						c-0.1,0-0.2,0.1-0.2,0.1c-0.1,0.1,0,0.2,0.1,0.2c-0.1,0,0,0.2,0.1,0.2c0.5-0.2,0.8-0.7,1.2-1
						C139.6,348.1,140,347.7,140.4,347.3z M143.6,346.1c0.1,0.1,0.2,0.1,0.3,0.2l0,0C143.9,346.3,143.6,346.2,143.6,346.1z"/>
					<path d="M139.3,313.3c0.1,0.4,0.2,0.7,0.2,1.1l0.1,0.1l0.1,0.1l0,0c0.1,0,0.1,0,0.1,0l0,0c0-0.2-0.1-0.6-0.1-0.9
						c-0.1-0.2-0.1-0.4-0.1-0.5c0-0.1,0-0.1-0.1-0.1C139.6,313,139.4,313,139.3,313.3z"/>
					<path d="M141.4,309.8c0-0.1,0-0.2-0.1-0.2l0,0c0-0.1-0.1-0.2-0.2-0.4c-0.1-0.1-0.2-0.4-0.3-0.4c-0.3-0.5-0.7-0.9-1-1.4
						c-0.5-0.6-0.9-1.1-1.4-1.5c-0.2-0.2-0.5-0.6-0.8-0.8c-0.2-0.1-0.3-0.4-0.6-0.4c-0.4,0-0.5,0.3-0.7,0.6
						c-0.2,0.2-0.4,0.5-0.6,0.7c-0.2,0.2-0.5,0.5-0.7,0.7c-0.1,0-0.2,0.2-0.1,0.4c0.2,0.2,0.6,0.5,0.8,0.7c0.5,0.5,0.8,0.9,1.3,1.3
						c0.6,0.5,1,1,1.4,1.4c0.3,0.5,0.7,0.8,1,1.3c0.1,0,0.1,0.1,0.2,0.2c0.1,0.1,0.1,0.2,0.2,0.4c0,0.1,0,0.2,0.1,0.4
						c0,0,0.2,0,0.2-0.1c0.2-0.5,0.6-0.9,1-1.5C141.2,310.7,141.3,310.4,141.4,309.8z"/>
					<path d="M121,330.2c0.1-0.7,0-1.4-0.1-2.1c-0.1-0.6-0.2-1.3-0.4-1.9c-0.1-0.1-0.2-0.7-0.5-0.7c0-0.2-0.1-0.4-0.1-0.5
						c0-0.4-0.2-1.6-0.7-1.3c-0.1,0.1-0.1,0.2,0,0.4l0,0c0,0.2,0.1,0.4,0.1,0.5c-0.1,0-0.1,0.1-0.1,0.1c-0.1,0.1,0,0.2,0,0.4
						c0,0.8,0,1.5-0.1,2.3c-0.1,0.9-0.5,2-1.1,2.8c-0.2,0.5-0.5,0.8-0.8,1.2c-0.6,0.7-1.4,1.4-2.4,1.7c-0.9,0.5-1.8,0.8-2.7,1
						c-0.5,0-0.8,0.1-1.3,0.1c-1.3,0.2-2.5,0.3-3.8,0.2c-0.8-0.1-1.6-0.4-2.3-0.6c-0.9-0.4-1.7-1-2.4-1.6c-0.3-0.2-0.6-0.6-0.8-0.9
						c-0.5-0.6-0.9-1.3-1.1-2c-0.1-0.2-0.2-0.5-0.2-0.7c0-0.2-0.1-0.5-0.3-0.4c-0.1,0.1-0.2,0.2-0.1,0.4c0,0.5,0.2,0.8,0.3,1.3
						c0,0.1,0,0.2,0.1,0.4c0-0.1,0-0.1-0.1-0.1s-0.2,0.1-0.2,0.2c0.1,0.9,0.4,1.8,0.8,2.7c0.1,0.4,0.2,0.8,0.5,1.3
						c0.2,0.6,0.5,1.1,0.8,1.5c0.5,0.7,1,1.2,1.6,1.7c0.6,0.5,1.3,1.1,2.1,1.3c0.5,0.1,0.8,0.4,1.3,0.5c0.4,0,0.7,0.1,1.1,0.2
						c0.2,0,0.6,0.1,0.8,0.1c1.1,0.4,2.1,0.4,3.2,0.4c0.8-0.1,1.6-0.2,2.4-0.7c0.2-0.1,0.6-0.3,0.8-0.6c0.6-0.5,1.3-0.9,1.9-1.4
						c1.1-0.9,1.9-2.1,2.6-3.4c0.4-0.6,0.6-1.3,0.8-2C120.6,331.5,120.7,330.8,121,330.2z M100.3,330.3
						C100.3,330.4,100.3,330.4,100.3,330.3L100.3,330.3C100.3,330.3,100.3,330.4,100.3,330.3z"/>
					<path d="M123,334.3c0.7-1.8,1.1-3.7,1-5.7l0,0l0,0l0,0l0,0c0-0.1,0-0.1,0-0.1l0,0l0,0l0,0l0,0l0,0l0,0l0,0l0-0.1l0-0.1
						c-0.1,0-0.1-0.1-0.1-0.2c0-0.1,0-0.1,0-0.1c0-0.1,0-0.1,0-0.1c0-0.1,0-0.1,0-0.1l0-0.1l0,0l0,0l0,0c-0.1,0-0.1,0-0.1,0
						c0,0.1,0,0.1,0,0.1l0,0.1c0,0.1,0,0.1,0,0.1c0,0.1,0,0.1,0,0.1s0,0.1,0,0.2l0,0.1c0,0.1,0,0.1,0,0.1c0,0.1,0,0.1,0,0.1
						s0,0.1,0,0.2l0,0l0,0l0,0l0,0.1c0,0.1,0,0.1,0,0.2c0,0.1,0,0.1,0,0.2l0,0.1l0,0.1l0,0l0,0.1l0,0.1c0,0.1,0,0.1,0,0.1l0,0.1
						c0,0.1,0,0.1,0,0.1c0,0.1,0,0.1,0,0.1c0,0.1,0,0.1,0,0.1c0,0.1,0,0.1,0,0.2l0,0.1l0,0.1l0,0c0,0.1,0,0.1,0,0.2
						c0,0.1,0,0.1,0,0.2l0,0c-0.1,0-0.1,0.1-0.1,0.2l0,0.1l0,0.1c-0.1,0.1-0.1,0.1-0.1,0.2c-0.1,0.1-0.1,0.1-0.1,0.2
						c0,0.1-0.1,0.1-0.1,0.2l0,0l0,0l0,0l0,0l0,0l0,0l0,0.1l0,0.1c-0.1,0.1-0.1,0.1-0.1,0.2l0,0c0,0.1,0,0.1,0,0.2l0,0l0,0l0,0l0,0
						c-0.1,0-0.1,0.1-0.1,0.1c-0.1,0.1-0.1,0.2-0.1,0.2c0,0.1-0.1,0.2-0.1,0.4l0,0l0,0l0,0l0,0l0,0l0,0l0,0l0,0l0,0l0,0
						c-0.1,0.2-0.1,0.4-0.2,0.5c0,0.1-0.1,0.1-0.1,0.2l0,0l0,0l0,0l0,0c-0.1,0-0.1,0.1-0.1,0.1c-0.1,0-0.1,0.1-0.1,0.1l0,0.1l0,0.1
						c0,0.1-0.1,0.1-0.1,0.2l0,0l0,0l0,0c-0.1,0-0.1,0.1-0.1,0.1c0,0.1,0,0.1,0,0.1c0,0.1,0,0.1,0,0.1c0,0.2-0.2,0.3-0.4,0.6l0,0
						c0,0.1-0.1,0.1-0.1,0.2c-0.1,0.1-0.1,0.1-0.1,0.1l0,0c-0.1,0-0.1,0.1-0.1,0.1c-1.1,1.6-2.3,2.9-3.9,3.8
						c-1.1,0.7-2.2,1.3-3.5,1.5c-1.2,0.3-2.5,0.6-3.8,0.3c-0.9-0.1-2-0.3-2.9-0.5c-0.7-0.4-1.3-0.5-1.9-0.7c-0.6-0.4-1-0.7-1.6-1
						c-0.1-0.1-0.2-0.1-0.3-0.2l0,0l0,0c-0.1,0-0.1,0-0.1,0c-0.1,0-0.1,0-0.1,0l0,0l0,0l0,0l0,0l0,0c0-0.1-0.1-0.1-0.1-0.1
						c0-0.1-0.1-0.1-0.1-0.1l-0.1-0.1c-0.1-0.1-0.1-0.1-0.2-0.2c-0.1-0.1-0.1-0.1-0.2-0.2c-0.1,0-0.1,0-0.1,0l0,0
						c0-0.1-0.1-0.1-0.1-0.1l-0.1-0.1l-0.1-0.1l0,0l-0.1-0.1c-0.1-0.1-0.1-0.1-0.1-0.1c0-0.1-0.1-0.1-0.1-0.1
						c-0.1,0-0.1-0.1-0.1-0.1l0,0c0-0.1,0-0.1,0-0.1c0-0.1-0.1-0.2-0.1-0.2l0,0l-0.1-0.1l-0.1-0.1l-0.1-0.1l-0.1-0.1
						c0-0.1,0-0.1,0-0.1l0,0c0-0.1,0-0.1,0-0.1c0-0.1,0-0.1,0-0.1c-0.1-0.1-0.1-0.1-0.2-0.2l-0.1-0.1c-0.1,0-0.1-0.1-0.1-0.1
						c-0.1,0-0.1-0.1-0.1-0.1c0-0.1-0.1-0.1-0.1-0.2l0,0c-0.1-0.1-0.1-0.1-0.1-0.1l0,0c0-0.1,0-0.1,0-0.1l-0.1-0.1
						c-0.1,0-0.1-0.1-0.1-0.1l-0.1-0.1c-0.1-0.1-0.2-0.4-0.3-0.5l-0.1-0.1c-0.1,0-0.1-0.1-0.1-0.1c-0.1,0-0.1-0.1-0.1-0.1
						c-0.1,0-0.1-0.1-0.1-0.1c0-0.1-0.1-0.1-0.1-0.2c0,0-0.1-0.1-0.1-0.2c0-0.1-0.1-0.1-0.1-0.2c-0.1,0-0.1-0.1-0.1-0.1
						c-0.1,0-0.1-0.1-0.1-0.1s-0.1-0.1-0.1-0.2c0-0.1-0.1-0.1-0.1-0.2c0,0-0.1-0.1-0.1-0.2c0-0.1,0-0.1,0-0.1c0-0.1,0-0.1,0-0.1
						l0-0.1c-0.1,0-0.1-0.1-0.1-0.1l0-0.1l0,0l0,0l0,0l0,0l0-0.1l0-0.1l0,0c0-0.1-0.1-0.2-0.1-0.4l0,0l0,0l0,0l0,0l0,0l0,0l0,0l0,0
						l0,0l0,0c0-0.1,0-0.1,0-0.1l0,0c0-0.1,0-0.1,0-0.1l0,0l0,0l0,0c-0.1,0-0.1-0.1-0.1-0.1l0,0c0,0-0.1,0-0.1,0.1
						c0,0.1,0,0.1,0,0.2l0,0.1c0,0.1,0,0.1,0,0.2l0,0.1c0,0.1,0,0.1,0,0.1c0,0.1,0,0.1,0,0.1l0,0.1l0,0l0,0c0.1,0.6,0.3,1.1,0.5,1.6
						c0.2,0.7,0.7,1.4,1,2.1c0.2,0.7,0.7,1.2,1.2,1.8c0.5,0.6,0.9,1.3,1.6,1.8c0.1,0.1,0.3,0.4,0.6,0.5c0.1,0.1,0.1,0.1,0.1,0.1
						c0.7,0.6,1.5,1,2.2,1.4c1.3,0.5,2.7,1,4.1,1.1c0.8,0.1,1.6,0.3,2.5,0.3c0.2,0,0.4,0,0.6,0c1.8-0.3,3.5-0.7,5.2-1.6
						c1.5-0.9,3-1.8,4-3.2c0.5-0.5,0.8-1,1.3-1.7c0,0.1,0,0,0,0C122.7,336.3,123,335.4,123,334.3z"/>
					<path d="M124.3,329L124.3,329L124.3,329z"/>
					<path d="M122.5,334.1L122.5,334.1C122.5,334,122.5,334.1,122.5,334.1L122.5,334.1z"/>
					<path d="M122.9,333l0-0.1l0,0c-0.1,0.1-0.1,0.4-0.2,0.6c0,0,0-0.1,0.1-0.4c0,0.1,0,0.1,0,0C122.8,333.2,122.8,333.2,122.9,333z
						"/>
					<path d="M123,333.3L123,333.3L123,333.3z"/>
					<path d="M123.1,332.2c0.1-0.1,0.1-0.1,0.1-0.2l0,0.1c-0.1,0.1-0.1,0.1-0.1,0.2c0,0.1,0,0.1,0,0c0,0.1,0,0.1,0,0
						c0,0.1,0,0.1,0,0C123.1,332.3,123.3,332.2,123.1,332.2z"/>
					<path d="M123.1,332.1c0-0.1,0-0.1,0-0.1S123.1,332,123.1,332.1C123.1,332,123.1,332,123.1,332.1
						C123.1,332,123.1,332,123.1,332.1C123.1,332.1,123.1,332,123.1,332.1L123.1,332.1L123.1,332.1z"/>
					<path d="M123.5,331.3L123.5,331.3L123.5,331.3z"/>
					<path d="M123.5,331.3L123.5,331.3L123.5,331.3z"/>
					<path d="M123.5,331.3L123.5,331.3L123.5,331.3L123.5,331.3L123.5,331.3z"/>
					<path d="M123.5,331.3L123.5,331.3L123.5,331.3z"/>
					<path d="M123.3,331.3c0-0.1,0-0.1,0-0.2c0,0.1,0,0.1,0,0.1S123.3,331.2,123.3,331.3C123.3,331.2,123.3,331.2,123.3,331.3
						L123.3,331.3z"/>
					<path d="M123.4,330.8L123.4,330.8L123.4,330.8z"/>
					<path d="M123.5,330.5l0,0.1L123.5,330.5z"/>
					<path d="M123.6,328.9C123.8,328.8,123.8,328.8,123.6,328.9C123.8,328.8,123.8,328.8,123.6,328.9c0,0,0,0.1,0,0.2
						C123.6,329.2,123.6,329.1,123.6,328.9L123.6,328.9C123.6,328.9,123.8,328.9,123.6,328.9z"/>
					<path d="M124.3,329L124.3,329L124.3,329z"/>
					<path d="M124.3,329L124.3,329L124.3,329z"/>
					<path d="M124.3,329L124.3,329L124.3,329z"/>
					<path d="M124.3,329L124.3,329L124.3,329z"/>
					<path d="M124.3,329L124.3,329L124.3,329z"/>
					<path d="M124.2,328.2C124.4,328.2,124.2,328.2,124.2,328.2c0-0.1,0-0.1,0-0.1S124.2,328.1,124.2,328.2
						C124.2,328.1,124.2,328.2,124.2,328.2S124.4,328.2,124.2,328.2z"/>
					<path d="M124.4,328.2C124.2,328.2,124.2,328.2,124.4,328.2L124.4,328.2L124.4,328.2z"/>
					<path d="M124.4,328.2L124.4,328.2L124.4,328.2L124.4,328.2z"/>
					<path d="M123.7,328l0-0.1l0,0C123.7,327.9,123.7,327.9,123.7,328L123.7,328L123.7,328z"/>
					<path d="M123.8,327.9C123.9,327.9,123.9,327.9,123.8,327.9C123.9,327.9,123.8,327.9,123.8,327.9L123.8,327.9L123.8,327.9
						C123.8,327.9,123.9,327.9,123.8,327.9z"/>
					<path d="M99,335C99,335.1,99,335.1,99,335C99,335.1,99,335.1,99,335L99,335L99,335L99,335L99,335L99,335z"/>
					<path d="M98.6,333.5l0.1,0.1C98.6,333.6,98.6,333.6,98.6,333.5c0,0,0-0.1-0.1-0.1l0,0C98.6,333.3,98.6,333.3,98.6,333.5
						L98.6,333.5L98.6,333.5L98.6,333.5L98.6,333.5L98.6,333.5L98.6,333.5L98.6,333.5z"/>
					<path d="M98,331.7L98,331.7L98,331.7C98,331.7,98,331.6,98,331.7z"/>
					<path d="M146.9,334.1c0.1,0,0.1,0.1,0.2,0.1l0,0l0.1,0c0,0.1,0.1,0.1,0.1,0.1l0,0l0,0c0.2,0.1,0.4,0.1,0.6,0.2
						c0.1,0.1,0.2,0.1,0.3,0.2c0.1,0,0.1,0.1,0.2,0.1l0,0c0.1,0.1,0.4,0.1,0.5,0.2c0.1,0.1,0.1,0.1,0.2,0.1l0,0
						c-0.1-0.2-0.3-0.4-0.6-0.5C148.1,334.4,147.5,334.3,146.9,334.1z"/>
				</g>
				<path class="st5" d="M101.8,327.5C101.8,327.6,101.8,327.5,101.8,327.5c0,0.1,0,0.1-0.4-0.1c0,0.1,0,0.1,0,0.2l0,0l0.1,0.1
					c0.2,0.2,0.3,0.4,0.6,0.6c0.1,0.1,0.1,0.1,0.2,0.2s0.4,0.1,0.5,0.2c0,0,0.1,0.1,0.2,0.1c0.1,0,0.1,0,0.2,0
					c0.2,0,0.6,0.1,0.8,0.1c0.1,0,0.1,0,0.1,0l0,0c0.2,0,0.4,0,0.6,0c0.1,0,0.2,0,0.4,0c0.1,0,0.4-0.1,0.5-0.1s0.4-0.1,0.5-0.1
					s0.4-0.1,0.5-0.1c0.2-0.1,0.4-0.2,0.6-0.2s0.4-0.1,0.5-0.1c0.1,0,0.1-0.1,0.2-0.1s0.1-0.1,0.2-0.1c0.1,0,0.1-0.1,0.2-0.1
					s0.2-0.1,0.4-0.1l0,0c0.1,0,0.1-0.1,0.2-0.1c0.4-0.2,0.7-0.5,1.1-0.8c0.5-0.3,0.8-0.8,1.2-1.2c0.2-0.3,0.5-0.6,0.7-0.9
					c0.2-0.3,0.5-0.8,0.7-1.2c0.2-0.5,0.4-0.8,0.6-1.3c0-0.1,0-0.1,0-0.1l0,0l0-0.1l0-0.1l0-0.1l0-0.1c0-0.1,0-0.1,0-0.1l0-0.1
					c0-0.1,0-0.1,0-0.2l0,0l0,0l0-0.1l0-0.1l0-0.1l0,0c-0.1,0-0.1-0.1-0.1-0.1c-0.1,0-0.1-0.1-0.1-0.1l0,0c0-0.1-0.1-0.1-0.1-0.1
					l-0.1-0.1l-0.1,0l-0.1,0c-0.1-0.1-0.1-0.1-0.2-0.1l-0.1,0c-0.1,0-0.1-0.1-0.2-0.1l-0.1,0l-0.1,0l-0.1,0c0-0.1-0.1-0.1-0.1-0.1
					l0,0c-0.1,0-0.1,0-0.1,0c-0.1,0-0.1,0-0.2,0c-0.1,0-0.2,0-0.4,0l-0.1,0l-0.1,0l0,0c-0.1,0-0.1,0-0.2,0c-0.1,0-0.1,0-0.2,0
					c-0.2,0-0.4,0-0.5,0l0,0l-0.1,0l0,0l0,0l0,0l-0.1,0l-0.1,0c-0.1,0-0.1,0-0.2,0l-0.1,0l-0.1,0l0,0l0,0c-0.1,0-0.1,0-0.1,0
					c-0.1,0-0.1,0-0.2,0l-0.1,0c0,0-0.1,0.1-0.2,0.1l0,0c-0.1,0.1-0.1,0.1-0.2,0.1c-0.1,0.1-0.1,0.1-0.2,0.1
					c-0.1,0.1-0.1,0.1-0.2,0.1c-0.1,0.1-0.1,0.1-0.2,0.1c-0.1,0-0.1,0.1-0.2,0.1l-0.1,0l0,0l0,0l0,0l-0.1,0c-0.1,0-0.1,0.1-0.2,0.1
					c0,0.1-0.1,0.1-0.1,0.1c0,0.1-0.1,0.1-0.1,0.1c0,0.1-0.1,0.1-0.1,0.1c0,0.1-0.1,0.1-0.1,0.1c0,0.1-0.1,0.1-0.1,0.1l-0.1,0l0,0
					l-0.1,0c-0.1,0-0.1,0-0.1,0l0,0c-0.1,0-0.1,0-0.1,0c-0.1,0-0.1,0-0.1,0c0,0.1-0.1,0.1-0.1,0.1l0,0l0,0c-0.1,0-0.1,0.1-0.2,0.1
					l-0.1,0c0,0.1-0.1,0.1-0.1,0.1l-0.1,0.1l-0.1,0.1l0,0l0,0l0,0l0,0l0,0l0,0l0,0l0,0l0,0c-0.1,0.1-0.1,0.1-0.2,0.2l-0.1,0.1
					l-0.1,0.1l-0.1,0.1l-0.1,0.1l-0.1,0.1l-0.1,0.1l-0.1,0.1l-0.1,0.1c0,0.1-0.1,0.1-0.1,0.2l-0.1,0.1l0,0c-0.1,0.1-0.1,0.1-0.2,0.2
					l0,0c-0.1,0-0.1,0.1-0.1,0.1l0,0l0,0l0,0l0,0c0,0.1,0,0.1,0,0.1l0,0l-0.1,0.1l-0.1,0.1c-0.1,0.1-0.1,0.1-0.2,0.2l0,0l0,0l0,0
					l0,0.1c0,0.1,0,0.1,0,0.1c-0.1,0-0.1,0.1-0.1,0.1l0,0l0,0l0,0.1l0,0.1l0,0l0,0.1l0,0.1c0,0.1-0.1,0.1-0.1,0.2
					c-0.1,0.1-0.1,0.1-0.1,0.2l0,0.1l0,0.1c0,0.1,0,0.1,0,0.2l0,0.1l0,0c0,0.1,0,0.1,0,0.1c0,0.1,0,0.2,0,0.4c0,0.1,0,0.1,0,0.2
					l0,0.1C101.8,327.4,101.8,327.4,101.8,327.5L101.8,327.5C101.8,327.5,101.8,327.6,101.8,327.5z"/>
				<g class="st6">
					<path class="st0" d="M108.3,336.3c0.1,0.4,0.3,0.8,0.7,1.1c0.1,0.1,0.2,0.2,0.5,0.2c0.5,0.1,0.9,0.2,1.4,0.3
						c0.5-0.1,0.8-0.2,1.3-0.3c0.5-0.1,0.9-0.3,1.3-0.6c0.1-0.1,0.5-0.2,0.4-0.5c0.6-0.9-0.2-2-1.1-2.2c-0.6-0.1-1.2,0.2-1.6,0.3
						c-0.4,0.1-0.7,0.2-1.1,0.3c-0.4,0-0.7,0.1-1.1,0.2C108.5,335.3,108.1,335.7,108.3,336.3z"/>
					<path class="st0" d="M115,332.8c-0.1,0.9,0.6,1.8,1.5,1.5c0.2-0.1,0.5-0.2,0.7-0.5c0.2-0.2,0.5-0.6,0.6-0.9
						c0.1-0.1,0.1-0.5,0.1-0.6c0-0.5-0.3-0.9-0.8-1.2c-0.5-0.1-1.2,0-1.5,0.3C115.3,331.9,114.9,332.4,115,332.8z"/>
					<path class="st0" d="M101.8,328.1c-0.1,0.4-0.2,0.7-0.1,1.1c0.1,0.5,0.5,0.9,0.9,0.7c0.4-0.1,0.6-0.5,0.7-0.7
						c0.5-0.6,0.8-1.2,1.3-1.6c0.5-0.3,0.8-0.8,1.3-1.2c0.6-0.5,1.2-0.8,1.8-1.2c1.1-0.6,2.2-1,3.4-1.3c1.3-0.3,2.6-0.3,3.9-0.1
						c0.5,0.1,1.1-0.1,0.7-0.7c-0.2-0.4-0.5-0.5-0.8-0.7c-0.9-0.6-1.9-0.8-2.9-1c-0.7-0.1-1.5-0.1-2.2,0c-0.6,0-1.1,0.1-1.6,0.2
						c-0.2,0.1-0.4,0.1-0.6,0.2c-0.4,0-0.6,0.2-0.8,0.3c-0.6,0.2-1.1,0.6-1.5,0.9c-0.7,0.5-1.4,1.2-1.9,1.9c-0.2,0.3-0.4,0.7-0.6,1
						c-0.1,0.1-0.1,0.4-0.2,0.5C102.2,327.1,102.1,327.5,101.8,328.1z"/>
					<path class="st0" d="M127.6,299.6c0.1,0.1,0.1,0.1,0.2,0.1c-0.6,0.6-1.1,1.4-1.6,2.1c-0.1,0.1-0.2,0.3-0.4,0.5
						c-0.1,0.2,0.1,0.6,0.3,0.5l0.1-0.1c0.1,0,0.1,0,0.1,0s0,0.1,0.1,0.1l0.1,0c0,0.2,0.3,0.4,0.6,0.1c0.1,0,0.3,0.2,0.6,0l0.1,0
						l0.1,0c0,0.1,0.1,0.1,0.2,0.1c0,0.1,0,0.2,0.1,0.2c-0.1,0.2,0.1,0.6,0.5,0.5c0.4-0.5,0.7-0.9,1.1-1.4c0.5-0.5,0.8-0.9,1.2-1.4
						c1.3,0.6,2.4,1.4,3.6,2.3c0.5,0.4,0.9,0.7,1.5,1.1c0.3,0.4,0.6,0.6,0.9,0.8c0.5,0.5,0.9,1.1,1.5,1.5c0.5,0.6,1,1.1,1.5,1.7
						c0.6,0.8,1.2,1.5,1.6,2.5c0,0.2,0,0.6,0.3,0.6c0.9-0.1-0.4-1.9-0.7-2.2c-0.3-0.5-0.7-1.1-1-1.5c0-0.2-0.3-0.4-0.5-0.6
						c-0.5-0.6-0.8-1.1-1.3-1.4c-0.3-0.2-0.7-1.1-1.2-1.1c0-0.1,0-0.2-0.1-0.4c-0.3-0.2-0.7-0.5-1-0.7c-0.5-0.5-0.9-0.8-1.4-1.2
						c-0.1-0.1-0.2-0.1-0.3-0.2c0.1-0.4-0.7-0.6-0.9-0.8c-0.5-0.2-0.8-0.4-1.3-0.6c-0.1-0.4-0.7-0.5-0.9-0.6
						c-0.7-0.4-1.4-0.7-2.2-1.1c-0.6-0.2-1.3-0.5-1.9-0.7c-0.6-0.1-1.1-0.4-1.6-0.5c-0.1,0-0.4,0-0.5,0c0-0.1-0.1-0.1-0.1-0.1
						c-0.2,0-0.5,0-0.8,0c-0.2,0-0.6,0-0.8,0c-0.1,0-0.1,0.2-0.1,0.4c-0.5,0.2-0.9,0.6-1.2,0.9c-0.5,0.6-0.8,1.3-1.3,1.9
						c-0.2,0.2,0.2,0.6,0.5,0.4l0.1-0.1c0.2,0.2,0.5,0,0.6-0.2c0.1-0.2,0.4-0.6,0.6-0.8c0.2-0.3,0.6-0.6,0.8-0.9
						c0.2-0.1,0.4-0.2,0.6-0.3c0.1,0,0.2,0,0.4,0c0.7,0,1.4,0.1,2.1,0.3C127,299.1,127.3,299.2,127.6,299.6z"/>
					<path class="st0" d="M137.7,304C137.5,304,137.5,304,137.7,304C137.5,304,137.7,304,137.7,304C137.5,304,137.5,304,137.7,304z"
						/>
					<path class="st0" d="M92.4,311.9c0.5-0.7-0.6-0.7-1-0.8c0-0.1-0.2-0.1-0.4-0.1c-0.4-0.1-0.7-0.2-0.8,0.1c0,0.2,0.1,0.2,0.2,0.4
						c-0.4,0.5-0.7,0.9-1.1,1.5l-0.1,0.1c-0.1-0.1-0.2-0.1-0.4-0.1c-0.5-0.1-0.7,0.3-0.4,0.6c0,0.1-0.1,0.1-0.1,0.2l-0.1,0
						c-0.1,0.1-0.2,0.1-0.2,0.2c-0.4-0.1-0.6,0.2-0.4,0.5c-0.1,0.1-0.1,0.4,0,0.5c-0.1,0.1,0,0.2,0.1,0.4c-0.1,0.4-0.2,0.6-0.4,0.8
						c-0.7,1.8-1.4,3.5-1.9,5.3c-0.1,0.4,0.5,0.6,0.6,0.1c0.4-1.2,0.7-2.3,1.2-3.4c0.2-0.6,0.5-1.2,0.7-1.8c0.2,0.1,0.6,0.2,0.7,0.4
						c0.1,0.1,0.2,0.2,0.3,0.2c0.1,0,0.2,0,0.2-0.1l0,0l0,0l0.1,0c0.5-0.1,0.2-0.5,0-0.7c0.1,0,0.2,0,0.2-0.1l0,0l0,0
						c0.1,0,0.2-0.1,0.2-0.2c0.4,0,0.4-0.5,0.1-0.6l0,0c0.1-0.1,0.1-0.1,0.1-0.2c0.2,0,0.2-0.2,0.2-0.3l0,0c0,0,0.1,0,0.1-0.1l0-0.1
						l0,0c0.2,0.2,0.7-0.1,0.5-0.5c-0.1-0.1-0.4-0.1-0.6-0.2c-0.2-0.1-0.4-0.1-0.6-0.2l0,0c0.2-0.6,0.6-1,1.1-1.5l0.1-0.1
						c0.4,0.1,0.6,0.2,0.9,0.2C92,312.1,92.3,312.1,92.4,311.9z"/>
					<path class="st0" d="M117.1,318.5L117.1,318.5L117.1,318.5z"/>
					<path class="st0" d="M118.2,319.3L118.2,319.3L118.2,319.3z"/>
					<path class="st0" d="M123.6,325.3L123.6,325.3L123.6,325.3z"/>
					<path class="st0" d="M120.4,321.4L120.4,321.4L120.4,321.4z"/>
					<path class="st0" d="M117.1,318.5L117.1,318.5L117.1,318.5z"/>
					<path class="st0" d="M123.6,325.3L123.6,325.3L123.6,325.3z"/>
					<path class="st0" d="M121.8,323.5L121.8,323.5L121.8,323.5C121.8,323.6,121.8,323.6,121.8,323.5
						C121.9,323.6,121.9,323.6,121.8,323.5C121.9,323.6,121.9,323.6,121.8,323.5C121.9,323.6,121.9,323.6,121.8,323.5
						C121.9,323.6,121.8,323.6,121.8,323.5L121.8,323.5z"/>
					<path class="st0" d="M97.1,328.6L97.1,328.6L97.1,328.6z"/>
					<path class="st0" d="M123.6,325.3L123.6,325.3L123.6,325.3z"/>
					<path class="st0" d="M97.2,328.5L97.2,328.5L97.2,328.5z"/>
					<path class="st0" d="M96.8,327.5c0,0.1,0,0.1,0,0.2l0,0l0,0l0,0l0,0l0,0l0,0l0,0l0,0l0,0l0,0l0,0l0,0l0,0c0,0.1,0,0.2,0,0.4
						c0,0.1,0,0.1,0,0.2c0,0.1,0,0.1,0,0.2l0,0l0,0l0,0l0,0l0,0l0,0.1l0,0c0.1-0.1,0.1-0.1,0.1-0.2l0,0l0,0l0,0l0,0l0,0l0,0l0,0l0,0
						l0,0l0,0l0,0l0,0l0,0l0,0l0,0l0,0l0,0l0,0l0,0l0,0l0-0.1l0,0l0,0l0,0l0,0l0,0l0,0l0,0l0,0l0,0l0,0l0,0l0,0l0,0l0,0l0,0l0,0l0,0
						l0,0l0,0l0,0l0,0l0,0l0,0l0,0l0,0l0,0l0,0l0,0l0,0l0,0l0,0l0,0l0,0l0,0l0,0l0,0l0,0l0,0c0-0.1,0.1-0.2,0.1-0.4l0-0.1
						c0-0.1,0-0.1,0-0.2c0-0.1,0-0.1,0-0.2c0-0.1,0.1-0.2,0.1-0.4c0-0.1,0-0.1,0-0.2c0.1,0,0.1-0.1,0.1-0.2l0,0
						c0.1-0.1,0.1-0.1,0.1-0.2l0-0.1l0-0.1c0-0.1,0-0.1,0-0.1c0.1,0,0.1-0.1,0.1-0.1c0.1,0,0.1-0.1,0.1-0.1l0,0
						c0.1,0,0.1-0.1,0.1-0.1l0-0.1c0.1,0,0.1-0.1,0.1-0.1c0.1,0,0.1-0.1,0.1-0.1c0.1,0,0.1-0.1,0.1-0.1c0.1,0,0.1-0.1,0.1-0.1l0,0
						c0-0.1,0.1-0.1,0.1-0.2c0,0,0.1-0.1,0.1-0.2c0-0.1,0.1-0.4,0.2-0.5l0,0l0,0c0-0.1,0.1-0.1,0.1-0.2c0-0.1,0.1-0.1,0.1-0.2l0-0.1
						l0.1-0.1l0.1-0.1c0.1,0,0.1-0.1,0.1-0.1c0-0.1,0.1-0.1,0.1-0.2l0,0l0,0l0,0l0,0l0,0l0,0l0,0l0,0c0-0.1,0-0.1,0-0.1l0,0l0,0l0,0
						l0,0l0,0l0,0l0,0l0,0l0,0l0,0l0,0l0,0l0,0l0,0l0,0l0,0c0.1,0,0.1-0.1,0.2-0.2c0.1,0,0.1-0.1,0.2-0.2l0,0l0,0
						c0-0.1,0.1-0.1,0.1-0.2c0.1,0,0.1-0.1,0.1-0.1c0.1,0,0.1-0.1,0.1-0.1l0.1-0.1l0.1-0.1c0.1-0.1,0.1-0.1,0.1-0.1
						c0.1,0,0.1,0,0.1,0c0-0.1,0.1-0.1,0.1-0.1l0,0c0.5-0.7,1.1-1.3,1.8-1.7c1.4-1,3-1.8,4.7-2.2c0.6-0.1,1.2-0.2,1.9-0.3
						c0.1,0,0.4,0,0.5,0c0.1,0,0.1,0,0.2,0c0.2,0.1,0.6,0.1,0.9,0.1c0.2,0,0.5,0,0.6,0c0.9,0.1,1.9,0.1,2.8,0.5
						c0.7,0.1,1.4,0.3,2,0.6c0.1,0.1,0.3,0.2,0.5,0.4c0.1,0,0.1,0,0.1,0c0,0.1,0.1,0.1,0.1,0.1l0,0l0,0l0,0l0,0l0,0l0,0l0,0l0,0l0,0
						c0.1,0,0.1,0.1,0.2,0.1c0,0.1,0.1,0.1,0.1,0.1c0,0.1,0.1,0.1,0.1,0.1l0,0l0,0c0,0.1,0.1,0.1,0.1,0.1l0,0c0,0.1,0.1,0.1,0.1,0.1
						c0,0.1,0.1,0.1,0.1,0.1c0.1,0,0.1,0.1,0.2,0.1l0.1,0c0.1,0,0.1,0,0.1,0l0,0c0.1,0,0.1,0.1,0.2,0.1l0,0l0.1,0.1l0.1,0.1l0.1,0.1
						l0.1,0.1c0.2,0.1,0.3,0.2,0.5,0.4l0.1,0.1l0.1,0.1c0.1,0,0.1,0.1,0.1,0.1l0.1,0.1l0.1,0.1l0.1,0.1l0.1,0.1
						c0.1,0,0.1,0.1,0.1,0.1l0,0l0,0l0,0l0,0l0,0l0,0l0,0l0.1,0.1l0.1,0.1l0,0l0,0c0,0.1,0,0.1,0,0.1l0.1,0.1l0.1,0.1
						c0.1,0.1,0.1,0.1,0.1,0.1c0.1,0.1,0.1,0.1,0.1,0.1l0.1,0.1l0.1,0.1c0.1,0,0.1,0.1,0.1,0.1c0.1,0,0.1,0.1,0.1,0.1
						c0.1,0.1,0.1,0.1,0.2,0.2c0,0.1,0.1,0.1,0.1,0.2c0,0.1,0,0.1,0,0.1c0,0.1,0,0.1,0,0.1l0,0c0,0.1,0.1,0.1,0.1,0.2l0,0
						c0,0.1,0.1,0.1,0.1,0.2c0,0.1,0.1,0.1,0.1,0.2c0,0.1,0.1,0.2,0.1,0.4c0.1,0,0.1,0.1,0.1,0.1c0.1,0,0.1,0.1,0.1,0.1
						c0.1,0,0.1,0.1,0.1,0.1c0.1,0,0.1,0.1,0.1,0.1c0.1,0,0.1,0.1,0.1,0.1c0,0.1,0.1,0.1,0.1,0.2c0,0.1,0.1,0.1,0.1,0.2
						c0,0.1,0.1,0.1,0.1,0.2c0.1,0,0.1,0.1,0.1,0.1c0.1,0,0.1,0.1,0.1,0.1s0.1,0.1,0.1,0.2c0,0.1,0.1,0.1,0.1,0.2l0,0l0,0l0,0
						c0.1,0,0.1,0.1,0.1,0.1c0,0.1,0,0.1,0,0.1c0.1,0,0.1,0.1,0.1,0.1c0.1-0.1,0.1-0.1,0.1-0.2c0-0.1-0.1-0.1-0.1-0.2
						c-0.1-0.1-0.1-0.1-0.1-0.2l0,0l0,0l0,0l0,0l0,0l0,0c0-0.1-0.1-0.4-0.1-0.5l0,0l0,0l0,0l0,0c0-0.1,0-0.1,0-0.2
						c0-0.1,0-0.1,0-0.2l0,0l0,0l0,0l0,0l0,0l0,0l0,0l0,0l0,0l0,0l0,0l0,0l0,0l0,0c0-0.1-0.1-0.1-0.1-0.2c0-0.1-0.1-0.1-0.1-0.2
						c0-0.1-0.1-0.1-0.1-0.2c0-0.1-0.1-0.1-0.1-0.2l0,0c-0.1-0.1-0.1-0.2-0.2-0.4c0-0.1-0.1-0.1-0.1-0.2c0-0.1-0.1-0.1-0.1-0.2
						c0-0.1-0.1-0.1-0.1-0.2c0-0.1-0.1-0.1-0.1-0.2c0-0.1-0.1-0.1-0.1-0.2c0-0.1-0.1-0.1-0.1-0.2l0,0c0-0.1-0.1-0.1-0.1-0.2
						c0,0-0.1-0.1-0.1-0.2c0-0.1-0.1-0.1-0.1-0.2c-0.1,0-0.1-0.1-0.1-0.1c-0.1,0-0.1-0.1-0.1-0.1c-0.1-0.1-0.1-0.1-0.1-0.1
						c0-0.1,0-0.1,0-0.1l-0.1-0.1l-0.1-0.1l-0.1-0.1l-0.1-0.1l-0.1-0.1l-0.1-0.1l0,0c-0.1-0.1-0.1-0.1-0.1-0.1
						c-0.1-0.1-0.1-0.1-0.1-0.1c0-0.1,0-0.1,0-0.1c-0.1,0-0.1-0.1-0.1-0.1l0,0l-0.1-0.1c-0.1,0-0.1-0.1-0.1-0.1
						c-0.3-0.2-0.6-0.6-0.9-0.8c-0.5-0.6-1-1-1.6-1.3c-0.5-0.4-0.8-0.7-1.4-1c-1.4-0.5-2.8-1-4.3-1.1c-0.5-0.1-0.8-0.1-1.3-0.1
						l-0.1,0c-0.1-0.1-0.4-0.1-0.5-0.1c-0.6,0-1.2,0-1.8,0.1c-1.1,0.2-2.2,0.4-3.3,0.8c-0.8,0.3-1.7,0.9-2.5,1.4
						c-1.5,0.9-2.8,2.3-3.8,3.8c-0.7,0.9-1.2,2-1.6,3c0,0.1-0.1,0.4-0.1,0.5c0,0.1,0,0.1,0,0.1l0,0.1c0,0.1,0,0.1,0,0.1s0,0.1,0,0.2
						c0,0.2-0.1,0.4-0.1,0.6c0,0.1,0,0.2,0,0.4c0,0.1,0,0.1,0,0.1l0,0.1l0,0.1c0,0.1,0,0.1,0,0.2c0,0.1,0,0.1,0,0.2
						C97,327.6,97,327.7,96.8,327.5z"/>
					<path class="st0" d="M99.8,322.7L99.8,322.7L99.8,322.7z"/>
					<path class="st0" d="M97.2,328.5L97.2,328.5L97.2,328.5z"/>
					<path class="st0" d="M97,327.9L97,327.9L97,327.9z"/>
					<path class="st0" d="M97.2,328.5L97.2,328.5L97.2,328.5z"/>
					<path class="st0" d="M98.3,326.1c-0.1,0.1-0.1,0.1,0,0.1l0,0C98.3,326.2,98.3,326.2,98.3,326.1L98.3,326.1L98.3,326.1
						L98.3,326.1L98.3,326.1z"/>
					<path class="st0" d="M98.8,324.4L98.8,324.4L98.8,324.4z"/>
					<path class="st0" d="M84.2,358.4c-0.1,0.8,0,1.5,0.3,2.2c0.1,0.4,0.5,0.7,0.8,0.9c0.1,0.1,0.4,0.1,0.5,0.2
						c0.5,0.4,0.9,0.6,1.4,0.6c0.4,0.1,0.7,0.1,1.1,0.1c1.3,0,2.2-0.7,3-1.6c0.7-1.2,1-2.6,0.5-3.9c-0.2-0.9-0.8-1.7-1.6-2
						c-0.5-0.2-1.1,0.3-0.7,0.8c0,0.4,0.5,0.5,0.7,0.7c0.1,0.1,0.1,0.2,0.2,0.4c0.1,0.4,0.2,0.8,0.6,0.9c0.2,1.8-0.7,3.5-2.7,3.5
						c-0.4,0-0.7-0.1-1.1-0.1c-0.1-0.1-0.3-0.2-0.5-0.4c-0.1-0.1-0.4-0.1-0.5-0.2c-0.1-0.1-0.2-0.2-0.3-0.4
						c-0.5-0.7-0.5-1.5-0.2-2.4c0.1-0.5-0.5-0.8-0.8-0.6C84.5,357.5,84.5,358,84.2,358.4z"/>
					<path class="st0" d="M79,362.1c0.1,0,0.1,0,0.2,0c0.2,0,0.4-0.1,0.4-0.2c0-0.1,0-0.1,0-0.1c0-0.1,0-0.1,0-0.2
						c0-0.1,0-0.1,0-0.2l0,0l0-0.1c0-0.1,0-0.1,0-0.1c0-0.1,0-0.1,0-0.1l0-0.1l0,0c0-0.1,0-0.2,0-0.4c0-0.6,0.2-0.9,0.5-1.4
						c0-0.1,0.1-0.1,0.1-0.2l0,0l0-0.1l0.1-0.1l0,0l0,0l0,0l0,0l0,0l0,0l0,0l0,0l0,0l0,0l0,0l0,0c0.1,0,0.1-0.1,0.1-0.1
						c0-0.1,0-0.1,0-0.1c0-0.1,0-0.1,0-0.1c0-0.1,0-0.1,0-0.1c0-0.1,0-0.1,0-0.1c0-0.1,0.1-0.1,0.1-0.2c0.1-0.1,0.1-0.1,0.2-0.2
						c0-0.1,0.1-0.1,0.1-0.2l0.1-0.1l0.1-0.1l0,0l0,0l0,0c0.1,0,0.1-0.1,0.1-0.1c0.1,0,0.1-0.1,0.1-0.1l0.1-0.1
						c0-0.1,0.1-0.2,0.1-0.2l0.1-0.1l0.1-0.1l0,0c0.1-0.1,0.1-0.1,0.1-0.1c0.1-0.1,0.1-0.1,0.2-0.2l0.1-0.1l0.1-0.1
						c0.1-0.1,0.1-0.1,0.2-0.2l0,0l0,0l0,0l0.1-0.1c0.1-0.1,0.4-0.3,0.5-0.5l0.1-0.1c0-0.1,0.1-0.1,0.1-0.1l0.1-0.1l0.1-0.1
						c0,0,0.1-0.1,0.2-0.2l0.1-0.1l0.1-0.1l0,0l0,0c0-0.1,0.1-0.1,0.1-0.1c0.1,0,0.1-0.1,0.2-0.1c0.1,0,0.1-0.1,0.2-0.1
						c0.1,0,0.1-0.1,0.2-0.1c0-0.1,0.1-0.1,0.1-0.1c0-0.1,0.1-0.1,0.1-0.1l0,0l0.1-0.1c0-0.1,0.1-0.1,0.1-0.1c0.1,0,0.1-0.1,0.2-0.1
						l0,0l0,0c0-0.1,0.1-0.1,0.1-0.1l0,0c0.1,0,0.1,0,0.1,0c0-0.1,0.1-0.1,0.1-0.1l0,0c0.1,0,0.1,0,0.1,0l0,0c0.1,0,0.1,0,0.1,0
						c0-0.1,0.1-0.1,0.1-0.1c0-0.1,0.1-0.1,0.1-0.1c0-0.1,0.1-0.1,0.1-0.1c0.1,0,0.1,0,0.1,0c0.1,0,0.1,0,0.1,0l0.1,0l0.1,0l0.1,0
						l0.1,0l0.1,0l0,0l0.1,0c0.1,0,0.1,0,0.1,0l0.1,0l0,0c0.1,0,0.1,0,0.1,0c0.1,0.1,0.1,0.1,0.2,0.1l0.1,0l0.1,0c0.1,0,0.1,0,0.1,0
						c0.1,0,0.1,0,0.1,0l0,0l0.1,0c0.1,0.1,0.1,0.1,0.2,0.1l0,0l0,0c0.1,0,0.2,0,0.4,0l0,0c0.4,0.1,0.7,0.4,1,0.6l0.1,0
						c0.1,0,0.2,0.1,0.4,0.1l0,0.1l0,0l0.1,0.1c0.6,0.5,1.3,0.7,2,1.2c0.5,0.2,1.3,1.1,1.9,1.1l0,0c0.6,0,0.6-0.9,0-1.1
						c-0.9-0.6-1.7-1.2-2.7-1.7c-0.6-0.4-1.2-0.7-1.7-1.1c-0.7-0.5-1.4-0.7-2.1-1.1c-0.1-0.1-0.3-0.2-0.6-0.2
						c-0.6-0.6-2.4,0.3-2.8,0.8c-1.1,0.8-2.1,1.6-3,2.8c-0.8,1-1.7,2.1-2.4,3.1c-0.5,0.7-1,1.5-1.1,2.5
						C78.6,360.5,78.5,361.6,79,362.1z"/>
					<path class="st0" d="M81.4,356.9L81.4,356.9L81.4,356.9z"/>
				</g>
				<g>
					<g>
						<path d="M59.3,378.9c0.3,0.6,1.5,2.2,2.4,2.6c0,0.1,0,0.1,0,0.2c-0.6,3.9,5.2,7.5,8.2,8.9c1.4,0.7,2.9,1.3,4.4,1.5
							c0.4,0,0.8,0.1,1.2,0c3.2-0.1,5.4-2.3,7.2-4.7c1.7,1.4,3.7,2.4,5.8,3c2.7,1.1,5.6,1.5,8.6,1.4c4.6-0.3,9.1-2,12.7-4.7
							c2.6-1.8,5.2-4,6.8-7c0.1-0.4,0.2-0.7,0.4-1.1c3.1-0.4,5.7-2.4,7.3-5c0.1,0,0.1-0.1,0.1-0.1c1.2-2,2-4.1,2.5-6.3
							c0.4-1.6,0.6-3.4,0.2-5c1.7-1.4,0-3.9-0.5-5.5c-0.3-1.1-1.9-0.6-1.5,0.5c0.3,1.2,1.1,2.2,1.1,3.5c0,0.2-0.1,0.2-0.2,0.3
							c-0.3-0.2-0.8-0.6-1.3-0.8c-1.6-0.8-3.3-1.2-5-1.3c-1.8-0.1-3.4,0.4-5.2,0.8c-0.6,0.2-2.2,0.4-3.2,1c-1.3-1-2.7-1.9-4-2.7
							c-1.6-1.1-5.5-2.4-7.5-1.5c-0.7-0.7-2.1-1.7-2.6-2c-1.4-1-2.7-1.9-4.1-2.7c0.1,0,0.1-0.1,0.2-0.2c0.1-0.4,0.2-0.6,0.5-0.8
							c0.4-0.7-0.3-1.5-1-1.2c-0.4,0.2-0.8,0.9-1,1.5c-0.6-0.5-1.3-0.8-2-1.2c0.1-0.2,0.2-0.6,0.4-0.8c0.2-0.7,0.6-1,1-1.6
							c0.8-0.9-0.7-2.1-1.3-1.1c-0.6,0.8-1.1,1.7-1.6,2.7c-0.6-0.2-1.1-0.2-1.4-0.1c-0.5,0.1-1.2,0.3-1.5,0.6
							c-1.8,1-3.2,2.7-4.5,4.3c-0.2-0.4-0.3-0.8-0.6-1.2c-0.8-2.1-1.4-4.4-1.9-6.6c2.2-0.1,4.5-0.5,6.6-1.2c1.6-0.6,3.4-1.1,4.7-2.2
							c0.5-0.6-0.2-1.3-0.8-1.1c-0.6,0.3-1.1,0.7-1.7,0.9c-2.4,0.9-4.8,1.8-7.4,2c-0.5,0-1.1,0.1-1.5,0.1c-1-5.5-1.3-11.4,0.4-16.8
							c0.6-1.8,1.2-3.6,2.8-4.9c1.2-0.9,3.1-1.3,4-0.1c-0.4,0.1-0.6,0.1-0.9,0.1l0,0c-0.1,0-0.1,0-0.1,0l-0.1,0l-0.1,0l-0.1,0
							c-0.1,0-0.1,0-0.1,0l0,0l0,0l0,0l0,0l0,0l0,0c0,0-0.1,0-0.2,0c-0.1,0-0.1,0-0.2,0c-0.1,0-0.1,0-0.2,0c-0.1,0-0.1,0-0.2,0l0,0
							l-0.1,0l0,0l0,0l0,0l0,0c0,0.1,0,0.1,0,0.1l0,0l0,0.1c0,0.1,0,0.1,0,0.1l0,0c0,0.1,0,0.1,0,0.1l0,0.1l0,0
							c0,0.1,0.1,0.1,0.1,0.2s0,0.1,0,0.1l0,0l0,0c0.1,0.1,0.1,0.1,0.1,0.1c0.1,0,0.1,0,0.1,0l0,0l0,0l0,0l0,0l0,0l0,0
							c0.1,0.1,0.1,0.1,0.1,0.1l0,0l0,0l0,0c0,0.1,0.1,0.1,0.1,0.1l0,0l0,0l0,0l0,0c0.1,0,0.1,0,0.1,0l0,0l0,0l0,0l0,0l0.1,0l0,0
							l0,0l0,0l0,0l0.1,0l0.1,0l0,0l0.1,0l0.1,0c0.1,0,0.1,0,0.2,0l0,0c0.1,0,0.1,0,0.1,0l0.1,0l0.1,0c0.1,0,0.1,0,0.1,0l0,0l0,0
							l0,0l0,0c0.1,0,0.1,0,0.2,0l0.1,0l0.1,0l0,0l0,0l0,0l0,0l0,0l0.1,0c0.1,0,0.1,0,0.1,0l0,0c0.1,0,0.1,0,0.1,0l0.1,0
							c0.1,0,0.1,0,0.2,0l0,0l0,0c0.1,0,0.1,0,0.1,0l0.1,0l0,0l0,0l0.1,0l0,0l0,0l0.1,0l0,0c0.1,0,0.1,0,0.1,0l0.1,0l0,0
							c0.8-0.1,1.6,0,2.3,0.8c3,3.4,0.6,9.4-3.8,10.2c-0.7,0.2-1.5,0.2-2.2,0.1l0,0c-0.1,0-0.1,0-0.2,0c-0.1,0-0.1,0-0.2,0
							c-0.1,0-0.1,0-0.2,0c-0.1,0-0.1,0-0.2,0c-0.1,0-0.1,0-0.2,0c-0.1,0-0.1,0-0.1,0l0,0l0,0l0,0l0,0l0,0l0,0l0,0l0,0
							c0,0.1,0,0.1,0,0.1l0.1,0.1l0.1,0.1l0.1,0.1l0,0l0,0l0.1,0.1c0.1,0,0.1,0,0.1,0l0.1,0.1l0.1,0.1l0.1,0.1l0.1,0.1
							c0.1,0,0.1,0.1,0.2,0.1c0,0,0.1,0.1,0.2,0.1l0.1,0l0.1,0c0.1,0.1,0.1,0.1,0.2,0.1l0,0l0.1,0c0.1,0,0.1,0,0.1,0
							c0.1,0,0.1,0,0.1,0l0.1,0l0,0l0,0l0,0l0,0l0,0l0,0c0.1,0,0.1,0,0.1,0c0.1,0,0.1,0,0.1,0l0,0l0.1,0c0.1,0,0.1,0,0.2,0l0.1,0
							l0.1,0l0.1,0l0,0l0,0l0,0c0.1,0,0.1,0,0.1,0c3.9-0.7,6.6-4.3,6.6-8.3c-0.1-2.7-2-6.1-5.1-5.9c0-0.1,0-0.1,0-0.1
							c-1-2.1-3.8-2.5-5.7-1.4c-2.5,1.4-3.6,4.3-4.3,7c-2,6.7-1.3,13.8,0.5,20.4c0.3,1.1,1.2,5.2,2.5,6.7c-0.1,0-0.1,0.1-0.1,0.1
							c-0.5,0.7-1,1.4-1.3,2.2c-0.1,0.3-0.2,0.7-0.4,1.2c-4-1.6-8.7,0-11.3,3.5c-1.2,1.3-2.1,2.7-3,4.2c-0.6-0.2-1.3-0.2-1.9-0.3
							c-2.8,0.4-4,2.5-4.8,5.1C56.6,374.2,57.6,377,59.3,378.9z M58.6,373.4c0.1,0,0.2-0.1,0.4-0.1c0.7-0.3,1.3-0.7,2-0.9
							c1.2-0.6,2.2-1.3,3.4-1.8c0.4-0.2,0.9-0.3,1.3-0.6l0.1,0.1c0.5,0.4,0.9,0.9,1.4,1.4l-0.1,0c-1.8,0.8-3.5,1.8-5.4,2.5
							c-0.8,0.3-1.8,0.8-2.6,1.3c0-0.2-0.1-0.4-0.1-0.5C58.7,374.2,58.7,373.7,58.6,373.4z M59.2,376.3c2.5-1.4,5.1-2.2,7.4-3.6
							c0.4-0.1,0.8-0.3,1.2-0.5c0.3,0.6,0.7,1.1,0.9,1.7c0,0-0.1,0-0.1,0.1c-1.3,0.7-2.6,1.1-4,1.7c-1.4,0.7-2.8,1.5-4.4,2.1
							c0.1,0,0.1,0,0,0C60,377.4,59.7,376.9,59.2,376.3z M65.5,376.9c1.3-0.5,2.6-0.9,3.9-1.6c0.1,0,0.1,0,0.1,0
							c0,0.1,0.1,0.4,0.2,0.5c-0.4,0.5-0.6,0.9-0.8,1.5C67.8,376.7,66.6,376.6,65.5,376.9z M64.6,368.9c-0.2,0.1-0.4,0.2-0.5,0.2
							c-1.8,0.9-3.5,1.8-5.3,2.6l0,0c0.2-0.8,0.7-1.8,1.3-2.4c0.5-0.7,1.3-0.9,2.1-1.1C63.1,368,63.9,368.4,64.6,368.9z M65.2,367.4
							c0.4-0.6,0.7-1.3,1.2-1.9c0.1,0,0.1-0.1,0.2-0.1c0.1-0.1,0.2-0.1,0.4-0.1c2.3-0.2,4.8,0.8,6.4,2.4c0.3,0.4,0.7,0.7,0.8,1.2
							c0,0.1,0,0.1,0,0.2c-0.5,0.5-0.8,0.9-1.3,1.4c-0.8,1-1.6,2.2-2.3,3.4C69.6,371.5,67.7,368.8,65.2,367.4z M83.9,366
							c-0.8,0-1.5,0-2.3,0c-1.5,0.1-2.9,0.6-4.4,1.2c0.2-0.3,0.4-0.7,0.5-1.1c0.5-1.2,1.1-2.2,2-3c0.1,0,0.1,0.1,0.2,0.1
							C81.2,364.3,82.5,365.2,83.9,366z M75.5,360c0.9,0.1,1.8,0.4,2.6,0.7c0,0.2,0.1,0.6,0.2,0.8c0,0.1,0.1,0.4,0.2,0.5
							c-0.9,0.9-1.8,2-2.3,3.3c-0.4,0.9-0.7,1.8-1,2.6c-0.6-0.8-1.5-1.5-2.2-2.1c-1.4-1-3.5-1.8-5.4-1.8c0.6-0.8,1.3-1.5,2.1-2.2
							C71.4,360.4,73.4,359.9,75.5,360z M98.4,357.8c0.1,0.1,0.2,0.2,0.3,0.4c-0.1,0.2-0.2,0.6-0.2,1.1c-0.8-0.2-1.8-0.1-2.2,0.2
							c-2,1.3-2.3,4-1.9,6.1c0,0.4,0.1,0.8,0.2,1.3c-0.1,0.1-0.1,0.1-0.1,0.2l0,0l0,0c-0.5,0.8-1.1,1.5-2,1.9
							c-0.7,0.1-1.4-0.4-2.1-0.7c-2.1-1.1-4.2-2.4-6.3-3.7c-1.3-1.1-2.8-1.9-4.1-3.1c-0.1-0.1-0.2-0.4-0.3-0.6c0-0.1,0-0.2,0-0.4
							c0.1-0.6,0.2-1.1,0.4-1.5c1-2,2.4-3.6,3.8-5.2c0.8-0.8,1.7-1.7,2.7-2.3c0.2-0.1,0.6-0.2,0.9-0.3c0.5,0,0.8,0.1,1.2,0.4
							c0.9,0.5,1.8,0.8,2.6,1.4c1.7,1.1,3.5,2.3,5.1,3.5C97,356.7,97.7,357.2,98.4,357.8z M108.9,362.1c2.2,1.7,4.3,3.3,6.2,5.4
							c0,0.1,0,0.2,0,0.4c-0.7,3.4-3.6,6.5-6.8,7.9c-0.1,0.1-0.4,0.1-0.5,0.2c-0.2-0.1-0.5-0.4-0.7-0.5c-1.2-0.7-2.1-1.7-3-2.6l0,0
							l0,0l0-0.1c-0.1-0.1-0.1-0.1-0.1-0.1l0.1,0l0,0c0.1,0,0.1,0,0.1,0l0,0l0,0c0.1-0.1,0.1-0.1,0.1-0.1c0.1,0,0.1,0,0.1,0
							c0.1-0.1,0.1-0.1,0.1-0.1c0.1-0.1,0.1-0.1,0.1-0.1c0.1,0,0.1-0.1,0.1-0.1c0.1,0,0.1-0.1,0.1-0.1l0.1-0.1
							c0.1,0,0.1-0.1,0.1-0.1c0.1,0,0.1-0.1,0.1-0.1l0,0l0,0l0-0.1l0-0.1l0,0l0-0.1l0-0.1l0,0l0-0.1l0-0.1c0-0.1,0-0.1,0-0.2l0-0.1
							l0,0l0,0c-0.1,0-0.1,0-0.1,0l0,0c-0.1,0-0.1,0-0.1,0c-0.1,0-0.1,0.1-0.2,0.1c-0.1,0-0.1,0.1-0.2,0.1l-0.1,0l-0.1,0l0,0
							c-0.1,0-0.1,0-0.1,0l0,0c-0.1,0-0.1,0-0.1,0l0,0l0,0l0,0l0,0c-0.1,0-0.1,0-0.1,0l0,0l0,0l0,0l0,0l0,0l0,0l-0.1,0l-0.1,0l0,0
							l-0.1,0l-0.1,0c-0.1,0-0.1,0-0.1,0l0,0l0,0l0,0l0,0c-0.1,0-0.1,0-0.1,0l0,0l0,0l0,0l0,0l0,0l-0.1,0c-2.4,0.8-4.9-0.1-6.2-2.3
							c-1.3-1.5-2.1-7.7,0.8-7.6c0.4,0.1,0.7,0.1,0.9,0.4c0.1,0.1,0.3,0.2,0.5,0.2c0.4,0.1,0.7,0.2,1.1,0.2c0,0,0.1,0,0.2,0l0.1,0
							l0.1,0c0.1,0,0.1,0,0.1,0l0.1,0c0-0.1,0.1-0.1,0.1-0.1c0-0.1,0.1-0.1,0.1-0.1l0,0l0,0l0,0l0.1-0.1l0.1-0.1
							c0.1-0.1,0.1-0.1,0.1-0.1c0.1-0.1,0.1-0.1,0.1-0.1l0.1-0.1l0,0l0.1-0.1c0.1,0,0.1-0.1,0.1-0.1l0,0l0,0l0,0l0,0
							c0-0.1,0-0.1,0-0.1l0-0.1c0-0.1,0.1-0.1,0.1-0.2c0-0.1,0-0.1,0-0.1l0-0.1l0,0l0-0.1l0,0c0-0.1,0-0.1,0-0.1l0,0l0,0
							c0-0.1,0-0.1,0-0.1c0-0.1,0-0.1,0-0.1l-0.1-0.1l-0.1-0.1l0,0l0,0l0,0c0,0.1-0.1,0.1-0.1,0.1l0,0l0,0l0,0l0,0l0,0l0,0
							c-0.1,0.1-0.1,0.1-0.1,0.1c0,0.1-0.1,0.1-0.1,0.1l0,0l0,0c-0.1,0.1-0.1,0.1-0.1,0.1c-0.1,0-0.1,0-0.1,0c-0.1,0-0.1,0-0.1,0
							c-0.1,0-0.1,0-0.1,0l-0.1,0l-0.1,0c-0.1,0-0.1,0-0.1,0c-0.1,0-0.4,0.1-0.5,0.1c0-0.1-0.1-0.2-0.1-0.4
							c-0.7-2.4,3.1-1.3,4.2-0.9C106.2,359.3,107.7,360.5,108.9,362.1z M118.9,376.1c-3.2,1.6-6.7,1.1-9.7-0.6
							c2.4-1.1,4.4-2.9,5.7-5.1c0.5-0.8,1.1-1.7,1.4-2.8c0,0.1,0,0.1,0,0.1c0.1,0,0.1,0,0.1,0l0.1,0c0,0.1,0.1,0.1,0.1,0.1
							c0.1,0.1,0.1,0.1,0.1,0.1c0.1,0.1,0.1,0.1,0.2,0.2c0,0.1,0.1,0.1,0.1,0.2l0,0c0.1,0.1,0.1,0.1,0.1,0.1l0,0
							c0.1,0.1,0.1,0.1,0.1,0.1c0.1,0.1,0.1,0.1,0.1,0.1c0.1,0,0.1,0.1,0.1,0.1c0.1,0,0.1,0.1,0.1,0.1c0,0.1,0,0.1,0,0.1l0,0l0,0
							c0,0.1,0,0.1,0,0.1c0,0.1,0,0.1,0,0.1l0,0l0,0l0,0l0,0c0-0.1,0.1-0.2,0.1-0.4c0-0.1,0-0.1,0-0.1l0,0l0,0l0,0l0,0l0,0l0,0l0,0
							l0,0l0,0c0-0.1,0-0.1,0-0.2l0,0l0,0l0,0l0-0.1c0-0.1,0-0.1,0-0.1l0,0c0-0.1,0-0.1,0-0.2l0-0.1l0-0.1c0-0.1-0.1-0.2-0.1-0.4
							l0,0l0,0l0,0l0,0l0,0l0,0l0,0l0,0l0,0l0,0l0,0l0,0l0,0c0-0.1,0-0.1,0-0.1l0,0c0-0.1,0-0.1,0-0.1l0,0l0-0.1l0-0.1
							c-0.1-0.1-0.1-0.2-0.2-0.4c0-0.1-0.1-0.1-0.1-0.2l-0.1-0.1l0,0l0,0l0,0c0-0.1-0.1-0.1-0.1-0.2l0,0l0,0l0,0l0,0
							c-0.1-0.1-0.1-0.1-0.1-0.1l-0.1-0.1l-0.1-0.1l0,0l-0.1-0.1l-0.1-0.1l0,0c-1.5-1.5-3.4-3.1-3.8-3.4c1.1-0.3,2.1-0.6,3.2-0.8
							c2.5-0.8,5.2-0.5,7.6,0.4c0.7,0.1,1.4,1.1,2.1,1.3c0.1,0.1,0.1,0.2,0.1,0.4c0.1,1.1,0,2.2-0.2,3.3c-0.4,1.4-0.7,2.9-1.3,4.2
							c-0.5,0.9-0.8,1.8-1.4,2.6l0,0C121.9,374.8,120.7,376.1,118.9,376.1z M84,385.8c0.2-0.3,0.5-0.8,0.7-1.2
							c0.4-0.7,0.8-1.4,1.2-2.1c0-0.1,0-0.1,0-0.1s0.1-0.1,0.1-0.2c0.1,0,0.1-0.1,0.1-0.2c0,0,0.1-0.1,0.1-0.2l0-0.1l0-0.1
							c0-0.1,0-0.1,0-0.2c0,0,0-0.1,0-0.2c0-0.1,0-0.1,0-0.2l0-0.1l0-0.1l0-0.1l0,0l0,0c0-0.1,0-0.1,0-0.1l0,0l0-0.1l0,0
							c0-0.1,0-0.1,0-0.1l0,0l0,0l0,0l0-0.1c0-0.1,0-0.1,0-0.1l0-0.1c0-0.1,0-0.2,0-0.4l0,0l0,0l0,0c0-0.1,0-0.1,0-0.2l0-0.1l0-0.1
							c0-0.1,0-0.1,0-0.1c0-0.1,0-0.1,0-0.1l0-0.1l0,0c0-0.1,0-0.1,0-0.1l0,0l-0.1,0l0,0l0,0l0,0l0,0l0,0l0,0l0,0l0,0l0,0l0,0l0,0
							l0,0l0,0l0,0l0,0l0,0l0,0l0,0l0,0l0,0l0,0l0,0l0,0l0,0l0,0l0,0l0,0l0,0l0,0c0,0.1-0.1,0.2-0.1,0.4c-0.1,0-0.1,0.1-0.1,0.1l0,0
							c0,0.1,0,0.1,0,0.1c-0.1,0.1-0.1,0.1-0.1,0.2c0,0.1,0,0.1,0,0.1l0,0.1c-0.1,0-0.1,0.1-0.1,0.1c0,0.1-0.1,0.1-0.1,0.2
							c0,0-0.1,0.1-0.1,0.2c-0.1,0-0.1,0.1-0.1,0.1c0,0.1,0,0.1,0,0.1l0,0l0,0c0,0.1-0.1,0.1-0.1,0.2c0,0.1,0,0.1,0,0.1
							c0,0.1,0,0.1,0,0.1c0,0.1,0,0.1,0,0.1c0,0.1,0,0.1,0,0.1l0,0c0,0.1-0.1,0.4-0.2,0.5c-4.1-1.2-8.1-3.1-11.3-6.1
							c-0.2-0.4-0.5-0.6-0.7-0.9c0.8-1.3,1.7-2.6,2.7-3.7c3.4-3.4,8.3-4,12.6-2c3.2,1.4,5.7,3.8,7,7.1c0,0.1,0.1,0.1,0.1,0.2l0,0.1
							l0,0l0,0l0,0c0.1,0,0.1,0.1,0.1,0.1c0,0.1,0,0.1,0,0.1l0,0l0,0.1c0.1,0,0.1,0.1,0.1,0.1c0.1,0,0.1,0.1,0.1,0.1l0,0.1l0,0.1
							l0,0.1l0,0.1l0,0.1c0,0.1,0,0.1,0,0.1c0,0.1,0,0.1,0,0.1c0,0.1,0,0.1,0,0.1l0,0.1l0,0.1l0,0.1c0,0,0,0.1,0.1,0.1l0,0l0-0.1
							c0.1-0.1,0.1-0.2,0.1-0.4l0-0.1l0-0.1l0-0.1c0,0,0-0.1,0-0.2c0,0,0-0.1,0-0.2c0-0.1,0-0.2,0-0.4c0-0.1,0-0.1,0-0.2
							c0-0.1,0-0.1,0-0.2c0-0.1,0-0.1,0-0.1l0,0l0-0.1l0-0.1c0,0,0-0.1,0-0.2c-0.1-0.1-0.1-0.2-0.1-0.4c0,0,0-0.1,0-0.2
							c0-0.1-0.1-0.2-0.1-0.4c0-0.1-0.1-0.1-0.1-0.2c-0.1-0.1-0.1-0.1-0.1-0.2c-0.1-0.1-0.1-0.1-0.1-0.2c-0.1-0.1-0.1-0.1-0.1-0.2
							c0-0.1-0.1-0.1-0.1-0.2c0-0.1-0.1-0.1-0.1-0.2c-0.1-0.2-0.1-0.4-0.2-0.5c-0.6-0.8-1.3-1.5-2-2.3l0.1,0
							c1.1-0.2,1.9-0.9,2.6-1.7c1.1,2.1,3.4,3.8,5.8,3.8c0.2,0,0.5-0.1,0.8-0.1c0.1,0,0.1,0,0.2,0c3.4,3.4,7.5,6.9,12.6,7
							c0.1,0,0.2,0,0.4,0c-0.5,0.9-1.1,1.7-1.8,2.6c-0.8,1-1.7,1.9-2.7,2.7c-5.4,4.3-12.5,6.8-19.4,5.1c-2.5-0.7-5-1.5-7.1-3
							C84.1,386.5,83.9,386.2,84,385.8z M64.4,379.9c0.6-0.7,1.7-0.9,2.6-1c0.7,0,1.2,0.4,1.8,0.6c0,0.1,0,0.2,0,0.4
							c0,0,0,0.1,0,0.2l0,0.1c0,0.1,0,0.1,0,0.2l0,0.1l0,0c0.1,0,0.1,0.1,0.1,0.1l0,0l0,0l0,0l0,0c0,0.1,0.1,0.1,0.1,0.2
							c0.1,0,0.1,0.1,0.1,0.1l0,0l0,0l0,0l0,0l0.1,0.1l0.1,0.1l0,0l0,0l0,0l0.1,0.1l0,0l0,0l0,0c0.1,0,0.1,0,0.1,0l0,0l0.1,0
							c0,0.1,0.1,0.1,0.1,0.1l0,0l0,0c0.1,0,0.1,0.1,0.2,0.1l0.1,0c0.1,0,0.1,0,0.1,0l0,0l0,0l0,0l0,0l0,0l0,0l0,0l0,0
							c0.1,0,0.1,0.1,0.2,0.1l0,0l0,0l0,0l0,0l0,0l0,0l0.1,0l0.1,0c0.1,0,0.1,0,0.1,0c0.1,0,0.1,0,0.1,0c0.1,0,0.1,0,0.1,0l0.1,0
							l0,0l0,0c-0.1,0-0.1-0.1-0.1-0.1l-0.1-0.1c-0.1,0-0.1-0.1-0.1-0.1c-0.1,0-0.1-0.1-0.1-0.1c-0.1,0-0.1-0.1-0.1-0.1
							c0-0.1-0.1-0.1-0.1-0.2l0-0.1l0-0.1l0-0.1l0,0c0-0.1,0-0.1,0-0.1c-0.2-0.8-0.4-1.9,0-2.7c0.4-0.6,0.6-1.2,1-1.7
							c0.8,1.1,2.2,2,3.1,2.6c2.8,1.9,5.9,3.4,9.1,4.3c-1.4,2.4-2.8,4.9-5.1,6.6c-0.8,0.6-1.9,0.8-2.8,1c-0.2,0-0.4,0-0.6,0
							c-0.2,0-0.4,0-0.6,0l0,0c-0.9-0.1-1.8-0.3-2.6-0.6c-2.6-1.2-4.9-2.5-6.9-4.4c-0.7-0.8-1.6-1.7-1.8-2.8
							C63.2,381.5,63.5,380.4,64.4,379.9z M62.1,380c-0.3-0.4-0.7-0.7-1-1.1c0.8-0.3,1.7-0.8,2.5-1.1
							C62.9,378.4,62.4,379.1,62.1,380z"/>
						<path d="M90.9,356.1c-1-1.9-3.8-2-5.4-0.6c-2.4,2.3-1,6.4,2.2,6.5c0.2,0,0.5-0.1,0.7-0.1C90.9,361.5,92.2,358.4,90.9,356.1z
							 M87.6,360.5c-0.1,0-0.2,0-0.2,0l0,0c-0.1,0-0.2-0.1-0.2-0.2c-0.2-0.7,0-1.5,0.6-2c0.4-0.2,0.7-0.5,1.1-0.5
							c0.5,0,0.8,0,1.2,0.4C90,359.4,89,360.7,87.6,360.5z M89.7,357L89.7,357c-0.5-0.1-1.1,0-1.5,0.1c-1.1,0.5-1.9,1.3-2,2.4
							c0,0.1,0,0.2,0,0.4c-0.8-1.4,0.3-3.9,2.4-3.5l0.1,0c0.1,0,0.1,0,0.1,0c0.1,0,0.1,0,0.1,0l0,0l0,0l0,0l0,0c0.1,0,0.1,0,0.1,0
							l0,0l0,0l0,0l0,0l0,0l0,0l0.1,0l0,0l0,0l0,0c0.1,0,0.1,0,0.1,0s0,0,0.1,0.1l0,0C89.5,356.5,89.5,356.6,89.7,357z"/>
					</g>
					<path d="M85.3,321.9c1-2.9,2.1-5.7,3.7-8.3c0.5-0.7,1-1.5,1.7-2c0.4-0.1,0.7,0,0.9,0.1c0.1,0.1,0.1,0.1,0.2,0.1
						c-2.3,3-4.1,6.4-5.2,10.3c-0.4,0.9-0.6,1.9-0.7,2.8l0,0c0.1,0,0.1,0,0.2,0c0.1,0,0.1,0,0.2,0c0.1-0.1,0.4-0.1,0.5-0.1
						c0.1,0,0.4,0,0.5,0c0.1,0,0.1,0,0.2,0c0.6-2.6,1.5-5.3,2.9-7.8c12.1-22,44.5-19,52.2,5c1.1,3.5,1.6,6.9,1.3,10.3
						c-0.1,0-0.2,0.1-0.4,0.1c-2,0.6-3.7,1.8-5.2,3.3c-3.3,3-5.4,7.3-5.9,11.8c-0.1,0.8-0.3,4,0.3,5.5c-5.3,4.2-12.3,6.4-19.9,5.6
						c-13.4-1.2-23-11.4-25.2-23.3c-0.2,0-0.4,0.1-0.6,0.1l0,0c-0.1,0.1-0.4,0.3-0.5,0.5c-0.1,0.2-0.4,0.3-0.5,0.5
						c2.8,13.2,14.6,23.9,28.9,24l0,0c1.1,0,2.2-0.1,3.4-0.2c5.6-0.5,10.9-2.7,15.3-6c0.2,0.1,0.4,0.1,0.5,0.2
						c0.5,0.2,0.8,0.5,1.3,0.7c0.6,0.2,1.4,1.1,2,0.7l0.1,0c0.1,0,0.4-0.1,0.5-0.1c1.8-0.2,3.4-1.1,4.7-2.4c1.4-1,2.6-2.4,3.6-3.9
						c1.2-1.4,1.8-3.1,2.5-4.9c1.2-2.7,1.5-5.7,1.3-8.7c0-0.1,0-0.1,0-0.2l0-0.1l0-0.1l0-0.1c0-0.1-0.1-0.1-0.1-0.2l0,0
						c-0.1,0-0.1-0.1-0.1-0.1c0-0.1-0.1-0.1-0.2-0.2c-0.1,0-0.2-0.1-0.3-0.2l0,0c-0.1-0.2-0.3-0.4-0.6-0.5c-0.9-0.6-1.9-1.2-2.9-1.7
						c0.4-6-1.2-12-4.1-17.2c0.1-0.2,0.1-0.5,0.2-0.6c0,0,0.1-0.1,0.1-0.2c0.4-0.7,0.8-1.5,1.2-2.2c0.1-0.1,0.2-0.3,0.2-0.5
						c0-0.1,0.1-0.1,0.1-0.2l0,0l0-0.1c0-0.1,0-0.2,0-0.4s0-0.2,0-0.4c0-0.1,0-0.2,0-0.4l0-0.1l0-0.1l0-0.1l0,0c0-0.1,0-0.1,0-0.1
						c-0.1,0-0.1-0.1-0.1-0.2l0,0c0-0.1-0.1-0.1-0.1-0.2c0-0.1-0.1-0.1-0.1-0.2c-0.1,0-0.1-0.1-0.2-0.2c-0.7-1.2-1.5-2.4-2.4-3.3
						c-3.1-3.3-8.5-7.5-13-8.6c-3.9-1-5.2-1.1-7.5,2.4c-0.1,0.2-0.5,0.6-0.7,0.9c-9.8-1.3-19.8,2.7-26.3,10
						c-1.1-0.5-2.5-1.1-3.4-0.2c-1.5,1.3-2.4,3.1-3.3,4.9c-1.1,1.9-1.7,4-2.4,6.1C83.8,322,85.3,322.5,85.3,321.9z M144.7,333.4
						c0.1,0,0.1,0,0.2,0c0.3,0.2,0.8,0.4,1.2,0.6c0.6,0.4,1.4,0.7,1.9,1.1c0.2,0.1,0.5,0.4,0.7,0.5c0,0,0,0.1,0,0.2
						c0.2,3.1-0.3,6.1-1.6,8.8c-1.2,2.9-3,5.6-5.5,7.4c-1.5,1.4-2.5,1.6-4.2,1.8c-0.2-0.2-0.6-0.4-0.8-0.5c-0.7-0.4-1.3-0.7-2-1.1
						c-0.1-0.4-0.3-0.7-0.3-1.1c-0.1-0.7-0.1-1.5-0.1-2.2c0.2-3.9,1.4-7.7,3.8-10.8c1.4-1.4,2.9-2.9,4.5-3.9
						C143.1,334,143.9,333.6,144.7,333.4z M125.3,301.5c-1.3-0.5-2.7-0.9-4-1.1c0.1-0.2,0.4-0.5,0.5-0.7c1.3-1.6,2-2.3,4.1-1.6
						c3.9,0.6,7.1,2.9,10.3,5.3c1.9,1.5,3.7,3.2,5.1,5.2c0.3,0.2,0.6,0.8,0.8,1.3c0,0.5,0,0.8-0.1,1.2c0,0.1-0.1,0.1-0.1,0.2
						c-0.4,0.7-0.7,1.3-1.1,2C137,307.9,131.7,303.4,125.3,301.5z M93,310.3c-0.1,0.1-0.1,0.1-0.2,0.2
						C92.8,310.4,92.9,310.4,93,310.3z"/>
					<path d="M144.8,335.9c-2.5,1.3-4.5,3.4-5.8,5.7c-0.7,1-1.3,2.3-1.7,3.6c-0.4,0.8-0.6,1.6-0.7,2.5c-0.2,1.3-0.1,2.6,0.2,3.9
						c0.3,0.8,1,1.2,1.7,1.2c0.4,0,0.8-0.1,1.2-0.3c2.5-1.1,4.1-3.4,5.6-5.6c0.5-0.8,1-1.6,1.3-2.4c0.4-1.1,0.7-2,1-2.9
						c0.4-1.8,1.1-3.6,0.3-5.3l0,0l0,0c-0.1-0.1-0.1-0.1-0.1-0.1c-0.1,0-0.1-0.1-0.1-0.1l-0.1-0.1l-0.1-0.1l-0.1-0.1l0,0
						c0-0.1-0.1-0.1-0.1-0.1l0,0l0,0l0,0l0,0l0,0l0,0l-0.1,0l-0.1,0l0,0l-0.1,0C146.1,335.5,145.4,335.8,144.8,335.9z M145.6,337.9
						c-0.3,2.2-1,4.3-2,6.3l0.1,0.1l0,0l0,0l0,0c0.1,0,0.1,0.1,0.2,0.1l0.1,0c0.1,0,0.1,0,0.1,0c0,0.1,0.1,0.1,0.1,0.1
						c0,0.1,0.1,0.1,0.1,0.1l0,0l0,0l0,0c0,0.1,0.1,0.1,0.1,0.1l0,0c0,0.1,0.1,0.1,0.1,0.1c0.1,0,0.1,0,0.1,0l0,0l0,0
						c0.1,0.1,0.2,0.1,0.3,0.2c0.1,0,0.1,0.1,0.2,0.1c-0.1,0.1-0.1,0.4-0.2,0.5c-0.2,0.5-0.5,0.8-0.7,1.3c-0.1-0.1-0.2-0.2-0.3-0.2
						c-0.1,0-0.1-0.1-0.2-0.1l0,0l0,0l0,0l0,0l0,0l0,0l0,0l-0.1,0c0-0.1-0.1-0.1-0.1-0.1l-0.1,0l-0.1-0.1l0,0l0,0l0,0l0,0l0,0l0,0
						l-0.1,0c0-0.1-0.1-0.1-0.1-0.1c-0.1,0-0.1-0.1-0.2-0.1l0,0l0,0l0,0l0,0l-0.1,0c-0.1,0-0.1,0-0.1,0l0,0l-0.1,0.1
						c-1,1.6-2.3,3.1-3.8,4.3c-0.1-0.2-0.1-0.5-0.1-0.7c0-0.1,0-0.4,0-0.5c0.1,0,0.1,0,0.2-0.1c1.2-1,2.1-2.3,3-3.7
						c-0.1,0-0.1-0.1-0.2-0.1c0-0.1-0.1-0.1-0.1-0.1c0-0.1-0.1-0.1-0.1-0.1c0-0.1-0.1-0.1-0.1-0.1c0-0.1-0.1-0.1-0.1-0.1
						c-0.1,0-0.1,0-0.1,0l0,0l0,0l0,0c-0.1,0-0.1-0.1-0.2-0.1l0,0l0,0l-0.1-0.1c-0.1,0-0.1-0.1-0.2-0.1c0-0.1-0.1-0.1-0.1-0.1
						c-0.1,0-0.1,0-0.1,0c-0.1-0.1-0.1-0.1-0.1-0.1l-0.1,0c0.2-0.5,0.5-1.1,0.8-1.5c0.1,0.1,0.3,0.2,0.6,0.4l0,0l0,0l0,0l0,0
						c0.1,0,0.1,0,0.1,0l0,0l0,0l0,0l0,0l0,0c0.1,0,0.1,0,0.1,0l0.1,0l0,0l0,0l0,0l0,0l0,0l0,0l0,0c0.1,0,0.1,0,0.1,0l0,0l0,0l0,0
						l0,0l0,0l0,0l0,0c0,0.1,0.1,0.1,0.1,0.1c0.1,0,0.1,0,0.1,0l0,0l0,0c0.8-1.5,1.3-3.3,1.7-4.9
						C144.3,338.1,144.7,337.9,145.6,337.9z M139.3,345.1L139.3,345.1c0.1,0.1,0.2,0.2,0.3,0.4c-0.2,0.2-0.4,0.3-0.5,0.6
						c-0.2,0.2-0.4,0.5-0.6,0.7C138.7,346.1,138.9,345.7,139.3,345.1z M146.4,340c-0.2,1.3-0.6,2.6-1.1,3.7l0,0
						c-0.1-0.1-0.3-0.2-0.6-0.4c0.8-2.1,1.5-4.2,1.7-6.4l0.1,0c0.1,0.4,0.2,0.6,0.2,0.9c0.1,0,0.1,0,0,0
						C147,338.6,146.6,339.3,146.4,340z M138.6,351.4C138.5,351.4,138.5,351.4,138.6,351.4c1.3-0.8,2.3-2.1,3.2-3.2
						c0.2-0.2,0.4-0.6,0.6-0.8c0.1,0,0.1,0.1,0.2,0.1c0.1,0.1,0.2,0.1,0.3,0.2C141.8,349.5,140.2,351.1,138.6,351.4L138.6,351.4z
						 M142.2,340.1c-0.2,0.5-0.4,1.1-0.6,1.5c-0.1-0.1-0.4-0.1-0.5-0.2C141.5,340.9,141.8,340.4,142.2,340.1z"/>
					<path d="M94.7,330.6c0.6,9.9,10.5,17.1,20,14.6c14.6-3.8,16.4-23.8,2.7-30.1C106.6,310,93.9,318.6,94.7,330.6z M97.9,323
						c4.9-9.8,18.7-10.6,24.8-1.5c5.8,8.5,0.8,20.2-9.2,22.2c-1.2,0.2-2.5,0.3-3.8,0.2C99.4,343.2,93.2,332.2,97.9,323z"/>
					<path d="M100,324.3c-4,7.9,2.3,17.3,11.1,16.6c8.8-0.5,13.6-10.9,8.4-18C114.6,316,103.8,316.9,100,324.3z M101.4,325
						c4.1-7.7,15.5-6.9,18.3,1.4c2.4,6.7-3.1,13.7-10.1,13.1C102.4,339,98.1,331.3,101.4,325z"/>
				</g>
				<g>
					<g>
						<path class="st7" d="M84,336.3L84,336.3L84,336.3L84,336.3L84,336.3L84,336.3C84,336.3,84.1,336.3,84,336.3z"/>
						<path class="st7" d="M99.3,371.9c0,0,0-0.1,0-0.2c0.1,0,0.1,0,0.1,0l0,0l0,0l0,0l0,0l0,0l0,0l0,0c0.1,0,0.1,0,0.1,0
							c0.1,0,0.1,0,0.1,0c0.1,0,0.1,0,0.1,0l0.1,0l0.1,0c0.1,0,0.1,0,0.1,0c0.1,0,0.1,0,0.1,0l0.1,0l0,0c0.1,0,0.1,0,0.2,0l0,0l0,0
							l0,0c0.1,0,0.1,0,0.1,0l0.1,0l0.1,0l0,0l0.1,0c0.1,0.2,0,0.5,0,0.7c-0.2,7.4-0.3,14.8-0.6,22.2c-0.1,7.4,0.2,14.7-0.3,21.9
							c0,0.5-0.4,0.7-0.7,0.7c-0.2,0-0.5,0-0.6-0.2c-0.3-0.4-0.1-0.9-0.1-1.4c0-0.8,0.1-1.8,0.1-2.7c0-2.7-0.1-5.3,0-8
							c0.1-4.7-0.1-9.4,0-14.1C99.4,384.4,99.2,378.1,99.3,371.9z"/>
						<path class="st7" d="M84.1,336.7L84.1,336.7L84.1,336.7L84.1,336.7c0.1,0,0.2,0-0.2-0.5l0.1,0l0.1,0l0.1,0c0.1,0,0.1,0,0.1,0
							l0.1,0l0.1,0c0.1,0,0.1,0,0.1,0l0,0c0,0.2,0,0.5,0,0.7c0.2,3.1,0.9,6.1,2.1,8.9c0.8,1.7,2,3.2,3.1,4.6
							c1.6,1.8,3.6,3.1,5.6,4.5c1,0.8,2.4,1.4,3.4,2.4c0.3,0.4,0.8,0.9,1,1.5l0,0l0,0l0,0l0,0c-0.1,0-0.1,0-0.1,0l0,0l0,0l0,0
							c-0.1,0-0.1,0-0.1,0c-0.1,0-0.1,0-0.1,0l0,0l0,0l0,0c-0.1,0-0.1,0-0.1,0l0,0l0,0l0,0l0,0l0,0c-0.1,0-0.1,0-0.1,0
							c-0.1,0-0.1,0-0.1,0l0,0l0,0l0,0l0,0l0,0c-0.1,0-0.1,0-0.1,0l0,0l0,0l0,0l0,0l0,0l0,0l0,0l0,0l0,0l0,0l-0.1,0l0,0
							c-0.1-0.1-0.1-0.1-0.1-0.1l0,0l0,0l0,0l0,0l0,0l0,0l0,0l0,0l0,0l0,0l0,0l0,0l0,0l0,0l0,0l0,0c-0.1,0-0.1,0-0.1,0
							c0-0.1-0.1-0.1-0.1-0.1l0,0l0,0c-0.2-0.2-0.5-0.5-0.8-0.6c-3.7-2.4-7.6-4.9-10-8.7C85.2,345.8,84.2,341,84.1,336.7L84.1,336.7
							L84.1,336.7z"/>
						<path class="st7" d="M84.7,305.7c0.2-6.1,0.4-12.3,0.6-18.4c0.6-27.3,0.8-54.8,2.1-82.1c0.3-17,0.9-34.1,1.3-51.2l1.4,0
							c-0.2,8.1-0.5,16.2-0.8,24.4c-0.3,9.3-0.3,18.5-0.7,27.7c-0.6,12.4-1,24.9-1.3,37.3C87,264,86.7,284.5,86,304.9
							c0,3.5-0.2,7.2-0.2,10.8c-0.3,2,0.4,6.9-0.8,7.2c-0.8-0.1-0.7-2.7-0.7-4.4C84.4,314.3,84.5,310.2,84.7,305.7z"/>
					</g>
				</g>
			</g>
		</g>
		<g>
			<g>
				<g>
					<g>
						<g>
							<g>
								<path class="st7" d="M309,252.3c-1.2,12.7-6.5,24.8-15.6,35.4c-12.1,14.1-33.1,31.9-71.4,41.1c0,0,31.1-8.7,46.8-24.2
									c-20.3,10.5-37,6.4-37,6.4c32.5,3.7,74.2-32.9,74.5-64c0.3-24.2-14.4-43.7-28.8-48.5c-9.7-3.3-19-2.2-25.7,6.8
									c-8.3,11.1-17.2,23.8-26.8,23.9c-19.3,0.2-36.4-26.3-47.7-40.6c-3.9-4.9-7.3-9.3-9.3-10.7l0.4-2.3c2.4,1.7,5.7,5.9,9.9,11.3
									c10.9,13.9,28.3,36.7,46.4,36.5c8.7-0.1,17.4-7.4,25.1-17.7c7.7-10.2,17.2-16,28.1-12.3c15.3,5.2,31.6,28.1,31.4,53.6
									C309.2,248.8,309.1,250.5,309,252.3z"/>
							</g>
						</g>
					</g>
				</g>
			</g>
			<g>
				<g>
					<g>
						<g>
							<g>
								<path class="st8" d="M56.2,168.9c2.5-36-7.1-77.8-7.1-77.8s38.4,4,66-12.2c12,39.3,58.5,102.5,58.5,102.5
									S97.4,170.6,56.2,168.9z"/>
							</g>
						</g>
					</g>
					<g>
						<path class="st7" d="M49,91c0,0,38.5,4.1,65.9-12.1c12,39.3,58.5,102.5,58.5,102.5L49,91z"/>
					</g>
					<g>
						<path class="st9" d="M115.1,78.9c12,39.3,58.5,102.5,58.5,102.5l-98.3-71.3C75.3,110.1,87.5,95,115.1,78.9z"/>
					</g>
					<g>
						<path class="st10" d="M56.2,168.9c2.5-36,19-58.7,19-58.7l98.3,71.3C173.5,181.4,97.4,170.6,56.2,168.9z"/>
					</g>
				</g>
			</g>
		</g>
	</g>
</g>
</svg>
