<?xml version="1.0" encoding="utf-8"?>
<!-- Generator: Adobe Illustrator 16.0.3, SVG Export Plug-In . SVG Version: 6.00 Build 0)  -->
<!DOCTYPE svg PUBLIC "-//W3C//DTD SVG 1.1//EN" "http://www.w3.org/Graphics/SVG/1.1/DTD/svg11.dtd">
<svg version="1.1" id="Capa_1" xmlns="http://www.w3.org/2000/svg" xmlns:xlink="http://www.w3.org/1999/xlink" x="0px" y="0px"
	 width="841.89px" height="595.28px" viewBox="0 0 841.89 595.28" enable-background="new 0 0 841.89 595.28" xml:space="preserve">
<g>
</g>
<g>
	<path fill="#FFFFFF" d="M6.548,88.426l97.198-26.994l129.477,298.13l1.238-0.344L191.657,37.016l97.198-26.995l120.357,433.365
		l-64.386,17.882l-91.128-328.12l-1.238,0.344l41.601,341.875l-56.957,15.818L96.448,176.821l-1.238,0.344l91.128,328.12
		l-59.433,16.506L6.548,88.426z"/>
</g>
<g>
	<path fill="#225CFF" d="M401.905,572.887c-21.623-14.86-36.664-39.999-45.142-75.411l-5.984-24.995l64.986-15.559l7.181,29.993
		c6.783,28.334,22.045,39.648,45.79,33.964c11.657-2.791,19.69-8.348,24.089-16.668c4.388-8.318,4.748-20.184,1.057-35.6
		c-4.388-18.327-12.42-33.468-24.092-45.436c-11.678-11.956-31.099-25.031-58.283-39.231
		c-34.317-18.212-59.507-36.068-75.593-53.586c-16.084-17.507-27.169-38.968-33.253-64.383c-8.277-34.572-5.936-63.429,7.021-86.578
		c12.96-23.141,36.094-38.703,69.427-46.683c32.903-7.877,60.07-4.358,81.479,10.554c21.41,14.921,36.354,40.083,44.83,75.486
		l4.338,18.121l-64.986,15.559l-5.385-22.495c-3.591-14.997-9.129-25.233-16.604-30.711c-7.483-5.476-16.84-6.87-28.087-4.177
		c-22.916,5.486-31.025,22.19-24.345,50.094c3.792,15.836,11.597,29.598,23.432,41.298c11.825,11.704,31.338,24.654,58.52,38.844
		c34.729,18.113,59.947,36.088,75.67,53.898c15.716,17.823,26.868,40.476,33.451,67.971c8.578,35.832,6.306,65.446-6.81,88.841
		c-13.122,23.404-36.547,39.141-70.29,47.219C450.988,591.196,423.521,587.759,401.905,572.887z"/>
</g>
<g>
	<path fill="#FFFFFF" d="M589.322,55.353l69.048,15.091l-39.1,178.897l74.07,16.188l39.1-178.897l69.048,15.091l-96.034,439.396
		l-69.048-15.091L679.621,328.3l-74.07-16.188l-43.215,197.728l-69.048-15.091L589.322,55.353z"/>
</g>
</svg>
